G04 EAGLE Gerber RS-274X export*
G75*
%MOMM*%
%FSLAX34Y34*%
%LPD*%
%INBottom layer*%
%IPPOS*%
%AMOC8*
5,1,8,0,0,1.08239X$1,22.5*%
G01*
%ADD10C,0.000000*%
%ADD11P,1.649562X8X292.500000*%
%ADD12P,1.814519X8X292.500000*%
%ADD13P,1.649562X8X112.500000*%
%ADD14P,1.484606X8X292.500000*%
%ADD15C,1.930400*%
%ADD16C,1.371600*%
%ADD17C,0.304800*%
%ADD18C,0.450000*%
%ADD19C,0.152400*%
%ADD20C,0.525000*%

G36*
X1496718Y2544D02*
X1496718Y2544D01*
X1496737Y2542D01*
X1496839Y2564D01*
X1496941Y2580D01*
X1496958Y2590D01*
X1496978Y2594D01*
X1497067Y2647D01*
X1497158Y2696D01*
X1497172Y2710D01*
X1497189Y2720D01*
X1497256Y2799D01*
X1497328Y2874D01*
X1497336Y2892D01*
X1497349Y2907D01*
X1497388Y3003D01*
X1497431Y3097D01*
X1497433Y3117D01*
X1497441Y3135D01*
X1497459Y3302D01*
X1497459Y996698D01*
X1497456Y996718D01*
X1497458Y996737D01*
X1497436Y996839D01*
X1497420Y996941D01*
X1497410Y996958D01*
X1497406Y996978D01*
X1497353Y997067D01*
X1497304Y997158D01*
X1497290Y997172D01*
X1497280Y997189D01*
X1497201Y997256D01*
X1497126Y997328D01*
X1497108Y997336D01*
X1497093Y997349D01*
X1496997Y997388D01*
X1496903Y997431D01*
X1496883Y997433D01*
X1496865Y997441D01*
X1496698Y997459D01*
X3302Y997459D01*
X3282Y997456D01*
X3263Y997458D01*
X3161Y997436D01*
X3059Y997420D01*
X3042Y997410D01*
X3022Y997406D01*
X2933Y997353D01*
X2842Y997304D01*
X2828Y997290D01*
X2811Y997280D01*
X2744Y997201D01*
X2672Y997126D01*
X2664Y997108D01*
X2651Y997093D01*
X2612Y996997D01*
X2569Y996903D01*
X2567Y996883D01*
X2559Y996865D01*
X2541Y996698D01*
X2541Y3302D01*
X2544Y3282D01*
X2542Y3263D01*
X2564Y3161D01*
X2580Y3059D01*
X2590Y3042D01*
X2594Y3022D01*
X2647Y2933D01*
X2696Y2842D01*
X2710Y2828D01*
X2720Y2811D01*
X2799Y2744D01*
X2874Y2672D01*
X2892Y2664D01*
X2907Y2651D01*
X3003Y2612D01*
X3097Y2569D01*
X3117Y2567D01*
X3135Y2559D01*
X3302Y2541D01*
X1496698Y2541D01*
X1496718Y2544D01*
G37*
%LPC*%
G36*
X322903Y64769D02*
X322903Y64769D01*
X301028Y86644D01*
X300954Y86697D01*
X300884Y86757D01*
X300854Y86769D01*
X300828Y86788D01*
X300741Y86815D01*
X300656Y86849D01*
X300615Y86853D01*
X300593Y86860D01*
X300561Y86859D01*
X300489Y86867D01*
X53840Y86867D01*
X53750Y86853D01*
X53659Y86845D01*
X53630Y86833D01*
X53598Y86828D01*
X53517Y86785D01*
X53433Y86749D01*
X53401Y86723D01*
X53380Y86712D01*
X53358Y86689D01*
X53302Y86644D01*
X52763Y86105D01*
X51695Y86105D01*
X51624Y86094D01*
X51553Y86092D01*
X51504Y86074D01*
X51452Y86066D01*
X51389Y86032D01*
X51322Y86007D01*
X51281Y85975D01*
X51235Y85950D01*
X51186Y85898D01*
X51130Y85854D01*
X51101Y85810D01*
X51066Y85772D01*
X51035Y85707D01*
X50997Y85647D01*
X50984Y85596D01*
X50962Y85549D01*
X50954Y85478D01*
X50937Y85408D01*
X50941Y85356D01*
X50935Y85305D01*
X50950Y85234D01*
X50956Y85163D01*
X50976Y85115D01*
X50987Y85064D01*
X51024Y85003D01*
X51052Y84937D01*
X51097Y84881D01*
X51113Y84853D01*
X51131Y84838D01*
X51157Y84806D01*
X55905Y80058D01*
X55905Y72482D01*
X50548Y67125D01*
X42972Y67125D01*
X37615Y72482D01*
X37615Y80058D01*
X42363Y84806D01*
X42405Y84864D01*
X42454Y84916D01*
X42476Y84963D01*
X42507Y85005D01*
X42528Y85074D01*
X42558Y85139D01*
X42564Y85191D01*
X42579Y85241D01*
X42577Y85312D01*
X42585Y85383D01*
X42574Y85434D01*
X42573Y85486D01*
X42548Y85554D01*
X42533Y85624D01*
X42506Y85669D01*
X42488Y85717D01*
X42443Y85773D01*
X42407Y85835D01*
X42367Y85869D01*
X42335Y85909D01*
X42274Y85948D01*
X42220Y85995D01*
X42171Y86014D01*
X42128Y86042D01*
X42058Y86060D01*
X41992Y86087D01*
X41920Y86095D01*
X41889Y86103D01*
X41866Y86101D01*
X41825Y86105D01*
X34105Y86105D01*
X26955Y93255D01*
X26938Y93267D01*
X26926Y93283D01*
X26839Y93339D01*
X26755Y93399D01*
X26736Y93405D01*
X26719Y93416D01*
X26619Y93441D01*
X26520Y93471D01*
X26500Y93471D01*
X26481Y93476D01*
X26378Y93468D01*
X26274Y93465D01*
X26255Y93458D01*
X26235Y93457D01*
X26141Y93416D01*
X26043Y93381D01*
X26027Y93368D01*
X26009Y93360D01*
X25878Y93255D01*
X25148Y92525D01*
X17572Y92525D01*
X12215Y97882D01*
X12215Y105458D01*
X17572Y110815D01*
X25148Y110815D01*
X30505Y105458D01*
X30505Y97882D01*
X30189Y97566D01*
X30177Y97550D01*
X30161Y97537D01*
X30105Y97450D01*
X30045Y97366D01*
X30039Y97347D01*
X30028Y97330D01*
X30003Y97230D01*
X29973Y97131D01*
X29973Y97111D01*
X29968Y97092D01*
X29976Y96989D01*
X29979Y96885D01*
X29986Y96866D01*
X29987Y96847D01*
X30028Y96752D01*
X30063Y96654D01*
X30076Y96639D01*
X30084Y96620D01*
X30189Y96489D01*
X35776Y90902D01*
X35850Y90849D01*
X35920Y90789D01*
X35950Y90777D01*
X35976Y90758D01*
X36063Y90731D01*
X36148Y90697D01*
X36189Y90693D01*
X36211Y90686D01*
X36243Y90687D01*
X36315Y90679D01*
X50553Y90679D01*
X50644Y90693D01*
X50734Y90701D01*
X50764Y90713D01*
X50796Y90718D01*
X50877Y90761D01*
X50961Y90797D01*
X50993Y90823D01*
X51014Y90834D01*
X51036Y90857D01*
X51092Y90902D01*
X51631Y91441D01*
X302699Y91441D01*
X305115Y89025D01*
X305131Y89014D01*
X305143Y88998D01*
X305230Y88942D01*
X305314Y88882D01*
X305333Y88876D01*
X305350Y88865D01*
X305451Y88840D01*
X305549Y88809D01*
X305569Y88810D01*
X305589Y88805D01*
X305692Y88813D01*
X305795Y88816D01*
X305814Y88823D01*
X305834Y88824D01*
X305929Y88865D01*
X306026Y88900D01*
X306042Y88913D01*
X306060Y88921D01*
X306191Y89025D01*
X308570Y91405D01*
X311698Y91405D01*
X313909Y89194D01*
X313909Y87405D01*
X313923Y87314D01*
X313931Y87224D01*
X313943Y87194D01*
X313948Y87162D01*
X313991Y87081D01*
X314027Y86997D01*
X314053Y86965D01*
X314064Y86944D01*
X314087Y86922D01*
X314132Y86866D01*
X328384Y72614D01*
X328458Y72561D01*
X328528Y72501D01*
X328558Y72489D01*
X328584Y72470D01*
X328671Y72443D01*
X328756Y72409D01*
X328797Y72405D01*
X328819Y72398D01*
X328851Y72399D01*
X328923Y72391D01*
X475749Y72391D01*
X475840Y72405D01*
X475930Y72413D01*
X475960Y72425D01*
X475992Y72430D01*
X476073Y72473D01*
X476157Y72509D01*
X476189Y72535D01*
X476210Y72546D01*
X476232Y72569D01*
X476288Y72614D01*
X490004Y86330D01*
X490046Y86388D01*
X490095Y86440D01*
X490117Y86487D01*
X490147Y86529D01*
X490168Y86598D01*
X490199Y86663D01*
X490204Y86715D01*
X490220Y86765D01*
X490218Y86836D01*
X490226Y86907D01*
X490215Y86958D01*
X490213Y87010D01*
X490189Y87078D01*
X490174Y87148D01*
X490147Y87193D01*
X490129Y87241D01*
X490084Y87297D01*
X490047Y87359D01*
X490008Y87393D01*
X489975Y87433D01*
X489915Y87472D01*
X489860Y87519D01*
X489812Y87538D01*
X489768Y87566D01*
X489699Y87584D01*
X489632Y87611D01*
X489561Y87619D01*
X489530Y87627D01*
X489506Y87625D01*
X489466Y87629D01*
X450661Y87629D01*
X450571Y87615D01*
X450480Y87607D01*
X450450Y87595D01*
X450418Y87590D01*
X450337Y87547D01*
X450254Y87511D01*
X450221Y87485D01*
X450201Y87474D01*
X450179Y87451D01*
X450123Y87406D01*
X448858Y86141D01*
X445730Y86141D01*
X444465Y87406D01*
X444391Y87459D01*
X444322Y87519D01*
X444292Y87531D01*
X444266Y87550D01*
X444179Y87577D01*
X444094Y87611D01*
X444053Y87615D01*
X444031Y87622D01*
X443998Y87621D01*
X443927Y87629D01*
X401844Y87629D01*
X401824Y87626D01*
X401805Y87628D01*
X401703Y87606D01*
X401601Y87590D01*
X401584Y87580D01*
X401564Y87576D01*
X401475Y87523D01*
X401384Y87474D01*
X401370Y87460D01*
X401353Y87450D01*
X401286Y87371D01*
X401214Y87296D01*
X401206Y87278D01*
X401193Y87263D01*
X401154Y87167D01*
X401111Y87073D01*
X401109Y87053D01*
X401101Y87035D01*
X401083Y86868D01*
X401083Y81475D01*
X399807Y78394D01*
X397448Y76035D01*
X394367Y74759D01*
X391033Y74759D01*
X387952Y76035D01*
X385593Y78394D01*
X384317Y81475D01*
X384317Y98525D01*
X385593Y101606D01*
X387952Y103965D01*
X391033Y105241D01*
X394367Y105241D01*
X397448Y103965D01*
X399807Y101606D01*
X401083Y98525D01*
X401083Y94488D01*
X401086Y94468D01*
X401084Y94449D01*
X401106Y94347D01*
X401122Y94245D01*
X401132Y94228D01*
X401136Y94208D01*
X401189Y94119D01*
X401238Y94028D01*
X401252Y94014D01*
X401262Y93997D01*
X401341Y93930D01*
X401416Y93858D01*
X401434Y93850D01*
X401449Y93837D01*
X401545Y93798D01*
X401639Y93755D01*
X401659Y93753D01*
X401677Y93745D01*
X401844Y93727D01*
X489912Y93727D01*
X490002Y93741D01*
X490093Y93749D01*
X490123Y93761D01*
X490155Y93766D01*
X490235Y93809D01*
X490319Y93845D01*
X490351Y93871D01*
X490372Y93882D01*
X490394Y93905D01*
X490450Y93950D01*
X524227Y127726D01*
X524238Y127743D01*
X524254Y127755D01*
X524310Y127842D01*
X524370Y127926D01*
X524376Y127945D01*
X524387Y127962D01*
X524412Y128062D01*
X524443Y128161D01*
X524442Y128181D01*
X524447Y128200D01*
X524439Y128303D01*
X524436Y128407D01*
X524429Y128426D01*
X524428Y128446D01*
X524388Y128541D01*
X524352Y128638D01*
X524339Y128654D01*
X524332Y128672D01*
X524227Y128803D01*
X522951Y130078D01*
X522877Y130131D01*
X522808Y130191D01*
X522778Y130203D01*
X522752Y130222D01*
X522664Y130249D01*
X522580Y130283D01*
X522539Y130287D01*
X522517Y130294D01*
X522484Y130293D01*
X522413Y130301D01*
X489019Y130301D01*
X428282Y191038D01*
X428208Y191091D01*
X428138Y191151D01*
X428108Y191163D01*
X428082Y191182D01*
X427995Y191209D01*
X427910Y191243D01*
X427869Y191247D01*
X427847Y191254D01*
X427815Y191253D01*
X427743Y191261D01*
X271591Y191261D01*
X271501Y191247D01*
X271410Y191239D01*
X271380Y191227D01*
X271348Y191222D01*
X271267Y191179D01*
X271184Y191143D01*
X271151Y191117D01*
X271131Y191106D01*
X271109Y191083D01*
X271053Y191038D01*
X269788Y189773D01*
X266660Y189773D01*
X264281Y192153D01*
X264265Y192164D01*
X264252Y192180D01*
X264165Y192236D01*
X264081Y192296D01*
X264062Y192302D01*
X264046Y192313D01*
X263945Y192338D01*
X263846Y192369D01*
X263826Y192368D01*
X263807Y192373D01*
X263704Y192365D01*
X263600Y192362D01*
X263582Y192355D01*
X263562Y192354D01*
X263467Y192313D01*
X263369Y192278D01*
X263354Y192265D01*
X263335Y192257D01*
X263205Y192153D01*
X260792Y189740D01*
X260739Y189666D01*
X260679Y189596D01*
X260667Y189566D01*
X260648Y189540D01*
X260621Y189453D01*
X260587Y189368D01*
X260583Y189327D01*
X260576Y189305D01*
X260577Y189273D01*
X260569Y189202D01*
X260569Y187412D01*
X258358Y185201D01*
X255230Y185201D01*
X253019Y187412D01*
X253019Y190540D01*
X255230Y192751D01*
X257020Y192751D01*
X257110Y192765D01*
X257201Y192773D01*
X257230Y192785D01*
X257262Y192790D01*
X257343Y192833D01*
X257427Y192869D01*
X257459Y192895D01*
X257480Y192906D01*
X257502Y192929D01*
X257558Y192974D01*
X282478Y217894D01*
X284041Y219457D01*
X448318Y219457D01*
X448388Y219468D01*
X448460Y219470D01*
X448509Y219488D01*
X448560Y219496D01*
X448624Y219530D01*
X448691Y219555D01*
X448732Y219587D01*
X448778Y219612D01*
X448827Y219664D01*
X448883Y219708D01*
X448911Y219752D01*
X448947Y219790D01*
X448977Y219855D01*
X449016Y219915D01*
X449029Y219966D01*
X449051Y220013D01*
X449059Y220084D01*
X449076Y220154D01*
X449072Y220206D01*
X449078Y220257D01*
X449063Y220328D01*
X449057Y220399D01*
X449037Y220447D01*
X449026Y220498D01*
X448989Y220559D01*
X448961Y220625D01*
X448916Y220681D01*
X448899Y220709D01*
X448882Y220724D01*
X448856Y220756D01*
X364274Y305338D01*
X364200Y305391D01*
X364130Y305451D01*
X364100Y305463D01*
X364074Y305482D01*
X363987Y305509D01*
X363902Y305543D01*
X363861Y305547D01*
X363839Y305554D01*
X363807Y305553D01*
X363735Y305561D01*
X361507Y305561D01*
X361417Y305547D01*
X361326Y305539D01*
X361296Y305527D01*
X361264Y305522D01*
X361183Y305479D01*
X361100Y305443D01*
X361067Y305417D01*
X361047Y305406D01*
X361025Y305383D01*
X360969Y305338D01*
X359704Y304073D01*
X356576Y304073D01*
X354365Y306284D01*
X354365Y309372D01*
X354362Y309392D01*
X354364Y309411D01*
X354342Y309513D01*
X354326Y309615D01*
X354316Y309632D01*
X354312Y309652D01*
X354259Y309741D01*
X354210Y309832D01*
X354196Y309846D01*
X354186Y309863D01*
X354107Y309930D01*
X354032Y310002D01*
X354014Y310010D01*
X353999Y310023D01*
X353903Y310062D01*
X353809Y310105D01*
X353789Y310107D01*
X353771Y310115D01*
X353604Y310133D01*
X344478Y310133D01*
X344388Y310119D01*
X344297Y310111D01*
X344267Y310099D01*
X344235Y310094D01*
X344155Y310051D01*
X344071Y310015D01*
X344039Y309989D01*
X344018Y309978D01*
X343996Y309955D01*
X343940Y309910D01*
X209579Y175550D01*
X209568Y175533D01*
X209552Y175521D01*
X209496Y175434D01*
X209436Y175350D01*
X209430Y175331D01*
X209419Y175314D01*
X209394Y175214D01*
X209363Y175115D01*
X209364Y175095D01*
X209359Y175076D01*
X209367Y174973D01*
X209370Y174869D01*
X209377Y174850D01*
X209378Y174830D01*
X209418Y174736D01*
X209454Y174638D01*
X209467Y174622D01*
X209474Y174604D01*
X209579Y174473D01*
X210855Y173198D01*
X210929Y173145D01*
X210998Y173085D01*
X211028Y173073D01*
X211054Y173054D01*
X211142Y173027D01*
X211226Y172993D01*
X211267Y172989D01*
X211289Y172982D01*
X211322Y172983D01*
X211393Y172975D01*
X428429Y172975D01*
X477010Y124394D01*
X477084Y124341D01*
X477154Y124281D01*
X477184Y124269D01*
X477210Y124250D01*
X477297Y124223D01*
X477382Y124189D01*
X477423Y124185D01*
X477445Y124178D01*
X477477Y124179D01*
X477549Y124171D01*
X479338Y124171D01*
X481549Y121960D01*
X481549Y118832D01*
X479338Y116621D01*
X476210Y116621D01*
X473999Y118832D01*
X473999Y120621D01*
X473985Y120712D01*
X473977Y120802D01*
X473965Y120832D01*
X473960Y120864D01*
X473917Y120945D01*
X473881Y121029D01*
X473855Y121061D01*
X473844Y121082D01*
X473821Y121104D01*
X473776Y121160D01*
X451642Y143294D01*
X451584Y143336D01*
X451532Y143385D01*
X451485Y143407D01*
X451443Y143437D01*
X451374Y143458D01*
X451309Y143489D01*
X451257Y143494D01*
X451207Y143510D01*
X451136Y143508D01*
X451065Y143516D01*
X451014Y143505D01*
X450962Y143503D01*
X450894Y143479D01*
X450824Y143464D01*
X450779Y143437D01*
X450731Y143419D01*
X450675Y143374D01*
X450613Y143337D01*
X450579Y143298D01*
X450539Y143265D01*
X450500Y143205D01*
X450453Y143150D01*
X450434Y143102D01*
X450406Y143058D01*
X450388Y142989D01*
X450361Y142922D01*
X450353Y142851D01*
X450345Y142820D01*
X450347Y142796D01*
X450343Y142756D01*
X450343Y106237D01*
X450357Y106147D01*
X450365Y106056D01*
X450377Y106026D01*
X450382Y105994D01*
X450425Y105913D01*
X450461Y105830D01*
X450487Y105797D01*
X450498Y105777D01*
X450521Y105755D01*
X450566Y105699D01*
X451069Y105196D01*
X451069Y102068D01*
X448858Y99857D01*
X445730Y99857D01*
X443519Y102068D01*
X443519Y105196D01*
X444022Y105699D01*
X444075Y105773D01*
X444135Y105842D01*
X444147Y105872D01*
X444166Y105898D01*
X444193Y105985D01*
X444227Y106070D01*
X444231Y106111D01*
X444238Y106133D01*
X444237Y106166D01*
X444245Y106237D01*
X444245Y142440D01*
X444231Y142530D01*
X444223Y142621D01*
X444211Y142651D01*
X444206Y142683D01*
X444163Y142763D01*
X444127Y142847D01*
X444101Y142879D01*
X444090Y142900D01*
X444067Y142922D01*
X444022Y142978D01*
X431740Y155260D01*
X431666Y155313D01*
X431597Y155373D01*
X431567Y155385D01*
X431540Y155404D01*
X431453Y155431D01*
X431369Y155465D01*
X431328Y155469D01*
X431305Y155476D01*
X431273Y155475D01*
X431202Y155483D01*
X430490Y155483D01*
X428279Y157694D01*
X428279Y160822D01*
X430659Y163201D01*
X430670Y163217D01*
X430686Y163230D01*
X430742Y163317D01*
X430802Y163401D01*
X430808Y163420D01*
X430819Y163436D01*
X430844Y163537D01*
X430875Y163636D01*
X430874Y163656D01*
X430879Y163675D01*
X430871Y163778D01*
X430868Y163882D01*
X430861Y163900D01*
X430860Y163920D01*
X430819Y164015D01*
X430784Y164113D01*
X430771Y164128D01*
X430763Y164146D01*
X430659Y164277D01*
X426758Y168178D01*
X426684Y168231D01*
X426614Y168291D01*
X426584Y168303D01*
X426558Y168322D01*
X426471Y168349D01*
X426386Y168383D01*
X426345Y168387D01*
X426323Y168394D01*
X426291Y168393D01*
X426219Y168401D01*
X404586Y168401D01*
X404566Y168398D01*
X404547Y168400D01*
X404445Y168378D01*
X404343Y168362D01*
X404326Y168352D01*
X404306Y168348D01*
X404217Y168295D01*
X404126Y168246D01*
X404112Y168232D01*
X404095Y168222D01*
X404028Y168143D01*
X403956Y168068D01*
X403948Y168050D01*
X403935Y168035D01*
X403896Y167939D01*
X403853Y167845D01*
X403851Y167825D01*
X403843Y167807D01*
X403825Y167640D01*
X403825Y164552D01*
X403322Y164049D01*
X403269Y163975D01*
X403209Y163906D01*
X403197Y163876D01*
X403178Y163850D01*
X403151Y163763D01*
X403117Y163678D01*
X403113Y163637D01*
X403106Y163615D01*
X403107Y163582D01*
X403099Y163511D01*
X403099Y132849D01*
X401090Y130840D01*
X387125Y116876D01*
X387114Y116859D01*
X387098Y116847D01*
X387042Y116760D01*
X386982Y116676D01*
X386976Y116657D01*
X386965Y116640D01*
X386940Y116540D01*
X386909Y116441D01*
X386910Y116421D01*
X386905Y116402D01*
X386913Y116299D01*
X386916Y116195D01*
X386923Y116176D01*
X386924Y116156D01*
X386964Y116061D01*
X387000Y115964D01*
X387013Y115948D01*
X387020Y115930D01*
X387125Y115799D01*
X388401Y114524D01*
X388475Y114471D01*
X388544Y114411D01*
X388574Y114399D01*
X388600Y114380D01*
X388688Y114353D01*
X388772Y114319D01*
X388813Y114315D01*
X388835Y114308D01*
X388868Y114309D01*
X388939Y114301D01*
X434783Y114301D01*
X434873Y114315D01*
X434964Y114323D01*
X434994Y114335D01*
X435026Y114340D01*
X435107Y114383D01*
X435190Y114419D01*
X435223Y114445D01*
X435243Y114456D01*
X435265Y114479D01*
X435321Y114524D01*
X436586Y115789D01*
X439714Y115789D01*
X441925Y113578D01*
X441925Y110450D01*
X439714Y108239D01*
X436586Y108239D01*
X435321Y109504D01*
X435247Y109557D01*
X435178Y109617D01*
X435148Y109629D01*
X435122Y109648D01*
X435035Y109675D01*
X434950Y109709D01*
X434909Y109713D01*
X434887Y109720D01*
X434854Y109719D01*
X434783Y109727D01*
X388939Y109727D01*
X388849Y109713D01*
X388758Y109705D01*
X388728Y109693D01*
X388696Y109688D01*
X388615Y109645D01*
X388532Y109609D01*
X388499Y109583D01*
X388479Y109572D01*
X388457Y109549D01*
X388401Y109504D01*
X387136Y108239D01*
X384008Y108239D01*
X381787Y110461D01*
X381771Y110472D01*
X381758Y110488D01*
X381671Y110544D01*
X381587Y110604D01*
X381568Y110610D01*
X381551Y110621D01*
X381451Y110646D01*
X381352Y110677D01*
X381332Y110676D01*
X381313Y110681D01*
X381210Y110673D01*
X381106Y110670D01*
X381087Y110663D01*
X381068Y110662D01*
X380973Y110622D01*
X380875Y110586D01*
X380860Y110573D01*
X380841Y110566D01*
X380710Y110461D01*
X373670Y103420D01*
X373658Y103404D01*
X373642Y103391D01*
X373586Y103304D01*
X373526Y103220D01*
X373520Y103201D01*
X373509Y103184D01*
X373484Y103084D01*
X373454Y102985D01*
X373454Y102965D01*
X373449Y102946D01*
X373457Y102843D01*
X373460Y102739D01*
X373467Y102720D01*
X373468Y102701D01*
X373509Y102606D01*
X373544Y102508D01*
X373557Y102493D01*
X373565Y102474D01*
X373670Y102343D01*
X374407Y101606D01*
X375683Y98525D01*
X375683Y81475D01*
X374407Y78394D01*
X372048Y76035D01*
X368967Y74759D01*
X365633Y74759D01*
X362552Y76035D01*
X360193Y78394D01*
X358917Y81475D01*
X358917Y98525D01*
X360193Y101606D01*
X362552Y103965D01*
X365633Y105241D01*
X366552Y105241D01*
X366642Y105255D01*
X366733Y105263D01*
X366763Y105275D01*
X366795Y105280D01*
X366875Y105323D01*
X366959Y105359D01*
X366991Y105385D01*
X367012Y105396D01*
X367034Y105419D01*
X367090Y105464D01*
X396778Y135152D01*
X396831Y135226D01*
X396891Y135295D01*
X396903Y135325D01*
X396922Y135352D01*
X396949Y135439D01*
X396983Y135523D01*
X396987Y135564D01*
X396994Y135587D01*
X396993Y135619D01*
X397001Y135690D01*
X397001Y163511D01*
X396987Y163601D01*
X396979Y163692D01*
X396967Y163722D01*
X396962Y163754D01*
X396919Y163835D01*
X396883Y163918D01*
X396857Y163951D01*
X396846Y163971D01*
X396823Y163993D01*
X396778Y164049D01*
X396275Y164552D01*
X396275Y167640D01*
X396272Y167660D01*
X396274Y167679D01*
X396252Y167781D01*
X396236Y167883D01*
X396226Y167900D01*
X396222Y167920D01*
X396169Y168009D01*
X396120Y168100D01*
X396106Y168114D01*
X396096Y168131D01*
X396017Y168198D01*
X395942Y168270D01*
X395924Y168278D01*
X395909Y168291D01*
X395813Y168330D01*
X395719Y168373D01*
X395699Y168375D01*
X395681Y168383D01*
X395514Y168401D01*
X211393Y168401D01*
X211303Y168387D01*
X211212Y168379D01*
X211182Y168367D01*
X211150Y168362D01*
X211069Y168319D01*
X210986Y168283D01*
X210953Y168257D01*
X210933Y168246D01*
X210911Y168223D01*
X210855Y168178D01*
X209590Y166913D01*
X206462Y166913D01*
X204241Y169135D01*
X204225Y169146D01*
X204212Y169162D01*
X204125Y169218D01*
X204041Y169278D01*
X204022Y169284D01*
X204005Y169295D01*
X203905Y169320D01*
X203806Y169351D01*
X203786Y169350D01*
X203767Y169355D01*
X203664Y169347D01*
X203560Y169344D01*
X203541Y169337D01*
X203522Y169336D01*
X203427Y169296D01*
X203329Y169260D01*
X203314Y169247D01*
X203295Y169240D01*
X203164Y169135D01*
X169352Y135322D01*
X169299Y135248D01*
X169239Y135179D01*
X169227Y135149D01*
X169208Y135122D01*
X169181Y135035D01*
X169147Y134951D01*
X169143Y134910D01*
X169136Y134887D01*
X169137Y134855D01*
X169129Y134784D01*
X169129Y134072D01*
X166918Y131861D01*
X163790Y131861D01*
X161411Y134241D01*
X161395Y134252D01*
X161382Y134268D01*
X161295Y134324D01*
X161211Y134384D01*
X161192Y134390D01*
X161176Y134401D01*
X161075Y134426D01*
X160976Y134457D01*
X160956Y134456D01*
X160937Y134461D01*
X160834Y134453D01*
X160730Y134450D01*
X160712Y134443D01*
X160692Y134442D01*
X160597Y134401D01*
X160499Y134366D01*
X160484Y134353D01*
X160465Y134345D01*
X160335Y134241D01*
X138107Y112013D01*
X51631Y112013D01*
X51092Y112552D01*
X51018Y112605D01*
X50948Y112665D01*
X50918Y112677D01*
X50892Y112696D01*
X50805Y112723D01*
X50720Y112757D01*
X50679Y112761D01*
X50657Y112768D01*
X50625Y112767D01*
X50553Y112775D01*
X32581Y112775D01*
X31018Y114338D01*
X26828Y118528D01*
X26811Y118540D01*
X26799Y118556D01*
X26712Y118612D01*
X26628Y118672D01*
X26609Y118678D01*
X26592Y118689D01*
X26492Y118714D01*
X26393Y118744D01*
X26373Y118744D01*
X26354Y118749D01*
X26251Y118741D01*
X26147Y118738D01*
X26128Y118731D01*
X26108Y118730D01*
X26013Y118689D01*
X25916Y118654D01*
X25900Y118641D01*
X25882Y118633D01*
X25751Y118528D01*
X25148Y117925D01*
X17572Y117925D01*
X12215Y123282D01*
X12215Y130858D01*
X17572Y136215D01*
X25148Y136215D01*
X30505Y130858D01*
X30505Y123282D01*
X30062Y122839D01*
X30050Y122823D01*
X30034Y122810D01*
X29978Y122723D01*
X29918Y122639D01*
X29912Y122620D01*
X29901Y122603D01*
X29876Y122503D01*
X29846Y122404D01*
X29846Y122384D01*
X29841Y122365D01*
X29849Y122262D01*
X29852Y122158D01*
X29859Y122139D01*
X29860Y122120D01*
X29901Y122025D01*
X29936Y121927D01*
X29949Y121912D01*
X29957Y121893D01*
X30062Y121762D01*
X34252Y117572D01*
X34326Y117519D01*
X34396Y117459D01*
X34426Y117447D01*
X34452Y117428D01*
X34539Y117401D01*
X34624Y117367D01*
X34665Y117363D01*
X34687Y117356D01*
X34719Y117357D01*
X34791Y117349D01*
X41711Y117349D01*
X41782Y117360D01*
X41853Y117362D01*
X41902Y117380D01*
X41954Y117388D01*
X42017Y117422D01*
X42084Y117447D01*
X42125Y117479D01*
X42171Y117504D01*
X42220Y117556D01*
X42276Y117600D01*
X42305Y117644D01*
X42340Y117682D01*
X42371Y117747D01*
X42409Y117807D01*
X42422Y117858D01*
X42444Y117905D01*
X42452Y117976D01*
X42469Y118046D01*
X42465Y118098D01*
X42471Y118149D01*
X42456Y118220D01*
X42450Y118291D01*
X42430Y118339D01*
X42419Y118390D01*
X42382Y118451D01*
X42354Y118517D01*
X42309Y118573D01*
X42293Y118601D01*
X42275Y118616D01*
X42249Y118648D01*
X37615Y123282D01*
X37615Y130858D01*
X42972Y136215D01*
X50548Y136215D01*
X55905Y130858D01*
X55905Y123282D01*
X51271Y118648D01*
X51229Y118590D01*
X51180Y118538D01*
X51158Y118491D01*
X51127Y118449D01*
X51106Y118380D01*
X51076Y118315D01*
X51070Y118263D01*
X51055Y118213D01*
X51057Y118142D01*
X51049Y118071D01*
X51060Y118020D01*
X51061Y117968D01*
X51086Y117900D01*
X51101Y117830D01*
X51128Y117785D01*
X51146Y117737D01*
X51191Y117681D01*
X51227Y117619D01*
X51267Y117585D01*
X51299Y117545D01*
X51360Y117506D01*
X51414Y117459D01*
X51463Y117440D01*
X51506Y117412D01*
X51576Y117394D01*
X51642Y117367D01*
X51714Y117359D01*
X51745Y117351D01*
X51768Y117353D01*
X51809Y117349D01*
X52763Y117349D01*
X53302Y116810D01*
X53376Y116757D01*
X53446Y116697D01*
X53476Y116685D01*
X53502Y116666D01*
X53589Y116639D01*
X53674Y116605D01*
X53715Y116601D01*
X53737Y116594D01*
X53769Y116595D01*
X53841Y116587D01*
X101027Y116587D01*
X101098Y116598D01*
X101170Y116600D01*
X101219Y116618D01*
X101270Y116626D01*
X101333Y116660D01*
X101401Y116685D01*
X101441Y116717D01*
X101487Y116742D01*
X101537Y116793D01*
X101593Y116838D01*
X101621Y116882D01*
X101657Y116920D01*
X101687Y116985D01*
X101726Y117045D01*
X101738Y117096D01*
X101760Y117143D01*
X101768Y117214D01*
X101786Y117284D01*
X101782Y117336D01*
X101787Y117387D01*
X101772Y117458D01*
X101767Y117529D01*
X101746Y117577D01*
X101735Y117628D01*
X101698Y117689D01*
X101670Y117755D01*
X101625Y117811D01*
X101609Y117839D01*
X101591Y117854D01*
X101565Y117886D01*
X101381Y118070D01*
X101381Y121198D01*
X103592Y123409D01*
X105381Y123409D01*
X105472Y123423D01*
X105562Y123431D01*
X105592Y123443D01*
X105624Y123448D01*
X105705Y123491D01*
X105789Y123527D01*
X105821Y123553D01*
X105842Y123564D01*
X105864Y123587D01*
X105920Y123632D01*
X298516Y316228D01*
X298569Y316302D01*
X298629Y316372D01*
X298641Y316402D01*
X298660Y316428D01*
X298687Y316515D01*
X298721Y316600D01*
X298725Y316641D01*
X298732Y316663D01*
X298731Y316695D01*
X298739Y316767D01*
X298739Y318516D01*
X298736Y318536D01*
X298738Y318555D01*
X298716Y318657D01*
X298700Y318759D01*
X298690Y318776D01*
X298686Y318796D01*
X298633Y318885D01*
X298584Y318976D01*
X298570Y318990D01*
X298560Y319007D01*
X298481Y319074D01*
X298406Y319146D01*
X298388Y319154D01*
X298373Y319167D01*
X298277Y319206D01*
X298183Y319249D01*
X298163Y319251D01*
X298145Y319259D01*
X297978Y319277D01*
X200145Y319277D01*
X200054Y319263D01*
X199964Y319255D01*
X199934Y319243D01*
X199902Y319238D01*
X199821Y319195D01*
X199737Y319159D01*
X199705Y319133D01*
X199684Y319122D01*
X199662Y319099D01*
X199606Y319054D01*
X196558Y316006D01*
X196516Y315948D01*
X196467Y315896D01*
X196445Y315849D01*
X196415Y315807D01*
X196394Y315738D01*
X196363Y315673D01*
X196358Y315621D01*
X196342Y315571D01*
X196344Y315500D01*
X196336Y315429D01*
X196347Y315378D01*
X196349Y315326D01*
X196373Y315258D01*
X196388Y315188D01*
X196415Y315143D01*
X196433Y315095D01*
X196478Y315039D01*
X196515Y314977D01*
X196554Y314943D01*
X196587Y314903D01*
X196647Y314864D01*
X196702Y314817D01*
X196750Y314798D01*
X196794Y314770D01*
X196863Y314752D01*
X196930Y314725D01*
X197001Y314717D01*
X197032Y314709D01*
X197056Y314711D01*
X197096Y314707D01*
X276287Y314707D01*
X276377Y314721D01*
X276468Y314729D01*
X276498Y314741D01*
X276530Y314746D01*
X276611Y314789D01*
X276694Y314825D01*
X276727Y314851D01*
X276747Y314862D01*
X276769Y314885D01*
X276825Y314930D01*
X277328Y315433D01*
X280456Y315433D01*
X282667Y313222D01*
X282667Y310094D01*
X280456Y307883D01*
X277328Y307883D01*
X276825Y308386D01*
X276751Y308439D01*
X276682Y308499D01*
X276652Y308511D01*
X276626Y308530D01*
X276539Y308557D01*
X276454Y308591D01*
X276413Y308595D01*
X276391Y308602D01*
X276358Y308601D01*
X276287Y308609D01*
X203418Y308609D01*
X203398Y308606D01*
X203379Y308608D01*
X203277Y308586D01*
X203175Y308570D01*
X203158Y308560D01*
X203138Y308556D01*
X203049Y308503D01*
X202958Y308454D01*
X202944Y308440D01*
X202927Y308430D01*
X202860Y308351D01*
X202788Y308276D01*
X202780Y308258D01*
X202767Y308243D01*
X202728Y308147D01*
X202685Y308053D01*
X202683Y308033D01*
X202675Y308015D01*
X202657Y307848D01*
X202657Y304760D01*
X202154Y304257D01*
X202101Y304183D01*
X202041Y304114D01*
X202029Y304084D01*
X202010Y304058D01*
X201983Y303971D01*
X201949Y303886D01*
X201945Y303845D01*
X201938Y303823D01*
X201939Y303790D01*
X201931Y303719D01*
X201931Y303537D01*
X55816Y157423D01*
X55805Y157407D01*
X55789Y157394D01*
X55733Y157307D01*
X55673Y157223D01*
X55667Y157204D01*
X55656Y157187D01*
X55631Y157087D01*
X55600Y156988D01*
X55601Y156968D01*
X55596Y156949D01*
X55604Y156846D01*
X55607Y156742D01*
X55614Y156723D01*
X55615Y156704D01*
X55656Y156609D01*
X55691Y156511D01*
X55704Y156495D01*
X55712Y156477D01*
X55816Y156346D01*
X55905Y156258D01*
X55905Y148682D01*
X50548Y143325D01*
X42972Y143325D01*
X37615Y148682D01*
X37615Y156258D01*
X42972Y161615D01*
X50595Y161615D01*
X50628Y161591D01*
X50647Y161585D01*
X50664Y161574D01*
X50764Y161549D01*
X50863Y161518D01*
X50883Y161519D01*
X50902Y161514D01*
X51005Y161522D01*
X51109Y161525D01*
X51128Y161532D01*
X51148Y161533D01*
X51242Y161574D01*
X51340Y161609D01*
X51356Y161622D01*
X51374Y161630D01*
X51505Y161734D01*
X148348Y258578D01*
X148390Y258636D01*
X148439Y258688D01*
X148461Y258735D01*
X148492Y258777D01*
X148513Y258846D01*
X148543Y258911D01*
X148549Y258963D01*
X148564Y259013D01*
X148562Y259084D01*
X148570Y259155D01*
X148559Y259206D01*
X148558Y259258D01*
X148533Y259326D01*
X148518Y259396D01*
X148491Y259440D01*
X148473Y259489D01*
X148428Y259545D01*
X148392Y259607D01*
X148352Y259641D01*
X148320Y259681D01*
X148259Y259720D01*
X148205Y259767D01*
X148156Y259786D01*
X148113Y259814D01*
X148043Y259832D01*
X147977Y259859D01*
X147905Y259867D01*
X147874Y259875D01*
X147851Y259873D01*
X147810Y259877D01*
X146264Y259877D01*
X143885Y262257D01*
X143869Y262268D01*
X143856Y262284D01*
X143769Y262340D01*
X143685Y262400D01*
X143666Y262406D01*
X143650Y262417D01*
X143549Y262442D01*
X143450Y262473D01*
X143430Y262472D01*
X143411Y262477D01*
X143308Y262469D01*
X143204Y262466D01*
X143186Y262459D01*
X143166Y262458D01*
X143071Y262417D01*
X142973Y262382D01*
X142958Y262369D01*
X142940Y262361D01*
X142809Y262257D01*
X68765Y188213D01*
X51631Y188213D01*
X51092Y188752D01*
X51018Y188805D01*
X50948Y188865D01*
X50918Y188877D01*
X50892Y188896D01*
X50805Y188923D01*
X50720Y188957D01*
X50679Y188961D01*
X50657Y188968D01*
X50625Y188967D01*
X50553Y188975D01*
X36315Y188975D01*
X36224Y188961D01*
X36134Y188953D01*
X36104Y188941D01*
X36072Y188936D01*
X35991Y188893D01*
X35907Y188857D01*
X35875Y188831D01*
X35854Y188820D01*
X35832Y188797D01*
X35776Y188752D01*
X30132Y183108D01*
X30120Y183091D01*
X30104Y183079D01*
X30048Y182992D01*
X29988Y182908D01*
X29982Y182889D01*
X29971Y182872D01*
X29946Y182772D01*
X29916Y182673D01*
X29916Y182653D01*
X29911Y182634D01*
X29919Y182531D01*
X29922Y182427D01*
X29929Y182408D01*
X29930Y182388D01*
X29971Y182293D01*
X30006Y182196D01*
X30019Y182180D01*
X30027Y182162D01*
X30132Y182031D01*
X30505Y181658D01*
X30505Y174082D01*
X25148Y168725D01*
X17572Y168725D01*
X12215Y174082D01*
X12215Y181658D01*
X17572Y187015D01*
X25148Y187015D01*
X25821Y186342D01*
X25837Y186330D01*
X25850Y186314D01*
X25937Y186258D01*
X26021Y186198D01*
X26040Y186192D01*
X26057Y186181D01*
X26157Y186156D01*
X26256Y186126D01*
X26276Y186126D01*
X26295Y186121D01*
X26398Y186129D01*
X26502Y186132D01*
X26521Y186139D01*
X26540Y186140D01*
X26635Y186181D01*
X26733Y186216D01*
X26748Y186229D01*
X26767Y186237D01*
X26898Y186342D01*
X32542Y191986D01*
X34105Y193549D01*
X41711Y193549D01*
X41782Y193560D01*
X41853Y193562D01*
X41902Y193580D01*
X41954Y193588D01*
X42017Y193622D01*
X42084Y193647D01*
X42125Y193679D01*
X42171Y193704D01*
X42220Y193756D01*
X42276Y193800D01*
X42305Y193844D01*
X42340Y193882D01*
X42371Y193947D01*
X42409Y194007D01*
X42422Y194058D01*
X42444Y194105D01*
X42452Y194176D01*
X42469Y194246D01*
X42465Y194298D01*
X42471Y194349D01*
X42456Y194420D01*
X42450Y194491D01*
X42430Y194539D01*
X42419Y194590D01*
X42382Y194651D01*
X42354Y194717D01*
X42309Y194773D01*
X42293Y194801D01*
X42275Y194816D01*
X42249Y194848D01*
X37615Y199482D01*
X37615Y207058D01*
X42972Y212415D01*
X50548Y212415D01*
X55905Y207058D01*
X55905Y199482D01*
X51271Y194848D01*
X51229Y194790D01*
X51180Y194738D01*
X51158Y194691D01*
X51127Y194649D01*
X51106Y194580D01*
X51076Y194515D01*
X51070Y194463D01*
X51055Y194413D01*
X51057Y194342D01*
X51049Y194271D01*
X51060Y194220D01*
X51061Y194168D01*
X51086Y194100D01*
X51101Y194030D01*
X51128Y193985D01*
X51146Y193937D01*
X51191Y193881D01*
X51227Y193819D01*
X51267Y193785D01*
X51299Y193745D01*
X51360Y193706D01*
X51414Y193659D01*
X51463Y193640D01*
X51506Y193612D01*
X51576Y193594D01*
X51642Y193567D01*
X51714Y193559D01*
X51745Y193551D01*
X51768Y193553D01*
X51809Y193549D01*
X52763Y193549D01*
X53302Y193010D01*
X53376Y192957D01*
X53446Y192897D01*
X53476Y192885D01*
X53502Y192866D01*
X53589Y192839D01*
X53674Y192805D01*
X53715Y192801D01*
X53737Y192794D01*
X53769Y192795D01*
X53841Y192787D01*
X66555Y192787D01*
X66646Y192801D01*
X66736Y192809D01*
X66766Y192821D01*
X66798Y192826D01*
X66879Y192869D01*
X66963Y192905D01*
X66995Y192931D01*
X67016Y192942D01*
X67038Y192965D01*
X67094Y193010D01*
X150152Y276068D01*
X150194Y276126D01*
X150243Y276178D01*
X150265Y276225D01*
X150295Y276267D01*
X150316Y276336D01*
X150347Y276401D01*
X150352Y276453D01*
X150368Y276503D01*
X150366Y276574D01*
X150374Y276645D01*
X150363Y276696D01*
X150361Y276748D01*
X150337Y276816D01*
X150322Y276886D01*
X150295Y276930D01*
X150277Y276979D01*
X150232Y277035D01*
X150195Y277097D01*
X150156Y277131D01*
X150123Y277171D01*
X150063Y277210D01*
X150008Y277257D01*
X149960Y277276D01*
X149916Y277304D01*
X149847Y277322D01*
X149780Y277349D01*
X149709Y277357D01*
X149678Y277365D01*
X149654Y277363D01*
X149614Y277367D01*
X56666Y277367D01*
X56646Y277364D01*
X56627Y277366D01*
X56525Y277344D01*
X56423Y277328D01*
X56406Y277318D01*
X56386Y277314D01*
X56297Y277261D01*
X56206Y277212D01*
X56192Y277198D01*
X56175Y277188D01*
X56108Y277109D01*
X56036Y277034D01*
X56028Y277016D01*
X56015Y277001D01*
X55976Y276905D01*
X55933Y276811D01*
X55931Y276791D01*
X55923Y276773D01*
X55905Y276606D01*
X55905Y275682D01*
X50548Y270325D01*
X42972Y270325D01*
X37615Y275682D01*
X37615Y279432D01*
X37604Y279502D01*
X37602Y279574D01*
X37584Y279623D01*
X37576Y279674D01*
X37542Y279738D01*
X37517Y279805D01*
X37485Y279846D01*
X37460Y279892D01*
X37409Y279941D01*
X37364Y279997D01*
X37320Y280025D01*
X37282Y280061D01*
X37217Y280091D01*
X37157Y280130D01*
X37106Y280143D01*
X37059Y280165D01*
X36988Y280173D01*
X36918Y280190D01*
X36866Y280186D01*
X36815Y280192D01*
X36744Y280177D01*
X36673Y280171D01*
X36625Y280151D01*
X36574Y280140D01*
X36513Y280103D01*
X36447Y280075D01*
X36391Y280030D01*
X36363Y280013D01*
X36348Y279996D01*
X36316Y279970D01*
X36038Y279692D01*
X35985Y279618D01*
X35925Y279548D01*
X35913Y279518D01*
X35894Y279492D01*
X35867Y279405D01*
X35833Y279320D01*
X35829Y279279D01*
X35822Y279257D01*
X35823Y279225D01*
X35815Y279153D01*
X35815Y275583D01*
X35829Y275492D01*
X35837Y275402D01*
X35849Y275372D01*
X35854Y275340D01*
X35897Y275259D01*
X35933Y275175D01*
X35959Y275143D01*
X35970Y275122D01*
X35993Y275100D01*
X36038Y275044D01*
X36577Y274505D01*
X36577Y267277D01*
X29370Y260070D01*
X29358Y260053D01*
X29342Y260041D01*
X29286Y259954D01*
X29226Y259870D01*
X29220Y259851D01*
X29209Y259834D01*
X29184Y259734D01*
X29154Y259635D01*
X29154Y259615D01*
X29149Y259596D01*
X29157Y259493D01*
X29160Y259389D01*
X29167Y259370D01*
X29168Y259350D01*
X29209Y259255D01*
X29244Y259158D01*
X29257Y259142D01*
X29265Y259124D01*
X29370Y258993D01*
X30505Y257858D01*
X30505Y250282D01*
X25148Y244925D01*
X17572Y244925D01*
X12215Y250282D01*
X12215Y257858D01*
X17572Y263215D01*
X25183Y263215D01*
X25259Y263160D01*
X25278Y263154D01*
X25295Y263143D01*
X25395Y263118D01*
X25494Y263088D01*
X25514Y263088D01*
X25533Y263083D01*
X25636Y263091D01*
X25740Y263094D01*
X25758Y263101D01*
X25778Y263102D01*
X25873Y263143D01*
X25971Y263178D01*
X25986Y263191D01*
X26005Y263199D01*
X26136Y263304D01*
X31780Y268948D01*
X31833Y269022D01*
X31893Y269092D01*
X31905Y269122D01*
X31924Y269148D01*
X31951Y269235D01*
X31985Y269320D01*
X31989Y269361D01*
X31996Y269383D01*
X31995Y269415D01*
X32003Y269487D01*
X32003Y272296D01*
X31989Y272386D01*
X31981Y272477D01*
X31969Y272506D01*
X31964Y272538D01*
X31921Y272619D01*
X31885Y272703D01*
X31859Y272735D01*
X31848Y272756D01*
X31825Y272778D01*
X31780Y272834D01*
X31241Y273373D01*
X31241Y274581D01*
X31230Y274652D01*
X31228Y274723D01*
X31210Y274772D01*
X31202Y274824D01*
X31168Y274887D01*
X31143Y274954D01*
X31111Y274995D01*
X31086Y275041D01*
X31034Y275090D01*
X30990Y275146D01*
X30946Y275175D01*
X30908Y275210D01*
X30843Y275241D01*
X30783Y275279D01*
X30732Y275292D01*
X30685Y275314D01*
X30614Y275322D01*
X30544Y275339D01*
X30492Y275335D01*
X30441Y275341D01*
X30370Y275326D01*
X30299Y275320D01*
X30251Y275300D01*
X30200Y275289D01*
X30139Y275252D01*
X30073Y275224D01*
X30017Y275179D01*
X29989Y275163D01*
X29974Y275145D01*
X29942Y275119D01*
X25148Y270325D01*
X17572Y270325D01*
X12215Y275682D01*
X12215Y283258D01*
X17572Y288615D01*
X25148Y288615D01*
X30505Y283258D01*
X30505Y282464D01*
X30516Y282394D01*
X30518Y282322D01*
X30536Y282273D01*
X30544Y282222D01*
X30578Y282158D01*
X30603Y282091D01*
X30635Y282050D01*
X30660Y282004D01*
X30712Y281955D01*
X30756Y281899D01*
X30800Y281871D01*
X30838Y281835D01*
X30903Y281805D01*
X30963Y281766D01*
X31014Y281753D01*
X31061Y281731D01*
X31132Y281723D01*
X31202Y281706D01*
X31254Y281710D01*
X31305Y281704D01*
X31376Y281719D01*
X31447Y281725D01*
X31495Y281745D01*
X31546Y281756D01*
X31607Y281793D01*
X31673Y281821D01*
X31729Y281866D01*
X31757Y281883D01*
X31772Y281900D01*
X31804Y281926D01*
X42487Y292609D01*
X51315Y292609D01*
X51406Y292623D01*
X51496Y292631D01*
X51526Y292643D01*
X51558Y292648D01*
X51639Y292691D01*
X51723Y292727D01*
X51755Y292753D01*
X51776Y292764D01*
X51798Y292787D01*
X51854Y292832D01*
X52393Y293371D01*
X90177Y293371D01*
X90268Y293385D01*
X90358Y293393D01*
X90388Y293405D01*
X90420Y293410D01*
X90501Y293453D01*
X90585Y293489D01*
X90617Y293515D01*
X90638Y293526D01*
X90660Y293549D01*
X90716Y293594D01*
X446347Y649225D01*
X447631Y649225D01*
X447702Y649236D01*
X447774Y649238D01*
X447823Y649256D01*
X447874Y649264D01*
X447937Y649298D01*
X448005Y649323D01*
X448045Y649355D01*
X448091Y649380D01*
X448141Y649432D01*
X448197Y649476D01*
X448225Y649520D01*
X448261Y649558D01*
X448291Y649623D01*
X448330Y649683D01*
X448342Y649734D01*
X448364Y649781D01*
X448372Y649852D01*
X448390Y649922D01*
X448386Y649974D01*
X448391Y650025D01*
X448376Y650096D01*
X448371Y650167D01*
X448350Y650215D01*
X448339Y650266D01*
X448302Y650327D01*
X448274Y650393D01*
X448229Y650449D01*
X448213Y650477D01*
X448195Y650492D01*
X448169Y650524D01*
X445925Y652769D01*
X444223Y656877D01*
X444223Y661323D01*
X445925Y665431D01*
X449069Y668575D01*
X453177Y670277D01*
X457623Y670277D01*
X461731Y668575D01*
X464875Y665431D01*
X466577Y661323D01*
X466577Y656877D01*
X464875Y652769D01*
X463325Y651219D01*
X463314Y651203D01*
X463298Y651190D01*
X463242Y651103D01*
X463182Y651019D01*
X463176Y651000D01*
X463165Y650984D01*
X463140Y650883D01*
X463109Y650784D01*
X463110Y650764D01*
X463105Y650745D01*
X463113Y650642D01*
X463116Y650538D01*
X463123Y650520D01*
X463124Y650500D01*
X463165Y650405D01*
X463200Y650307D01*
X463213Y650292D01*
X463221Y650273D01*
X463325Y650142D01*
X464020Y649448D01*
X464094Y649394D01*
X464164Y649335D01*
X464194Y649323D01*
X464220Y649304D01*
X464307Y649277D01*
X464392Y649243D01*
X464433Y649239D01*
X464455Y649232D01*
X464487Y649233D01*
X464559Y649225D01*
X556155Y649225D01*
X556226Y649236D01*
X556297Y649238D01*
X556346Y649256D01*
X556398Y649264D01*
X556461Y649298D01*
X556528Y649323D01*
X556569Y649355D01*
X556615Y649380D01*
X556664Y649432D01*
X556720Y649476D01*
X556749Y649520D01*
X556784Y649558D01*
X556815Y649623D01*
X556853Y649683D01*
X556866Y649734D01*
X556888Y649781D01*
X556896Y649852D01*
X556913Y649922D01*
X556909Y649974D01*
X556915Y650025D01*
X556900Y650096D01*
X556894Y650167D01*
X556874Y650215D01*
X556863Y650266D01*
X556826Y650327D01*
X556798Y650393D01*
X556753Y650449D01*
X556737Y650477D01*
X556719Y650492D01*
X556693Y650524D01*
X551965Y655252D01*
X551965Y662828D01*
X557322Y668185D01*
X564898Y668185D01*
X570255Y662828D01*
X570255Y655252D01*
X565527Y650524D01*
X565485Y650466D01*
X565436Y650414D01*
X565414Y650367D01*
X565383Y650325D01*
X565362Y650256D01*
X565332Y650191D01*
X565326Y650139D01*
X565311Y650089D01*
X565313Y650018D01*
X565305Y649947D01*
X565316Y649896D01*
X565317Y649844D01*
X565342Y649776D01*
X565357Y649706D01*
X565384Y649661D01*
X565402Y649613D01*
X565447Y649557D01*
X565483Y649495D01*
X565523Y649461D01*
X565555Y649421D01*
X565616Y649382D01*
X565670Y649335D01*
X565719Y649316D01*
X565762Y649288D01*
X565832Y649270D01*
X565898Y649243D01*
X565970Y649235D01*
X566001Y649227D01*
X566024Y649229D01*
X566065Y649225D01*
X567113Y649225D01*
X567652Y648686D01*
X567726Y648633D01*
X567796Y648573D01*
X567826Y648561D01*
X567852Y648542D01*
X567939Y648515D01*
X568024Y648481D01*
X568065Y648477D01*
X568087Y648470D01*
X568119Y648471D01*
X568191Y648463D01*
X572523Y648463D01*
X572614Y648477D01*
X572704Y648485D01*
X572734Y648497D01*
X572766Y648502D01*
X572847Y648545D01*
X572931Y648581D01*
X572963Y648607D01*
X572984Y648618D01*
X573006Y648641D01*
X573062Y648686D01*
X577958Y653582D01*
X577970Y653599D01*
X577986Y653611D01*
X578042Y653698D01*
X578102Y653782D01*
X578108Y653801D01*
X578119Y653818D01*
X578144Y653918D01*
X578174Y654017D01*
X578174Y654037D01*
X578179Y654056D01*
X578171Y654159D01*
X578168Y654263D01*
X578161Y654282D01*
X578160Y654302D01*
X578119Y654397D01*
X578084Y654494D01*
X578071Y654510D01*
X578063Y654528D01*
X577958Y654659D01*
X577365Y655252D01*
X577365Y662828D01*
X582722Y668185D01*
X590298Y668185D01*
X595655Y662828D01*
X595655Y655252D01*
X590298Y649895D01*
X582722Y649895D01*
X582269Y650348D01*
X582253Y650360D01*
X582240Y650376D01*
X582153Y650432D01*
X582069Y650492D01*
X582050Y650498D01*
X582033Y650509D01*
X581933Y650534D01*
X581834Y650564D01*
X581814Y650564D01*
X581795Y650569D01*
X581692Y650561D01*
X581588Y650558D01*
X581569Y650551D01*
X581550Y650550D01*
X581455Y650509D01*
X581357Y650474D01*
X581342Y650461D01*
X581323Y650453D01*
X581192Y650348D01*
X576296Y645452D01*
X574733Y643889D01*
X565981Y643889D01*
X565442Y644428D01*
X565368Y644481D01*
X565298Y644541D01*
X565268Y644553D01*
X565242Y644572D01*
X565155Y644599D01*
X565070Y644633D01*
X565029Y644637D01*
X565007Y644644D01*
X564975Y644643D01*
X564903Y644651D01*
X462349Y644651D01*
X462310Y644690D01*
X462294Y644701D01*
X462282Y644717D01*
X462195Y644773D01*
X462111Y644833D01*
X462092Y644839D01*
X462075Y644850D01*
X461974Y644875D01*
X461876Y644906D01*
X461856Y644905D01*
X461836Y644910D01*
X461733Y644902D01*
X461630Y644899D01*
X461611Y644892D01*
X461591Y644891D01*
X461496Y644850D01*
X461399Y644815D01*
X461383Y644802D01*
X461365Y644795D01*
X461234Y644690D01*
X461114Y644570D01*
X461087Y644533D01*
X461053Y644502D01*
X461016Y644433D01*
X460970Y644370D01*
X460957Y644327D01*
X460935Y644286D01*
X460921Y644210D01*
X460898Y644135D01*
X460899Y644089D01*
X460891Y644044D01*
X460902Y643967D01*
X460904Y643889D01*
X460920Y643846D01*
X460927Y643801D01*
X460962Y643731D01*
X460989Y643658D01*
X461018Y643623D01*
X461038Y643582D01*
X461094Y643527D01*
X461143Y643466D01*
X461181Y643441D01*
X461214Y643409D01*
X461334Y643343D01*
X461350Y643333D01*
X461354Y643332D01*
X461361Y643328D01*
X461731Y643175D01*
X464875Y640031D01*
X466577Y635923D01*
X466577Y631477D01*
X464875Y627369D01*
X461731Y624225D01*
X457623Y622523D01*
X453177Y622523D01*
X449069Y624225D01*
X445925Y627369D01*
X444223Y631477D01*
X444223Y635923D01*
X445925Y640031D01*
X449069Y643175D01*
X449097Y643187D01*
X449179Y643238D01*
X449266Y643284D01*
X449284Y643302D01*
X449306Y643316D01*
X449368Y643391D01*
X449435Y643462D01*
X449446Y643486D01*
X449463Y643506D01*
X449498Y643597D01*
X449539Y643685D01*
X449541Y643711D01*
X449551Y643735D01*
X449555Y643833D01*
X449566Y643929D01*
X449560Y643955D01*
X449561Y643981D01*
X449534Y644075D01*
X449513Y644170D01*
X449500Y644192D01*
X449493Y644217D01*
X449437Y644297D01*
X449387Y644381D01*
X449367Y644398D01*
X449352Y644419D01*
X449274Y644478D01*
X449200Y644541D01*
X449176Y644551D01*
X449155Y644566D01*
X449063Y644596D01*
X448972Y644633D01*
X448940Y644636D01*
X448921Y644642D01*
X448888Y644642D01*
X448805Y644651D01*
X448557Y644651D01*
X448466Y644637D01*
X448376Y644629D01*
X448346Y644617D01*
X448314Y644612D01*
X448233Y644569D01*
X448149Y644533D01*
X448117Y644507D01*
X448096Y644496D01*
X448074Y644473D01*
X448018Y644428D01*
X92387Y288797D01*
X54603Y288797D01*
X54512Y288783D01*
X54422Y288775D01*
X54392Y288763D01*
X54360Y288758D01*
X54279Y288715D01*
X54195Y288679D01*
X54163Y288653D01*
X54142Y288642D01*
X54120Y288619D01*
X54117Y288617D01*
X54116Y288616D01*
X54115Y288615D01*
X54064Y288574D01*
X53525Y288035D01*
X52965Y288035D01*
X52894Y288024D01*
X52823Y288022D01*
X52774Y288004D01*
X52722Y287996D01*
X52659Y287962D01*
X52592Y287937D01*
X52551Y287905D01*
X52505Y287880D01*
X52456Y287828D01*
X52400Y287784D01*
X52371Y287740D01*
X52336Y287702D01*
X52305Y287637D01*
X52267Y287577D01*
X52254Y287526D01*
X52232Y287479D01*
X52224Y287408D01*
X52207Y287338D01*
X52211Y287286D01*
X52205Y287235D01*
X52220Y287164D01*
X52226Y287093D01*
X52246Y287045D01*
X52257Y286994D01*
X52294Y286933D01*
X52322Y286867D01*
X52367Y286811D01*
X52383Y286783D01*
X52401Y286768D01*
X52408Y286759D01*
X52409Y286757D01*
X52410Y286756D01*
X52427Y286736D01*
X55905Y283258D01*
X55905Y282702D01*
X55908Y282682D01*
X55906Y282663D01*
X55928Y282561D01*
X55944Y282459D01*
X55954Y282442D01*
X55958Y282422D01*
X56011Y282333D01*
X56060Y282242D01*
X56074Y282228D01*
X56084Y282211D01*
X56163Y282144D01*
X56238Y282072D01*
X56256Y282064D01*
X56271Y282051D01*
X56367Y282012D01*
X56461Y281969D01*
X56481Y281967D01*
X56499Y281959D01*
X56666Y281941D01*
X151137Y281941D01*
X151228Y281955D01*
X151318Y281963D01*
X151348Y281975D01*
X151380Y281980D01*
X151461Y282023D01*
X151545Y282059D01*
X151577Y282085D01*
X151598Y282096D01*
X151620Y282119D01*
X151676Y282164D01*
X197935Y328423D01*
X299502Y328423D01*
X299522Y328426D01*
X299541Y328424D01*
X299643Y328446D01*
X299745Y328462D01*
X299762Y328472D01*
X299782Y328476D01*
X299871Y328529D01*
X299962Y328578D01*
X299976Y328592D01*
X299993Y328602D01*
X300060Y328681D01*
X300132Y328756D01*
X300140Y328774D01*
X300153Y328789D01*
X300192Y328885D01*
X300235Y328979D01*
X300237Y328999D01*
X300245Y329017D01*
X300263Y329184D01*
X300263Y332272D01*
X302474Y334483D01*
X305602Y334483D01*
X306867Y333218D01*
X306941Y333165D01*
X307010Y333105D01*
X307040Y333093D01*
X307066Y333074D01*
X307153Y333047D01*
X307238Y333013D01*
X307279Y333009D01*
X307301Y333002D01*
X307334Y333003D01*
X307405Y332995D01*
X325635Y332995D01*
X325726Y333009D01*
X325816Y333017D01*
X325846Y333029D01*
X325878Y333034D01*
X325959Y333077D01*
X326043Y333113D01*
X326075Y333139D01*
X326096Y333150D01*
X326118Y333173D01*
X326174Y333218D01*
X542320Y549364D01*
X542366Y549427D01*
X542388Y549451D01*
X542393Y549461D01*
X542433Y549508D01*
X542445Y549538D01*
X542464Y549564D01*
X542491Y549651D01*
X542525Y549736D01*
X542529Y549777D01*
X542536Y549799D01*
X542535Y549831D01*
X542543Y549903D01*
X542543Y611309D01*
X553789Y622555D01*
X564903Y622555D01*
X564994Y622569D01*
X565084Y622577D01*
X565114Y622589D01*
X565146Y622594D01*
X565227Y622637D01*
X565311Y622673D01*
X565343Y622699D01*
X565364Y622710D01*
X565386Y622733D01*
X565442Y622778D01*
X569791Y627127D01*
X575571Y627127D01*
X575662Y627141D01*
X575752Y627149D01*
X575782Y627161D01*
X575814Y627166D01*
X575895Y627209D01*
X575979Y627245D01*
X576011Y627271D01*
X576032Y627282D01*
X576054Y627305D01*
X576110Y627350D01*
X577450Y628690D01*
X577462Y628707D01*
X577478Y628719D01*
X577534Y628806D01*
X577594Y628890D01*
X577600Y628909D01*
X577611Y628926D01*
X577636Y629026D01*
X577666Y629125D01*
X577666Y629145D01*
X577671Y629164D01*
X577663Y629267D01*
X577660Y629371D01*
X577653Y629390D01*
X577652Y629410D01*
X577611Y629505D01*
X577576Y629602D01*
X577563Y629618D01*
X577555Y629636D01*
X577450Y629767D01*
X577365Y629852D01*
X577365Y637428D01*
X582722Y642785D01*
X590298Y642785D01*
X595655Y637428D01*
X595655Y629852D01*
X590298Y624495D01*
X582722Y624495D01*
X581761Y625456D01*
X581745Y625468D01*
X581732Y625484D01*
X581645Y625540D01*
X581561Y625600D01*
X581542Y625606D01*
X581525Y625617D01*
X581425Y625642D01*
X581326Y625672D01*
X581306Y625672D01*
X581287Y625677D01*
X581184Y625669D01*
X581080Y625666D01*
X581061Y625659D01*
X581042Y625658D01*
X580947Y625617D01*
X580849Y625582D01*
X580834Y625569D01*
X580815Y625561D01*
X580684Y625456D01*
X577781Y622553D01*
X572001Y622553D01*
X571910Y622539D01*
X571820Y622531D01*
X571790Y622519D01*
X571758Y622514D01*
X571677Y622471D01*
X571593Y622435D01*
X571561Y622409D01*
X571540Y622398D01*
X571518Y622375D01*
X571462Y622330D01*
X567113Y617981D01*
X566139Y617981D01*
X566068Y617970D01*
X565997Y617968D01*
X565948Y617950D01*
X565896Y617942D01*
X565833Y617908D01*
X565766Y617883D01*
X565725Y617851D01*
X565679Y617826D01*
X565630Y617774D01*
X565574Y617730D01*
X565545Y617686D01*
X565510Y617648D01*
X565479Y617583D01*
X565441Y617523D01*
X565428Y617472D01*
X565406Y617425D01*
X565398Y617354D01*
X565381Y617284D01*
X565385Y617232D01*
X565379Y617181D01*
X565394Y617110D01*
X565400Y617039D01*
X565420Y616991D01*
X565431Y616940D01*
X565468Y616879D01*
X565496Y616813D01*
X565541Y616757D01*
X565557Y616729D01*
X565575Y616714D01*
X565601Y616682D01*
X570255Y612028D01*
X570255Y604452D01*
X564898Y599095D01*
X557322Y599095D01*
X551965Y604452D01*
X551965Y612028D01*
X556619Y616682D01*
X556661Y616740D01*
X556710Y616792D01*
X556732Y616839D01*
X556763Y616881D01*
X556784Y616950D01*
X556814Y617015D01*
X556820Y617067D01*
X556835Y617117D01*
X556833Y617188D01*
X556841Y617259D01*
X556830Y617310D01*
X556829Y617362D01*
X556804Y617430D01*
X556789Y617500D01*
X556762Y617545D01*
X556744Y617593D01*
X556699Y617649D01*
X556663Y617711D01*
X556623Y617745D01*
X556591Y617785D01*
X556530Y617824D01*
X556476Y617871D01*
X556427Y617890D01*
X556384Y617918D01*
X556314Y617936D01*
X556248Y617963D01*
X556176Y617971D01*
X556145Y617979D01*
X556122Y617977D01*
X556081Y617981D01*
X555999Y617981D01*
X555908Y617967D01*
X555818Y617959D01*
X555788Y617947D01*
X555756Y617942D01*
X555675Y617899D01*
X555591Y617863D01*
X555559Y617837D01*
X555538Y617826D01*
X555516Y617803D01*
X555460Y617758D01*
X547340Y609638D01*
X547287Y609564D01*
X547227Y609494D01*
X547215Y609464D01*
X547196Y609438D01*
X547169Y609351D01*
X547135Y609266D01*
X547131Y609225D01*
X547124Y609203D01*
X547125Y609171D01*
X547117Y609099D01*
X547117Y567428D01*
X547128Y567358D01*
X547130Y567286D01*
X547148Y567237D01*
X547156Y567186D01*
X547190Y567122D01*
X547215Y567055D01*
X547247Y567014D01*
X547272Y566968D01*
X547324Y566919D01*
X547368Y566863D01*
X547412Y566835D01*
X547450Y566799D01*
X547515Y566769D01*
X547575Y566730D01*
X547626Y566717D01*
X547673Y566695D01*
X547744Y566687D01*
X547814Y566670D01*
X547866Y566674D01*
X547917Y566668D01*
X547988Y566683D01*
X548059Y566689D01*
X548107Y566709D01*
X548158Y566720D01*
X548219Y566757D01*
X548285Y566785D01*
X548341Y566830D01*
X548369Y566847D01*
X548384Y566864D01*
X548416Y566890D01*
X552988Y571462D01*
X554551Y573025D01*
X556155Y573025D01*
X556226Y573036D01*
X556297Y573038D01*
X556346Y573056D01*
X556398Y573064D01*
X556461Y573098D01*
X556528Y573123D01*
X556569Y573155D01*
X556615Y573180D01*
X556664Y573232D01*
X556720Y573276D01*
X556749Y573320D01*
X556784Y573358D01*
X556815Y573423D01*
X556853Y573483D01*
X556866Y573534D01*
X556888Y573581D01*
X556896Y573652D01*
X556913Y573722D01*
X556909Y573774D01*
X556915Y573825D01*
X556900Y573896D01*
X556894Y573967D01*
X556874Y574015D01*
X556863Y574066D01*
X556826Y574127D01*
X556798Y574193D01*
X556753Y574249D01*
X556737Y574277D01*
X556719Y574292D01*
X556693Y574324D01*
X551965Y579052D01*
X551965Y586628D01*
X557322Y591985D01*
X564898Y591985D01*
X570255Y586628D01*
X570255Y579052D01*
X565527Y574324D01*
X565485Y574266D01*
X565436Y574214D01*
X565414Y574167D01*
X565383Y574125D01*
X565362Y574056D01*
X565332Y573991D01*
X565326Y573939D01*
X565311Y573889D01*
X565313Y573818D01*
X565305Y573747D01*
X565316Y573696D01*
X565317Y573644D01*
X565342Y573576D01*
X565357Y573506D01*
X565384Y573461D01*
X565402Y573413D01*
X565447Y573357D01*
X565483Y573295D01*
X565523Y573261D01*
X565555Y573221D01*
X565616Y573182D01*
X565670Y573135D01*
X565719Y573116D01*
X565762Y573088D01*
X565832Y573070D01*
X565898Y573043D01*
X565970Y573035D01*
X566001Y573027D01*
X566024Y573029D01*
X566065Y573025D01*
X567113Y573025D01*
X567652Y572486D01*
X567726Y572433D01*
X567796Y572373D01*
X567826Y572361D01*
X567852Y572342D01*
X567939Y572315D01*
X568024Y572281D01*
X568065Y572277D01*
X568087Y572270D01*
X568119Y572271D01*
X568191Y572263D01*
X570999Y572263D01*
X571090Y572277D01*
X571180Y572285D01*
X571210Y572297D01*
X571242Y572302D01*
X571323Y572345D01*
X571407Y572381D01*
X571439Y572407D01*
X571460Y572418D01*
X571482Y572441D01*
X571538Y572486D01*
X577196Y578144D01*
X577208Y578161D01*
X577224Y578173D01*
X577280Y578260D01*
X577340Y578344D01*
X577346Y578363D01*
X577357Y578380D01*
X577382Y578481D01*
X577412Y578579D01*
X577412Y578599D01*
X577417Y578619D01*
X577409Y578722D01*
X577406Y578825D01*
X577399Y578844D01*
X577398Y578864D01*
X577365Y578940D01*
X577365Y586628D01*
X582722Y591985D01*
X590298Y591985D01*
X595655Y586628D01*
X595655Y579052D01*
X590298Y573695D01*
X582722Y573695D01*
X581507Y574910D01*
X581491Y574922D01*
X581478Y574938D01*
X581391Y574994D01*
X581307Y575054D01*
X581288Y575060D01*
X581271Y575071D01*
X581171Y575096D01*
X581072Y575126D01*
X581052Y575126D01*
X581033Y575131D01*
X580930Y575123D01*
X580826Y575120D01*
X580807Y575113D01*
X580788Y575112D01*
X580693Y575071D01*
X580595Y575036D01*
X580580Y575023D01*
X580561Y575015D01*
X580430Y574910D01*
X573209Y567689D01*
X565981Y567689D01*
X565442Y568228D01*
X565368Y568281D01*
X565298Y568341D01*
X565268Y568353D01*
X565242Y568372D01*
X565155Y568399D01*
X565070Y568433D01*
X565029Y568437D01*
X565007Y568444D01*
X564975Y568443D01*
X564903Y568451D01*
X556761Y568451D01*
X556670Y568437D01*
X556580Y568429D01*
X556550Y568417D01*
X556518Y568412D01*
X556437Y568369D01*
X556353Y568333D01*
X556321Y568307D01*
X556300Y568296D01*
X556278Y568273D01*
X556222Y568228D01*
X550388Y562394D01*
X550335Y562320D01*
X550275Y562250D01*
X550263Y562220D01*
X550244Y562194D01*
X550217Y562107D01*
X550183Y562022D01*
X550179Y561981D01*
X550172Y561959D01*
X550173Y561927D01*
X550165Y561855D01*
X550165Y476751D01*
X550179Y476660D01*
X550187Y476570D01*
X550199Y476540D01*
X550204Y476508D01*
X550247Y476427D01*
X550283Y476343D01*
X550309Y476311D01*
X550320Y476290D01*
X550343Y476268D01*
X550388Y476212D01*
X555499Y471101D01*
X555499Y441162D01*
X555502Y441142D01*
X555500Y441123D01*
X555522Y441021D01*
X555538Y440919D01*
X555548Y440902D01*
X555552Y440882D01*
X555605Y440793D01*
X555654Y440702D01*
X555668Y440688D01*
X555678Y440671D01*
X555757Y440604D01*
X555832Y440532D01*
X555850Y440524D01*
X555865Y440511D01*
X555961Y440472D01*
X556055Y440429D01*
X556075Y440427D01*
X556093Y440419D01*
X556260Y440401D01*
X559348Y440401D01*
X560613Y439136D01*
X560687Y439083D01*
X560756Y439023D01*
X560786Y439011D01*
X560812Y438992D01*
X560899Y438965D01*
X560984Y438931D01*
X561025Y438927D01*
X561047Y438920D01*
X561080Y438921D01*
X561151Y438913D01*
X598170Y438913D01*
X598190Y438916D01*
X598209Y438914D01*
X598311Y438936D01*
X598413Y438952D01*
X598430Y438962D01*
X598450Y438966D01*
X598539Y439019D01*
X598630Y439068D01*
X598644Y439082D01*
X598661Y439092D01*
X598728Y439171D01*
X598800Y439246D01*
X598808Y439264D01*
X598821Y439279D01*
X598860Y439375D01*
X598903Y439469D01*
X598905Y439489D01*
X598913Y439507D01*
X598931Y439674D01*
X598931Y514612D01*
X598917Y514702D01*
X598909Y514793D01*
X598897Y514822D01*
X598892Y514854D01*
X598849Y514935D01*
X598813Y515019D01*
X598787Y515051D01*
X598776Y515072D01*
X598753Y515094D01*
X598708Y515150D01*
X591169Y522689D01*
X591152Y522701D01*
X591139Y522717D01*
X591052Y522773D01*
X590969Y522833D01*
X590950Y522839D01*
X590932Y522850D01*
X590832Y522875D01*
X590734Y522905D01*
X590714Y522905D01*
X590694Y522910D01*
X590591Y522902D01*
X590488Y522899D01*
X590478Y522895D01*
X582722Y522895D01*
X577365Y528252D01*
X577365Y535828D01*
X582722Y541185D01*
X590298Y541185D01*
X595655Y535828D01*
X595655Y528252D01*
X594403Y527000D01*
X594391Y526984D01*
X594375Y526971D01*
X594319Y526884D01*
X594259Y526800D01*
X594253Y526781D01*
X594242Y526764D01*
X594217Y526664D01*
X594187Y526565D01*
X594187Y526545D01*
X594182Y526526D01*
X594190Y526423D01*
X594193Y526319D01*
X594200Y526300D01*
X594201Y526281D01*
X594242Y526186D01*
X594277Y526088D01*
X594290Y526073D01*
X594298Y526054D01*
X594403Y525923D01*
X596108Y524218D01*
X596166Y524176D01*
X596218Y524127D01*
X596237Y524118D01*
X596249Y524107D01*
X596278Y524096D01*
X596307Y524075D01*
X596376Y524054D01*
X596441Y524023D01*
X596464Y524021D01*
X596478Y524015D01*
X596512Y524012D01*
X596543Y524002D01*
X596586Y524003D01*
X596644Y523997D01*
X596646Y523997D01*
X596659Y523999D01*
X596685Y523996D01*
X596736Y524007D01*
X596788Y524009D01*
X596846Y524030D01*
X596889Y524037D01*
X596901Y524043D01*
X596926Y524048D01*
X596970Y524075D01*
X597019Y524093D01*
X597067Y524131D01*
X597106Y524152D01*
X597116Y524162D01*
X597137Y524175D01*
X597171Y524214D01*
X597211Y524247D01*
X597243Y524296D01*
X597276Y524330D01*
X597282Y524344D01*
X597297Y524362D01*
X597316Y524410D01*
X597344Y524454D01*
X597358Y524508D01*
X597379Y524553D01*
X597381Y524571D01*
X597389Y524590D01*
X597397Y524661D01*
X597405Y524692D01*
X597403Y524716D01*
X597407Y524756D01*
X597407Y542043D01*
X597393Y542134D01*
X597385Y542224D01*
X597373Y542254D01*
X597368Y542286D01*
X597325Y542367D01*
X597289Y542451D01*
X597263Y542483D01*
X597252Y542504D01*
X597229Y542526D01*
X597184Y542582D01*
X591423Y548343D01*
X591406Y548355D01*
X591394Y548371D01*
X591307Y548427D01*
X591223Y548487D01*
X591204Y548493D01*
X591187Y548504D01*
X591087Y548529D01*
X590988Y548559D01*
X590968Y548559D01*
X590949Y548564D01*
X590846Y548556D01*
X590742Y548553D01*
X590723Y548546D01*
X590703Y548545D01*
X590608Y548504D01*
X590511Y548469D01*
X590495Y548456D01*
X590477Y548448D01*
X590346Y548343D01*
X590298Y548295D01*
X582722Y548295D01*
X577365Y553652D01*
X577365Y561228D01*
X582722Y566585D01*
X590298Y566585D01*
X595655Y561228D01*
X595655Y553652D01*
X594657Y552654D01*
X594645Y552638D01*
X594629Y552625D01*
X594573Y552538D01*
X594513Y552454D01*
X594507Y552435D01*
X594496Y552418D01*
X594471Y552318D01*
X594441Y552219D01*
X594441Y552199D01*
X594436Y552180D01*
X594444Y552077D01*
X594447Y551973D01*
X594454Y551954D01*
X594455Y551935D01*
X594496Y551840D01*
X594531Y551742D01*
X594544Y551727D01*
X594552Y551708D01*
X594657Y551577D01*
X601981Y544253D01*
X601981Y523233D01*
X601984Y523214D01*
X601982Y523196D01*
X601997Y523128D01*
X602003Y523052D01*
X602015Y523022D01*
X602020Y522990D01*
X602031Y522970D01*
X602034Y522956D01*
X602066Y522902D01*
X602099Y522825D01*
X602125Y522793D01*
X602136Y522772D01*
X602154Y522754D01*
X602160Y522745D01*
X602170Y522737D01*
X602204Y522694D01*
X603728Y521170D01*
X603786Y521128D01*
X603838Y521079D01*
X603858Y521070D01*
X603866Y521062D01*
X603892Y521052D01*
X603927Y521027D01*
X603996Y521006D01*
X604061Y520975D01*
X604091Y520972D01*
X604095Y520970D01*
X604119Y520968D01*
X604163Y520954D01*
X604226Y520956D01*
X604261Y520952D01*
X604266Y520952D01*
X604268Y520952D01*
X604305Y520948D01*
X604356Y520959D01*
X604408Y520961D01*
X604476Y520985D01*
X604496Y520990D01*
X604509Y520992D01*
X604511Y520993D01*
X604546Y521000D01*
X604591Y521027D01*
X604639Y521045D01*
X604695Y521090D01*
X604705Y521096D01*
X604726Y521107D01*
X604729Y521110D01*
X604757Y521127D01*
X604791Y521166D01*
X604831Y521199D01*
X604869Y521257D01*
X604896Y521285D01*
X604899Y521293D01*
X604917Y521314D01*
X604936Y521362D01*
X604964Y521406D01*
X604980Y521467D01*
X604999Y521508D01*
X605001Y521521D01*
X605009Y521542D01*
X605017Y521613D01*
X605025Y521644D01*
X605023Y521668D01*
X605027Y521708D01*
X605027Y584715D01*
X605013Y584806D01*
X605005Y584896D01*
X604993Y584926D01*
X604988Y584958D01*
X604945Y585039D01*
X604909Y585123D01*
X604883Y585155D01*
X604872Y585176D01*
X604849Y585198D01*
X604804Y585254D01*
X591169Y598889D01*
X591152Y598901D01*
X591139Y598917D01*
X591052Y598973D01*
X590969Y599033D01*
X590950Y599039D01*
X590932Y599050D01*
X590832Y599075D01*
X590734Y599105D01*
X590714Y599105D01*
X590694Y599110D01*
X590591Y599102D01*
X590488Y599099D01*
X590478Y599095D01*
X582722Y599095D01*
X577365Y604452D01*
X577365Y612028D01*
X582722Y617385D01*
X590298Y617385D01*
X595655Y612028D01*
X595655Y604452D01*
X594403Y603200D01*
X594391Y603184D01*
X594375Y603171D01*
X594319Y603084D01*
X594259Y603000D01*
X594253Y602981D01*
X594242Y602964D01*
X594217Y602864D01*
X594187Y602765D01*
X594187Y602745D01*
X594182Y602726D01*
X594190Y602623D01*
X594193Y602519D01*
X594200Y602500D01*
X594201Y602481D01*
X594242Y602386D01*
X594277Y602288D01*
X594290Y602273D01*
X594298Y602254D01*
X594403Y602123D01*
X606776Y589750D01*
X606834Y589708D01*
X606886Y589659D01*
X606933Y589637D01*
X606975Y589607D01*
X607044Y589586D01*
X607109Y589555D01*
X607161Y589550D01*
X607211Y589534D01*
X607282Y589536D01*
X607353Y589528D01*
X607404Y589539D01*
X607456Y589541D01*
X607524Y589565D01*
X607594Y589580D01*
X607638Y589607D01*
X607687Y589625D01*
X607743Y589670D01*
X607805Y589707D01*
X607839Y589746D01*
X607879Y589779D01*
X607918Y589839D01*
X607965Y589894D01*
X607984Y589942D01*
X608012Y589986D01*
X608030Y590055D01*
X608057Y590122D01*
X608065Y590193D01*
X608073Y590224D01*
X608071Y590248D01*
X608075Y590288D01*
X608075Y657867D01*
X608061Y657958D01*
X608053Y658048D01*
X608041Y658078D01*
X608036Y658110D01*
X607993Y658191D01*
X607957Y658275D01*
X607931Y658307D01*
X607920Y658328D01*
X607897Y658350D01*
X607852Y658406D01*
X591169Y675089D01*
X591152Y675101D01*
X591139Y675117D01*
X591052Y675173D01*
X590969Y675233D01*
X590950Y675239D01*
X590932Y675250D01*
X590832Y675275D01*
X590734Y675305D01*
X590714Y675305D01*
X590694Y675310D01*
X590591Y675302D01*
X590488Y675299D01*
X590478Y675295D01*
X582722Y675295D01*
X577365Y680652D01*
X577365Y688228D01*
X582722Y693585D01*
X590298Y693585D01*
X595655Y688228D01*
X595655Y680652D01*
X594403Y679400D01*
X594391Y679384D01*
X594375Y679371D01*
X594319Y679284D01*
X594259Y679200D01*
X594253Y679181D01*
X594242Y679164D01*
X594217Y679064D01*
X594187Y678965D01*
X594187Y678945D01*
X594182Y678926D01*
X594190Y678823D01*
X594193Y678719D01*
X594200Y678700D01*
X594201Y678681D01*
X594242Y678586D01*
X594277Y678488D01*
X594290Y678473D01*
X594298Y678454D01*
X594403Y678323D01*
X609824Y662902D01*
X609882Y662860D01*
X609934Y662811D01*
X609981Y662789D01*
X610023Y662759D01*
X610092Y662738D01*
X610157Y662707D01*
X610209Y662702D01*
X610259Y662686D01*
X610330Y662688D01*
X610401Y662680D01*
X610452Y662691D01*
X610504Y662693D01*
X610572Y662717D01*
X610642Y662732D01*
X610686Y662759D01*
X610735Y662777D01*
X610791Y662822D01*
X610853Y662859D01*
X610887Y662898D01*
X610927Y662931D01*
X610966Y662991D01*
X611013Y663046D01*
X611032Y663094D01*
X611060Y663138D01*
X611078Y663207D01*
X611105Y663274D01*
X611113Y663345D01*
X611121Y663376D01*
X611119Y663400D01*
X611123Y663440D01*
X611123Y681489D01*
X611109Y681580D01*
X611101Y681670D01*
X611089Y681700D01*
X611084Y681732D01*
X611041Y681813D01*
X611005Y681897D01*
X610979Y681929D01*
X610968Y681950D01*
X610945Y681972D01*
X610900Y682028D01*
X597407Y695521D01*
X597407Y719589D01*
X597393Y719680D01*
X597385Y719770D01*
X597373Y719800D01*
X597368Y719832D01*
X597325Y719913D01*
X597289Y719997D01*
X597263Y720029D01*
X597252Y720050D01*
X597229Y720072D01*
X597184Y720128D01*
X591296Y726016D01*
X591279Y726028D01*
X591267Y726044D01*
X591180Y726100D01*
X591096Y726160D01*
X591077Y726166D01*
X591060Y726177D01*
X590960Y726202D01*
X590861Y726232D01*
X590841Y726232D01*
X590821Y726237D01*
X590718Y726229D01*
X590615Y726226D01*
X590596Y726219D01*
X590576Y726218D01*
X590481Y726177D01*
X590384Y726142D01*
X590368Y726129D01*
X590350Y726121D01*
X590317Y726095D01*
X582722Y726095D01*
X577365Y731452D01*
X577365Y739028D01*
X582273Y743936D01*
X582315Y743994D01*
X582364Y744046D01*
X582386Y744093D01*
X582417Y744135D01*
X582438Y744204D01*
X582468Y744269D01*
X582474Y744321D01*
X582489Y744371D01*
X582487Y744442D01*
X582495Y744513D01*
X582484Y744564D01*
X582483Y744616D01*
X582458Y744684D01*
X582443Y744754D01*
X582416Y744799D01*
X582398Y744847D01*
X582353Y744903D01*
X582317Y744965D01*
X582277Y744999D01*
X582245Y745039D01*
X582184Y745078D01*
X582130Y745125D01*
X582081Y745144D01*
X582038Y745172D01*
X581968Y745190D01*
X581902Y745217D01*
X581830Y745225D01*
X581799Y745233D01*
X581776Y745231D01*
X581735Y745235D01*
X565885Y745235D01*
X565814Y745224D01*
X565743Y745222D01*
X565694Y745204D01*
X565642Y745196D01*
X565579Y745162D01*
X565512Y745137D01*
X565471Y745105D01*
X565425Y745080D01*
X565376Y745028D01*
X565320Y744984D01*
X565291Y744940D01*
X565256Y744902D01*
X565225Y744837D01*
X565187Y744777D01*
X565174Y744726D01*
X565152Y744679D01*
X565144Y744608D01*
X565127Y744538D01*
X565131Y744486D01*
X565125Y744435D01*
X565140Y744364D01*
X565146Y744293D01*
X565166Y744245D01*
X565177Y744194D01*
X565214Y744133D01*
X565242Y744067D01*
X565287Y744011D01*
X565303Y743983D01*
X565321Y743968D01*
X565347Y743936D01*
X570255Y739028D01*
X570255Y731452D01*
X564898Y726095D01*
X557322Y726095D01*
X551965Y731452D01*
X551965Y739028D01*
X556873Y743936D01*
X556915Y743994D01*
X556964Y744046D01*
X556986Y744093D01*
X557017Y744135D01*
X557038Y744204D01*
X557068Y744269D01*
X557074Y744321D01*
X557089Y744371D01*
X557087Y744442D01*
X557095Y744513D01*
X557084Y744564D01*
X557083Y744616D01*
X557058Y744684D01*
X557043Y744754D01*
X557016Y744799D01*
X556998Y744847D01*
X556953Y744903D01*
X556917Y744965D01*
X556877Y744999D01*
X556845Y745039D01*
X556784Y745078D01*
X556730Y745125D01*
X556681Y745144D01*
X556638Y745172D01*
X556568Y745190D01*
X556502Y745217D01*
X556430Y745225D01*
X556399Y745233D01*
X556376Y745231D01*
X556335Y745235D01*
X555999Y745235D01*
X555908Y745221D01*
X555818Y745213D01*
X555788Y745201D01*
X555756Y745196D01*
X555675Y745153D01*
X555591Y745117D01*
X555559Y745091D01*
X555538Y745080D01*
X555516Y745057D01*
X555460Y745012D01*
X531299Y720851D01*
X463873Y720851D01*
X463334Y721390D01*
X463260Y721443D01*
X463190Y721503D01*
X463160Y721515D01*
X463134Y721534D01*
X463047Y721561D01*
X462962Y721595D01*
X462921Y721599D01*
X462899Y721606D01*
X462867Y721605D01*
X462795Y721613D01*
X462273Y721613D01*
X462183Y721599D01*
X462092Y721591D01*
X462062Y721579D01*
X462030Y721574D01*
X461949Y721531D01*
X461865Y721495D01*
X461833Y721469D01*
X461812Y721458D01*
X461790Y721435D01*
X461734Y721390D01*
X461114Y720770D01*
X461087Y720733D01*
X461053Y720702D01*
X461016Y720634D01*
X460970Y720570D01*
X460957Y720526D01*
X460935Y720486D01*
X460921Y720410D01*
X460898Y720335D01*
X460899Y720289D01*
X460891Y720244D01*
X460902Y720167D01*
X460904Y720089D01*
X460920Y720046D01*
X460927Y720001D01*
X460962Y719931D01*
X460989Y719858D01*
X461018Y719823D01*
X461038Y719782D01*
X461094Y719727D01*
X461143Y719666D01*
X461181Y719641D01*
X461214Y719609D01*
X461334Y719544D01*
X461350Y719533D01*
X461354Y719532D01*
X461361Y719528D01*
X461731Y719375D01*
X464875Y716231D01*
X466577Y712123D01*
X466577Y707677D01*
X464875Y703569D01*
X461731Y700425D01*
X457623Y698723D01*
X453177Y698723D01*
X449069Y700425D01*
X445925Y703569D01*
X444223Y707677D01*
X444223Y712123D01*
X445925Y716231D01*
X449069Y719375D01*
X449291Y719467D01*
X449330Y719491D01*
X449373Y719507D01*
X449433Y719556D01*
X449500Y719597D01*
X449529Y719632D01*
X449565Y719661D01*
X449607Y719726D01*
X449656Y719786D01*
X449673Y719829D01*
X449698Y719868D01*
X449717Y719943D01*
X449745Y720016D01*
X449747Y720062D01*
X449758Y720106D01*
X449752Y720184D01*
X449755Y720261D01*
X449742Y720306D01*
X449739Y720351D01*
X449708Y720423D01*
X449687Y720498D01*
X449660Y720535D01*
X449642Y720578D01*
X449557Y720685D01*
X449546Y720700D01*
X449542Y720703D01*
X449537Y720709D01*
X449356Y720890D01*
X449340Y720901D01*
X449328Y720917D01*
X449241Y720973D01*
X449156Y721033D01*
X449138Y721039D01*
X449121Y721050D01*
X449020Y721075D01*
X448921Y721106D01*
X448902Y721105D01*
X448882Y721110D01*
X448779Y721102D01*
X448675Y721099D01*
X448657Y721092D01*
X448637Y721091D01*
X448542Y721050D01*
X448444Y721015D01*
X448429Y721002D01*
X448411Y720995D01*
X448280Y720890D01*
X422333Y694943D01*
X215461Y694943D01*
X215041Y695363D01*
X215025Y695374D01*
X215013Y695390D01*
X214926Y695446D01*
X214842Y695506D01*
X214823Y695512D01*
X214806Y695523D01*
X214705Y695548D01*
X214606Y695579D01*
X214587Y695578D01*
X214567Y695583D01*
X214464Y695575D01*
X214361Y695572D01*
X214342Y695565D01*
X214322Y695564D01*
X214227Y695524D01*
X214130Y695488D01*
X214114Y695475D01*
X214096Y695468D01*
X213965Y695363D01*
X213809Y695207D01*
X213782Y695169D01*
X213748Y695138D01*
X213710Y695070D01*
X213665Y695007D01*
X213652Y694963D01*
X213629Y694923D01*
X213616Y694846D01*
X213593Y694772D01*
X213594Y694726D01*
X213586Y694681D01*
X213597Y694604D01*
X213599Y694526D01*
X213615Y694483D01*
X213622Y694437D01*
X213657Y694368D01*
X213683Y694295D01*
X213712Y694259D01*
X213733Y694218D01*
X213789Y694164D01*
X213837Y694103D01*
X213876Y694078D01*
X213909Y694046D01*
X214024Y693983D01*
X217175Y690831D01*
X218877Y686723D01*
X218877Y682277D01*
X217175Y678169D01*
X214031Y675025D01*
X209923Y673323D01*
X205477Y673323D01*
X201369Y675025D01*
X198225Y678169D01*
X196523Y682277D01*
X196523Y686723D01*
X198225Y690831D01*
X201369Y693975D01*
X201805Y694156D01*
X201844Y694180D01*
X201888Y694196D01*
X201948Y694245D01*
X202015Y694286D01*
X202044Y694321D01*
X202080Y694350D01*
X202122Y694415D01*
X202171Y694475D01*
X202188Y694518D01*
X202213Y694557D01*
X202232Y694632D01*
X202260Y694705D01*
X202261Y694751D01*
X202273Y694795D01*
X202267Y694873D01*
X202270Y694950D01*
X202257Y694995D01*
X202254Y695040D01*
X202223Y695112D01*
X202201Y695187D01*
X202175Y695224D01*
X202157Y695267D01*
X202072Y695373D01*
X202061Y695389D01*
X202057Y695392D01*
X202052Y695398D01*
X201706Y695744D01*
X201690Y695755D01*
X201678Y695771D01*
X201590Y695827D01*
X201507Y695887D01*
X201488Y695893D01*
X201471Y695904D01*
X201370Y695929D01*
X201271Y695960D01*
X201252Y695959D01*
X201232Y695964D01*
X201129Y695956D01*
X201026Y695953D01*
X201007Y695946D01*
X200987Y695945D01*
X200892Y695905D01*
X200795Y695869D01*
X200779Y695856D01*
X200761Y695849D01*
X200630Y695744D01*
X148775Y643889D01*
X107021Y643889D01*
X106950Y643878D01*
X106879Y643876D01*
X106830Y643858D01*
X106778Y643850D01*
X106715Y643816D01*
X106648Y643791D01*
X106607Y643759D01*
X106561Y643734D01*
X106512Y643682D01*
X106456Y643638D01*
X106427Y643594D01*
X106392Y643556D01*
X106361Y643491D01*
X106323Y643431D01*
X106310Y643380D01*
X106288Y643333D01*
X106280Y643262D01*
X106263Y643192D01*
X106267Y643140D01*
X106261Y643089D01*
X106276Y643018D01*
X106282Y642947D01*
X106302Y642899D01*
X106313Y642848D01*
X106350Y642787D01*
X106378Y642721D01*
X106423Y642665D01*
X106439Y642637D01*
X106457Y642622D01*
X106483Y642590D01*
X111415Y637658D01*
X111415Y630082D01*
X106058Y624725D01*
X98482Y624725D01*
X93125Y630082D01*
X93125Y637658D01*
X98057Y642590D01*
X98099Y642648D01*
X98148Y642700D01*
X98170Y642747D01*
X98201Y642789D01*
X98222Y642858D01*
X98252Y642923D01*
X98258Y642975D01*
X98273Y643025D01*
X98271Y643096D01*
X98279Y643167D01*
X98268Y643218D01*
X98267Y643270D01*
X98242Y643338D01*
X98227Y643408D01*
X98200Y643453D01*
X98182Y643501D01*
X98137Y643557D01*
X98101Y643619D01*
X98061Y643653D01*
X98029Y643693D01*
X97968Y643732D01*
X97914Y643779D01*
X97865Y643798D01*
X97822Y643826D01*
X97752Y643844D01*
X97686Y643871D01*
X97614Y643879D01*
X97583Y643887D01*
X97560Y643885D01*
X97519Y643889D01*
X90417Y643889D01*
X90326Y643875D01*
X90236Y643867D01*
X90206Y643855D01*
X90174Y643850D01*
X90093Y643807D01*
X90009Y643771D01*
X89977Y643745D01*
X89956Y643734D01*
X89934Y643711D01*
X89878Y643666D01*
X85481Y639269D01*
X85469Y639252D01*
X85453Y639240D01*
X85397Y639153D01*
X85337Y639069D01*
X85331Y639050D01*
X85320Y639033D01*
X85295Y638933D01*
X85265Y638834D01*
X85265Y638814D01*
X85260Y638795D01*
X85268Y638692D01*
X85271Y638588D01*
X85278Y638569D01*
X85279Y638549D01*
X85320Y638454D01*
X85355Y638357D01*
X85368Y638341D01*
X85376Y638323D01*
X85481Y638192D01*
X86015Y637658D01*
X86015Y630082D01*
X80658Y624725D01*
X73082Y624725D01*
X67725Y630082D01*
X67725Y637658D01*
X73082Y643015D01*
X80658Y643015D01*
X81170Y642503D01*
X81186Y642491D01*
X81199Y642475D01*
X81286Y642419D01*
X81370Y642359D01*
X81389Y642353D01*
X81406Y642342D01*
X81506Y642317D01*
X81605Y642287D01*
X81625Y642287D01*
X81644Y642282D01*
X81747Y642290D01*
X81851Y642293D01*
X81870Y642300D01*
X81889Y642301D01*
X81984Y642342D01*
X82082Y642377D01*
X82097Y642390D01*
X82116Y642398D01*
X82247Y642503D01*
X86644Y646900D01*
X88207Y648463D01*
X146565Y648463D01*
X146656Y648477D01*
X146746Y648485D01*
X146776Y648497D01*
X146808Y648502D01*
X146889Y648545D01*
X146973Y648581D01*
X147005Y648607D01*
X147026Y648618D01*
X147048Y648641D01*
X147104Y648686D01*
X199568Y701150D01*
X199579Y701166D01*
X199595Y701178D01*
X199651Y701266D01*
X199711Y701349D01*
X199717Y701368D01*
X199728Y701385D01*
X199753Y701486D01*
X199784Y701584D01*
X199783Y701604D01*
X199788Y701624D01*
X199780Y701727D01*
X199777Y701830D01*
X199770Y701849D01*
X199769Y701869D01*
X199728Y701964D01*
X199693Y702061D01*
X199680Y702077D01*
X199672Y702095D01*
X199568Y702226D01*
X198225Y703569D01*
X196523Y707677D01*
X196523Y712123D01*
X198225Y716231D01*
X201369Y719375D01*
X205477Y721077D01*
X209923Y721077D01*
X214031Y719375D01*
X217175Y716231D01*
X218877Y712123D01*
X218877Y707677D01*
X217175Y703569D01*
X215185Y701578D01*
X215143Y701520D01*
X215093Y701468D01*
X215071Y701421D01*
X215041Y701379D01*
X215020Y701310D01*
X214990Y701245D01*
X214984Y701193D01*
X214969Y701143D01*
X214971Y701072D01*
X214963Y701001D01*
X214974Y700950D01*
X214975Y700898D01*
X215000Y700830D01*
X215015Y700760D01*
X215042Y700715D01*
X215059Y700667D01*
X215104Y700611D01*
X215141Y700549D01*
X215181Y700515D01*
X215213Y700475D01*
X215273Y700436D01*
X215328Y700389D01*
X215376Y700370D01*
X215420Y700342D01*
X215490Y700324D01*
X215556Y700297D01*
X215627Y700289D01*
X215659Y700281D01*
X215682Y700283D01*
X215723Y700279D01*
X216593Y700279D01*
X217132Y699740D01*
X217206Y699687D01*
X217276Y699627D01*
X217306Y699615D01*
X217332Y699596D01*
X217419Y699569D01*
X217504Y699535D01*
X217545Y699531D01*
X217567Y699524D01*
X217599Y699525D01*
X217671Y699517D01*
X420123Y699517D01*
X420214Y699531D01*
X420304Y699539D01*
X420334Y699551D01*
X420366Y699556D01*
X420447Y699599D01*
X420531Y699635D01*
X420563Y699661D01*
X420584Y699672D01*
X420606Y699695D01*
X420662Y699740D01*
X447186Y726264D01*
X447243Y726285D01*
X447283Y726317D01*
X447329Y726342D01*
X447379Y726394D01*
X447435Y726438D01*
X447463Y726482D01*
X447499Y726520D01*
X447529Y726585D01*
X447568Y726645D01*
X447580Y726696D01*
X447602Y726743D01*
X447610Y726814D01*
X447628Y726884D01*
X447624Y726936D01*
X447629Y726987D01*
X447614Y727058D01*
X447609Y727129D01*
X447588Y727177D01*
X447577Y727228D01*
X447540Y727289D01*
X447512Y727355D01*
X447467Y727411D01*
X447451Y727439D01*
X447433Y727454D01*
X447407Y727486D01*
X445925Y728969D01*
X444223Y733077D01*
X444223Y737523D01*
X445925Y741631D01*
X449069Y744775D01*
X453177Y746477D01*
X457623Y746477D01*
X461731Y744775D01*
X464875Y741631D01*
X466577Y737523D01*
X466577Y733077D01*
X464875Y728969D01*
X463393Y727486D01*
X463351Y727428D01*
X463301Y727376D01*
X463279Y727329D01*
X463249Y727287D01*
X463228Y727218D01*
X463198Y727153D01*
X463192Y727101D01*
X463177Y727051D01*
X463179Y726980D01*
X463171Y726909D01*
X463182Y726858D01*
X463183Y726806D01*
X463208Y726738D01*
X463223Y726668D01*
X463250Y726623D01*
X463267Y726575D01*
X463312Y726519D01*
X463349Y726457D01*
X463389Y726423D01*
X463421Y726383D01*
X463481Y726344D01*
X463536Y726297D01*
X463584Y726278D01*
X463628Y726250D01*
X463698Y726232D01*
X463764Y726205D01*
X463835Y726197D01*
X463867Y726189D01*
X463890Y726191D01*
X463931Y726187D01*
X465005Y726187D01*
X465544Y725648D01*
X465618Y725595D01*
X465688Y725535D01*
X465718Y725523D01*
X465744Y725504D01*
X465831Y725477D01*
X465916Y725443D01*
X465957Y725439D01*
X465979Y725432D01*
X466011Y725433D01*
X466083Y725425D01*
X529089Y725425D01*
X529180Y725439D01*
X529270Y725447D01*
X529300Y725459D01*
X529332Y725464D01*
X529413Y725507D01*
X529497Y725543D01*
X529529Y725569D01*
X529550Y725580D01*
X529572Y725603D01*
X529628Y725648D01*
X553789Y749809D01*
X616720Y749809D01*
X616790Y749820D01*
X616862Y749822D01*
X616911Y749840D01*
X616962Y749848D01*
X617026Y749882D01*
X617093Y749907D01*
X617134Y749939D01*
X617180Y749964D01*
X617229Y750015D01*
X617285Y750060D01*
X617313Y750104D01*
X617349Y750142D01*
X617379Y750207D01*
X617418Y750267D01*
X617431Y750318D01*
X617453Y750365D01*
X617461Y750436D01*
X617478Y750506D01*
X617474Y750558D01*
X617480Y750609D01*
X617465Y750680D01*
X617459Y750751D01*
X617439Y750799D01*
X617428Y750850D01*
X617391Y750911D01*
X617363Y750977D01*
X617318Y751033D01*
X617301Y751061D01*
X617284Y751076D01*
X617258Y751108D01*
X591423Y776943D01*
X591406Y776955D01*
X591394Y776971D01*
X591307Y777027D01*
X591223Y777087D01*
X591204Y777093D01*
X591187Y777104D01*
X591087Y777129D01*
X590988Y777159D01*
X590968Y777159D01*
X590949Y777164D01*
X590846Y777156D01*
X590742Y777153D01*
X590723Y777146D01*
X590703Y777145D01*
X590608Y777104D01*
X590511Y777069D01*
X590495Y777056D01*
X590477Y777048D01*
X590346Y776943D01*
X590298Y776895D01*
X582722Y776895D01*
X577365Y782252D01*
X577365Y789828D01*
X582722Y795185D01*
X590298Y795185D01*
X595655Y789828D01*
X595655Y782252D01*
X594657Y781254D01*
X594645Y781238D01*
X594629Y781225D01*
X594573Y781138D01*
X594513Y781054D01*
X594507Y781035D01*
X594496Y781018D01*
X594471Y780918D01*
X594441Y780819D01*
X594441Y780799D01*
X594436Y780780D01*
X594444Y780677D01*
X594447Y780573D01*
X594454Y780554D01*
X594455Y780535D01*
X594496Y780440D01*
X594531Y780342D01*
X594544Y780327D01*
X594552Y780308D01*
X594657Y780177D01*
X733042Y641792D01*
X733116Y641739D01*
X733186Y641679D01*
X733216Y641667D01*
X733242Y641648D01*
X733329Y641621D01*
X733414Y641587D01*
X733455Y641583D01*
X733477Y641576D01*
X733509Y641577D01*
X733581Y641569D01*
X735370Y641569D01*
X737581Y639358D01*
X737581Y636230D01*
X735201Y633851D01*
X735190Y633835D01*
X735174Y633822D01*
X735118Y633735D01*
X735058Y633651D01*
X735052Y633632D01*
X735041Y633616D01*
X735016Y633515D01*
X734985Y633416D01*
X734986Y633396D01*
X734981Y633377D01*
X734989Y633274D01*
X734992Y633170D01*
X734999Y633152D01*
X735000Y633132D01*
X735041Y633037D01*
X735076Y632939D01*
X735089Y632924D01*
X735097Y632905D01*
X735201Y632775D01*
X744436Y623540D01*
X744510Y623487D01*
X744580Y623427D01*
X744610Y623415D01*
X744636Y623396D01*
X744723Y623369D01*
X744808Y623335D01*
X744849Y623331D01*
X744871Y623324D01*
X744903Y623325D01*
X744975Y623317D01*
X1326141Y623317D01*
X1326232Y623331D01*
X1326322Y623339D01*
X1326352Y623351D01*
X1326384Y623356D01*
X1326465Y623399D01*
X1326549Y623435D01*
X1326581Y623461D01*
X1326602Y623472D01*
X1326624Y623495D01*
X1326680Y623540D01*
X1398947Y695807D01*
X1398958Y695823D01*
X1398974Y695835D01*
X1399030Y695923D01*
X1399090Y696006D01*
X1399096Y696025D01*
X1399107Y696042D01*
X1399132Y696143D01*
X1399163Y696241D01*
X1399162Y696261D01*
X1399167Y696281D01*
X1399159Y696384D01*
X1399156Y696487D01*
X1399149Y696506D01*
X1399148Y696526D01*
X1399107Y696621D01*
X1399072Y696718D01*
X1399059Y696734D01*
X1399051Y696752D01*
X1398947Y696883D01*
X1398893Y696936D01*
X1398893Y705144D01*
X1404696Y710947D01*
X1412904Y710947D01*
X1418707Y705144D01*
X1418707Y696936D01*
X1412904Y691133D01*
X1404696Y691133D01*
X1403257Y692573D01*
X1403241Y692584D01*
X1403228Y692600D01*
X1403141Y692656D01*
X1403057Y692716D01*
X1403038Y692722D01*
X1403022Y692733D01*
X1402921Y692758D01*
X1402822Y692789D01*
X1402802Y692788D01*
X1402783Y692793D01*
X1402680Y692785D01*
X1402576Y692782D01*
X1402558Y692775D01*
X1402538Y692774D01*
X1402443Y692733D01*
X1402345Y692698D01*
X1402330Y692685D01*
X1402312Y692677D01*
X1402181Y692573D01*
X1328351Y618743D01*
X742765Y618743D01*
X616496Y745012D01*
X616422Y745065D01*
X616352Y745125D01*
X616322Y745137D01*
X616296Y745156D01*
X616209Y745183D01*
X616124Y745217D01*
X616083Y745221D01*
X616061Y745228D01*
X616029Y745227D01*
X615957Y745235D01*
X591285Y745235D01*
X591214Y745224D01*
X591143Y745222D01*
X591094Y745204D01*
X591042Y745196D01*
X590979Y745162D01*
X590912Y745137D01*
X590871Y745105D01*
X590825Y745080D01*
X590776Y745028D01*
X590720Y744984D01*
X590691Y744940D01*
X590656Y744902D01*
X590625Y744837D01*
X590587Y744777D01*
X590574Y744726D01*
X590552Y744679D01*
X590544Y744608D01*
X590527Y744538D01*
X590531Y744486D01*
X590525Y744435D01*
X590540Y744364D01*
X590546Y744293D01*
X590566Y744245D01*
X590577Y744194D01*
X590614Y744133D01*
X590642Y744067D01*
X590687Y744011D01*
X590703Y743983D01*
X590721Y743968D01*
X590747Y743936D01*
X595655Y739028D01*
X595655Y731452D01*
X594530Y730327D01*
X594518Y730311D01*
X594502Y730298D01*
X594446Y730211D01*
X594386Y730127D01*
X594380Y730108D01*
X594369Y730091D01*
X594344Y729991D01*
X594314Y729892D01*
X594314Y729872D01*
X594309Y729853D01*
X594317Y729750D01*
X594320Y729646D01*
X594327Y729627D01*
X594328Y729608D01*
X594369Y729513D01*
X594404Y729415D01*
X594417Y729400D01*
X594425Y729381D01*
X594530Y729250D01*
X601981Y721799D01*
X601981Y697731D01*
X601995Y697640D01*
X602003Y697550D01*
X602015Y697520D01*
X602020Y697488D01*
X602063Y697407D01*
X602099Y697323D01*
X602125Y697291D01*
X602136Y697270D01*
X602159Y697248D01*
X602204Y697192D01*
X612201Y687195D01*
X612217Y687184D01*
X612229Y687168D01*
X612317Y687112D01*
X612400Y687052D01*
X612419Y687046D01*
X612436Y687035D01*
X612537Y687010D01*
X612635Y686979D01*
X612655Y686980D01*
X612675Y686975D01*
X612778Y686983D01*
X612881Y686986D01*
X612900Y686993D01*
X612920Y686994D01*
X613015Y687035D01*
X613112Y687070D01*
X613128Y687083D01*
X613146Y687091D01*
X613277Y687195D01*
X615656Y689575D01*
X618784Y689575D01*
X620995Y687364D01*
X620995Y684236D01*
X619730Y682971D01*
X619677Y682897D01*
X619617Y682828D01*
X619605Y682798D01*
X619586Y682772D01*
X619559Y682685D01*
X619525Y682600D01*
X619521Y682559D01*
X619514Y682537D01*
X619515Y682504D01*
X619507Y682433D01*
X619507Y528792D01*
X619510Y528772D01*
X619508Y528753D01*
X619530Y528651D01*
X619546Y528549D01*
X619556Y528532D01*
X619560Y528512D01*
X619613Y528423D01*
X619662Y528332D01*
X619676Y528318D01*
X619686Y528301D01*
X619765Y528234D01*
X619840Y528162D01*
X619858Y528154D01*
X619873Y528141D01*
X619969Y528102D01*
X620063Y528059D01*
X620083Y528057D01*
X620101Y528049D01*
X620268Y528031D01*
X623356Y528031D01*
X625567Y525820D01*
X625567Y522692D01*
X624302Y521427D01*
X624249Y521353D01*
X624189Y521284D01*
X624177Y521254D01*
X624158Y521228D01*
X624131Y521141D01*
X624097Y521056D01*
X624093Y521015D01*
X624086Y520993D01*
X624087Y520960D01*
X624079Y520889D01*
X624079Y489705D01*
X624093Y489614D01*
X624101Y489524D01*
X624113Y489494D01*
X624118Y489462D01*
X624161Y489381D01*
X624197Y489297D01*
X624223Y489265D01*
X624234Y489244D01*
X624257Y489222D01*
X624302Y489166D01*
X678943Y434525D01*
X678943Y120211D01*
X673034Y114302D01*
X672981Y114228D01*
X672921Y114158D01*
X672909Y114128D01*
X672890Y114102D01*
X672863Y114015D01*
X672829Y113930D01*
X672825Y113889D01*
X672818Y113867D01*
X672819Y113835D01*
X672811Y113764D01*
X672811Y111974D01*
X670600Y109763D01*
X667472Y109763D01*
X665261Y111974D01*
X665261Y115102D01*
X667472Y117313D01*
X669262Y117313D01*
X669352Y117327D01*
X669443Y117335D01*
X669472Y117347D01*
X669504Y117352D01*
X669585Y117395D01*
X669669Y117431D01*
X669701Y117457D01*
X669722Y117468D01*
X669744Y117491D01*
X669800Y117536D01*
X674146Y121882D01*
X674199Y121956D01*
X674259Y122026D01*
X674271Y122056D01*
X674290Y122082D01*
X674317Y122169D01*
X674351Y122254D01*
X674355Y122295D01*
X674362Y122317D01*
X674361Y122349D01*
X674369Y122421D01*
X674369Y289596D01*
X674366Y289616D01*
X674368Y289635D01*
X674346Y289737D01*
X674330Y289839D01*
X674320Y289856D01*
X674316Y289876D01*
X674263Y289965D01*
X674214Y290056D01*
X674200Y290070D01*
X674190Y290087D01*
X674111Y290154D01*
X674036Y290226D01*
X674018Y290234D01*
X674003Y290247D01*
X673907Y290286D01*
X673813Y290329D01*
X673793Y290331D01*
X673775Y290339D01*
X673608Y290357D01*
X670560Y290357D01*
X670540Y290354D01*
X670521Y290356D01*
X670419Y290334D01*
X670317Y290318D01*
X670300Y290308D01*
X670280Y290304D01*
X670191Y290251D01*
X670100Y290202D01*
X670086Y290188D01*
X670069Y290178D01*
X670002Y290099D01*
X669930Y290024D01*
X669922Y290006D01*
X669909Y289991D01*
X669870Y289895D01*
X669827Y289801D01*
X669825Y289781D01*
X669817Y289763D01*
X669799Y289596D01*
X669799Y250513D01*
X653981Y234695D01*
X577335Y234695D01*
X577244Y234681D01*
X577154Y234673D01*
X577124Y234661D01*
X577092Y234656D01*
X577011Y234613D01*
X576927Y234577D01*
X576895Y234551D01*
X576874Y234540D01*
X576852Y234517D01*
X576796Y234472D01*
X566037Y223713D01*
X566026Y223697D01*
X566010Y223685D01*
X565954Y223598D01*
X565894Y223514D01*
X565888Y223495D01*
X565877Y223478D01*
X565852Y223377D01*
X565821Y223279D01*
X565822Y223259D01*
X565817Y223239D01*
X565825Y223136D01*
X565828Y223033D01*
X565835Y223014D01*
X565836Y222994D01*
X565877Y222899D01*
X565912Y222802D01*
X565925Y222786D01*
X565933Y222768D01*
X566037Y222637D01*
X567471Y221204D01*
X567545Y221151D01*
X567614Y221091D01*
X567644Y221079D01*
X567670Y221060D01*
X567757Y221033D01*
X567842Y220999D01*
X567883Y220995D01*
X567905Y220988D01*
X567938Y220989D01*
X568009Y220981D01*
X644075Y220981D01*
X655318Y209738D01*
X655392Y209685D01*
X655462Y209625D01*
X655492Y209613D01*
X655518Y209594D01*
X655605Y209567D01*
X655690Y209533D01*
X655731Y209529D01*
X655753Y209522D01*
X655785Y209523D01*
X655857Y209515D01*
X657646Y209515D01*
X659857Y207304D01*
X659857Y204176D01*
X657646Y201965D01*
X654518Y201965D01*
X653191Y203292D01*
X653175Y203304D01*
X653163Y203320D01*
X653099Y203360D01*
X653053Y203400D01*
X653027Y203411D01*
X652992Y203436D01*
X652973Y203442D01*
X652956Y203453D01*
X652868Y203475D01*
X652824Y203492D01*
X652800Y203495D01*
X652756Y203508D01*
X652737Y203508D01*
X652717Y203513D01*
X652672Y203509D01*
X652658Y203511D01*
X652648Y203511D01*
X652611Y203505D01*
X652511Y203502D01*
X652492Y203495D01*
X652472Y203494D01*
X652427Y203475D01*
X652406Y203471D01*
X652360Y203447D01*
X652280Y203418D01*
X652264Y203405D01*
X652246Y203397D01*
X652205Y203365D01*
X652188Y203356D01*
X652170Y203336D01*
X652115Y203292D01*
X650788Y201965D01*
X648999Y201965D01*
X648908Y201951D01*
X648818Y201943D01*
X648788Y201931D01*
X648756Y201926D01*
X648675Y201883D01*
X648591Y201847D01*
X648559Y201821D01*
X648538Y201810D01*
X648516Y201787D01*
X648460Y201742D01*
X645599Y198881D01*
X595884Y198881D01*
X595864Y198878D01*
X595845Y198880D01*
X595743Y198858D01*
X595641Y198842D01*
X595624Y198832D01*
X595604Y198828D01*
X595515Y198775D01*
X595424Y198726D01*
X595410Y198712D01*
X595393Y198702D01*
X595326Y198623D01*
X595254Y198548D01*
X595246Y198530D01*
X595233Y198515D01*
X595194Y198419D01*
X595151Y198325D01*
X595149Y198305D01*
X595141Y198287D01*
X595123Y198120D01*
X595123Y178123D01*
X481769Y64769D01*
X322903Y64769D01*
G37*
%LPD*%
G36*
X545363Y328437D02*
X545363Y328437D01*
X545454Y328445D01*
X545484Y328457D01*
X545516Y328462D01*
X545597Y328505D01*
X545680Y328541D01*
X545713Y328567D01*
X545733Y328578D01*
X545755Y328601D01*
X545811Y328646D01*
X547076Y329911D01*
X550164Y329911D01*
X550184Y329914D01*
X550203Y329912D01*
X550305Y329934D01*
X550407Y329950D01*
X550424Y329960D01*
X550444Y329964D01*
X550533Y330017D01*
X550624Y330066D01*
X550638Y330080D01*
X550655Y330090D01*
X550722Y330169D01*
X550794Y330244D01*
X550802Y330262D01*
X550815Y330277D01*
X550854Y330373D01*
X550897Y330467D01*
X550899Y330487D01*
X550907Y330505D01*
X550925Y330672D01*
X550925Y468891D01*
X550911Y468982D01*
X550903Y469072D01*
X550891Y469102D01*
X550886Y469134D01*
X550843Y469215D01*
X550807Y469299D01*
X550781Y469331D01*
X550770Y469352D01*
X550747Y469374D01*
X550702Y469430D01*
X545591Y474541D01*
X545591Y544330D01*
X545580Y544400D01*
X545578Y544472D01*
X545560Y544521D01*
X545552Y544572D01*
X545518Y544636D01*
X545493Y544703D01*
X545461Y544744D01*
X545436Y544790D01*
X545385Y544839D01*
X545340Y544895D01*
X545296Y544923D01*
X545258Y544959D01*
X545193Y544989D01*
X545133Y545028D01*
X545082Y545041D01*
X545035Y545063D01*
X544964Y545071D01*
X544894Y545088D01*
X544842Y545084D01*
X544791Y545090D01*
X544720Y545075D01*
X544649Y545069D01*
X544601Y545049D01*
X544550Y545038D01*
X544489Y545001D01*
X544423Y544973D01*
X544367Y544928D01*
X544339Y544911D01*
X544324Y544894D01*
X544292Y544868D01*
X329146Y329722D01*
X329104Y329664D01*
X329055Y329612D01*
X329033Y329565D01*
X329003Y329523D01*
X328982Y329454D01*
X328951Y329389D01*
X328946Y329337D01*
X328930Y329287D01*
X328932Y329216D01*
X328924Y329145D01*
X328935Y329094D01*
X328937Y329042D01*
X328961Y328974D01*
X328976Y328904D01*
X329003Y328860D01*
X329021Y328811D01*
X329066Y328755D01*
X329103Y328693D01*
X329142Y328659D01*
X329175Y328619D01*
X329235Y328580D01*
X329290Y328533D01*
X329338Y328514D01*
X329382Y328486D01*
X329451Y328468D01*
X329518Y328441D01*
X329589Y328433D01*
X329620Y328425D01*
X329644Y328427D01*
X329684Y328423D01*
X545273Y328423D01*
X545363Y328437D01*
G37*
%LPC*%
G36*
X739717Y646937D02*
X739717Y646937D01*
X726947Y659707D01*
X726947Y660915D01*
X726933Y661006D01*
X726925Y661096D01*
X726913Y661126D01*
X726908Y661158D01*
X726865Y661239D01*
X726829Y661323D01*
X726803Y661355D01*
X726792Y661376D01*
X726769Y661398D01*
X726724Y661454D01*
X591350Y796828D01*
X591276Y796881D01*
X591206Y796941D01*
X591176Y796953D01*
X591150Y796972D01*
X591063Y796999D01*
X590978Y797033D01*
X590937Y797037D01*
X590915Y797044D01*
X590883Y797043D01*
X590811Y797051D01*
X582669Y797051D01*
X582578Y797037D01*
X582488Y797029D01*
X582458Y797017D01*
X582426Y797012D01*
X582345Y796969D01*
X582261Y796933D01*
X582229Y796907D01*
X582208Y796896D01*
X582186Y796873D01*
X582130Y796828D01*
X581591Y796289D01*
X565981Y796289D01*
X565442Y796828D01*
X565368Y796881D01*
X565298Y796941D01*
X565268Y796953D01*
X565242Y796972D01*
X565155Y796999D01*
X565070Y797033D01*
X565029Y797037D01*
X565007Y797044D01*
X564975Y797043D01*
X564903Y797051D01*
X463873Y797051D01*
X463334Y797590D01*
X463260Y797643D01*
X463190Y797703D01*
X463160Y797715D01*
X463134Y797734D01*
X463047Y797761D01*
X462962Y797795D01*
X462921Y797799D01*
X462899Y797806D01*
X462867Y797805D01*
X462796Y797813D01*
X462273Y797813D01*
X462182Y797799D01*
X462092Y797791D01*
X462062Y797779D01*
X462030Y797774D01*
X461949Y797731D01*
X461865Y797695D01*
X461833Y797669D01*
X461812Y797658D01*
X461790Y797635D01*
X461734Y797590D01*
X461114Y796970D01*
X461087Y796933D01*
X461053Y796902D01*
X461016Y796833D01*
X460970Y796770D01*
X460957Y796727D01*
X460935Y796686D01*
X460921Y796610D01*
X460898Y796535D01*
X460899Y796489D01*
X460891Y796444D01*
X460902Y796367D01*
X460904Y796289D01*
X460920Y796246D01*
X460927Y796201D01*
X460962Y796131D01*
X460989Y796058D01*
X461018Y796023D01*
X461038Y795982D01*
X461094Y795927D01*
X461143Y795866D01*
X461181Y795841D01*
X461214Y795809D01*
X461334Y795743D01*
X461350Y795733D01*
X461354Y795732D01*
X461361Y795728D01*
X461731Y795575D01*
X464875Y792431D01*
X466577Y788323D01*
X466577Y783877D01*
X464875Y779769D01*
X461731Y776625D01*
X457623Y774923D01*
X453177Y774923D01*
X449069Y776625D01*
X445925Y779769D01*
X444223Y783877D01*
X444223Y788323D01*
X445925Y792431D01*
X447721Y794228D01*
X447763Y794286D01*
X447813Y794338D01*
X447835Y794385D01*
X447865Y794427D01*
X447886Y794496D01*
X447916Y794561D01*
X447922Y794613D01*
X447937Y794663D01*
X447935Y794734D01*
X447943Y794805D01*
X447932Y794856D01*
X447931Y794908D01*
X447906Y794976D01*
X447891Y795046D01*
X447864Y795091D01*
X447847Y795139D01*
X447802Y795195D01*
X447765Y795257D01*
X447725Y795291D01*
X447693Y795331D01*
X447633Y795370D01*
X447578Y795417D01*
X447530Y795436D01*
X447486Y795464D01*
X447416Y795482D01*
X447350Y795509D01*
X447279Y795517D01*
X447247Y795525D01*
X447224Y795523D01*
X447183Y795527D01*
X268725Y795527D01*
X268634Y795513D01*
X268544Y795505D01*
X268514Y795493D01*
X268482Y795488D01*
X268401Y795445D01*
X268317Y795409D01*
X268285Y795383D01*
X268264Y795372D01*
X268242Y795349D01*
X268186Y795304D01*
X217355Y744473D01*
X216171Y744473D01*
X216100Y744462D01*
X216028Y744460D01*
X215979Y744442D01*
X215928Y744434D01*
X215865Y744400D01*
X215797Y744375D01*
X215757Y744343D01*
X215711Y744318D01*
X215661Y744266D01*
X215605Y744222D01*
X215577Y744178D01*
X215541Y744140D01*
X215511Y744075D01*
X215472Y744015D01*
X215460Y743964D01*
X215438Y743917D01*
X215430Y743846D01*
X215412Y743776D01*
X215416Y743724D01*
X215411Y743673D01*
X215426Y743602D01*
X215431Y743531D01*
X215452Y743483D01*
X215463Y743432D01*
X215500Y743371D01*
X215528Y743305D01*
X215573Y743249D01*
X215589Y743221D01*
X215607Y743206D01*
X215633Y743174D01*
X217175Y741631D01*
X218877Y737523D01*
X218877Y733077D01*
X217175Y728969D01*
X214031Y725825D01*
X209923Y724123D01*
X205477Y724123D01*
X201369Y725825D01*
X198225Y728969D01*
X196523Y733077D01*
X196523Y737523D01*
X198225Y741631D01*
X199767Y743174D01*
X199809Y743232D01*
X199859Y743284D01*
X199881Y743331D01*
X199911Y743373D01*
X199932Y743442D01*
X199962Y743507D01*
X199968Y743559D01*
X199983Y743609D01*
X199981Y743680D01*
X199989Y743751D01*
X199978Y743802D01*
X199977Y743854D01*
X199952Y743922D01*
X199937Y743992D01*
X199910Y744037D01*
X199893Y744085D01*
X199848Y744141D01*
X199811Y744203D01*
X199771Y744237D01*
X199739Y744277D01*
X199679Y744316D01*
X199624Y744363D01*
X199576Y744382D01*
X199532Y744410D01*
X199462Y744428D01*
X199396Y744455D01*
X199325Y744463D01*
X199293Y744471D01*
X199270Y744469D01*
X199229Y744473D01*
X198621Y744473D01*
X198530Y744459D01*
X198440Y744451D01*
X198410Y744439D01*
X198378Y744434D01*
X198297Y744391D01*
X198213Y744355D01*
X198181Y744329D01*
X198160Y744318D01*
X198138Y744295D01*
X198082Y744250D01*
X123629Y669797D01*
X107257Y669797D01*
X106718Y670336D01*
X106644Y670389D01*
X106574Y670449D01*
X106544Y670461D01*
X106518Y670480D01*
X106431Y670507D01*
X106346Y670541D01*
X106305Y670545D01*
X106283Y670552D01*
X106251Y670551D01*
X106179Y670559D01*
X98037Y670559D01*
X97946Y670545D01*
X97856Y670537D01*
X97826Y670525D01*
X97794Y670520D01*
X97713Y670477D01*
X97629Y670441D01*
X97597Y670415D01*
X97576Y670404D01*
X97554Y670381D01*
X97498Y670336D01*
X96959Y669797D01*
X91941Y669797D01*
X91850Y669783D01*
X91760Y669775D01*
X91730Y669763D01*
X91698Y669758D01*
X91617Y669715D01*
X91533Y669679D01*
X91501Y669653D01*
X91480Y669642D01*
X91458Y669619D01*
X91402Y669574D01*
X85989Y664161D01*
X85977Y664144D01*
X85961Y664132D01*
X85905Y664045D01*
X85845Y663961D01*
X85839Y663942D01*
X85828Y663925D01*
X85803Y663825D01*
X85773Y663726D01*
X85773Y663706D01*
X85768Y663687D01*
X85776Y663584D01*
X85779Y663480D01*
X85786Y663461D01*
X85787Y663441D01*
X85828Y663346D01*
X85863Y663249D01*
X85876Y663233D01*
X85884Y663215D01*
X85989Y663084D01*
X86015Y663058D01*
X86015Y655482D01*
X80658Y650125D01*
X73082Y650125D01*
X67725Y655482D01*
X67725Y663058D01*
X73082Y668415D01*
X80658Y668415D01*
X81678Y667395D01*
X81694Y667383D01*
X81707Y667367D01*
X81794Y667311D01*
X81878Y667251D01*
X81897Y667245D01*
X81914Y667234D01*
X82014Y667209D01*
X82113Y667179D01*
X82133Y667179D01*
X82152Y667174D01*
X82255Y667182D01*
X82359Y667185D01*
X82378Y667192D01*
X82397Y667193D01*
X82492Y667234D01*
X82590Y667269D01*
X82605Y667282D01*
X82624Y667290D01*
X82755Y667395D01*
X88168Y672808D01*
X89731Y674371D01*
X94749Y674371D01*
X94840Y674385D01*
X94930Y674393D01*
X94960Y674405D01*
X94992Y674410D01*
X95073Y674453D01*
X95157Y674489D01*
X95189Y674515D01*
X95210Y674526D01*
X95232Y674549D01*
X95288Y674594D01*
X95827Y675133D01*
X97037Y675133D01*
X97108Y675144D01*
X97179Y675146D01*
X97228Y675164D01*
X97280Y675172D01*
X97343Y675206D01*
X97410Y675231D01*
X97451Y675263D01*
X97497Y675288D01*
X97546Y675340D01*
X97602Y675384D01*
X97631Y675428D01*
X97666Y675466D01*
X97697Y675531D01*
X97735Y675591D01*
X97748Y675642D01*
X97770Y675689D01*
X97778Y675760D01*
X97795Y675830D01*
X97791Y675882D01*
X97797Y675933D01*
X97782Y676004D01*
X97776Y676075D01*
X97756Y676123D01*
X97745Y676174D01*
X97708Y676235D01*
X97680Y676301D01*
X97635Y676357D01*
X97619Y676385D01*
X97601Y676400D01*
X97575Y676432D01*
X93125Y680882D01*
X93125Y688458D01*
X98482Y693815D01*
X106058Y693815D01*
X111415Y688458D01*
X111415Y680882D01*
X106965Y676432D01*
X106923Y676374D01*
X106874Y676322D01*
X106852Y676275D01*
X106821Y676233D01*
X106800Y676164D01*
X106770Y676099D01*
X106764Y676047D01*
X106749Y675997D01*
X106751Y675926D01*
X106743Y675855D01*
X106754Y675804D01*
X106755Y675752D01*
X106780Y675684D01*
X106795Y675614D01*
X106822Y675569D01*
X106840Y675521D01*
X106885Y675465D01*
X106921Y675403D01*
X106961Y675369D01*
X106993Y675329D01*
X107054Y675290D01*
X107108Y675243D01*
X107157Y675224D01*
X107200Y675196D01*
X107270Y675178D01*
X107336Y675151D01*
X107408Y675143D01*
X107439Y675135D01*
X107462Y675137D01*
X107503Y675133D01*
X108389Y675133D01*
X108928Y674594D01*
X109002Y674541D01*
X109072Y674481D01*
X109102Y674469D01*
X109128Y674450D01*
X109215Y674423D01*
X109300Y674389D01*
X109341Y674385D01*
X109363Y674378D01*
X109395Y674379D01*
X109467Y674371D01*
X121419Y674371D01*
X121510Y674385D01*
X121600Y674393D01*
X121630Y674405D01*
X121662Y674410D01*
X121743Y674453D01*
X121827Y674489D01*
X121859Y674515D01*
X121880Y674526D01*
X121902Y674549D01*
X121958Y674594D01*
X196411Y749047D01*
X200667Y749047D01*
X200757Y749061D01*
X200848Y749069D01*
X200878Y749081D01*
X200910Y749086D01*
X200991Y749129D01*
X201075Y749165D01*
X201107Y749191D01*
X201128Y749202D01*
X201150Y749225D01*
X201206Y749270D01*
X201830Y749894D01*
X201857Y749932D01*
X201891Y749963D01*
X201929Y750031D01*
X201974Y750094D01*
X201988Y750138D01*
X202010Y750178D01*
X202023Y750255D01*
X202046Y750329D01*
X202045Y750375D01*
X202053Y750420D01*
X202042Y750497D01*
X202040Y750575D01*
X202024Y750618D01*
X202018Y750664D01*
X201982Y750733D01*
X201956Y750806D01*
X201927Y750842D01*
X201906Y750883D01*
X201850Y750937D01*
X201802Y750998D01*
X201763Y751023D01*
X201730Y751055D01*
X201611Y751121D01*
X201595Y751131D01*
X201590Y751132D01*
X201583Y751136D01*
X201369Y751225D01*
X198225Y754369D01*
X196523Y758477D01*
X196523Y762923D01*
X198225Y767031D01*
X201369Y770175D01*
X205477Y771877D01*
X209923Y771877D01*
X214031Y770175D01*
X217175Y767031D01*
X218877Y762923D01*
X218877Y758477D01*
X217175Y754369D01*
X214031Y751225D01*
X213739Y751104D01*
X213700Y751080D01*
X213657Y751064D01*
X213596Y751015D01*
X213530Y750974D01*
X213500Y750939D01*
X213465Y750910D01*
X213423Y750845D01*
X213373Y750785D01*
X213356Y750742D01*
X213332Y750703D01*
X213313Y750628D01*
X213285Y750555D01*
X213283Y750509D01*
X213272Y750465D01*
X213278Y750387D01*
X213274Y750309D01*
X213287Y750265D01*
X213291Y750219D01*
X213321Y750148D01*
X213343Y750073D01*
X213369Y750035D01*
X213387Y749993D01*
X213473Y749886D01*
X213483Y749871D01*
X213487Y749868D01*
X213492Y749862D01*
X214084Y749270D01*
X214158Y749216D01*
X214228Y749157D01*
X214258Y749145D01*
X214284Y749126D01*
X214371Y749099D01*
X214456Y749065D01*
X214497Y749061D01*
X214519Y749054D01*
X214551Y749055D01*
X214623Y749047D01*
X215145Y749047D01*
X215236Y749061D01*
X215326Y749069D01*
X215356Y749081D01*
X215388Y749086D01*
X215469Y749129D01*
X215553Y749165D01*
X215585Y749191D01*
X215606Y749202D01*
X215628Y749225D01*
X215684Y749270D01*
X266515Y800101D01*
X448317Y800101D01*
X448407Y800115D01*
X448498Y800123D01*
X448528Y800135D01*
X448560Y800140D01*
X448641Y800183D01*
X448725Y800219D01*
X448757Y800245D01*
X448778Y800256D01*
X448800Y800279D01*
X448856Y800324D01*
X449315Y800783D01*
X449342Y800821D01*
X449376Y800852D01*
X449414Y800920D01*
X449459Y800983D01*
X449473Y801027D01*
X449495Y801067D01*
X449508Y801144D01*
X449531Y801218D01*
X449530Y801264D01*
X449538Y801309D01*
X449527Y801386D01*
X449525Y801464D01*
X449509Y801507D01*
X449503Y801553D01*
X449467Y801622D01*
X449441Y801695D01*
X449412Y801731D01*
X449391Y801772D01*
X449335Y801826D01*
X449287Y801887D01*
X449248Y801912D01*
X449215Y801944D01*
X449096Y802010D01*
X449080Y802020D01*
X449075Y802021D01*
X449069Y802025D01*
X445925Y805169D01*
X444223Y809277D01*
X444223Y813723D01*
X445925Y817831D01*
X449069Y820975D01*
X453177Y822677D01*
X457623Y822677D01*
X461731Y820975D01*
X464875Y817831D01*
X466577Y813723D01*
X466577Y809277D01*
X464875Y805169D01*
X463393Y803686D01*
X463351Y803628D01*
X463301Y803576D01*
X463279Y803529D01*
X463249Y803487D01*
X463228Y803418D01*
X463198Y803353D01*
X463192Y803301D01*
X463177Y803251D01*
X463179Y803180D01*
X463171Y803109D01*
X463182Y803058D01*
X463183Y803006D01*
X463208Y802938D01*
X463223Y802868D01*
X463250Y802823D01*
X463267Y802775D01*
X463312Y802719D01*
X463349Y802657D01*
X463389Y802623D01*
X463421Y802583D01*
X463481Y802544D01*
X463536Y802497D01*
X463584Y802478D01*
X463628Y802450D01*
X463698Y802432D01*
X463764Y802405D01*
X463835Y802397D01*
X463867Y802389D01*
X463890Y802391D01*
X463931Y802387D01*
X465005Y802387D01*
X465544Y801848D01*
X465618Y801795D01*
X465688Y801735D01*
X465718Y801723D01*
X465744Y801704D01*
X465831Y801677D01*
X465916Y801643D01*
X465957Y801639D01*
X465979Y801632D01*
X466011Y801633D01*
X466083Y801625D01*
X556155Y801625D01*
X556226Y801636D01*
X556297Y801638D01*
X556346Y801656D01*
X556398Y801664D01*
X556461Y801698D01*
X556528Y801723D01*
X556569Y801755D01*
X556615Y801780D01*
X556664Y801832D01*
X556720Y801876D01*
X556749Y801920D01*
X556784Y801958D01*
X556815Y802023D01*
X556853Y802083D01*
X556866Y802134D01*
X556888Y802181D01*
X556896Y802252D01*
X556913Y802322D01*
X556909Y802374D01*
X556915Y802425D01*
X556900Y802496D01*
X556894Y802567D01*
X556874Y802615D01*
X556863Y802666D01*
X556826Y802727D01*
X556798Y802793D01*
X556753Y802849D01*
X556737Y802877D01*
X556719Y802892D01*
X556693Y802924D01*
X551965Y807652D01*
X551965Y815228D01*
X557322Y820585D01*
X564898Y820585D01*
X570255Y815228D01*
X570255Y807652D01*
X565527Y802924D01*
X565485Y802866D01*
X565436Y802814D01*
X565414Y802767D01*
X565383Y802725D01*
X565362Y802656D01*
X565332Y802591D01*
X565326Y802539D01*
X565311Y802489D01*
X565313Y802418D01*
X565305Y802347D01*
X565316Y802296D01*
X565317Y802244D01*
X565342Y802176D01*
X565357Y802106D01*
X565384Y802061D01*
X565402Y802013D01*
X565447Y801957D01*
X565483Y801895D01*
X565523Y801861D01*
X565555Y801821D01*
X565616Y801782D01*
X565670Y801735D01*
X565719Y801716D01*
X565762Y801688D01*
X565832Y801670D01*
X565898Y801643D01*
X565970Y801635D01*
X566001Y801627D01*
X566024Y801629D01*
X566065Y801625D01*
X567113Y801625D01*
X567652Y801086D01*
X567726Y801033D01*
X567796Y800973D01*
X567826Y800961D01*
X567852Y800942D01*
X567939Y800915D01*
X568024Y800881D01*
X568065Y800877D01*
X568087Y800870D01*
X568119Y800871D01*
X568191Y800863D01*
X579381Y800863D01*
X579472Y800877D01*
X579562Y800885D01*
X579592Y800897D01*
X579624Y800902D01*
X579705Y800945D01*
X579789Y800981D01*
X579821Y801007D01*
X579842Y801018D01*
X579864Y801041D01*
X579920Y801086D01*
X580459Y801625D01*
X581555Y801625D01*
X581626Y801636D01*
X581697Y801638D01*
X581746Y801656D01*
X581798Y801664D01*
X581861Y801698D01*
X581928Y801723D01*
X581969Y801755D01*
X582015Y801780D01*
X582064Y801832D01*
X582120Y801876D01*
X582149Y801920D01*
X582184Y801958D01*
X582215Y802023D01*
X582253Y802083D01*
X582266Y802134D01*
X582288Y802181D01*
X582296Y802252D01*
X582313Y802322D01*
X582309Y802374D01*
X582315Y802425D01*
X582300Y802496D01*
X582294Y802567D01*
X582274Y802615D01*
X582263Y802666D01*
X582226Y802727D01*
X582198Y802793D01*
X582153Y802849D01*
X582137Y802877D01*
X582119Y802892D01*
X582093Y802924D01*
X577365Y807652D01*
X577365Y815228D01*
X582722Y820585D01*
X590298Y820585D01*
X595655Y815228D01*
X595655Y807652D01*
X594530Y806527D01*
X594518Y806511D01*
X594502Y806498D01*
X594446Y806411D01*
X594386Y806327D01*
X594380Y806308D01*
X594369Y806291D01*
X594344Y806191D01*
X594314Y806092D01*
X594314Y806072D01*
X594309Y806053D01*
X594317Y805950D01*
X594320Y805846D01*
X594327Y805827D01*
X594328Y805808D01*
X594369Y805713D01*
X594404Y805615D01*
X594417Y805600D01*
X594425Y805581D01*
X594530Y805450D01*
X733042Y666938D01*
X733116Y666885D01*
X733186Y666825D01*
X733216Y666813D01*
X733242Y666794D01*
X733329Y666767D01*
X733414Y666733D01*
X733455Y666729D01*
X733477Y666722D01*
X733509Y666723D01*
X733581Y666715D01*
X735370Y666715D01*
X737618Y664467D01*
X737676Y664425D01*
X737728Y664375D01*
X737775Y664353D01*
X737817Y664323D01*
X737886Y664302D01*
X737951Y664272D01*
X738003Y664266D01*
X738053Y664251D01*
X738124Y664253D01*
X738195Y664245D01*
X738246Y664256D01*
X738298Y664257D01*
X738366Y664282D01*
X738436Y664297D01*
X738481Y664324D01*
X738529Y664341D01*
X738585Y664386D01*
X738647Y664423D01*
X738681Y664463D01*
X738721Y664495D01*
X738760Y664555D01*
X738807Y664610D01*
X738826Y664658D01*
X738854Y664702D01*
X738872Y664772D01*
X738899Y664838D01*
X738907Y664909D01*
X738915Y664941D01*
X738913Y664964D01*
X738917Y665005D01*
X738917Y665372D01*
X743828Y670283D01*
X750772Y670283D01*
X755683Y665372D01*
X755683Y658428D01*
X750772Y653517D01*
X743828Y653517D01*
X738917Y658428D01*
X738917Y660875D01*
X738906Y660946D01*
X738904Y661018D01*
X738886Y661067D01*
X738878Y661118D01*
X738844Y661181D01*
X738819Y661249D01*
X738787Y661289D01*
X738762Y661335D01*
X738710Y661385D01*
X738666Y661441D01*
X738622Y661469D01*
X738584Y661505D01*
X738519Y661535D01*
X738459Y661574D01*
X738408Y661586D01*
X738361Y661608D01*
X738290Y661616D01*
X738220Y661634D01*
X738168Y661630D01*
X738117Y661635D01*
X738046Y661620D01*
X737975Y661615D01*
X737927Y661594D01*
X737876Y661583D01*
X737815Y661546D01*
X737749Y661518D01*
X737693Y661473D01*
X737665Y661457D01*
X737650Y661439D01*
X737618Y661413D01*
X735201Y658997D01*
X735190Y658981D01*
X735174Y658968D01*
X735118Y658881D01*
X735058Y658797D01*
X735052Y658778D01*
X735041Y658762D01*
X735016Y658661D01*
X734985Y658562D01*
X734986Y658542D01*
X734981Y658523D01*
X734989Y658420D01*
X734992Y658316D01*
X734999Y658298D01*
X735000Y658278D01*
X735041Y658183D01*
X735076Y658085D01*
X735089Y658070D01*
X735097Y658051D01*
X735201Y657921D01*
X741388Y651734D01*
X741462Y651681D01*
X741532Y651621D01*
X741562Y651609D01*
X741588Y651590D01*
X741675Y651563D01*
X741760Y651529D01*
X741801Y651525D01*
X741823Y651518D01*
X741855Y651519D01*
X741927Y651511D01*
X894087Y651511D01*
X894178Y651525D01*
X894268Y651533D01*
X894298Y651545D01*
X894330Y651550D01*
X894411Y651593D01*
X894495Y651629D01*
X894527Y651655D01*
X894548Y651666D01*
X894570Y651689D01*
X894626Y651734D01*
X918748Y675856D01*
X919903Y677011D01*
X919914Y677027D01*
X919930Y677039D01*
X919986Y677126D01*
X920046Y677210D01*
X920052Y677229D01*
X920063Y677246D01*
X920088Y677347D01*
X920119Y677445D01*
X920118Y677465D01*
X920123Y677485D01*
X920115Y677588D01*
X920112Y677691D01*
X920105Y677710D01*
X920104Y677730D01*
X920063Y677825D01*
X920028Y677922D01*
X920015Y677938D01*
X920007Y677956D01*
X919903Y678087D01*
X916293Y681696D01*
X916293Y689904D01*
X922096Y695707D01*
X930304Y695707D01*
X936107Y689904D01*
X936107Y681696D01*
X932889Y678479D01*
X932878Y678463D01*
X932862Y678451D01*
X932806Y678363D01*
X932746Y678279D01*
X932740Y678260D01*
X932729Y678244D01*
X932704Y678143D01*
X932673Y678044D01*
X932674Y678024D01*
X932669Y678005D01*
X932677Y677902D01*
X932680Y677798D01*
X932687Y677780D01*
X932688Y677760D01*
X932729Y677665D01*
X932764Y677567D01*
X932777Y677552D01*
X932785Y677534D01*
X932889Y677403D01*
X934174Y676118D01*
X934248Y676065D01*
X934318Y676005D01*
X934348Y675993D01*
X934374Y675974D01*
X934461Y675947D01*
X934546Y675913D01*
X934587Y675909D01*
X934609Y675902D01*
X934641Y675903D01*
X934713Y675895D01*
X1352811Y675895D01*
X1352902Y675909D01*
X1352992Y675917D01*
X1353022Y675929D01*
X1353054Y675934D01*
X1353135Y675977D01*
X1353219Y676013D01*
X1353251Y676039D01*
X1353272Y676050D01*
X1353294Y676073D01*
X1353350Y676118D01*
X1398693Y721461D01*
X1398704Y721477D01*
X1398720Y721489D01*
X1398776Y721577D01*
X1398836Y721660D01*
X1398842Y721679D01*
X1398853Y721696D01*
X1398878Y721797D01*
X1398909Y721895D01*
X1398908Y721915D01*
X1398913Y721935D01*
X1398905Y722038D01*
X1398902Y722141D01*
X1398895Y722160D01*
X1398894Y722180D01*
X1398893Y722181D01*
X1398893Y730544D01*
X1404696Y736347D01*
X1412904Y736347D01*
X1418707Y730544D01*
X1418707Y722336D01*
X1412904Y716533D01*
X1404696Y716533D01*
X1403003Y718227D01*
X1402987Y718238D01*
X1402974Y718254D01*
X1402887Y718310D01*
X1402803Y718370D01*
X1402784Y718376D01*
X1402768Y718387D01*
X1402667Y718412D01*
X1402568Y718443D01*
X1402548Y718442D01*
X1402529Y718447D01*
X1402426Y718439D01*
X1402322Y718436D01*
X1402304Y718429D01*
X1402284Y718428D01*
X1402189Y718387D01*
X1402091Y718352D01*
X1402076Y718339D01*
X1402058Y718331D01*
X1401927Y718227D01*
X1355021Y671321D01*
X932503Y671321D01*
X931202Y672622D01*
X931128Y672675D01*
X931058Y672735D01*
X931028Y672747D01*
X931002Y672766D01*
X930915Y672793D01*
X930830Y672827D01*
X930789Y672831D01*
X930767Y672838D01*
X930735Y672837D01*
X930663Y672845D01*
X922521Y672845D01*
X922430Y672831D01*
X922340Y672823D01*
X922310Y672811D01*
X922278Y672806D01*
X922197Y672763D01*
X922113Y672727D01*
X922081Y672701D01*
X922060Y672690D01*
X922038Y672667D01*
X921982Y672622D01*
X896297Y646937D01*
X739717Y646937D01*
G37*
%LPD*%
%LPC*%
G36*
X743828Y704317D02*
X743828Y704317D01*
X738917Y709228D01*
X738917Y715686D01*
X738903Y715776D01*
X738895Y715867D01*
X738883Y715897D01*
X738878Y715929D01*
X738835Y716009D01*
X738799Y716093D01*
X738773Y716125D01*
X738762Y716146D01*
X738739Y716168D01*
X738694Y716224D01*
X633706Y821212D01*
X633632Y821265D01*
X633563Y821325D01*
X633533Y821337D01*
X633506Y821356D01*
X633419Y821383D01*
X633335Y821417D01*
X633294Y821421D01*
X633271Y821428D01*
X633239Y821427D01*
X633168Y821435D01*
X592335Y821435D01*
X591796Y821974D01*
X591722Y822027D01*
X591653Y822087D01*
X591623Y822099D01*
X591596Y822118D01*
X591509Y822145D01*
X591425Y822179D01*
X591384Y822183D01*
X591361Y822190D01*
X591329Y822189D01*
X591258Y822197D01*
X581460Y822197D01*
X581370Y822183D01*
X581279Y822175D01*
X581249Y822163D01*
X581217Y822158D01*
X581137Y822115D01*
X581053Y822079D01*
X581021Y822053D01*
X581000Y822042D01*
X580978Y822019D01*
X580922Y821974D01*
X580383Y821435D01*
X566427Y821435D01*
X565888Y821974D01*
X565814Y822027D01*
X565745Y822087D01*
X565715Y822099D01*
X565688Y822118D01*
X565601Y822145D01*
X565517Y822179D01*
X565476Y822183D01*
X565453Y822190D01*
X565421Y822189D01*
X565350Y822197D01*
X556314Y822197D01*
X556224Y822183D01*
X556133Y822175D01*
X556103Y822163D01*
X556071Y822158D01*
X555991Y822115D01*
X555907Y822079D01*
X555875Y822053D01*
X555854Y822042D01*
X555832Y822019D01*
X555776Y821974D01*
X555237Y821435D01*
X489465Y821435D01*
X375388Y935512D01*
X375314Y935565D01*
X375245Y935625D01*
X375215Y935637D01*
X375188Y935656D01*
X375101Y935683D01*
X375017Y935717D01*
X374976Y935721D01*
X374953Y935728D01*
X374921Y935727D01*
X374850Y935735D01*
X112176Y935735D01*
X112156Y935732D01*
X112137Y935734D01*
X112035Y935712D01*
X111933Y935696D01*
X111916Y935686D01*
X111896Y935682D01*
X111807Y935629D01*
X111716Y935580D01*
X111702Y935566D01*
X111685Y935556D01*
X111618Y935477D01*
X111546Y935402D01*
X111538Y935384D01*
X111525Y935369D01*
X111486Y935273D01*
X111443Y935179D01*
X111441Y935159D01*
X111433Y935141D01*
X111415Y934974D01*
X111415Y934882D01*
X106058Y929525D01*
X98482Y929525D01*
X93125Y934882D01*
X93125Y942458D01*
X98482Y947815D01*
X106058Y947815D01*
X111441Y942431D01*
X111454Y942351D01*
X111464Y942334D01*
X111468Y942314D01*
X111521Y942225D01*
X111570Y942134D01*
X111584Y942120D01*
X111594Y942103D01*
X111673Y942036D01*
X111748Y941964D01*
X111766Y941956D01*
X111781Y941943D01*
X111877Y941904D01*
X111971Y941861D01*
X111991Y941859D01*
X112009Y941851D01*
X112176Y941833D01*
X377691Y941833D01*
X491768Y827756D01*
X491842Y827703D01*
X491911Y827643D01*
X491941Y827631D01*
X491968Y827612D01*
X492055Y827585D01*
X492139Y827551D01*
X492180Y827547D01*
X492203Y827540D01*
X492235Y827541D01*
X492306Y827533D01*
X552396Y827533D01*
X552486Y827547D01*
X552577Y827555D01*
X552607Y827567D01*
X552639Y827572D01*
X552719Y827615D01*
X552803Y827651D01*
X552835Y827677D01*
X552856Y827688D01*
X552878Y827711D01*
X552934Y827756D01*
X553473Y828295D01*
X554885Y828295D01*
X554956Y828306D01*
X555027Y828308D01*
X555076Y828326D01*
X555128Y828334D01*
X555191Y828368D01*
X555258Y828393D01*
X555299Y828425D01*
X555345Y828450D01*
X555394Y828502D01*
X555450Y828546D01*
X555479Y828590D01*
X555514Y828628D01*
X555545Y828693D01*
X555583Y828753D01*
X555596Y828804D01*
X555618Y828851D01*
X555626Y828922D01*
X555643Y828992D01*
X555639Y829044D01*
X555645Y829095D01*
X555630Y829166D01*
X555624Y829237D01*
X555604Y829285D01*
X555593Y829336D01*
X555556Y829397D01*
X555528Y829463D01*
X555483Y829519D01*
X555467Y829547D01*
X555449Y829562D01*
X555423Y829594D01*
X551965Y833052D01*
X551965Y840628D01*
X557322Y845985D01*
X564898Y845985D01*
X570255Y840628D01*
X570255Y833052D01*
X566797Y829594D01*
X566755Y829536D01*
X566706Y829484D01*
X566684Y829437D01*
X566653Y829395D01*
X566632Y829326D01*
X566602Y829261D01*
X566596Y829209D01*
X566581Y829159D01*
X566583Y829088D01*
X566575Y829017D01*
X566586Y828966D01*
X566587Y828914D01*
X566612Y828846D01*
X566627Y828776D01*
X566654Y828731D01*
X566672Y828683D01*
X566717Y828627D01*
X566753Y828565D01*
X566793Y828531D01*
X566825Y828491D01*
X566886Y828452D01*
X566940Y828405D01*
X566989Y828386D01*
X567032Y828358D01*
X567102Y828340D01*
X567168Y828313D01*
X567240Y828305D01*
X567271Y828297D01*
X567294Y828299D01*
X567335Y828295D01*
X568191Y828295D01*
X568730Y827756D01*
X568804Y827703D01*
X568873Y827643D01*
X568903Y827631D01*
X568930Y827612D01*
X569017Y827585D01*
X569101Y827551D01*
X569142Y827547D01*
X569165Y827540D01*
X569197Y827541D01*
X569268Y827533D01*
X577542Y827533D01*
X577632Y827547D01*
X577723Y827555D01*
X577753Y827567D01*
X577785Y827572D01*
X577865Y827615D01*
X577949Y827651D01*
X577981Y827677D01*
X578002Y827688D01*
X578024Y827711D01*
X578080Y827756D01*
X578619Y828295D01*
X580285Y828295D01*
X580356Y828306D01*
X580427Y828308D01*
X580476Y828326D01*
X580528Y828334D01*
X580591Y828368D01*
X580658Y828393D01*
X580699Y828425D01*
X580745Y828450D01*
X580794Y828502D01*
X580850Y828546D01*
X580879Y828590D01*
X580914Y828628D01*
X580945Y828693D01*
X580983Y828753D01*
X580996Y828804D01*
X581018Y828851D01*
X581026Y828922D01*
X581043Y828992D01*
X581039Y829044D01*
X581045Y829095D01*
X581030Y829166D01*
X581024Y829237D01*
X581004Y829285D01*
X580993Y829336D01*
X580956Y829397D01*
X580928Y829463D01*
X580883Y829519D01*
X580867Y829547D01*
X580849Y829562D01*
X580823Y829594D01*
X577365Y833052D01*
X577365Y840628D01*
X582722Y845985D01*
X590298Y845985D01*
X595655Y840628D01*
X595655Y833052D01*
X592197Y829594D01*
X592155Y829536D01*
X592106Y829484D01*
X592084Y829437D01*
X592053Y829395D01*
X592032Y829326D01*
X592002Y829261D01*
X591996Y829209D01*
X591981Y829159D01*
X591983Y829088D01*
X591975Y829017D01*
X591986Y828966D01*
X591987Y828914D01*
X592012Y828846D01*
X592027Y828776D01*
X592054Y828731D01*
X592072Y828683D01*
X592117Y828627D01*
X592153Y828565D01*
X592193Y828531D01*
X592225Y828491D01*
X592286Y828452D01*
X592340Y828405D01*
X592389Y828386D01*
X592432Y828358D01*
X592502Y828340D01*
X592568Y828313D01*
X592640Y828305D01*
X592671Y828297D01*
X592694Y828299D01*
X592735Y828295D01*
X594099Y828295D01*
X594638Y827756D01*
X594712Y827703D01*
X594781Y827643D01*
X594811Y827631D01*
X594838Y827612D01*
X594925Y827585D01*
X595009Y827551D01*
X595050Y827547D01*
X595073Y827540D01*
X595105Y827541D01*
X595176Y827533D01*
X636009Y827533D01*
X742466Y721076D01*
X742540Y721023D01*
X742609Y720963D01*
X742639Y720951D01*
X742666Y720932D01*
X742753Y720905D01*
X742837Y720871D01*
X742878Y720867D01*
X742901Y720860D01*
X742933Y720861D01*
X743004Y720853D01*
X743282Y720853D01*
X743373Y720867D01*
X743464Y720875D01*
X743493Y720887D01*
X743525Y720892D01*
X743606Y720935D01*
X743690Y720971D01*
X743722Y720997D01*
X743743Y721008D01*
X743765Y721031D01*
X743821Y721076D01*
X743828Y721083D01*
X750772Y721083D01*
X755683Y716172D01*
X755683Y709228D01*
X750772Y704317D01*
X743828Y704317D01*
G37*
%LPD*%
%LPC*%
G36*
X42972Y92525D02*
X42972Y92525D01*
X37615Y97882D01*
X37615Y105458D01*
X42972Y110815D01*
X50548Y110815D01*
X55983Y105380D01*
X56057Y105327D01*
X56126Y105267D01*
X56156Y105255D01*
X56183Y105236D01*
X56270Y105209D01*
X56354Y105175D01*
X56395Y105171D01*
X56418Y105164D01*
X56450Y105165D01*
X56521Y105157D01*
X159204Y105157D01*
X159294Y105171D01*
X159385Y105179D01*
X159415Y105191D01*
X159447Y105196D01*
X159527Y105239D01*
X159611Y105275D01*
X159643Y105301D01*
X159664Y105312D01*
X159686Y105335D01*
X159742Y105380D01*
X161356Y106994D01*
X161409Y107068D01*
X161469Y107137D01*
X161481Y107167D01*
X161500Y107194D01*
X161527Y107281D01*
X161561Y107365D01*
X161565Y107406D01*
X161572Y107429D01*
X161571Y107461D01*
X161579Y107532D01*
X161579Y108244D01*
X163790Y110455D01*
X164502Y110455D01*
X164592Y110469D01*
X164683Y110477D01*
X164713Y110489D01*
X164745Y110494D01*
X164825Y110537D01*
X164909Y110573D01*
X164941Y110599D01*
X164962Y110610D01*
X164984Y110633D01*
X165040Y110678D01*
X193047Y138685D01*
X313625Y138685D01*
X313715Y138699D01*
X313806Y138707D01*
X313836Y138719D01*
X313868Y138724D01*
X313949Y138767D01*
X314032Y138803D01*
X314065Y138829D01*
X314085Y138840D01*
X314107Y138863D01*
X314163Y138908D01*
X314666Y139411D01*
X317794Y139411D01*
X320005Y137200D01*
X320005Y134072D01*
X317794Y131861D01*
X314666Y131861D01*
X314163Y132364D01*
X314089Y132417D01*
X314020Y132477D01*
X313990Y132489D01*
X313964Y132508D01*
X313877Y132535D01*
X313792Y132569D01*
X313751Y132573D01*
X313729Y132580D01*
X313696Y132579D01*
X313625Y132587D01*
X195888Y132587D01*
X195798Y132573D01*
X195707Y132565D01*
X195677Y132553D01*
X195645Y132548D01*
X195565Y132505D01*
X195481Y132469D01*
X195449Y132443D01*
X195428Y132432D01*
X195406Y132409D01*
X195350Y132364D01*
X169352Y106366D01*
X169299Y106292D01*
X169239Y106223D01*
X169227Y106193D01*
X169208Y106166D01*
X169181Y106079D01*
X169147Y105995D01*
X169143Y105954D01*
X169136Y105931D01*
X169137Y105899D01*
X169129Y105828D01*
X169129Y105116D01*
X166918Y102905D01*
X166206Y102905D01*
X166116Y102891D01*
X166025Y102883D01*
X165995Y102871D01*
X165963Y102866D01*
X165883Y102823D01*
X165799Y102787D01*
X165767Y102761D01*
X165746Y102750D01*
X165724Y102727D01*
X165668Y102682D01*
X162045Y99059D01*
X56666Y99059D01*
X56646Y99056D01*
X56627Y99058D01*
X56525Y99036D01*
X56423Y99020D01*
X56406Y99010D01*
X56386Y99006D01*
X56297Y98953D01*
X56206Y98904D01*
X56192Y98890D01*
X56175Y98880D01*
X56108Y98801D01*
X56036Y98726D01*
X56028Y98708D01*
X56015Y98693D01*
X55976Y98597D01*
X55933Y98503D01*
X55931Y98483D01*
X55923Y98465D01*
X55905Y98298D01*
X55905Y97882D01*
X50548Y92525D01*
X42972Y92525D01*
G37*
%LPD*%
G36*
X557894Y154441D02*
X557894Y154441D01*
X557965Y154447D01*
X558013Y154467D01*
X558064Y154478D01*
X558125Y154515D01*
X558191Y154543D01*
X558247Y154588D01*
X558275Y154605D01*
X558290Y154622D01*
X558322Y154648D01*
X584266Y180592D01*
X584319Y180666D01*
X584379Y180736D01*
X584391Y180766D01*
X584410Y180792D01*
X584437Y180879D01*
X584471Y180964D01*
X584475Y181005D01*
X584482Y181027D01*
X584481Y181059D01*
X584489Y181131D01*
X584489Y182920D01*
X586700Y185131D01*
X589788Y185131D01*
X589808Y185134D01*
X589827Y185132D01*
X589929Y185154D01*
X590031Y185170D01*
X590048Y185180D01*
X590068Y185184D01*
X590157Y185237D01*
X590248Y185286D01*
X590262Y185300D01*
X590279Y185310D01*
X590346Y185389D01*
X590418Y185464D01*
X590426Y185482D01*
X590439Y185497D01*
X590478Y185593D01*
X590521Y185687D01*
X590523Y185707D01*
X590531Y185725D01*
X590549Y185892D01*
X590549Y198120D01*
X590546Y198140D01*
X590548Y198159D01*
X590526Y198261D01*
X590510Y198363D01*
X590500Y198380D01*
X590496Y198400D01*
X590443Y198489D01*
X590394Y198580D01*
X590380Y198594D01*
X590370Y198611D01*
X590291Y198678D01*
X590216Y198750D01*
X590198Y198758D01*
X590183Y198771D01*
X590087Y198810D01*
X589993Y198853D01*
X589973Y198855D01*
X589955Y198863D01*
X589788Y198881D01*
X568009Y198881D01*
X567919Y198867D01*
X567828Y198859D01*
X567798Y198847D01*
X567766Y198842D01*
X567685Y198799D01*
X567602Y198763D01*
X567569Y198737D01*
X567549Y198726D01*
X567527Y198703D01*
X567471Y198658D01*
X566206Y197393D01*
X563078Y197393D01*
X560867Y199604D01*
X560867Y201466D01*
X560856Y201536D01*
X560854Y201608D01*
X560836Y201657D01*
X560828Y201708D01*
X560794Y201772D01*
X560769Y201839D01*
X560737Y201880D01*
X560712Y201926D01*
X560661Y201975D01*
X560616Y202031D01*
X560572Y202059D01*
X560534Y202095D01*
X560469Y202125D01*
X560409Y202164D01*
X560358Y202177D01*
X560311Y202199D01*
X560240Y202207D01*
X560170Y202224D01*
X560118Y202220D01*
X560067Y202226D01*
X559996Y202211D01*
X559925Y202205D01*
X559877Y202185D01*
X559826Y202174D01*
X559765Y202137D01*
X559699Y202109D01*
X559643Y202064D01*
X559615Y202047D01*
X559600Y202030D01*
X559568Y202004D01*
X547042Y189478D01*
X547000Y189420D01*
X546951Y189368D01*
X546929Y189321D01*
X546899Y189279D01*
X546878Y189210D01*
X546847Y189145D01*
X546842Y189093D01*
X546826Y189043D01*
X546828Y188972D01*
X546820Y188901D01*
X546831Y188850D01*
X546833Y188798D01*
X546857Y188730D01*
X546872Y188660D01*
X546899Y188616D01*
X546917Y188567D01*
X546962Y188511D01*
X546999Y188449D01*
X547038Y188415D01*
X547071Y188375D01*
X547131Y188336D01*
X547186Y188289D01*
X547234Y188270D01*
X547278Y188242D01*
X547347Y188224D01*
X547414Y188197D01*
X547485Y188189D01*
X547516Y188181D01*
X547540Y188183D01*
X547580Y188179D01*
X550204Y188179D01*
X552415Y185968D01*
X552415Y185256D01*
X552429Y185166D01*
X552437Y185075D01*
X552449Y185045D01*
X552454Y185013D01*
X552497Y184933D01*
X552533Y184849D01*
X552559Y184817D01*
X552570Y184796D01*
X552593Y184774D01*
X552602Y184762D01*
X552610Y184750D01*
X552618Y184743D01*
X552638Y184718D01*
X557023Y180333D01*
X557023Y155186D01*
X557034Y155116D01*
X557036Y155044D01*
X557054Y154995D01*
X557062Y154944D01*
X557096Y154880D01*
X557121Y154813D01*
X557153Y154772D01*
X557178Y154726D01*
X557230Y154677D01*
X557274Y154621D01*
X557318Y154593D01*
X557356Y154557D01*
X557421Y154527D01*
X557481Y154488D01*
X557532Y154475D01*
X557579Y154453D01*
X557650Y154445D01*
X557720Y154428D01*
X557772Y154432D01*
X557823Y154426D01*
X557894Y154441D01*
G37*
%LPC*%
G36*
X146264Y182153D02*
X146264Y182153D01*
X144053Y184364D01*
X144053Y187492D01*
X146264Y189703D01*
X146976Y189703D01*
X147066Y189717D01*
X147157Y189725D01*
X147187Y189737D01*
X147219Y189742D01*
X147299Y189785D01*
X147383Y189821D01*
X147415Y189847D01*
X147436Y189858D01*
X147458Y189881D01*
X147514Y189926D01*
X246664Y289076D01*
X246717Y289150D01*
X246777Y289219D01*
X246789Y289249D01*
X246808Y289276D01*
X246835Y289363D01*
X246869Y289447D01*
X246873Y289488D01*
X246880Y289511D01*
X246879Y289543D01*
X246887Y289614D01*
X246887Y298385D01*
X246873Y298475D01*
X246865Y298566D01*
X246853Y298596D01*
X246848Y298628D01*
X246805Y298709D01*
X246769Y298792D01*
X246743Y298825D01*
X246732Y298845D01*
X246709Y298867D01*
X246664Y298923D01*
X246161Y299426D01*
X246161Y302554D01*
X248372Y304765D01*
X251500Y304765D01*
X253711Y302554D01*
X253711Y299426D01*
X253208Y298923D01*
X253155Y298849D01*
X253095Y298780D01*
X253083Y298750D01*
X253064Y298724D01*
X253037Y298637D01*
X253003Y298552D01*
X252999Y298511D01*
X252992Y298489D01*
X252993Y298456D01*
X252985Y298385D01*
X252985Y286773D01*
X151826Y185614D01*
X151773Y185540D01*
X151713Y185471D01*
X151701Y185441D01*
X151682Y185414D01*
X151655Y185327D01*
X151621Y185243D01*
X151617Y185202D01*
X151610Y185179D01*
X151611Y185147D01*
X151603Y185076D01*
X151603Y184364D01*
X149392Y182153D01*
X146264Y182153D01*
G37*
%LPD*%
%LPC*%
G36*
X1466511Y952459D02*
X1466511Y952459D01*
X1460064Y955130D01*
X1455130Y960064D01*
X1452459Y966511D01*
X1452459Y973489D01*
X1455130Y979936D01*
X1460064Y984870D01*
X1466511Y987541D01*
X1473489Y987541D01*
X1479936Y984870D01*
X1484870Y979936D01*
X1487541Y973489D01*
X1487541Y966511D01*
X1484870Y960064D01*
X1479936Y955130D01*
X1473489Y952459D01*
X1466511Y952459D01*
G37*
%LPD*%
%LPC*%
G36*
X26511Y952459D02*
X26511Y952459D01*
X20064Y955130D01*
X15130Y960064D01*
X12459Y966511D01*
X12459Y973489D01*
X15130Y979936D01*
X20064Y984870D01*
X26511Y987541D01*
X33489Y987541D01*
X39936Y984870D01*
X44870Y979936D01*
X47541Y973489D01*
X47541Y966511D01*
X44870Y960064D01*
X39936Y955130D01*
X33489Y952459D01*
X26511Y952459D01*
G37*
%LPD*%
%LPC*%
G36*
X1466511Y12459D02*
X1466511Y12459D01*
X1460064Y15130D01*
X1455130Y20064D01*
X1452459Y26511D01*
X1452459Y33489D01*
X1455130Y39936D01*
X1460064Y44870D01*
X1466511Y47541D01*
X1473489Y47541D01*
X1479936Y44870D01*
X1484870Y39936D01*
X1487541Y33489D01*
X1487541Y26511D01*
X1484870Y20064D01*
X1479936Y15130D01*
X1473489Y12459D01*
X1466511Y12459D01*
G37*
%LPD*%
%LPC*%
G36*
X26511Y12459D02*
X26511Y12459D01*
X20064Y15130D01*
X15130Y20064D01*
X12459Y26511D01*
X12459Y33489D01*
X15130Y39936D01*
X20064Y44870D01*
X26511Y47541D01*
X33489Y47541D01*
X39936Y44870D01*
X44870Y39936D01*
X47541Y33489D01*
X47541Y26511D01*
X44870Y20064D01*
X39936Y15130D01*
X33489Y12459D01*
X26511Y12459D01*
G37*
%LPD*%
%LPC*%
G36*
X205477Y825723D02*
X205477Y825723D01*
X201369Y827425D01*
X198225Y830569D01*
X196523Y834677D01*
X196523Y839123D01*
X198225Y843231D01*
X201369Y846375D01*
X205477Y848077D01*
X209923Y848077D01*
X214031Y846375D01*
X217175Y843231D01*
X218877Y839123D01*
X218877Y834677D01*
X217175Y830569D01*
X214031Y827425D01*
X209923Y825723D01*
X205477Y825723D01*
G37*
%LPD*%
%LPC*%
G36*
X453177Y546323D02*
X453177Y546323D01*
X449069Y548025D01*
X445925Y551169D01*
X444223Y555277D01*
X444223Y559723D01*
X445925Y563831D01*
X449069Y566975D01*
X453177Y568677D01*
X457623Y568677D01*
X461731Y566975D01*
X464875Y563831D01*
X466577Y559723D01*
X466577Y555277D01*
X464875Y551169D01*
X461731Y548025D01*
X457623Y546323D01*
X453177Y546323D01*
G37*
%LPD*%
%LPC*%
G36*
X453177Y673323D02*
X453177Y673323D01*
X449069Y675025D01*
X445925Y678169D01*
X444223Y682277D01*
X444223Y686723D01*
X445925Y690831D01*
X449069Y693975D01*
X453177Y695677D01*
X457623Y695677D01*
X461731Y693975D01*
X464875Y690831D01*
X466577Y686723D01*
X466577Y682277D01*
X464875Y678169D01*
X461731Y675025D01*
X457623Y673323D01*
X453177Y673323D01*
G37*
%LPD*%
%LPC*%
G36*
X205477Y647923D02*
X205477Y647923D01*
X201369Y649625D01*
X198225Y652769D01*
X196523Y656877D01*
X196523Y661323D01*
X198225Y665431D01*
X201369Y668575D01*
X205477Y670277D01*
X209923Y670277D01*
X214031Y668575D01*
X217175Y665431D01*
X218877Y661323D01*
X218877Y656877D01*
X217175Y652769D01*
X214031Y649625D01*
X209923Y647923D01*
X205477Y647923D01*
G37*
%LPD*%
%LPC*%
G36*
X205477Y571723D02*
X205477Y571723D01*
X201369Y573425D01*
X198225Y576569D01*
X196523Y580677D01*
X196523Y585123D01*
X198225Y589231D01*
X201369Y592375D01*
X205477Y594077D01*
X209923Y594077D01*
X214031Y592375D01*
X217175Y589231D01*
X218877Y585123D01*
X218877Y580677D01*
X217175Y576569D01*
X214031Y573425D01*
X209923Y571723D01*
X205477Y571723D01*
G37*
%LPD*%
%LPC*%
G36*
X205477Y800323D02*
X205477Y800323D01*
X201369Y802025D01*
X198225Y805169D01*
X196523Y809277D01*
X196523Y813723D01*
X198225Y817831D01*
X201369Y820975D01*
X205477Y822677D01*
X209923Y822677D01*
X214031Y820975D01*
X217175Y817831D01*
X218877Y813723D01*
X218877Y809277D01*
X217175Y805169D01*
X214031Y802025D01*
X209923Y800323D01*
X205477Y800323D01*
G37*
%LPD*%
%LPC*%
G36*
X205477Y470123D02*
X205477Y470123D01*
X201369Y471825D01*
X198225Y474969D01*
X196523Y479077D01*
X196523Y483523D01*
X198225Y487631D01*
X201369Y490775D01*
X205477Y492477D01*
X209923Y492477D01*
X214031Y490775D01*
X217175Y487631D01*
X218877Y483523D01*
X218877Y479077D01*
X217175Y474969D01*
X214031Y471825D01*
X209923Y470123D01*
X205477Y470123D01*
G37*
%LPD*%
%LPC*%
G36*
X453177Y470123D02*
X453177Y470123D01*
X449069Y471825D01*
X445925Y474969D01*
X444223Y479077D01*
X444223Y483523D01*
X445925Y487631D01*
X449069Y490775D01*
X453177Y492477D01*
X457623Y492477D01*
X461731Y490775D01*
X464875Y487631D01*
X466577Y483523D01*
X466577Y479077D01*
X464875Y474969D01*
X461731Y471825D01*
X457623Y470123D01*
X453177Y470123D01*
G37*
%LPD*%
%LPC*%
G36*
X205477Y597123D02*
X205477Y597123D01*
X201369Y598825D01*
X198225Y601969D01*
X196523Y606077D01*
X196523Y610523D01*
X198225Y614631D01*
X201369Y617775D01*
X205477Y619477D01*
X209923Y619477D01*
X214031Y617775D01*
X217175Y614631D01*
X218877Y610523D01*
X218877Y606077D01*
X217175Y601969D01*
X214031Y598825D01*
X209923Y597123D01*
X205477Y597123D01*
G37*
%LPD*%
%LPC*%
G36*
X453177Y571723D02*
X453177Y571723D01*
X449069Y573425D01*
X445925Y576569D01*
X444223Y580677D01*
X444223Y585123D01*
X445925Y589231D01*
X449069Y592375D01*
X453177Y594077D01*
X457623Y594077D01*
X461731Y592375D01*
X464875Y589231D01*
X466577Y585123D01*
X466577Y580677D01*
X464875Y576569D01*
X461731Y573425D01*
X457623Y571723D01*
X453177Y571723D01*
G37*
%LPD*%
%LPC*%
G36*
X205477Y774923D02*
X205477Y774923D01*
X201369Y776625D01*
X198225Y779769D01*
X196523Y783877D01*
X196523Y788323D01*
X198225Y792431D01*
X201369Y795575D01*
X205477Y797277D01*
X209923Y797277D01*
X214031Y795575D01*
X217175Y792431D01*
X218877Y788323D01*
X218877Y783877D01*
X217175Y779769D01*
X214031Y776625D01*
X209923Y774923D01*
X205477Y774923D01*
G37*
%LPD*%
%LPC*%
G36*
X205477Y495523D02*
X205477Y495523D01*
X201369Y497225D01*
X198225Y500369D01*
X196523Y504477D01*
X196523Y508923D01*
X198225Y513031D01*
X201369Y516175D01*
X205477Y517877D01*
X209923Y517877D01*
X214031Y516175D01*
X217175Y513031D01*
X218877Y508923D01*
X218877Y504477D01*
X217175Y500369D01*
X214031Y497225D01*
X209923Y495523D01*
X205477Y495523D01*
G37*
%LPD*%
%LPC*%
G36*
X205477Y520923D02*
X205477Y520923D01*
X201369Y522625D01*
X198225Y525769D01*
X196523Y529877D01*
X196523Y534323D01*
X198225Y538431D01*
X201369Y541575D01*
X205477Y543277D01*
X209923Y543277D01*
X214031Y541575D01*
X217175Y538431D01*
X218877Y534323D01*
X218877Y529877D01*
X217175Y525769D01*
X214031Y522625D01*
X209923Y520923D01*
X205477Y520923D01*
G37*
%LPD*%
%LPC*%
G36*
X453177Y495523D02*
X453177Y495523D01*
X449069Y497225D01*
X445925Y500369D01*
X444223Y504477D01*
X444223Y508923D01*
X445925Y513031D01*
X449069Y516175D01*
X453177Y517877D01*
X457623Y517877D01*
X461731Y516175D01*
X464875Y513031D01*
X466577Y508923D01*
X466577Y504477D01*
X464875Y500369D01*
X461731Y497225D01*
X457623Y495523D01*
X453177Y495523D01*
G37*
%LPD*%
%LPC*%
G36*
X453177Y597123D02*
X453177Y597123D01*
X449069Y598825D01*
X445925Y601969D01*
X444223Y606077D01*
X444223Y610523D01*
X445925Y614631D01*
X449069Y617775D01*
X453177Y619477D01*
X457623Y619477D01*
X461731Y617775D01*
X464875Y614631D01*
X466577Y610523D01*
X466577Y606077D01*
X464875Y601969D01*
X461731Y598825D01*
X457623Y597123D01*
X453177Y597123D01*
G37*
%LPD*%
%LPC*%
G36*
X205477Y622523D02*
X205477Y622523D01*
X201369Y624225D01*
X198225Y627369D01*
X196523Y631477D01*
X196523Y635923D01*
X198225Y640031D01*
X201369Y643175D01*
X205477Y644877D01*
X209923Y644877D01*
X214031Y643175D01*
X217175Y640031D01*
X218877Y635923D01*
X218877Y631477D01*
X217175Y627369D01*
X214031Y624225D01*
X209923Y622523D01*
X205477Y622523D01*
G37*
%LPD*%
%LPC*%
G36*
X453177Y749523D02*
X453177Y749523D01*
X449069Y751225D01*
X445925Y754369D01*
X444223Y758477D01*
X444223Y762923D01*
X445925Y767031D01*
X449069Y770175D01*
X453177Y771877D01*
X457623Y771877D01*
X461731Y770175D01*
X464875Y767031D01*
X466577Y762923D01*
X466577Y758477D01*
X464875Y754369D01*
X461731Y751225D01*
X457623Y749523D01*
X453177Y749523D01*
G37*
%LPD*%
%LPC*%
G36*
X453177Y520923D02*
X453177Y520923D01*
X449069Y522625D01*
X445925Y525769D01*
X444223Y529877D01*
X444223Y534323D01*
X445925Y538431D01*
X449069Y541575D01*
X453177Y543277D01*
X457623Y543277D01*
X461731Y541575D01*
X464875Y538431D01*
X466577Y534323D01*
X466577Y529877D01*
X464875Y525769D01*
X461731Y522625D01*
X457623Y520923D01*
X453177Y520923D01*
G37*
%LPD*%
%LPC*%
G36*
X205477Y546323D02*
X205477Y546323D01*
X201369Y548025D01*
X198225Y551169D01*
X196523Y555277D01*
X196523Y559723D01*
X198225Y563831D01*
X201369Y566975D01*
X205477Y568677D01*
X209923Y568677D01*
X214031Y566975D01*
X217175Y563831D01*
X218877Y559723D01*
X218877Y555277D01*
X217175Y551169D01*
X214031Y548025D01*
X209923Y546323D01*
X205477Y546323D01*
G37*
%LPD*%
%LPC*%
G36*
X453177Y825723D02*
X453177Y825723D01*
X449069Y827425D01*
X445925Y830569D01*
X444223Y834677D01*
X444223Y839123D01*
X445925Y843231D01*
X449069Y846375D01*
X453177Y848077D01*
X457623Y848077D01*
X461731Y846375D01*
X464875Y843231D01*
X466577Y839123D01*
X466577Y834677D01*
X464875Y830569D01*
X461731Y827425D01*
X457623Y825723D01*
X453177Y825723D01*
G37*
%LPD*%
%LPC*%
G36*
X922096Y447293D02*
X922096Y447293D01*
X916293Y453096D01*
X916293Y461304D01*
X922096Y467107D01*
X930304Y467107D01*
X936107Y461304D01*
X936107Y453096D01*
X930304Y447293D01*
X922096Y447293D01*
G37*
%LPD*%
%LPC*%
G36*
X922096Y802893D02*
X922096Y802893D01*
X916293Y808696D01*
X916293Y816904D01*
X922096Y822707D01*
X930304Y822707D01*
X936107Y816904D01*
X936107Y808696D01*
X930304Y802893D01*
X922096Y802893D01*
G37*
%LPD*%
%LPC*%
G36*
X922096Y777493D02*
X922096Y777493D01*
X916293Y783296D01*
X916293Y791504D01*
X922096Y797307D01*
X930304Y797307D01*
X936107Y791504D01*
X936107Y783296D01*
X930304Y777493D01*
X922096Y777493D01*
G37*
%LPD*%
%LPC*%
G36*
X1404696Y767333D02*
X1404696Y767333D01*
X1398893Y773136D01*
X1398893Y781344D01*
X1404696Y787147D01*
X1412904Y787147D01*
X1418707Y781344D01*
X1418707Y773136D01*
X1412904Y767333D01*
X1404696Y767333D01*
G37*
%LPD*%
%LPC*%
G36*
X922096Y752093D02*
X922096Y752093D01*
X916293Y757896D01*
X916293Y766104D01*
X922096Y771907D01*
X930304Y771907D01*
X936107Y766104D01*
X936107Y757896D01*
X930304Y752093D01*
X922096Y752093D01*
G37*
%LPD*%
%LPC*%
G36*
X1404696Y741933D02*
X1404696Y741933D01*
X1398893Y747736D01*
X1398893Y755944D01*
X1404696Y761747D01*
X1412904Y761747D01*
X1418707Y755944D01*
X1418707Y747736D01*
X1412904Y741933D01*
X1404696Y741933D01*
G37*
%LPD*%
%LPC*%
G36*
X922096Y726693D02*
X922096Y726693D01*
X916293Y732496D01*
X916293Y740704D01*
X922096Y746507D01*
X930304Y746507D01*
X936107Y740704D01*
X936107Y732496D01*
X930304Y726693D01*
X922096Y726693D01*
G37*
%LPD*%
%LPC*%
G36*
X1404696Y868933D02*
X1404696Y868933D01*
X1398893Y874736D01*
X1398893Y882944D01*
X1404696Y888747D01*
X1412904Y888747D01*
X1418707Y882944D01*
X1418707Y874736D01*
X1412904Y868933D01*
X1404696Y868933D01*
G37*
%LPD*%
%LPC*%
G36*
X922096Y701293D02*
X922096Y701293D01*
X916293Y707096D01*
X916293Y715304D01*
X922096Y721107D01*
X930304Y721107D01*
X936107Y715304D01*
X936107Y707096D01*
X930304Y701293D01*
X922096Y701293D01*
G37*
%LPD*%
%LPC*%
G36*
X1404696Y792733D02*
X1404696Y792733D01*
X1398893Y798536D01*
X1398893Y806744D01*
X1404696Y812547D01*
X1412904Y812547D01*
X1418707Y806744D01*
X1418707Y798536D01*
X1412904Y792733D01*
X1404696Y792733D01*
G37*
%LPD*%
%LPC*%
G36*
X1404696Y665733D02*
X1404696Y665733D01*
X1398893Y671536D01*
X1398893Y679744D01*
X1404696Y685547D01*
X1412904Y685547D01*
X1418707Y679744D01*
X1418707Y671536D01*
X1412904Y665733D01*
X1404696Y665733D01*
G37*
%LPD*%
%LPC*%
G36*
X922096Y650493D02*
X922096Y650493D01*
X916293Y656296D01*
X916293Y664504D01*
X922096Y670307D01*
X930304Y670307D01*
X936107Y664504D01*
X936107Y656296D01*
X930304Y650493D01*
X922096Y650493D01*
G37*
%LPD*%
%LPC*%
G36*
X1404696Y625093D02*
X1404696Y625093D01*
X1398893Y630896D01*
X1398893Y639104D01*
X1404696Y644907D01*
X1412904Y644907D01*
X1418707Y639104D01*
X1418707Y630896D01*
X1412904Y625093D01*
X1404696Y625093D01*
G37*
%LPD*%
%LPC*%
G36*
X922096Y625093D02*
X922096Y625093D01*
X916293Y630896D01*
X916293Y639104D01*
X922096Y644907D01*
X930304Y644907D01*
X936107Y639104D01*
X936107Y630896D01*
X930304Y625093D01*
X922096Y625093D01*
G37*
%LPD*%
%LPC*%
G36*
X1404696Y599693D02*
X1404696Y599693D01*
X1398893Y605496D01*
X1398893Y613704D01*
X1404696Y619507D01*
X1412904Y619507D01*
X1418707Y613704D01*
X1418707Y605496D01*
X1412904Y599693D01*
X1404696Y599693D01*
G37*
%LPD*%
%LPC*%
G36*
X1404696Y894333D02*
X1404696Y894333D01*
X1398893Y900136D01*
X1398893Y908344D01*
X1404696Y914147D01*
X1412904Y914147D01*
X1418707Y908344D01*
X1418707Y900136D01*
X1412904Y894333D01*
X1404696Y894333D01*
G37*
%LPD*%
%LPC*%
G36*
X1404696Y574293D02*
X1404696Y574293D01*
X1398893Y580096D01*
X1398893Y588304D01*
X1404696Y594107D01*
X1412904Y594107D01*
X1418707Y588304D01*
X1418707Y580096D01*
X1412904Y574293D01*
X1404696Y574293D01*
G37*
%LPD*%
%LPC*%
G36*
X922096Y574293D02*
X922096Y574293D01*
X916293Y580096D01*
X916293Y588304D01*
X922096Y594107D01*
X930304Y594107D01*
X936107Y588304D01*
X936107Y580096D01*
X930304Y574293D01*
X922096Y574293D01*
G37*
%LPD*%
%LPC*%
G36*
X1404696Y548893D02*
X1404696Y548893D01*
X1398893Y554696D01*
X1398893Y562904D01*
X1404696Y568707D01*
X1412904Y568707D01*
X1418707Y562904D01*
X1418707Y554696D01*
X1412904Y548893D01*
X1404696Y548893D01*
G37*
%LPD*%
%LPC*%
G36*
X922096Y548893D02*
X922096Y548893D01*
X916293Y554696D01*
X916293Y562904D01*
X922096Y568707D01*
X930304Y568707D01*
X936107Y562904D01*
X936107Y554696D01*
X930304Y548893D01*
X922096Y548893D01*
G37*
%LPD*%
%LPC*%
G36*
X1404696Y523493D02*
X1404696Y523493D01*
X1398893Y529296D01*
X1398893Y537504D01*
X1404696Y543307D01*
X1412904Y543307D01*
X1418707Y537504D01*
X1418707Y529296D01*
X1412904Y523493D01*
X1404696Y523493D01*
G37*
%LPD*%
%LPC*%
G36*
X922096Y523493D02*
X922096Y523493D01*
X916293Y529296D01*
X916293Y537504D01*
X922096Y543307D01*
X930304Y543307D01*
X936107Y537504D01*
X936107Y529296D01*
X930304Y523493D01*
X922096Y523493D01*
G37*
%LPD*%
%LPC*%
G36*
X1404696Y498093D02*
X1404696Y498093D01*
X1398893Y503896D01*
X1398893Y512104D01*
X1404696Y517907D01*
X1412904Y517907D01*
X1418707Y512104D01*
X1418707Y503896D01*
X1412904Y498093D01*
X1404696Y498093D01*
G37*
%LPD*%
%LPC*%
G36*
X922096Y498093D02*
X922096Y498093D01*
X916293Y503896D01*
X916293Y512104D01*
X922096Y517907D01*
X930304Y517907D01*
X936107Y512104D01*
X936107Y503896D01*
X930304Y498093D01*
X922096Y498093D01*
G37*
%LPD*%
%LPC*%
G36*
X1404696Y472693D02*
X1404696Y472693D01*
X1398893Y478496D01*
X1398893Y486704D01*
X1404696Y492507D01*
X1412904Y492507D01*
X1418707Y486704D01*
X1418707Y478496D01*
X1412904Y472693D01*
X1404696Y472693D01*
G37*
%LPD*%
%LPC*%
G36*
X1404696Y843533D02*
X1404696Y843533D01*
X1398893Y849336D01*
X1398893Y857544D01*
X1404696Y863347D01*
X1412904Y863347D01*
X1418707Y857544D01*
X1418707Y849336D01*
X1412904Y843533D01*
X1404696Y843533D01*
G37*
%LPD*%
%LPC*%
G36*
X922096Y472693D02*
X922096Y472693D01*
X916293Y478496D01*
X916293Y486704D01*
X922096Y492507D01*
X930304Y492507D01*
X936107Y486704D01*
X936107Y478496D01*
X930304Y472693D01*
X922096Y472693D01*
G37*
%LPD*%
%LPC*%
G36*
X1404696Y447293D02*
X1404696Y447293D01*
X1398893Y453096D01*
X1398893Y461304D01*
X1404696Y467107D01*
X1412904Y467107D01*
X1418707Y461304D01*
X1418707Y453096D01*
X1412904Y447293D01*
X1404696Y447293D01*
G37*
%LPD*%
%LPC*%
G36*
X320891Y259460D02*
X320891Y259460D01*
X318460Y261891D01*
X318460Y265329D01*
X320891Y267760D01*
X324329Y267760D01*
X325207Y266882D01*
X325281Y266829D01*
X325350Y266769D01*
X325380Y266757D01*
X325407Y266738D01*
X325494Y266711D01*
X325578Y266677D01*
X325619Y266673D01*
X325642Y266666D01*
X325674Y266667D01*
X325745Y266659D01*
X331032Y266659D01*
X331122Y266673D01*
X331213Y266681D01*
X331243Y266693D01*
X331275Y266698D01*
X331355Y266741D01*
X331439Y266777D01*
X331471Y266803D01*
X331492Y266814D01*
X331514Y266837D01*
X331570Y266882D01*
X348237Y283549D01*
X348290Y283623D01*
X348350Y283692D01*
X348362Y283722D01*
X348381Y283749D01*
X348408Y283836D01*
X348442Y283920D01*
X348446Y283961D01*
X348453Y283984D01*
X348452Y284016D01*
X348460Y284087D01*
X348460Y285329D01*
X350891Y287760D01*
X354329Y287760D01*
X356760Y285329D01*
X356760Y281891D01*
X354329Y279460D01*
X353087Y279460D01*
X352997Y279446D01*
X352906Y279438D01*
X352876Y279426D01*
X352844Y279421D01*
X352764Y279378D01*
X352680Y279342D01*
X352648Y279316D01*
X352627Y279305D01*
X352605Y279282D01*
X352549Y279237D01*
X333873Y260561D01*
X325745Y260561D01*
X325655Y260547D01*
X325564Y260539D01*
X325534Y260527D01*
X325502Y260522D01*
X325422Y260479D01*
X325338Y260443D01*
X325306Y260417D01*
X325285Y260406D01*
X325263Y260383D01*
X325207Y260338D01*
X324329Y259460D01*
X320891Y259460D01*
G37*
%LPD*%
%LPC*%
G36*
X98482Y954925D02*
X98482Y954925D01*
X93125Y960282D01*
X93125Y967858D01*
X98482Y973215D01*
X106058Y973215D01*
X111415Y967858D01*
X111415Y960282D01*
X106058Y954925D01*
X98482Y954925D01*
G37*
%LPD*%
%LPC*%
G36*
X73082Y954925D02*
X73082Y954925D01*
X67725Y960282D01*
X67725Y967858D01*
X73082Y973215D01*
X80658Y973215D01*
X86015Y967858D01*
X86015Y960282D01*
X80658Y954925D01*
X73082Y954925D01*
G37*
%LPD*%
%LPC*%
G36*
X582722Y954695D02*
X582722Y954695D01*
X577365Y960052D01*
X577365Y967628D01*
X582722Y972985D01*
X590298Y972985D01*
X595655Y967628D01*
X595655Y960052D01*
X590298Y954695D01*
X582722Y954695D01*
G37*
%LPD*%
%LPC*%
G36*
X557322Y954695D02*
X557322Y954695D01*
X551965Y960052D01*
X551965Y967628D01*
X557322Y972985D01*
X564898Y972985D01*
X570255Y967628D01*
X570255Y960052D01*
X564898Y954695D01*
X557322Y954695D01*
G37*
%LPD*%
%LPC*%
G36*
X73082Y929525D02*
X73082Y929525D01*
X67725Y934882D01*
X67725Y942458D01*
X73082Y947815D01*
X80658Y947815D01*
X86015Y942458D01*
X86015Y934882D01*
X80658Y929525D01*
X73082Y929525D01*
G37*
%LPD*%
%LPC*%
G36*
X557322Y929295D02*
X557322Y929295D01*
X551965Y934652D01*
X551965Y942228D01*
X557322Y947585D01*
X564898Y947585D01*
X570255Y942228D01*
X570255Y934652D01*
X564898Y929295D01*
X557322Y929295D01*
G37*
%LPD*%
%LPC*%
G36*
X582722Y929295D02*
X582722Y929295D01*
X577365Y934652D01*
X577365Y942228D01*
X582722Y947585D01*
X590298Y947585D01*
X595655Y942228D01*
X595655Y934652D01*
X590298Y929295D01*
X582722Y929295D01*
G37*
%LPD*%
%LPC*%
G36*
X73082Y700925D02*
X73082Y700925D01*
X67725Y706282D01*
X67725Y713858D01*
X73082Y719215D01*
X80658Y719215D01*
X86015Y713858D01*
X86015Y706282D01*
X80658Y700925D01*
X73082Y700925D01*
G37*
%LPD*%
%LPC*%
G36*
X98482Y573925D02*
X98482Y573925D01*
X93125Y579282D01*
X93125Y586858D01*
X98482Y592215D01*
X106058Y592215D01*
X111415Y586858D01*
X111415Y579282D01*
X106058Y573925D01*
X98482Y573925D01*
G37*
%LPD*%
%LPC*%
G36*
X17572Y67125D02*
X17572Y67125D01*
X12215Y72482D01*
X12215Y80058D01*
X17572Y85415D01*
X25148Y85415D01*
X30505Y80058D01*
X30505Y72482D01*
X25148Y67125D01*
X17572Y67125D01*
G37*
%LPD*%
%LPC*%
G36*
X17572Y143325D02*
X17572Y143325D01*
X12215Y148682D01*
X12215Y156258D01*
X17572Y161615D01*
X25148Y161615D01*
X30505Y156258D01*
X30505Y148682D01*
X25148Y143325D01*
X17572Y143325D01*
G37*
%LPD*%
%LPC*%
G36*
X42972Y168725D02*
X42972Y168725D01*
X37615Y174082D01*
X37615Y181658D01*
X42972Y187015D01*
X50548Y187015D01*
X55905Y181658D01*
X55905Y174082D01*
X50548Y168725D01*
X42972Y168725D01*
G37*
%LPD*%
%LPC*%
G36*
X98482Y599325D02*
X98482Y599325D01*
X93125Y604682D01*
X93125Y612258D01*
X98482Y617615D01*
X106058Y617615D01*
X111415Y612258D01*
X111415Y604682D01*
X106058Y599325D01*
X98482Y599325D01*
G37*
%LPD*%
%LPC*%
G36*
X17572Y194125D02*
X17572Y194125D01*
X12215Y199482D01*
X12215Y207058D01*
X17572Y212415D01*
X25148Y212415D01*
X30505Y207058D01*
X30505Y199482D01*
X25148Y194125D01*
X17572Y194125D01*
G37*
%LPD*%
%LPC*%
G36*
X42972Y219525D02*
X42972Y219525D01*
X37615Y224882D01*
X37615Y232458D01*
X42972Y237815D01*
X50548Y237815D01*
X55905Y232458D01*
X55905Y224882D01*
X50548Y219525D01*
X42972Y219525D01*
G37*
%LPD*%
%LPC*%
G36*
X17572Y219525D02*
X17572Y219525D01*
X12215Y224882D01*
X12215Y232458D01*
X17572Y237815D01*
X25148Y237815D01*
X30505Y232458D01*
X30505Y224882D01*
X25148Y219525D01*
X17572Y219525D01*
G37*
%LPD*%
%LPC*%
G36*
X73082Y599325D02*
X73082Y599325D01*
X67725Y604682D01*
X67725Y612258D01*
X73082Y617615D01*
X80658Y617615D01*
X86015Y612258D01*
X86015Y604682D01*
X80658Y599325D01*
X73082Y599325D01*
G37*
%LPD*%
%LPC*%
G36*
X42972Y244925D02*
X42972Y244925D01*
X37615Y250282D01*
X37615Y257858D01*
X42972Y263215D01*
X50548Y263215D01*
X55905Y257858D01*
X55905Y250282D01*
X50548Y244925D01*
X42972Y244925D01*
G37*
%LPD*%
%LPC*%
G36*
X98482Y650125D02*
X98482Y650125D01*
X93125Y655482D01*
X93125Y663058D01*
X98482Y668415D01*
X106058Y668415D01*
X111415Y663058D01*
X111415Y655482D01*
X106058Y650125D01*
X98482Y650125D01*
G37*
%LPD*%
%LPC*%
G36*
X557322Y472095D02*
X557322Y472095D01*
X551965Y477452D01*
X551965Y485028D01*
X557322Y490385D01*
X564898Y490385D01*
X570255Y485028D01*
X570255Y477452D01*
X564898Y472095D01*
X557322Y472095D01*
G37*
%LPD*%
%LPC*%
G36*
X582722Y472095D02*
X582722Y472095D01*
X577365Y477452D01*
X577365Y485028D01*
X582722Y490385D01*
X590298Y490385D01*
X595655Y485028D01*
X595655Y477452D01*
X590298Y472095D01*
X582722Y472095D01*
G37*
%LPD*%
%LPC*%
G36*
X73082Y472325D02*
X73082Y472325D01*
X67725Y477682D01*
X67725Y485258D01*
X73082Y490615D01*
X80658Y490615D01*
X86015Y485258D01*
X86015Y477682D01*
X80658Y472325D01*
X73082Y472325D01*
G37*
%LPD*%
%LPC*%
G36*
X98482Y472325D02*
X98482Y472325D01*
X93125Y477682D01*
X93125Y485258D01*
X98482Y490615D01*
X106058Y490615D01*
X111415Y485258D01*
X111415Y477682D01*
X106058Y472325D01*
X98482Y472325D01*
G37*
%LPD*%
%LPC*%
G36*
X98482Y802525D02*
X98482Y802525D01*
X93125Y807882D01*
X93125Y815458D01*
X98482Y820815D01*
X106058Y820815D01*
X111415Y815458D01*
X111415Y807882D01*
X106058Y802525D01*
X98482Y802525D01*
G37*
%LPD*%
%LPC*%
G36*
X73082Y802525D02*
X73082Y802525D01*
X67725Y807882D01*
X67725Y815458D01*
X73082Y820815D01*
X80658Y820815D01*
X86015Y815458D01*
X86015Y807882D01*
X80658Y802525D01*
X73082Y802525D01*
G37*
%LPD*%
%LPC*%
G36*
X98482Y700925D02*
X98482Y700925D01*
X93125Y706282D01*
X93125Y713858D01*
X98482Y719215D01*
X106058Y719215D01*
X111415Y713858D01*
X111415Y706282D01*
X106058Y700925D01*
X98482Y700925D01*
G37*
%LPD*%
%LPC*%
G36*
X73082Y675525D02*
X73082Y675525D01*
X67725Y680882D01*
X67725Y688458D01*
X73082Y693815D01*
X80658Y693815D01*
X86015Y688458D01*
X86015Y680882D01*
X80658Y675525D01*
X73082Y675525D01*
G37*
%LPD*%
%LPC*%
G36*
X557322Y497495D02*
X557322Y497495D01*
X551965Y502852D01*
X551965Y510428D01*
X557322Y515785D01*
X564898Y515785D01*
X570255Y510428D01*
X570255Y502852D01*
X564898Y497495D01*
X557322Y497495D01*
G37*
%LPD*%
%LPC*%
G36*
X98482Y497725D02*
X98482Y497725D01*
X93125Y503082D01*
X93125Y510658D01*
X98482Y516015D01*
X106058Y516015D01*
X111415Y510658D01*
X111415Y503082D01*
X106058Y497725D01*
X98482Y497725D01*
G37*
%LPD*%
%LPC*%
G36*
X98482Y777125D02*
X98482Y777125D01*
X93125Y782482D01*
X93125Y790058D01*
X98482Y795415D01*
X106058Y795415D01*
X111415Y790058D01*
X111415Y782482D01*
X106058Y777125D01*
X98482Y777125D01*
G37*
%LPD*%
%LPC*%
G36*
X73082Y777125D02*
X73082Y777125D01*
X67725Y782482D01*
X67725Y790058D01*
X73082Y795415D01*
X80658Y795415D01*
X86015Y790058D01*
X86015Y782482D01*
X80658Y777125D01*
X73082Y777125D01*
G37*
%LPD*%
%LPC*%
G36*
X557322Y700695D02*
X557322Y700695D01*
X551965Y706052D01*
X551965Y713628D01*
X557322Y718985D01*
X564898Y718985D01*
X570255Y713628D01*
X570255Y706052D01*
X564898Y700695D01*
X557322Y700695D01*
G37*
%LPD*%
%LPC*%
G36*
X582722Y700695D02*
X582722Y700695D01*
X577365Y706052D01*
X577365Y713628D01*
X582722Y718985D01*
X590298Y718985D01*
X595655Y713628D01*
X595655Y706052D01*
X590298Y700695D01*
X582722Y700695D01*
G37*
%LPD*%
%LPC*%
G36*
X557322Y522895D02*
X557322Y522895D01*
X551965Y528252D01*
X551965Y535828D01*
X557322Y541185D01*
X564898Y541185D01*
X570255Y535828D01*
X570255Y528252D01*
X564898Y522895D01*
X557322Y522895D01*
G37*
%LPD*%
%LPC*%
G36*
X73082Y523125D02*
X73082Y523125D01*
X67725Y528482D01*
X67725Y536058D01*
X73082Y541415D01*
X80658Y541415D01*
X86015Y536058D01*
X86015Y528482D01*
X80658Y523125D01*
X73082Y523125D01*
G37*
%LPD*%
%LPC*%
G36*
X98482Y523125D02*
X98482Y523125D01*
X93125Y528482D01*
X93125Y536058D01*
X98482Y541415D01*
X106058Y541415D01*
X111415Y536058D01*
X111415Y528482D01*
X106058Y523125D01*
X98482Y523125D01*
G37*
%LPD*%
%LPC*%
G36*
X557322Y776895D02*
X557322Y776895D01*
X551965Y782252D01*
X551965Y789828D01*
X557322Y795185D01*
X564898Y795185D01*
X570255Y789828D01*
X570255Y782252D01*
X564898Y776895D01*
X557322Y776895D01*
G37*
%LPD*%
%LPC*%
G36*
X73082Y751725D02*
X73082Y751725D01*
X67725Y757082D01*
X67725Y764658D01*
X73082Y770015D01*
X80658Y770015D01*
X86015Y764658D01*
X86015Y757082D01*
X80658Y751725D01*
X73082Y751725D01*
G37*
%LPD*%
%LPC*%
G36*
X98482Y751725D02*
X98482Y751725D01*
X93125Y757082D01*
X93125Y764658D01*
X98482Y770015D01*
X106058Y770015D01*
X111415Y764658D01*
X111415Y757082D01*
X106058Y751725D01*
X98482Y751725D01*
G37*
%LPD*%
%LPC*%
G36*
X557322Y548295D02*
X557322Y548295D01*
X551965Y553652D01*
X551965Y561228D01*
X557322Y566585D01*
X564898Y566585D01*
X570255Y561228D01*
X570255Y553652D01*
X564898Y548295D01*
X557322Y548295D01*
G37*
%LPD*%
%LPC*%
G36*
X73082Y548525D02*
X73082Y548525D01*
X67725Y553882D01*
X67725Y561458D01*
X73082Y566815D01*
X80658Y566815D01*
X86015Y561458D01*
X86015Y553882D01*
X80658Y548525D01*
X73082Y548525D01*
G37*
%LPD*%
%LPC*%
G36*
X98482Y548525D02*
X98482Y548525D01*
X93125Y553882D01*
X93125Y561458D01*
X98482Y566815D01*
X106058Y566815D01*
X111415Y561458D01*
X111415Y553882D01*
X106058Y548525D01*
X98482Y548525D01*
G37*
%LPD*%
%LPC*%
G36*
X557322Y751495D02*
X557322Y751495D01*
X551965Y756852D01*
X551965Y764428D01*
X557322Y769785D01*
X564898Y769785D01*
X570255Y764428D01*
X570255Y756852D01*
X564898Y751495D01*
X557322Y751495D01*
G37*
%LPD*%
%LPC*%
G36*
X582722Y751495D02*
X582722Y751495D01*
X577365Y756852D01*
X577365Y764428D01*
X582722Y769785D01*
X590298Y769785D01*
X595655Y764428D01*
X595655Y756852D01*
X590298Y751495D01*
X582722Y751495D01*
G37*
%LPD*%
%LPC*%
G36*
X557322Y675295D02*
X557322Y675295D01*
X551965Y680652D01*
X551965Y688228D01*
X557322Y693585D01*
X564898Y693585D01*
X570255Y688228D01*
X570255Y680652D01*
X564898Y675295D01*
X557322Y675295D01*
G37*
%LPD*%
%LPC*%
G36*
X98482Y853325D02*
X98482Y853325D01*
X93125Y858682D01*
X93125Y866258D01*
X98482Y871615D01*
X106058Y871615D01*
X111415Y866258D01*
X111415Y858682D01*
X106058Y853325D01*
X98482Y853325D01*
G37*
%LPD*%
%LPC*%
G36*
X73082Y853325D02*
X73082Y853325D01*
X67725Y858682D01*
X67725Y866258D01*
X73082Y871615D01*
X80658Y871615D01*
X86015Y866258D01*
X86015Y858682D01*
X80658Y853325D01*
X73082Y853325D01*
G37*
%LPD*%
%LPC*%
G36*
X582722Y853095D02*
X582722Y853095D01*
X577365Y858452D01*
X577365Y866028D01*
X582722Y871385D01*
X590298Y871385D01*
X595655Y866028D01*
X595655Y858452D01*
X590298Y853095D01*
X582722Y853095D01*
G37*
%LPD*%
%LPC*%
G36*
X557322Y853095D02*
X557322Y853095D01*
X551965Y858452D01*
X551965Y866028D01*
X557322Y871385D01*
X564898Y871385D01*
X570255Y866028D01*
X570255Y858452D01*
X564898Y853095D01*
X557322Y853095D01*
G37*
%LPD*%
%LPC*%
G36*
X98482Y827925D02*
X98482Y827925D01*
X93125Y833282D01*
X93125Y840858D01*
X98482Y846215D01*
X106058Y846215D01*
X111415Y840858D01*
X111415Y833282D01*
X106058Y827925D01*
X98482Y827925D01*
G37*
%LPD*%
%LPC*%
G36*
X73082Y827925D02*
X73082Y827925D01*
X67725Y833282D01*
X67725Y840858D01*
X73082Y846215D01*
X80658Y846215D01*
X86015Y840858D01*
X86015Y833282D01*
X80658Y827925D01*
X73082Y827925D01*
G37*
%LPD*%
%LPC*%
G36*
X73082Y573925D02*
X73082Y573925D01*
X67725Y579282D01*
X67725Y586858D01*
X73082Y592215D01*
X80658Y592215D01*
X86015Y586858D01*
X86015Y579282D01*
X80658Y573925D01*
X73082Y573925D01*
G37*
%LPD*%
%LPC*%
G36*
X98482Y726325D02*
X98482Y726325D01*
X93125Y731682D01*
X93125Y739258D01*
X98482Y744615D01*
X106058Y744615D01*
X111415Y739258D01*
X111415Y731682D01*
X106058Y726325D01*
X98482Y726325D01*
G37*
%LPD*%
%LPC*%
G36*
X557322Y624495D02*
X557322Y624495D01*
X551965Y629852D01*
X551965Y637428D01*
X557322Y642785D01*
X564898Y642785D01*
X570255Y637428D01*
X570255Y629852D01*
X564898Y624495D01*
X557322Y624495D01*
G37*
%LPD*%
%LPC*%
G36*
X73082Y726325D02*
X73082Y726325D01*
X67725Y731682D01*
X67725Y739258D01*
X73082Y744615D01*
X80658Y744615D01*
X86015Y739258D01*
X86015Y731682D01*
X80658Y726325D01*
X73082Y726325D01*
G37*
%LPD*%
%LPC*%
G36*
X743828Y729717D02*
X743828Y729717D01*
X738917Y734628D01*
X738917Y741572D01*
X743828Y746483D01*
X750772Y746483D01*
X755683Y741572D01*
X755683Y734628D01*
X750772Y729717D01*
X743828Y729717D01*
G37*
%LPD*%
%LPC*%
G36*
X769228Y704317D02*
X769228Y704317D01*
X764317Y709228D01*
X764317Y716172D01*
X769228Y721083D01*
X776172Y721083D01*
X781083Y716172D01*
X781083Y709228D01*
X776172Y704317D01*
X769228Y704317D01*
G37*
%LPD*%
%LPC*%
G36*
X769228Y653517D02*
X769228Y653517D01*
X764317Y658428D01*
X764317Y665372D01*
X769228Y670283D01*
X776172Y670283D01*
X781083Y665372D01*
X781083Y658428D01*
X776172Y653517D01*
X769228Y653517D01*
G37*
%LPD*%
%LPC*%
G36*
X769228Y678917D02*
X769228Y678917D01*
X764317Y683828D01*
X764317Y690772D01*
X769228Y695683D01*
X776172Y695683D01*
X781083Y690772D01*
X781083Y683828D01*
X776172Y678917D01*
X769228Y678917D01*
G37*
%LPD*%
%LPC*%
G36*
X769228Y729717D02*
X769228Y729717D01*
X764317Y734628D01*
X764317Y741572D01*
X769228Y746483D01*
X776172Y746483D01*
X781083Y741572D01*
X781083Y734628D01*
X776172Y729717D01*
X769228Y729717D01*
G37*
%LPD*%
%LPC*%
G36*
X1410323Y829563D02*
X1410323Y829563D01*
X1410323Y838963D01*
X1413324Y838963D01*
X1419723Y832564D01*
X1419723Y829563D01*
X1410323Y829563D01*
G37*
%LPD*%
%LPC*%
G36*
X1410323Y817117D02*
X1410323Y817117D01*
X1410323Y826517D01*
X1419723Y826517D01*
X1419723Y823516D01*
X1413324Y817117D01*
X1410323Y817117D01*
G37*
%LPD*%
%LPC*%
G36*
X1397877Y829563D02*
X1397877Y829563D01*
X1397877Y832564D01*
X1404276Y838963D01*
X1407277Y838963D01*
X1407277Y829563D01*
X1397877Y829563D01*
G37*
%LPD*%
%LPC*%
G36*
X1404276Y817117D02*
X1404276Y817117D01*
X1397877Y823516D01*
X1397877Y826517D01*
X1407277Y826517D01*
X1407277Y817117D01*
X1404276Y817117D01*
G37*
%LPD*%
%LPC*%
G36*
X103793Y914793D02*
X103793Y914793D01*
X103793Y923431D01*
X106479Y923431D01*
X112431Y917479D01*
X112431Y914793D01*
X103793Y914793D01*
G37*
%LPD*%
%LPC*%
G36*
X562633Y889163D02*
X562633Y889163D01*
X562633Y897801D01*
X565319Y897801D01*
X571271Y891849D01*
X571271Y889163D01*
X562633Y889163D01*
G37*
%LPD*%
%LPC*%
G36*
X588033Y508163D02*
X588033Y508163D01*
X588033Y516801D01*
X590719Y516801D01*
X596671Y510849D01*
X596671Y508163D01*
X588033Y508163D01*
G37*
%LPD*%
%LPC*%
G36*
X22883Y306393D02*
X22883Y306393D01*
X22883Y315031D01*
X25569Y315031D01*
X31521Y309079D01*
X31521Y306393D01*
X22883Y306393D01*
G37*
%LPD*%
%LPC*%
G36*
X103793Y889393D02*
X103793Y889393D01*
X103793Y898031D01*
X106479Y898031D01*
X112431Y892079D01*
X112431Y889393D01*
X103793Y889393D01*
G37*
%LPD*%
%LPC*%
G36*
X48283Y306393D02*
X48283Y306393D01*
X48283Y315031D01*
X50969Y315031D01*
X56921Y309079D01*
X56921Y306393D01*
X48283Y306393D01*
G37*
%LPD*%
%LPC*%
G36*
X78393Y914793D02*
X78393Y914793D01*
X78393Y923431D01*
X81079Y923431D01*
X87031Y917479D01*
X87031Y914793D01*
X78393Y914793D01*
G37*
%LPD*%
%LPC*%
G36*
X562633Y914563D02*
X562633Y914563D01*
X562633Y923201D01*
X565319Y923201D01*
X571271Y917249D01*
X571271Y914563D01*
X562633Y914563D01*
G37*
%LPD*%
%LPC*%
G36*
X78393Y889393D02*
X78393Y889393D01*
X78393Y898031D01*
X81079Y898031D01*
X87031Y892079D01*
X87031Y889393D01*
X78393Y889393D01*
G37*
%LPD*%
%LPC*%
G36*
X588033Y914563D02*
X588033Y914563D01*
X588033Y923201D01*
X590719Y923201D01*
X596671Y917249D01*
X596671Y914563D01*
X588033Y914563D01*
G37*
%LPD*%
%LPC*%
G36*
X588033Y889163D02*
X588033Y889163D01*
X588033Y897801D01*
X590719Y897801D01*
X596671Y891849D01*
X596671Y889163D01*
X588033Y889163D01*
G37*
%LPD*%
%LPC*%
G36*
X78393Y508393D02*
X78393Y508393D01*
X78393Y517031D01*
X81079Y517031D01*
X87031Y511079D01*
X87031Y508393D01*
X78393Y508393D01*
G37*
%LPD*%
%LPC*%
G36*
X103793Y886347D02*
X103793Y886347D01*
X112431Y886347D01*
X112431Y883661D01*
X106479Y877709D01*
X103793Y877709D01*
X103793Y886347D01*
G37*
%LPD*%
%LPC*%
G36*
X48283Y303347D02*
X48283Y303347D01*
X56921Y303347D01*
X56921Y300661D01*
X50969Y294709D01*
X48283Y294709D01*
X48283Y303347D01*
G37*
%LPD*%
%LPC*%
G36*
X22883Y303347D02*
X22883Y303347D01*
X31521Y303347D01*
X31521Y300661D01*
X25569Y294709D01*
X22883Y294709D01*
X22883Y303347D01*
G37*
%LPD*%
%LPC*%
G36*
X562633Y886117D02*
X562633Y886117D01*
X571271Y886117D01*
X571271Y883431D01*
X565319Y877479D01*
X562633Y877479D01*
X562633Y886117D01*
G37*
%LPD*%
%LPC*%
G36*
X103793Y911747D02*
X103793Y911747D01*
X112431Y911747D01*
X112431Y909061D01*
X106479Y903109D01*
X103793Y903109D01*
X103793Y911747D01*
G37*
%LPD*%
%LPC*%
G36*
X588033Y886117D02*
X588033Y886117D01*
X596671Y886117D01*
X596671Y883431D01*
X590719Y877479D01*
X588033Y877479D01*
X588033Y886117D01*
G37*
%LPD*%
%LPC*%
G36*
X78393Y886347D02*
X78393Y886347D01*
X87031Y886347D01*
X87031Y883661D01*
X81079Y877709D01*
X78393Y877709D01*
X78393Y886347D01*
G37*
%LPD*%
%LPC*%
G36*
X562633Y911517D02*
X562633Y911517D01*
X571271Y911517D01*
X571271Y908831D01*
X565319Y902879D01*
X562633Y902879D01*
X562633Y911517D01*
G37*
%LPD*%
%LPC*%
G36*
X588033Y911517D02*
X588033Y911517D01*
X596671Y911517D01*
X596671Y908831D01*
X590719Y902879D01*
X588033Y902879D01*
X588033Y911517D01*
G37*
%LPD*%
%LPC*%
G36*
X78393Y911747D02*
X78393Y911747D01*
X87031Y911747D01*
X87031Y909061D01*
X81079Y903109D01*
X78393Y903109D01*
X78393Y911747D01*
G37*
%LPD*%
%LPC*%
G36*
X576349Y508163D02*
X576349Y508163D01*
X576349Y510849D01*
X582301Y516801D01*
X584987Y516801D01*
X584987Y508163D01*
X576349Y508163D01*
G37*
%LPD*%
%LPC*%
G36*
X92109Y889393D02*
X92109Y889393D01*
X92109Y892079D01*
X98061Y898031D01*
X100747Y898031D01*
X100747Y889393D01*
X92109Y889393D01*
G37*
%LPD*%
%LPC*%
G36*
X66709Y889393D02*
X66709Y889393D01*
X66709Y892079D01*
X72661Y898031D01*
X75347Y898031D01*
X75347Y889393D01*
X66709Y889393D01*
G37*
%LPD*%
%LPC*%
G36*
X576349Y889163D02*
X576349Y889163D01*
X576349Y891849D01*
X582301Y897801D01*
X584987Y897801D01*
X584987Y889163D01*
X576349Y889163D01*
G37*
%LPD*%
%LPC*%
G36*
X11199Y306393D02*
X11199Y306393D01*
X11199Y309079D01*
X17151Y315031D01*
X19837Y315031D01*
X19837Y306393D01*
X11199Y306393D01*
G37*
%LPD*%
%LPC*%
G36*
X550949Y889163D02*
X550949Y889163D01*
X550949Y891849D01*
X556901Y897801D01*
X559587Y897801D01*
X559587Y889163D01*
X550949Y889163D01*
G37*
%LPD*%
%LPC*%
G36*
X66709Y508393D02*
X66709Y508393D01*
X66709Y511079D01*
X72661Y517031D01*
X75347Y517031D01*
X75347Y508393D01*
X66709Y508393D01*
G37*
%LPD*%
%LPC*%
G36*
X36599Y306393D02*
X36599Y306393D01*
X36599Y309079D01*
X42551Y315031D01*
X45237Y315031D01*
X45237Y306393D01*
X36599Y306393D01*
G37*
%LPD*%
%LPC*%
G36*
X550949Y914563D02*
X550949Y914563D01*
X550949Y917249D01*
X556901Y923201D01*
X559587Y923201D01*
X559587Y914563D01*
X550949Y914563D01*
G37*
%LPD*%
%LPC*%
G36*
X576349Y914563D02*
X576349Y914563D01*
X576349Y917249D01*
X582301Y923201D01*
X584987Y923201D01*
X584987Y914563D01*
X576349Y914563D01*
G37*
%LPD*%
%LPC*%
G36*
X92109Y914793D02*
X92109Y914793D01*
X92109Y917479D01*
X98061Y923431D01*
X100747Y923431D01*
X100747Y914793D01*
X92109Y914793D01*
G37*
%LPD*%
%LPC*%
G36*
X66709Y914793D02*
X66709Y914793D01*
X66709Y917479D01*
X72661Y923431D01*
X75347Y923431D01*
X75347Y914793D01*
X66709Y914793D01*
G37*
%LPD*%
%LPC*%
G36*
X588033Y496479D02*
X588033Y496479D01*
X588033Y505117D01*
X596671Y505117D01*
X596671Y502431D01*
X590719Y496479D01*
X588033Y496479D01*
G37*
%LPD*%
%LPC*%
G36*
X78393Y496709D02*
X78393Y496709D01*
X78393Y505347D01*
X87031Y505347D01*
X87031Y502661D01*
X81079Y496709D01*
X78393Y496709D01*
G37*
%LPD*%
%LPC*%
G36*
X556901Y877479D02*
X556901Y877479D01*
X550949Y883431D01*
X550949Y886117D01*
X559587Y886117D01*
X559587Y877479D01*
X556901Y877479D01*
G37*
%LPD*%
%LPC*%
G36*
X582301Y877479D02*
X582301Y877479D01*
X576349Y883431D01*
X576349Y886117D01*
X584987Y886117D01*
X584987Y877479D01*
X582301Y877479D01*
G37*
%LPD*%
%LPC*%
G36*
X72661Y877709D02*
X72661Y877709D01*
X66709Y883661D01*
X66709Y886347D01*
X75347Y886347D01*
X75347Y877709D01*
X72661Y877709D01*
G37*
%LPD*%
%LPC*%
G36*
X582301Y496479D02*
X582301Y496479D01*
X576349Y502431D01*
X576349Y505117D01*
X584987Y505117D01*
X584987Y496479D01*
X582301Y496479D01*
G37*
%LPD*%
%LPC*%
G36*
X98061Y903109D02*
X98061Y903109D01*
X92109Y909061D01*
X92109Y911747D01*
X100747Y911747D01*
X100747Y903109D01*
X98061Y903109D01*
G37*
%LPD*%
%LPC*%
G36*
X98061Y877709D02*
X98061Y877709D01*
X92109Y883661D01*
X92109Y886347D01*
X100747Y886347D01*
X100747Y877709D01*
X98061Y877709D01*
G37*
%LPD*%
%LPC*%
G36*
X72661Y496709D02*
X72661Y496709D01*
X66709Y502661D01*
X66709Y505347D01*
X75347Y505347D01*
X75347Y496709D01*
X72661Y496709D01*
G37*
%LPD*%
%LPC*%
G36*
X556901Y902879D02*
X556901Y902879D01*
X550949Y908831D01*
X550949Y911517D01*
X559587Y911517D01*
X559587Y902879D01*
X556901Y902879D01*
G37*
%LPD*%
%LPC*%
G36*
X42551Y294709D02*
X42551Y294709D01*
X36599Y300661D01*
X36599Y303347D01*
X45237Y303347D01*
X45237Y294709D01*
X42551Y294709D01*
G37*
%LPD*%
%LPC*%
G36*
X582301Y902879D02*
X582301Y902879D01*
X576349Y908831D01*
X576349Y911517D01*
X584987Y911517D01*
X584987Y902879D01*
X582301Y902879D01*
G37*
%LPD*%
%LPC*%
G36*
X17151Y294709D02*
X17151Y294709D01*
X11199Y300661D01*
X11199Y303347D01*
X19837Y303347D01*
X19837Y294709D01*
X17151Y294709D01*
G37*
%LPD*%
%LPC*%
G36*
X72661Y903109D02*
X72661Y903109D01*
X66709Y909061D01*
X66709Y911747D01*
X75347Y911747D01*
X75347Y903109D01*
X72661Y903109D01*
G37*
%LPD*%
%LPC*%
G36*
X748823Y688823D02*
X748823Y688823D01*
X748823Y696699D01*
X751193Y696699D01*
X756699Y691193D01*
X756699Y688823D01*
X748823Y688823D01*
G37*
%LPD*%
%LPC*%
G36*
X748823Y677901D02*
X748823Y677901D01*
X748823Y685777D01*
X756699Y685777D01*
X756699Y683407D01*
X751193Y677901D01*
X748823Y677901D01*
G37*
%LPD*%
%LPC*%
G36*
X737901Y688823D02*
X737901Y688823D01*
X737901Y691193D01*
X743407Y696699D01*
X745777Y696699D01*
X745777Y688823D01*
X737901Y688823D01*
G37*
%LPD*%
%LPC*%
G36*
X743407Y677901D02*
X743407Y677901D01*
X737901Y683407D01*
X737901Y685777D01*
X745777Y685777D01*
X745777Y677901D01*
X743407Y677901D01*
G37*
%LPD*%
%LPC*%
G36*
X102269Y913269D02*
X102269Y913269D01*
X102269Y913271D01*
X102271Y913271D01*
X102271Y913269D01*
X102269Y913269D01*
G37*
%LPD*%
%LPC*%
G36*
X561109Y913039D02*
X561109Y913039D01*
X561109Y913041D01*
X561111Y913041D01*
X561111Y913039D01*
X561109Y913039D01*
G37*
%LPD*%
%LPC*%
G36*
X747299Y687299D02*
X747299Y687299D01*
X747299Y687301D01*
X747301Y687301D01*
X747301Y687299D01*
X747299Y687299D01*
G37*
%LPD*%
%LPC*%
G36*
X561109Y887639D02*
X561109Y887639D01*
X561109Y887641D01*
X561111Y887641D01*
X561111Y887639D01*
X561109Y887639D01*
G37*
%LPD*%
%LPC*%
G36*
X76869Y913269D02*
X76869Y913269D01*
X76869Y913271D01*
X76871Y913271D01*
X76871Y913269D01*
X76869Y913269D01*
G37*
%LPD*%
%LPC*%
G36*
X46759Y304869D02*
X46759Y304869D01*
X46759Y304871D01*
X46761Y304871D01*
X46761Y304869D01*
X46759Y304869D01*
G37*
%LPD*%
%LPC*%
G36*
X21359Y304869D02*
X21359Y304869D01*
X21359Y304871D01*
X21361Y304871D01*
X21361Y304869D01*
X21359Y304869D01*
G37*
%LPD*%
%LPC*%
G36*
X586509Y887639D02*
X586509Y887639D01*
X586509Y887641D01*
X586511Y887641D01*
X586511Y887639D01*
X586509Y887639D01*
G37*
%LPD*%
%LPC*%
G36*
X586509Y913039D02*
X586509Y913039D01*
X586509Y913041D01*
X586511Y913041D01*
X586511Y913039D01*
X586509Y913039D01*
G37*
%LPD*%
%LPC*%
G36*
X76869Y887869D02*
X76869Y887869D01*
X76869Y887871D01*
X76871Y887871D01*
X76871Y887869D01*
X76869Y887869D01*
G37*
%LPD*%
%LPC*%
G36*
X1408799Y828039D02*
X1408799Y828039D01*
X1408799Y828041D01*
X1408801Y828041D01*
X1408801Y828039D01*
X1408799Y828039D01*
G37*
%LPD*%
%LPC*%
G36*
X102269Y887869D02*
X102269Y887869D01*
X102269Y887871D01*
X102271Y887871D01*
X102271Y887869D01*
X102269Y887869D01*
G37*
%LPD*%
%LPC*%
G36*
X76869Y506869D02*
X76869Y506869D01*
X76869Y506871D01*
X76871Y506871D01*
X76871Y506869D01*
X76869Y506869D01*
G37*
%LPD*%
%LPC*%
G36*
X586509Y506639D02*
X586509Y506639D01*
X586509Y506641D01*
X586511Y506641D01*
X586511Y506639D01*
X586509Y506639D01*
G37*
%LPD*%
D10*
X0Y0D02*
X1500000Y0D01*
X1500000Y1000000D01*
X0Y1000000D01*
X0Y0D01*
X15000Y30000D02*
X15005Y30368D01*
X15018Y30736D01*
X15041Y31103D01*
X15072Y31470D01*
X15113Y31836D01*
X15162Y32201D01*
X15221Y32564D01*
X15288Y32926D01*
X15364Y33287D01*
X15450Y33645D01*
X15543Y34001D01*
X15646Y34354D01*
X15757Y34705D01*
X15877Y35053D01*
X16005Y35398D01*
X16142Y35740D01*
X16287Y36079D01*
X16440Y36413D01*
X16602Y36744D01*
X16771Y37071D01*
X16949Y37393D01*
X17134Y37712D01*
X17327Y38025D01*
X17528Y38334D01*
X17736Y38637D01*
X17952Y38935D01*
X18175Y39228D01*
X18405Y39516D01*
X18642Y39798D01*
X18886Y40073D01*
X19136Y40343D01*
X19393Y40607D01*
X19657Y40864D01*
X19927Y41114D01*
X20202Y41358D01*
X20484Y41595D01*
X20772Y41825D01*
X21065Y42048D01*
X21363Y42264D01*
X21666Y42472D01*
X21975Y42673D01*
X22288Y42866D01*
X22607Y43051D01*
X22929Y43229D01*
X23256Y43398D01*
X23587Y43560D01*
X23921Y43713D01*
X24260Y43858D01*
X24602Y43995D01*
X24947Y44123D01*
X25295Y44243D01*
X25646Y44354D01*
X25999Y44457D01*
X26355Y44550D01*
X26713Y44636D01*
X27074Y44712D01*
X27436Y44779D01*
X27799Y44838D01*
X28164Y44887D01*
X28530Y44928D01*
X28897Y44959D01*
X29264Y44982D01*
X29632Y44995D01*
X30000Y45000D01*
X30368Y44995D01*
X30736Y44982D01*
X31103Y44959D01*
X31470Y44928D01*
X31836Y44887D01*
X32201Y44838D01*
X32564Y44779D01*
X32926Y44712D01*
X33287Y44636D01*
X33645Y44550D01*
X34001Y44457D01*
X34354Y44354D01*
X34705Y44243D01*
X35053Y44123D01*
X35398Y43995D01*
X35740Y43858D01*
X36079Y43713D01*
X36413Y43560D01*
X36744Y43398D01*
X37071Y43229D01*
X37393Y43051D01*
X37712Y42866D01*
X38025Y42673D01*
X38334Y42472D01*
X38637Y42264D01*
X38935Y42048D01*
X39228Y41825D01*
X39516Y41595D01*
X39798Y41358D01*
X40073Y41114D01*
X40343Y40864D01*
X40607Y40607D01*
X40864Y40343D01*
X41114Y40073D01*
X41358Y39798D01*
X41595Y39516D01*
X41825Y39228D01*
X42048Y38935D01*
X42264Y38637D01*
X42472Y38334D01*
X42673Y38025D01*
X42866Y37712D01*
X43051Y37393D01*
X43229Y37071D01*
X43398Y36744D01*
X43560Y36413D01*
X43713Y36079D01*
X43858Y35740D01*
X43995Y35398D01*
X44123Y35053D01*
X44243Y34705D01*
X44354Y34354D01*
X44457Y34001D01*
X44550Y33645D01*
X44636Y33287D01*
X44712Y32926D01*
X44779Y32564D01*
X44838Y32201D01*
X44887Y31836D01*
X44928Y31470D01*
X44959Y31103D01*
X44982Y30736D01*
X44995Y30368D01*
X45000Y30000D01*
X44995Y29632D01*
X44982Y29264D01*
X44959Y28897D01*
X44928Y28530D01*
X44887Y28164D01*
X44838Y27799D01*
X44779Y27436D01*
X44712Y27074D01*
X44636Y26713D01*
X44550Y26355D01*
X44457Y25999D01*
X44354Y25646D01*
X44243Y25295D01*
X44123Y24947D01*
X43995Y24602D01*
X43858Y24260D01*
X43713Y23921D01*
X43560Y23587D01*
X43398Y23256D01*
X43229Y22929D01*
X43051Y22607D01*
X42866Y22288D01*
X42673Y21975D01*
X42472Y21666D01*
X42264Y21363D01*
X42048Y21065D01*
X41825Y20772D01*
X41595Y20484D01*
X41358Y20202D01*
X41114Y19927D01*
X40864Y19657D01*
X40607Y19393D01*
X40343Y19136D01*
X40073Y18886D01*
X39798Y18642D01*
X39516Y18405D01*
X39228Y18175D01*
X38935Y17952D01*
X38637Y17736D01*
X38334Y17528D01*
X38025Y17327D01*
X37712Y17134D01*
X37393Y16949D01*
X37071Y16771D01*
X36744Y16602D01*
X36413Y16440D01*
X36079Y16287D01*
X35740Y16142D01*
X35398Y16005D01*
X35053Y15877D01*
X34705Y15757D01*
X34354Y15646D01*
X34001Y15543D01*
X33645Y15450D01*
X33287Y15364D01*
X32926Y15288D01*
X32564Y15221D01*
X32201Y15162D01*
X31836Y15113D01*
X31470Y15072D01*
X31103Y15041D01*
X30736Y15018D01*
X30368Y15005D01*
X30000Y15000D01*
X29632Y15005D01*
X29264Y15018D01*
X28897Y15041D01*
X28530Y15072D01*
X28164Y15113D01*
X27799Y15162D01*
X27436Y15221D01*
X27074Y15288D01*
X26713Y15364D01*
X26355Y15450D01*
X25999Y15543D01*
X25646Y15646D01*
X25295Y15757D01*
X24947Y15877D01*
X24602Y16005D01*
X24260Y16142D01*
X23921Y16287D01*
X23587Y16440D01*
X23256Y16602D01*
X22929Y16771D01*
X22607Y16949D01*
X22288Y17134D01*
X21975Y17327D01*
X21666Y17528D01*
X21363Y17736D01*
X21065Y17952D01*
X20772Y18175D01*
X20484Y18405D01*
X20202Y18642D01*
X19927Y18886D01*
X19657Y19136D01*
X19393Y19393D01*
X19136Y19657D01*
X18886Y19927D01*
X18642Y20202D01*
X18405Y20484D01*
X18175Y20772D01*
X17952Y21065D01*
X17736Y21363D01*
X17528Y21666D01*
X17327Y21975D01*
X17134Y22288D01*
X16949Y22607D01*
X16771Y22929D01*
X16602Y23256D01*
X16440Y23587D01*
X16287Y23921D01*
X16142Y24260D01*
X16005Y24602D01*
X15877Y24947D01*
X15757Y25295D01*
X15646Y25646D01*
X15543Y25999D01*
X15450Y26355D01*
X15364Y26713D01*
X15288Y27074D01*
X15221Y27436D01*
X15162Y27799D01*
X15113Y28164D01*
X15072Y28530D01*
X15041Y28897D01*
X15018Y29264D01*
X15005Y29632D01*
X15000Y30000D01*
X1455000Y30000D02*
X1455005Y30368D01*
X1455018Y30736D01*
X1455041Y31103D01*
X1455072Y31470D01*
X1455113Y31836D01*
X1455162Y32201D01*
X1455221Y32564D01*
X1455288Y32926D01*
X1455364Y33287D01*
X1455450Y33645D01*
X1455543Y34001D01*
X1455646Y34354D01*
X1455757Y34705D01*
X1455877Y35053D01*
X1456005Y35398D01*
X1456142Y35740D01*
X1456287Y36079D01*
X1456440Y36413D01*
X1456602Y36744D01*
X1456771Y37071D01*
X1456949Y37393D01*
X1457134Y37712D01*
X1457327Y38025D01*
X1457528Y38334D01*
X1457736Y38637D01*
X1457952Y38935D01*
X1458175Y39228D01*
X1458405Y39516D01*
X1458642Y39798D01*
X1458886Y40073D01*
X1459136Y40343D01*
X1459393Y40607D01*
X1459657Y40864D01*
X1459927Y41114D01*
X1460202Y41358D01*
X1460484Y41595D01*
X1460772Y41825D01*
X1461065Y42048D01*
X1461363Y42264D01*
X1461666Y42472D01*
X1461975Y42673D01*
X1462288Y42866D01*
X1462607Y43051D01*
X1462929Y43229D01*
X1463256Y43398D01*
X1463587Y43560D01*
X1463921Y43713D01*
X1464260Y43858D01*
X1464602Y43995D01*
X1464947Y44123D01*
X1465295Y44243D01*
X1465646Y44354D01*
X1465999Y44457D01*
X1466355Y44550D01*
X1466713Y44636D01*
X1467074Y44712D01*
X1467436Y44779D01*
X1467799Y44838D01*
X1468164Y44887D01*
X1468530Y44928D01*
X1468897Y44959D01*
X1469264Y44982D01*
X1469632Y44995D01*
X1470000Y45000D01*
X1470368Y44995D01*
X1470736Y44982D01*
X1471103Y44959D01*
X1471470Y44928D01*
X1471836Y44887D01*
X1472201Y44838D01*
X1472564Y44779D01*
X1472926Y44712D01*
X1473287Y44636D01*
X1473645Y44550D01*
X1474001Y44457D01*
X1474354Y44354D01*
X1474705Y44243D01*
X1475053Y44123D01*
X1475398Y43995D01*
X1475740Y43858D01*
X1476079Y43713D01*
X1476413Y43560D01*
X1476744Y43398D01*
X1477071Y43229D01*
X1477393Y43051D01*
X1477712Y42866D01*
X1478025Y42673D01*
X1478334Y42472D01*
X1478637Y42264D01*
X1478935Y42048D01*
X1479228Y41825D01*
X1479516Y41595D01*
X1479798Y41358D01*
X1480073Y41114D01*
X1480343Y40864D01*
X1480607Y40607D01*
X1480864Y40343D01*
X1481114Y40073D01*
X1481358Y39798D01*
X1481595Y39516D01*
X1481825Y39228D01*
X1482048Y38935D01*
X1482264Y38637D01*
X1482472Y38334D01*
X1482673Y38025D01*
X1482866Y37712D01*
X1483051Y37393D01*
X1483229Y37071D01*
X1483398Y36744D01*
X1483560Y36413D01*
X1483713Y36079D01*
X1483858Y35740D01*
X1483995Y35398D01*
X1484123Y35053D01*
X1484243Y34705D01*
X1484354Y34354D01*
X1484457Y34001D01*
X1484550Y33645D01*
X1484636Y33287D01*
X1484712Y32926D01*
X1484779Y32564D01*
X1484838Y32201D01*
X1484887Y31836D01*
X1484928Y31470D01*
X1484959Y31103D01*
X1484982Y30736D01*
X1484995Y30368D01*
X1485000Y30000D01*
X1484995Y29632D01*
X1484982Y29264D01*
X1484959Y28897D01*
X1484928Y28530D01*
X1484887Y28164D01*
X1484838Y27799D01*
X1484779Y27436D01*
X1484712Y27074D01*
X1484636Y26713D01*
X1484550Y26355D01*
X1484457Y25999D01*
X1484354Y25646D01*
X1484243Y25295D01*
X1484123Y24947D01*
X1483995Y24602D01*
X1483858Y24260D01*
X1483713Y23921D01*
X1483560Y23587D01*
X1483398Y23256D01*
X1483229Y22929D01*
X1483051Y22607D01*
X1482866Y22288D01*
X1482673Y21975D01*
X1482472Y21666D01*
X1482264Y21363D01*
X1482048Y21065D01*
X1481825Y20772D01*
X1481595Y20484D01*
X1481358Y20202D01*
X1481114Y19927D01*
X1480864Y19657D01*
X1480607Y19393D01*
X1480343Y19136D01*
X1480073Y18886D01*
X1479798Y18642D01*
X1479516Y18405D01*
X1479228Y18175D01*
X1478935Y17952D01*
X1478637Y17736D01*
X1478334Y17528D01*
X1478025Y17327D01*
X1477712Y17134D01*
X1477393Y16949D01*
X1477071Y16771D01*
X1476744Y16602D01*
X1476413Y16440D01*
X1476079Y16287D01*
X1475740Y16142D01*
X1475398Y16005D01*
X1475053Y15877D01*
X1474705Y15757D01*
X1474354Y15646D01*
X1474001Y15543D01*
X1473645Y15450D01*
X1473287Y15364D01*
X1472926Y15288D01*
X1472564Y15221D01*
X1472201Y15162D01*
X1471836Y15113D01*
X1471470Y15072D01*
X1471103Y15041D01*
X1470736Y15018D01*
X1470368Y15005D01*
X1470000Y15000D01*
X1469632Y15005D01*
X1469264Y15018D01*
X1468897Y15041D01*
X1468530Y15072D01*
X1468164Y15113D01*
X1467799Y15162D01*
X1467436Y15221D01*
X1467074Y15288D01*
X1466713Y15364D01*
X1466355Y15450D01*
X1465999Y15543D01*
X1465646Y15646D01*
X1465295Y15757D01*
X1464947Y15877D01*
X1464602Y16005D01*
X1464260Y16142D01*
X1463921Y16287D01*
X1463587Y16440D01*
X1463256Y16602D01*
X1462929Y16771D01*
X1462607Y16949D01*
X1462288Y17134D01*
X1461975Y17327D01*
X1461666Y17528D01*
X1461363Y17736D01*
X1461065Y17952D01*
X1460772Y18175D01*
X1460484Y18405D01*
X1460202Y18642D01*
X1459927Y18886D01*
X1459657Y19136D01*
X1459393Y19393D01*
X1459136Y19657D01*
X1458886Y19927D01*
X1458642Y20202D01*
X1458405Y20484D01*
X1458175Y20772D01*
X1457952Y21065D01*
X1457736Y21363D01*
X1457528Y21666D01*
X1457327Y21975D01*
X1457134Y22288D01*
X1456949Y22607D01*
X1456771Y22929D01*
X1456602Y23256D01*
X1456440Y23587D01*
X1456287Y23921D01*
X1456142Y24260D01*
X1456005Y24602D01*
X1455877Y24947D01*
X1455757Y25295D01*
X1455646Y25646D01*
X1455543Y25999D01*
X1455450Y26355D01*
X1455364Y26713D01*
X1455288Y27074D01*
X1455221Y27436D01*
X1455162Y27799D01*
X1455113Y28164D01*
X1455072Y28530D01*
X1455041Y28897D01*
X1455018Y29264D01*
X1455005Y29632D01*
X1455000Y30000D01*
X1455000Y970000D02*
X1455005Y970368D01*
X1455018Y970736D01*
X1455041Y971103D01*
X1455072Y971470D01*
X1455113Y971836D01*
X1455162Y972201D01*
X1455221Y972564D01*
X1455288Y972926D01*
X1455364Y973287D01*
X1455450Y973645D01*
X1455543Y974001D01*
X1455646Y974354D01*
X1455757Y974705D01*
X1455877Y975053D01*
X1456005Y975398D01*
X1456142Y975740D01*
X1456287Y976079D01*
X1456440Y976413D01*
X1456602Y976744D01*
X1456771Y977071D01*
X1456949Y977393D01*
X1457134Y977712D01*
X1457327Y978025D01*
X1457528Y978334D01*
X1457736Y978637D01*
X1457952Y978935D01*
X1458175Y979228D01*
X1458405Y979516D01*
X1458642Y979798D01*
X1458886Y980073D01*
X1459136Y980343D01*
X1459393Y980607D01*
X1459657Y980864D01*
X1459927Y981114D01*
X1460202Y981358D01*
X1460484Y981595D01*
X1460772Y981825D01*
X1461065Y982048D01*
X1461363Y982264D01*
X1461666Y982472D01*
X1461975Y982673D01*
X1462288Y982866D01*
X1462607Y983051D01*
X1462929Y983229D01*
X1463256Y983398D01*
X1463587Y983560D01*
X1463921Y983713D01*
X1464260Y983858D01*
X1464602Y983995D01*
X1464947Y984123D01*
X1465295Y984243D01*
X1465646Y984354D01*
X1465999Y984457D01*
X1466355Y984550D01*
X1466713Y984636D01*
X1467074Y984712D01*
X1467436Y984779D01*
X1467799Y984838D01*
X1468164Y984887D01*
X1468530Y984928D01*
X1468897Y984959D01*
X1469264Y984982D01*
X1469632Y984995D01*
X1470000Y985000D01*
X1470368Y984995D01*
X1470736Y984982D01*
X1471103Y984959D01*
X1471470Y984928D01*
X1471836Y984887D01*
X1472201Y984838D01*
X1472564Y984779D01*
X1472926Y984712D01*
X1473287Y984636D01*
X1473645Y984550D01*
X1474001Y984457D01*
X1474354Y984354D01*
X1474705Y984243D01*
X1475053Y984123D01*
X1475398Y983995D01*
X1475740Y983858D01*
X1476079Y983713D01*
X1476413Y983560D01*
X1476744Y983398D01*
X1477071Y983229D01*
X1477393Y983051D01*
X1477712Y982866D01*
X1478025Y982673D01*
X1478334Y982472D01*
X1478637Y982264D01*
X1478935Y982048D01*
X1479228Y981825D01*
X1479516Y981595D01*
X1479798Y981358D01*
X1480073Y981114D01*
X1480343Y980864D01*
X1480607Y980607D01*
X1480864Y980343D01*
X1481114Y980073D01*
X1481358Y979798D01*
X1481595Y979516D01*
X1481825Y979228D01*
X1482048Y978935D01*
X1482264Y978637D01*
X1482472Y978334D01*
X1482673Y978025D01*
X1482866Y977712D01*
X1483051Y977393D01*
X1483229Y977071D01*
X1483398Y976744D01*
X1483560Y976413D01*
X1483713Y976079D01*
X1483858Y975740D01*
X1483995Y975398D01*
X1484123Y975053D01*
X1484243Y974705D01*
X1484354Y974354D01*
X1484457Y974001D01*
X1484550Y973645D01*
X1484636Y973287D01*
X1484712Y972926D01*
X1484779Y972564D01*
X1484838Y972201D01*
X1484887Y971836D01*
X1484928Y971470D01*
X1484959Y971103D01*
X1484982Y970736D01*
X1484995Y970368D01*
X1485000Y970000D01*
X1484995Y969632D01*
X1484982Y969264D01*
X1484959Y968897D01*
X1484928Y968530D01*
X1484887Y968164D01*
X1484838Y967799D01*
X1484779Y967436D01*
X1484712Y967074D01*
X1484636Y966713D01*
X1484550Y966355D01*
X1484457Y965999D01*
X1484354Y965646D01*
X1484243Y965295D01*
X1484123Y964947D01*
X1483995Y964602D01*
X1483858Y964260D01*
X1483713Y963921D01*
X1483560Y963587D01*
X1483398Y963256D01*
X1483229Y962929D01*
X1483051Y962607D01*
X1482866Y962288D01*
X1482673Y961975D01*
X1482472Y961666D01*
X1482264Y961363D01*
X1482048Y961065D01*
X1481825Y960772D01*
X1481595Y960484D01*
X1481358Y960202D01*
X1481114Y959927D01*
X1480864Y959657D01*
X1480607Y959393D01*
X1480343Y959136D01*
X1480073Y958886D01*
X1479798Y958642D01*
X1479516Y958405D01*
X1479228Y958175D01*
X1478935Y957952D01*
X1478637Y957736D01*
X1478334Y957528D01*
X1478025Y957327D01*
X1477712Y957134D01*
X1477393Y956949D01*
X1477071Y956771D01*
X1476744Y956602D01*
X1476413Y956440D01*
X1476079Y956287D01*
X1475740Y956142D01*
X1475398Y956005D01*
X1475053Y955877D01*
X1474705Y955757D01*
X1474354Y955646D01*
X1474001Y955543D01*
X1473645Y955450D01*
X1473287Y955364D01*
X1472926Y955288D01*
X1472564Y955221D01*
X1472201Y955162D01*
X1471836Y955113D01*
X1471470Y955072D01*
X1471103Y955041D01*
X1470736Y955018D01*
X1470368Y955005D01*
X1470000Y955000D01*
X1469632Y955005D01*
X1469264Y955018D01*
X1468897Y955041D01*
X1468530Y955072D01*
X1468164Y955113D01*
X1467799Y955162D01*
X1467436Y955221D01*
X1467074Y955288D01*
X1466713Y955364D01*
X1466355Y955450D01*
X1465999Y955543D01*
X1465646Y955646D01*
X1465295Y955757D01*
X1464947Y955877D01*
X1464602Y956005D01*
X1464260Y956142D01*
X1463921Y956287D01*
X1463587Y956440D01*
X1463256Y956602D01*
X1462929Y956771D01*
X1462607Y956949D01*
X1462288Y957134D01*
X1461975Y957327D01*
X1461666Y957528D01*
X1461363Y957736D01*
X1461065Y957952D01*
X1460772Y958175D01*
X1460484Y958405D01*
X1460202Y958642D01*
X1459927Y958886D01*
X1459657Y959136D01*
X1459393Y959393D01*
X1459136Y959657D01*
X1458886Y959927D01*
X1458642Y960202D01*
X1458405Y960484D01*
X1458175Y960772D01*
X1457952Y961065D01*
X1457736Y961363D01*
X1457528Y961666D01*
X1457327Y961975D01*
X1457134Y962288D01*
X1456949Y962607D01*
X1456771Y962929D01*
X1456602Y963256D01*
X1456440Y963587D01*
X1456287Y963921D01*
X1456142Y964260D01*
X1456005Y964602D01*
X1455877Y964947D01*
X1455757Y965295D01*
X1455646Y965646D01*
X1455543Y965999D01*
X1455450Y966355D01*
X1455364Y966713D01*
X1455288Y967074D01*
X1455221Y967436D01*
X1455162Y967799D01*
X1455113Y968164D01*
X1455072Y968530D01*
X1455041Y968897D01*
X1455018Y969264D01*
X1455005Y969632D01*
X1455000Y970000D01*
X15000Y970000D02*
X15005Y970368D01*
X15018Y970736D01*
X15041Y971103D01*
X15072Y971470D01*
X15113Y971836D01*
X15162Y972201D01*
X15221Y972564D01*
X15288Y972926D01*
X15364Y973287D01*
X15450Y973645D01*
X15543Y974001D01*
X15646Y974354D01*
X15757Y974705D01*
X15877Y975053D01*
X16005Y975398D01*
X16142Y975740D01*
X16287Y976079D01*
X16440Y976413D01*
X16602Y976744D01*
X16771Y977071D01*
X16949Y977393D01*
X17134Y977712D01*
X17327Y978025D01*
X17528Y978334D01*
X17736Y978637D01*
X17952Y978935D01*
X18175Y979228D01*
X18405Y979516D01*
X18642Y979798D01*
X18886Y980073D01*
X19136Y980343D01*
X19393Y980607D01*
X19657Y980864D01*
X19927Y981114D01*
X20202Y981358D01*
X20484Y981595D01*
X20772Y981825D01*
X21065Y982048D01*
X21363Y982264D01*
X21666Y982472D01*
X21975Y982673D01*
X22288Y982866D01*
X22607Y983051D01*
X22929Y983229D01*
X23256Y983398D01*
X23587Y983560D01*
X23921Y983713D01*
X24260Y983858D01*
X24602Y983995D01*
X24947Y984123D01*
X25295Y984243D01*
X25646Y984354D01*
X25999Y984457D01*
X26355Y984550D01*
X26713Y984636D01*
X27074Y984712D01*
X27436Y984779D01*
X27799Y984838D01*
X28164Y984887D01*
X28530Y984928D01*
X28897Y984959D01*
X29264Y984982D01*
X29632Y984995D01*
X30000Y985000D01*
X30368Y984995D01*
X30736Y984982D01*
X31103Y984959D01*
X31470Y984928D01*
X31836Y984887D01*
X32201Y984838D01*
X32564Y984779D01*
X32926Y984712D01*
X33287Y984636D01*
X33645Y984550D01*
X34001Y984457D01*
X34354Y984354D01*
X34705Y984243D01*
X35053Y984123D01*
X35398Y983995D01*
X35740Y983858D01*
X36079Y983713D01*
X36413Y983560D01*
X36744Y983398D01*
X37071Y983229D01*
X37393Y983051D01*
X37712Y982866D01*
X38025Y982673D01*
X38334Y982472D01*
X38637Y982264D01*
X38935Y982048D01*
X39228Y981825D01*
X39516Y981595D01*
X39798Y981358D01*
X40073Y981114D01*
X40343Y980864D01*
X40607Y980607D01*
X40864Y980343D01*
X41114Y980073D01*
X41358Y979798D01*
X41595Y979516D01*
X41825Y979228D01*
X42048Y978935D01*
X42264Y978637D01*
X42472Y978334D01*
X42673Y978025D01*
X42866Y977712D01*
X43051Y977393D01*
X43229Y977071D01*
X43398Y976744D01*
X43560Y976413D01*
X43713Y976079D01*
X43858Y975740D01*
X43995Y975398D01*
X44123Y975053D01*
X44243Y974705D01*
X44354Y974354D01*
X44457Y974001D01*
X44550Y973645D01*
X44636Y973287D01*
X44712Y972926D01*
X44779Y972564D01*
X44838Y972201D01*
X44887Y971836D01*
X44928Y971470D01*
X44959Y971103D01*
X44982Y970736D01*
X44995Y970368D01*
X45000Y970000D01*
X44995Y969632D01*
X44982Y969264D01*
X44959Y968897D01*
X44928Y968530D01*
X44887Y968164D01*
X44838Y967799D01*
X44779Y967436D01*
X44712Y967074D01*
X44636Y966713D01*
X44550Y966355D01*
X44457Y965999D01*
X44354Y965646D01*
X44243Y965295D01*
X44123Y964947D01*
X43995Y964602D01*
X43858Y964260D01*
X43713Y963921D01*
X43560Y963587D01*
X43398Y963256D01*
X43229Y962929D01*
X43051Y962607D01*
X42866Y962288D01*
X42673Y961975D01*
X42472Y961666D01*
X42264Y961363D01*
X42048Y961065D01*
X41825Y960772D01*
X41595Y960484D01*
X41358Y960202D01*
X41114Y959927D01*
X40864Y959657D01*
X40607Y959393D01*
X40343Y959136D01*
X40073Y958886D01*
X39798Y958642D01*
X39516Y958405D01*
X39228Y958175D01*
X38935Y957952D01*
X38637Y957736D01*
X38334Y957528D01*
X38025Y957327D01*
X37712Y957134D01*
X37393Y956949D01*
X37071Y956771D01*
X36744Y956602D01*
X36413Y956440D01*
X36079Y956287D01*
X35740Y956142D01*
X35398Y956005D01*
X35053Y955877D01*
X34705Y955757D01*
X34354Y955646D01*
X34001Y955543D01*
X33645Y955450D01*
X33287Y955364D01*
X32926Y955288D01*
X32564Y955221D01*
X32201Y955162D01*
X31836Y955113D01*
X31470Y955072D01*
X31103Y955041D01*
X30736Y955018D01*
X30368Y955005D01*
X30000Y955000D01*
X29632Y955005D01*
X29264Y955018D01*
X28897Y955041D01*
X28530Y955072D01*
X28164Y955113D01*
X27799Y955162D01*
X27436Y955221D01*
X27074Y955288D01*
X26713Y955364D01*
X26355Y955450D01*
X25999Y955543D01*
X25646Y955646D01*
X25295Y955757D01*
X24947Y955877D01*
X24602Y956005D01*
X24260Y956142D01*
X23921Y956287D01*
X23587Y956440D01*
X23256Y956602D01*
X22929Y956771D01*
X22607Y956949D01*
X22288Y957134D01*
X21975Y957327D01*
X21666Y957528D01*
X21363Y957736D01*
X21065Y957952D01*
X20772Y958175D01*
X20484Y958405D01*
X20202Y958642D01*
X19927Y958886D01*
X19657Y959136D01*
X19393Y959393D01*
X19136Y959657D01*
X18886Y959927D01*
X18642Y960202D01*
X18405Y960484D01*
X18175Y960772D01*
X17952Y961065D01*
X17736Y961363D01*
X17528Y961666D01*
X17327Y961975D01*
X17134Y962288D01*
X16949Y962607D01*
X16771Y962929D01*
X16602Y963256D01*
X16440Y963587D01*
X16287Y963921D01*
X16142Y964260D01*
X16005Y964602D01*
X15877Y964947D01*
X15757Y965295D01*
X15646Y965646D01*
X15543Y965999D01*
X15450Y966355D01*
X15364Y966713D01*
X15288Y967074D01*
X15221Y967436D01*
X15162Y967799D01*
X15113Y968164D01*
X15072Y968530D01*
X15041Y968897D01*
X15018Y969264D01*
X15005Y969632D01*
X15000Y970000D01*
D11*
X76870Y964070D03*
X102270Y964070D03*
X76870Y938670D03*
X102270Y938670D03*
X76870Y913270D03*
X102270Y913270D03*
X76870Y887870D03*
X102270Y887870D03*
X76870Y862470D03*
X102270Y862470D03*
X76870Y837070D03*
X102270Y837070D03*
X76870Y811670D03*
X102270Y811670D03*
X76870Y786270D03*
X102270Y786270D03*
X76870Y760870D03*
X102270Y760870D03*
X76870Y735470D03*
X102270Y735470D03*
X76870Y710070D03*
X102270Y710070D03*
X76870Y684670D03*
X102270Y684670D03*
X76870Y659270D03*
X102270Y659270D03*
X76870Y633870D03*
X102270Y633870D03*
X76870Y608470D03*
X102270Y608470D03*
X76870Y583070D03*
X102270Y583070D03*
X76870Y557670D03*
X102270Y557670D03*
X76870Y532270D03*
X102270Y532270D03*
X76870Y506870D03*
X102270Y506870D03*
X76870Y481470D03*
X102270Y481470D03*
X561110Y963840D03*
X586510Y963840D03*
X561110Y938440D03*
X586510Y938440D03*
X561110Y913040D03*
X586510Y913040D03*
X561110Y887640D03*
X586510Y887640D03*
X561110Y862240D03*
X586510Y862240D03*
X561110Y836840D03*
X586510Y836840D03*
X561110Y811440D03*
X586510Y811440D03*
X561110Y786040D03*
X586510Y786040D03*
X561110Y760640D03*
X586510Y760640D03*
X561110Y735240D03*
X586510Y735240D03*
X561110Y709840D03*
X586510Y709840D03*
X561110Y684440D03*
X586510Y684440D03*
X561110Y659040D03*
X586510Y659040D03*
X561110Y633640D03*
X586510Y633640D03*
X561110Y608240D03*
X586510Y608240D03*
X561110Y582840D03*
X586510Y582840D03*
X561110Y557440D03*
X586510Y557440D03*
X561110Y532040D03*
X586510Y532040D03*
X561110Y506640D03*
X586510Y506640D03*
X561110Y481240D03*
X586510Y481240D03*
D12*
X1408800Y558800D03*
X926200Y584200D03*
X1408800Y533400D03*
X1408800Y508000D03*
X1408800Y482600D03*
X1408800Y457200D03*
X1408800Y584200D03*
X1408800Y609600D03*
X1408800Y635000D03*
X1408800Y675640D03*
X1408800Y701040D03*
X1408800Y726440D03*
X1408800Y751840D03*
X1408800Y777240D03*
X1408800Y802640D03*
X1408800Y828040D03*
X1408800Y853440D03*
X926200Y558800D03*
X926200Y533400D03*
X926200Y508000D03*
X926200Y482600D03*
X926200Y457200D03*
X926200Y635000D03*
X926200Y660400D03*
X926200Y685800D03*
X926200Y711200D03*
X926200Y736600D03*
X926200Y762000D03*
X1408800Y878840D03*
X1408800Y904240D03*
X926200Y787400D03*
X926200Y812800D03*
D13*
X46760Y304870D03*
X46760Y279470D03*
X46760Y254070D03*
X46760Y228670D03*
X46760Y203270D03*
X46760Y177870D03*
X46760Y152470D03*
X46760Y127070D03*
X46760Y101670D03*
X46760Y76270D03*
X21360Y76270D03*
X21360Y101670D03*
X21360Y127070D03*
X21360Y152470D03*
X21360Y177870D03*
X21360Y203270D03*
X21360Y228670D03*
X21360Y254070D03*
X21360Y279470D03*
X21360Y304870D03*
D14*
X747300Y738100D03*
X772700Y738100D03*
X747300Y712700D03*
X772700Y712700D03*
X747300Y687300D03*
X772700Y687300D03*
X772700Y661900D03*
X747300Y661900D03*
D15*
X455400Y481300D03*
X455400Y506700D03*
X455400Y532100D03*
X455400Y557500D03*
X455400Y582900D03*
X455400Y608300D03*
X455400Y633700D03*
X455400Y659100D03*
X455400Y684500D03*
X455400Y709900D03*
X455400Y735300D03*
X455400Y760700D03*
X455400Y786100D03*
X455400Y811500D03*
X455400Y836900D03*
X207700Y481300D03*
X207700Y506700D03*
X207700Y532100D03*
X207700Y557500D03*
X207700Y582900D03*
X207700Y608300D03*
X207700Y633700D03*
X207700Y659100D03*
X207700Y684500D03*
X207700Y709900D03*
X207700Y735300D03*
X207700Y760700D03*
X207700Y786100D03*
X207700Y811500D03*
X207700Y836900D03*
D16*
X367300Y96858D02*
X367300Y83142D01*
X392700Y83142D02*
X392700Y96858D01*
D17*
X746760Y713232D02*
X742188Y717804D01*
X741426Y717804D01*
X634746Y824484D01*
X593598Y824484D01*
X592836Y825246D01*
X579882Y825246D01*
X579120Y824484D01*
X567690Y824484D01*
X566928Y825246D01*
X554736Y825246D01*
X553974Y824484D01*
X490728Y824484D01*
X376428Y938784D01*
X102870Y938784D01*
X746760Y713232D02*
X747300Y712700D01*
X102870Y938784D02*
X102270Y938670D01*
X446532Y90678D02*
X447294Y89916D01*
X446532Y90678D02*
X393192Y90678D01*
X392700Y90000D01*
X448056Y90678D02*
X491490Y90678D01*
X553974Y153162D01*
X553974Y179070D01*
X548640Y184404D01*
X448056Y90678D02*
X447294Y89916D01*
D18*
X447294Y89916D03*
X548640Y184404D03*
D19*
X608838Y480822D02*
X608838Y483108D01*
X607314Y484632D01*
X607314Y585978D01*
X586740Y606552D01*
X586740Y608076D01*
X586510Y608240D01*
X152400Y279654D02*
X47244Y279654D01*
X152400Y279654D02*
X198882Y326136D01*
X548640Y326136D01*
X47244Y279654D02*
X46760Y279470D01*
D18*
X608838Y480822D03*
X548640Y326136D03*
D17*
X548640Y249174D02*
X501396Y201930D01*
D18*
X501396Y201930D03*
X548640Y249174D03*
D19*
X508254Y187452D02*
X496062Y187452D01*
X508254Y187452D02*
X564642Y243840D01*
D18*
X496062Y187452D03*
X564642Y243840D03*
D17*
X518160Y311658D02*
X441960Y311658D01*
X440436Y313182D01*
X342900Y313182D01*
X165354Y135636D01*
D18*
X518160Y311658D03*
X165354Y135636D03*
D19*
X548640Y220980D02*
X601218Y273558D01*
X601218Y436626D02*
X601218Y515874D01*
X601218Y436626D02*
X601218Y273558D01*
X601218Y515874D02*
X586740Y530352D01*
X586740Y531876D01*
X586510Y532040D01*
X33528Y115062D02*
X22098Y126492D01*
X33528Y115062D02*
X51816Y115062D01*
X52578Y114300D01*
X137160Y114300D01*
X339852Y316992D01*
X502158Y316992D01*
X557784Y436626D02*
X601218Y436626D01*
X22098Y126492D02*
X21360Y127070D01*
D18*
X548640Y220980D03*
X502158Y316992D03*
X557784Y436626D03*
D19*
X536448Y230124D02*
X536448Y222504D01*
X536448Y230124D02*
X553212Y246888D01*
X553212Y321564D02*
X553212Y470154D01*
X553212Y321564D02*
X553212Y246888D01*
X553212Y470154D02*
X547878Y475488D01*
X547878Y563118D01*
X555498Y570738D01*
X566166Y570738D01*
X566928Y569976D01*
X572262Y569976D01*
X584454Y582168D01*
X585978Y582168D01*
X586510Y582840D01*
X35052Y191262D02*
X22098Y178308D01*
X35052Y191262D02*
X51816Y191262D01*
X52578Y190500D01*
X67818Y190500D01*
X198882Y321564D01*
X553212Y321564D01*
X22098Y178308D02*
X21360Y177870D01*
D18*
X536448Y222504D03*
D19*
X576072Y241554D02*
X576072Y243840D01*
X604266Y272034D01*
X604266Y517398D01*
X599694Y521970D01*
X599694Y543306D01*
X585978Y557022D01*
X586510Y557440D01*
X284988Y217170D02*
X256794Y188976D01*
X284988Y217170D02*
X451104Y217170D01*
X488442Y179832D01*
X534162Y179832D01*
X564642Y210312D01*
D18*
X576072Y241554D03*
X256794Y188976D03*
X564642Y210312D03*
D19*
X548640Y209550D02*
X548640Y206502D01*
X548640Y209550D02*
X576072Y236982D01*
X653034Y236982D01*
X667512Y251460D01*
X667512Y433578D01*
X613410Y487680D01*
X613410Y682752D01*
X599694Y696468D01*
X599694Y720852D01*
X585978Y734568D01*
X586510Y735240D01*
X364998Y307848D02*
X358140Y307848D01*
X364998Y307848D02*
X489966Y182880D01*
X525018Y182880D01*
X548640Y206502D01*
D18*
X548640Y206502D03*
X358140Y307848D03*
D19*
X592836Y201168D02*
X644652Y201168D01*
X592836Y201168D02*
X564642Y201168D01*
X644652Y201168D02*
X649224Y205740D01*
X35052Y88392D02*
X22098Y101346D01*
X35052Y88392D02*
X51816Y88392D01*
X52578Y89154D01*
X301752Y89154D01*
X323850Y67056D01*
X480822Y67056D01*
X592836Y179070D01*
X592836Y201168D01*
X22098Y101346D02*
X21360Y101670D01*
D18*
X564642Y201168D03*
X649224Y205740D03*
D19*
X429006Y193548D02*
X268224Y193548D01*
X429006Y193548D02*
X489966Y132588D01*
X525780Y132588D01*
D18*
X268224Y193548D03*
X525780Y132588D03*
D17*
X316230Y135636D02*
X194310Y135636D01*
X165354Y106680D01*
X160782Y102108D02*
X47244Y102108D01*
X160782Y102108D02*
X165354Y106680D01*
X47244Y102108D02*
X46760Y101670D01*
D18*
X316230Y135636D03*
X165354Y106680D03*
D17*
X416052Y212598D02*
X473202Y155448D01*
X195834Y311658D02*
X147828Y263652D01*
X195834Y311658D02*
X278892Y311658D01*
D18*
X416052Y212598D03*
X147828Y263652D03*
X278892Y311658D03*
X537120Y161818D03*
D17*
X530750Y155448D02*
X473202Y155448D01*
X530750Y155448D02*
X537120Y161818D01*
X249936Y288036D02*
X249936Y300990D01*
X249936Y288036D02*
X147828Y185928D01*
D18*
X249936Y300990D03*
X147828Y185928D03*
D20*
X499110Y167640D03*
X488060Y198300D03*
X432400Y281510D03*
X412610Y293610D03*
D18*
X394970Y284480D03*
D17*
X403480Y284480D02*
X412610Y293610D01*
X403480Y284480D02*
X394970Y284480D01*
X432400Y281510D02*
X432400Y253960D01*
X488060Y198300D01*
D20*
X469230Y183720D03*
D17*
X485310Y167640D01*
X499110Y167640D01*
D20*
X352610Y283610D03*
X322610Y263610D03*
D17*
X332610Y263610D02*
X352610Y283610D01*
X332610Y263610D02*
X322610Y263610D01*
X198882Y304800D02*
X198882Y306324D01*
X198882Y304800D02*
X47244Y153162D01*
X46760Y152470D01*
D18*
X198882Y306324D03*
D17*
X447294Y144018D02*
X447294Y103632D01*
X447294Y144018D02*
X432054Y159258D01*
D18*
X447294Y103632D03*
X432054Y159258D03*
D19*
X573786Y646176D02*
X585978Y658368D01*
X573786Y646176D02*
X566928Y646176D01*
X566166Y646938D01*
X463296Y646938D01*
X462534Y647700D01*
X461010Y647700D01*
X460248Y646938D01*
X447294Y646938D01*
X91440Y291084D01*
X53340Y291084D01*
X52578Y290322D01*
X43434Y290322D01*
X33528Y280416D01*
X33528Y274320D01*
X34290Y273558D01*
X34290Y268224D01*
X22098Y256032D01*
X22098Y254508D01*
X585978Y658368D02*
X586510Y659040D01*
X22098Y254508D02*
X21360Y254070D01*
X586740Y682752D02*
X586740Y684276D01*
X586740Y682752D02*
X610362Y659130D01*
X610362Y486156D01*
X662940Y433578D01*
X662940Y253746D01*
X586740Y684276D02*
X586510Y684440D01*
D18*
X662940Y253746D03*
D17*
X368046Y102108D02*
X368046Y90678D01*
X368046Y102108D02*
X400050Y134112D01*
X400050Y166116D01*
X421386Y258318D02*
X421386Y291084D01*
X438150Y307848D01*
X368046Y90678D02*
X367300Y90000D01*
D18*
X400050Y166116D03*
X421386Y258318D03*
X438150Y307848D03*
D19*
X427482Y170688D02*
X477774Y120396D01*
X427482Y170688D02*
X208026Y170688D01*
D18*
X477774Y120396D03*
X208026Y170688D03*
D19*
X105156Y119634D02*
X302514Y316992D01*
X304038Y330708D02*
X326898Y330708D01*
X544830Y548640D01*
X544830Y610362D01*
X554736Y620268D01*
X566166Y620268D01*
X570738Y624840D01*
X576834Y624840D01*
X585978Y633984D01*
X586510Y633640D01*
D18*
X105156Y119634D03*
X302514Y316992D03*
X304038Y330708D03*
D19*
X385572Y112014D02*
X438150Y112014D01*
X621792Y488442D02*
X621792Y524256D01*
X621792Y488442D02*
X676656Y433578D01*
X676656Y121158D01*
X669036Y113538D01*
D18*
X438150Y112014D03*
X385572Y112014D03*
X621792Y524256D03*
X669036Y113538D03*
D19*
X558454Y151546D02*
X477012Y70104D01*
X558454Y151546D02*
X588264Y181356D01*
X477012Y70104D02*
X327660Y70104D01*
X310134Y87630D01*
X617220Y488442D02*
X617220Y685800D01*
X617220Y488442D02*
X672084Y433578D01*
X672084Y294132D01*
D18*
X588264Y181356D03*
X310134Y87630D03*
X617220Y685800D03*
X672084Y294132D03*
D19*
X643128Y218694D02*
X564642Y218694D01*
X643128Y218694D02*
X656082Y205740D01*
D18*
X564642Y218694D03*
X656082Y205740D03*
D19*
X89154Y646176D02*
X76962Y633984D01*
X89154Y646176D02*
X147828Y646176D01*
X200406Y698754D01*
X201930Y698754D01*
X204216Y696468D01*
X211836Y696468D01*
X213360Y697992D01*
X215646Y697992D01*
X216408Y697230D01*
X421386Y697230D01*
X448056Y723900D01*
X449580Y723900D01*
X450342Y723138D01*
X460248Y723138D01*
X461010Y723900D01*
X464058Y723900D01*
X464820Y723138D01*
X530352Y723138D01*
X554736Y747522D01*
X617220Y747522D01*
X743712Y621030D01*
X1327404Y621030D01*
X1407414Y701040D01*
X1408800Y701040D01*
X76962Y633984D02*
X76870Y633870D01*
X76962Y659892D02*
X78486Y659892D01*
X90678Y672084D01*
X96012Y672084D01*
X96774Y672846D01*
X107442Y672846D01*
X108204Y672084D01*
X122682Y672084D01*
X197358Y746760D01*
X201930Y746760D01*
X202692Y747522D01*
X212598Y747522D01*
X213360Y746760D01*
X216408Y746760D01*
X267462Y797814D01*
X449580Y797814D01*
X451104Y799338D01*
X460248Y799338D01*
X461010Y800100D01*
X464058Y800100D01*
X464820Y799338D01*
X566166Y799338D01*
X566928Y798576D01*
X580644Y798576D01*
X581406Y799338D01*
X592074Y799338D01*
X729234Y662178D01*
X729234Y660654D01*
X740664Y649224D01*
X895350Y649224D01*
X921258Y675132D01*
X931926Y675132D01*
X933450Y673608D01*
X1354074Y673608D01*
X1406652Y726186D01*
X1408176Y726186D01*
X76962Y659892D02*
X76870Y659270D01*
X1408176Y726186D02*
X1408800Y726440D01*
X733806Y637794D02*
X585978Y785622D01*
X586510Y786040D01*
D18*
X733806Y637794D03*
D19*
X733806Y662940D02*
X585978Y810768D01*
X586510Y811440D01*
D18*
X733806Y662940D03*
D20*
X566420Y176530D03*
X577850Y179070D03*
X577850Y151130D03*
X316230Y339090D03*
X269240Y334010D03*
X530000Y370000D03*
X500000Y370000D03*
D19*
X512826Y227076D02*
X499110Y213360D01*
D18*
X512826Y227076D03*
X499110Y213360D03*
D19*
X498348Y252222D02*
X539496Y252222D01*
X498348Y252222D02*
X497586Y252984D01*
D18*
X539496Y252222D03*
X497586Y252984D03*
D19*
X497586Y246888D02*
X508254Y236220D01*
D18*
X508254Y236220D03*
X497586Y246888D03*
M02*
