G04 EAGLE Gerber RS-274X export*
G75*
%MOMM*%
%FSLAX34Y34*%
%LPD*%
%INSolder paste bottom*%
%IPPOS*%
%AMOC8*
5,1,8,0,0,1.08239X$1,22.5*%
G01*
%ADD10C,0.000000*%


D10*
X0Y0D02*
X1500000Y0D01*
X1500000Y1000000D01*
X0Y1000000D01*
X0Y0D01*
X15000Y30000D02*
X15005Y30368D01*
X15018Y30736D01*
X15041Y31103D01*
X15072Y31470D01*
X15113Y31836D01*
X15162Y32201D01*
X15221Y32564D01*
X15288Y32926D01*
X15364Y33287D01*
X15450Y33645D01*
X15543Y34001D01*
X15646Y34354D01*
X15757Y34705D01*
X15877Y35053D01*
X16005Y35398D01*
X16142Y35740D01*
X16287Y36079D01*
X16440Y36413D01*
X16602Y36744D01*
X16771Y37071D01*
X16949Y37393D01*
X17134Y37712D01*
X17327Y38025D01*
X17528Y38334D01*
X17736Y38637D01*
X17952Y38935D01*
X18175Y39228D01*
X18405Y39516D01*
X18642Y39798D01*
X18886Y40073D01*
X19136Y40343D01*
X19393Y40607D01*
X19657Y40864D01*
X19927Y41114D01*
X20202Y41358D01*
X20484Y41595D01*
X20772Y41825D01*
X21065Y42048D01*
X21363Y42264D01*
X21666Y42472D01*
X21975Y42673D01*
X22288Y42866D01*
X22607Y43051D01*
X22929Y43229D01*
X23256Y43398D01*
X23587Y43560D01*
X23921Y43713D01*
X24260Y43858D01*
X24602Y43995D01*
X24947Y44123D01*
X25295Y44243D01*
X25646Y44354D01*
X25999Y44457D01*
X26355Y44550D01*
X26713Y44636D01*
X27074Y44712D01*
X27436Y44779D01*
X27799Y44838D01*
X28164Y44887D01*
X28530Y44928D01*
X28897Y44959D01*
X29264Y44982D01*
X29632Y44995D01*
X30000Y45000D01*
X30368Y44995D01*
X30736Y44982D01*
X31103Y44959D01*
X31470Y44928D01*
X31836Y44887D01*
X32201Y44838D01*
X32564Y44779D01*
X32926Y44712D01*
X33287Y44636D01*
X33645Y44550D01*
X34001Y44457D01*
X34354Y44354D01*
X34705Y44243D01*
X35053Y44123D01*
X35398Y43995D01*
X35740Y43858D01*
X36079Y43713D01*
X36413Y43560D01*
X36744Y43398D01*
X37071Y43229D01*
X37393Y43051D01*
X37712Y42866D01*
X38025Y42673D01*
X38334Y42472D01*
X38637Y42264D01*
X38935Y42048D01*
X39228Y41825D01*
X39516Y41595D01*
X39798Y41358D01*
X40073Y41114D01*
X40343Y40864D01*
X40607Y40607D01*
X40864Y40343D01*
X41114Y40073D01*
X41358Y39798D01*
X41595Y39516D01*
X41825Y39228D01*
X42048Y38935D01*
X42264Y38637D01*
X42472Y38334D01*
X42673Y38025D01*
X42866Y37712D01*
X43051Y37393D01*
X43229Y37071D01*
X43398Y36744D01*
X43560Y36413D01*
X43713Y36079D01*
X43858Y35740D01*
X43995Y35398D01*
X44123Y35053D01*
X44243Y34705D01*
X44354Y34354D01*
X44457Y34001D01*
X44550Y33645D01*
X44636Y33287D01*
X44712Y32926D01*
X44779Y32564D01*
X44838Y32201D01*
X44887Y31836D01*
X44928Y31470D01*
X44959Y31103D01*
X44982Y30736D01*
X44995Y30368D01*
X45000Y30000D01*
X44995Y29632D01*
X44982Y29264D01*
X44959Y28897D01*
X44928Y28530D01*
X44887Y28164D01*
X44838Y27799D01*
X44779Y27436D01*
X44712Y27074D01*
X44636Y26713D01*
X44550Y26355D01*
X44457Y25999D01*
X44354Y25646D01*
X44243Y25295D01*
X44123Y24947D01*
X43995Y24602D01*
X43858Y24260D01*
X43713Y23921D01*
X43560Y23587D01*
X43398Y23256D01*
X43229Y22929D01*
X43051Y22607D01*
X42866Y22288D01*
X42673Y21975D01*
X42472Y21666D01*
X42264Y21363D01*
X42048Y21065D01*
X41825Y20772D01*
X41595Y20484D01*
X41358Y20202D01*
X41114Y19927D01*
X40864Y19657D01*
X40607Y19393D01*
X40343Y19136D01*
X40073Y18886D01*
X39798Y18642D01*
X39516Y18405D01*
X39228Y18175D01*
X38935Y17952D01*
X38637Y17736D01*
X38334Y17528D01*
X38025Y17327D01*
X37712Y17134D01*
X37393Y16949D01*
X37071Y16771D01*
X36744Y16602D01*
X36413Y16440D01*
X36079Y16287D01*
X35740Y16142D01*
X35398Y16005D01*
X35053Y15877D01*
X34705Y15757D01*
X34354Y15646D01*
X34001Y15543D01*
X33645Y15450D01*
X33287Y15364D01*
X32926Y15288D01*
X32564Y15221D01*
X32201Y15162D01*
X31836Y15113D01*
X31470Y15072D01*
X31103Y15041D01*
X30736Y15018D01*
X30368Y15005D01*
X30000Y15000D01*
X29632Y15005D01*
X29264Y15018D01*
X28897Y15041D01*
X28530Y15072D01*
X28164Y15113D01*
X27799Y15162D01*
X27436Y15221D01*
X27074Y15288D01*
X26713Y15364D01*
X26355Y15450D01*
X25999Y15543D01*
X25646Y15646D01*
X25295Y15757D01*
X24947Y15877D01*
X24602Y16005D01*
X24260Y16142D01*
X23921Y16287D01*
X23587Y16440D01*
X23256Y16602D01*
X22929Y16771D01*
X22607Y16949D01*
X22288Y17134D01*
X21975Y17327D01*
X21666Y17528D01*
X21363Y17736D01*
X21065Y17952D01*
X20772Y18175D01*
X20484Y18405D01*
X20202Y18642D01*
X19927Y18886D01*
X19657Y19136D01*
X19393Y19393D01*
X19136Y19657D01*
X18886Y19927D01*
X18642Y20202D01*
X18405Y20484D01*
X18175Y20772D01*
X17952Y21065D01*
X17736Y21363D01*
X17528Y21666D01*
X17327Y21975D01*
X17134Y22288D01*
X16949Y22607D01*
X16771Y22929D01*
X16602Y23256D01*
X16440Y23587D01*
X16287Y23921D01*
X16142Y24260D01*
X16005Y24602D01*
X15877Y24947D01*
X15757Y25295D01*
X15646Y25646D01*
X15543Y25999D01*
X15450Y26355D01*
X15364Y26713D01*
X15288Y27074D01*
X15221Y27436D01*
X15162Y27799D01*
X15113Y28164D01*
X15072Y28530D01*
X15041Y28897D01*
X15018Y29264D01*
X15005Y29632D01*
X15000Y30000D01*
X1455000Y30000D02*
X1455005Y30368D01*
X1455018Y30736D01*
X1455041Y31103D01*
X1455072Y31470D01*
X1455113Y31836D01*
X1455162Y32201D01*
X1455221Y32564D01*
X1455288Y32926D01*
X1455364Y33287D01*
X1455450Y33645D01*
X1455543Y34001D01*
X1455646Y34354D01*
X1455757Y34705D01*
X1455877Y35053D01*
X1456005Y35398D01*
X1456142Y35740D01*
X1456287Y36079D01*
X1456440Y36413D01*
X1456602Y36744D01*
X1456771Y37071D01*
X1456949Y37393D01*
X1457134Y37712D01*
X1457327Y38025D01*
X1457528Y38334D01*
X1457736Y38637D01*
X1457952Y38935D01*
X1458175Y39228D01*
X1458405Y39516D01*
X1458642Y39798D01*
X1458886Y40073D01*
X1459136Y40343D01*
X1459393Y40607D01*
X1459657Y40864D01*
X1459927Y41114D01*
X1460202Y41358D01*
X1460484Y41595D01*
X1460772Y41825D01*
X1461065Y42048D01*
X1461363Y42264D01*
X1461666Y42472D01*
X1461975Y42673D01*
X1462288Y42866D01*
X1462607Y43051D01*
X1462929Y43229D01*
X1463256Y43398D01*
X1463587Y43560D01*
X1463921Y43713D01*
X1464260Y43858D01*
X1464602Y43995D01*
X1464947Y44123D01*
X1465295Y44243D01*
X1465646Y44354D01*
X1465999Y44457D01*
X1466355Y44550D01*
X1466713Y44636D01*
X1467074Y44712D01*
X1467436Y44779D01*
X1467799Y44838D01*
X1468164Y44887D01*
X1468530Y44928D01*
X1468897Y44959D01*
X1469264Y44982D01*
X1469632Y44995D01*
X1470000Y45000D01*
X1470368Y44995D01*
X1470736Y44982D01*
X1471103Y44959D01*
X1471470Y44928D01*
X1471836Y44887D01*
X1472201Y44838D01*
X1472564Y44779D01*
X1472926Y44712D01*
X1473287Y44636D01*
X1473645Y44550D01*
X1474001Y44457D01*
X1474354Y44354D01*
X1474705Y44243D01*
X1475053Y44123D01*
X1475398Y43995D01*
X1475740Y43858D01*
X1476079Y43713D01*
X1476413Y43560D01*
X1476744Y43398D01*
X1477071Y43229D01*
X1477393Y43051D01*
X1477712Y42866D01*
X1478025Y42673D01*
X1478334Y42472D01*
X1478637Y42264D01*
X1478935Y42048D01*
X1479228Y41825D01*
X1479516Y41595D01*
X1479798Y41358D01*
X1480073Y41114D01*
X1480343Y40864D01*
X1480607Y40607D01*
X1480864Y40343D01*
X1481114Y40073D01*
X1481358Y39798D01*
X1481595Y39516D01*
X1481825Y39228D01*
X1482048Y38935D01*
X1482264Y38637D01*
X1482472Y38334D01*
X1482673Y38025D01*
X1482866Y37712D01*
X1483051Y37393D01*
X1483229Y37071D01*
X1483398Y36744D01*
X1483560Y36413D01*
X1483713Y36079D01*
X1483858Y35740D01*
X1483995Y35398D01*
X1484123Y35053D01*
X1484243Y34705D01*
X1484354Y34354D01*
X1484457Y34001D01*
X1484550Y33645D01*
X1484636Y33287D01*
X1484712Y32926D01*
X1484779Y32564D01*
X1484838Y32201D01*
X1484887Y31836D01*
X1484928Y31470D01*
X1484959Y31103D01*
X1484982Y30736D01*
X1484995Y30368D01*
X1485000Y30000D01*
X1484995Y29632D01*
X1484982Y29264D01*
X1484959Y28897D01*
X1484928Y28530D01*
X1484887Y28164D01*
X1484838Y27799D01*
X1484779Y27436D01*
X1484712Y27074D01*
X1484636Y26713D01*
X1484550Y26355D01*
X1484457Y25999D01*
X1484354Y25646D01*
X1484243Y25295D01*
X1484123Y24947D01*
X1483995Y24602D01*
X1483858Y24260D01*
X1483713Y23921D01*
X1483560Y23587D01*
X1483398Y23256D01*
X1483229Y22929D01*
X1483051Y22607D01*
X1482866Y22288D01*
X1482673Y21975D01*
X1482472Y21666D01*
X1482264Y21363D01*
X1482048Y21065D01*
X1481825Y20772D01*
X1481595Y20484D01*
X1481358Y20202D01*
X1481114Y19927D01*
X1480864Y19657D01*
X1480607Y19393D01*
X1480343Y19136D01*
X1480073Y18886D01*
X1479798Y18642D01*
X1479516Y18405D01*
X1479228Y18175D01*
X1478935Y17952D01*
X1478637Y17736D01*
X1478334Y17528D01*
X1478025Y17327D01*
X1477712Y17134D01*
X1477393Y16949D01*
X1477071Y16771D01*
X1476744Y16602D01*
X1476413Y16440D01*
X1476079Y16287D01*
X1475740Y16142D01*
X1475398Y16005D01*
X1475053Y15877D01*
X1474705Y15757D01*
X1474354Y15646D01*
X1474001Y15543D01*
X1473645Y15450D01*
X1473287Y15364D01*
X1472926Y15288D01*
X1472564Y15221D01*
X1472201Y15162D01*
X1471836Y15113D01*
X1471470Y15072D01*
X1471103Y15041D01*
X1470736Y15018D01*
X1470368Y15005D01*
X1470000Y15000D01*
X1469632Y15005D01*
X1469264Y15018D01*
X1468897Y15041D01*
X1468530Y15072D01*
X1468164Y15113D01*
X1467799Y15162D01*
X1467436Y15221D01*
X1467074Y15288D01*
X1466713Y15364D01*
X1466355Y15450D01*
X1465999Y15543D01*
X1465646Y15646D01*
X1465295Y15757D01*
X1464947Y15877D01*
X1464602Y16005D01*
X1464260Y16142D01*
X1463921Y16287D01*
X1463587Y16440D01*
X1463256Y16602D01*
X1462929Y16771D01*
X1462607Y16949D01*
X1462288Y17134D01*
X1461975Y17327D01*
X1461666Y17528D01*
X1461363Y17736D01*
X1461065Y17952D01*
X1460772Y18175D01*
X1460484Y18405D01*
X1460202Y18642D01*
X1459927Y18886D01*
X1459657Y19136D01*
X1459393Y19393D01*
X1459136Y19657D01*
X1458886Y19927D01*
X1458642Y20202D01*
X1458405Y20484D01*
X1458175Y20772D01*
X1457952Y21065D01*
X1457736Y21363D01*
X1457528Y21666D01*
X1457327Y21975D01*
X1457134Y22288D01*
X1456949Y22607D01*
X1456771Y22929D01*
X1456602Y23256D01*
X1456440Y23587D01*
X1456287Y23921D01*
X1456142Y24260D01*
X1456005Y24602D01*
X1455877Y24947D01*
X1455757Y25295D01*
X1455646Y25646D01*
X1455543Y25999D01*
X1455450Y26355D01*
X1455364Y26713D01*
X1455288Y27074D01*
X1455221Y27436D01*
X1455162Y27799D01*
X1455113Y28164D01*
X1455072Y28530D01*
X1455041Y28897D01*
X1455018Y29264D01*
X1455005Y29632D01*
X1455000Y30000D01*
X1455000Y970000D02*
X1455005Y970368D01*
X1455018Y970736D01*
X1455041Y971103D01*
X1455072Y971470D01*
X1455113Y971836D01*
X1455162Y972201D01*
X1455221Y972564D01*
X1455288Y972926D01*
X1455364Y973287D01*
X1455450Y973645D01*
X1455543Y974001D01*
X1455646Y974354D01*
X1455757Y974705D01*
X1455877Y975053D01*
X1456005Y975398D01*
X1456142Y975740D01*
X1456287Y976079D01*
X1456440Y976413D01*
X1456602Y976744D01*
X1456771Y977071D01*
X1456949Y977393D01*
X1457134Y977712D01*
X1457327Y978025D01*
X1457528Y978334D01*
X1457736Y978637D01*
X1457952Y978935D01*
X1458175Y979228D01*
X1458405Y979516D01*
X1458642Y979798D01*
X1458886Y980073D01*
X1459136Y980343D01*
X1459393Y980607D01*
X1459657Y980864D01*
X1459927Y981114D01*
X1460202Y981358D01*
X1460484Y981595D01*
X1460772Y981825D01*
X1461065Y982048D01*
X1461363Y982264D01*
X1461666Y982472D01*
X1461975Y982673D01*
X1462288Y982866D01*
X1462607Y983051D01*
X1462929Y983229D01*
X1463256Y983398D01*
X1463587Y983560D01*
X1463921Y983713D01*
X1464260Y983858D01*
X1464602Y983995D01*
X1464947Y984123D01*
X1465295Y984243D01*
X1465646Y984354D01*
X1465999Y984457D01*
X1466355Y984550D01*
X1466713Y984636D01*
X1467074Y984712D01*
X1467436Y984779D01*
X1467799Y984838D01*
X1468164Y984887D01*
X1468530Y984928D01*
X1468897Y984959D01*
X1469264Y984982D01*
X1469632Y984995D01*
X1470000Y985000D01*
X1470368Y984995D01*
X1470736Y984982D01*
X1471103Y984959D01*
X1471470Y984928D01*
X1471836Y984887D01*
X1472201Y984838D01*
X1472564Y984779D01*
X1472926Y984712D01*
X1473287Y984636D01*
X1473645Y984550D01*
X1474001Y984457D01*
X1474354Y984354D01*
X1474705Y984243D01*
X1475053Y984123D01*
X1475398Y983995D01*
X1475740Y983858D01*
X1476079Y983713D01*
X1476413Y983560D01*
X1476744Y983398D01*
X1477071Y983229D01*
X1477393Y983051D01*
X1477712Y982866D01*
X1478025Y982673D01*
X1478334Y982472D01*
X1478637Y982264D01*
X1478935Y982048D01*
X1479228Y981825D01*
X1479516Y981595D01*
X1479798Y981358D01*
X1480073Y981114D01*
X1480343Y980864D01*
X1480607Y980607D01*
X1480864Y980343D01*
X1481114Y980073D01*
X1481358Y979798D01*
X1481595Y979516D01*
X1481825Y979228D01*
X1482048Y978935D01*
X1482264Y978637D01*
X1482472Y978334D01*
X1482673Y978025D01*
X1482866Y977712D01*
X1483051Y977393D01*
X1483229Y977071D01*
X1483398Y976744D01*
X1483560Y976413D01*
X1483713Y976079D01*
X1483858Y975740D01*
X1483995Y975398D01*
X1484123Y975053D01*
X1484243Y974705D01*
X1484354Y974354D01*
X1484457Y974001D01*
X1484550Y973645D01*
X1484636Y973287D01*
X1484712Y972926D01*
X1484779Y972564D01*
X1484838Y972201D01*
X1484887Y971836D01*
X1484928Y971470D01*
X1484959Y971103D01*
X1484982Y970736D01*
X1484995Y970368D01*
X1485000Y970000D01*
X1484995Y969632D01*
X1484982Y969264D01*
X1484959Y968897D01*
X1484928Y968530D01*
X1484887Y968164D01*
X1484838Y967799D01*
X1484779Y967436D01*
X1484712Y967074D01*
X1484636Y966713D01*
X1484550Y966355D01*
X1484457Y965999D01*
X1484354Y965646D01*
X1484243Y965295D01*
X1484123Y964947D01*
X1483995Y964602D01*
X1483858Y964260D01*
X1483713Y963921D01*
X1483560Y963587D01*
X1483398Y963256D01*
X1483229Y962929D01*
X1483051Y962607D01*
X1482866Y962288D01*
X1482673Y961975D01*
X1482472Y961666D01*
X1482264Y961363D01*
X1482048Y961065D01*
X1481825Y960772D01*
X1481595Y960484D01*
X1481358Y960202D01*
X1481114Y959927D01*
X1480864Y959657D01*
X1480607Y959393D01*
X1480343Y959136D01*
X1480073Y958886D01*
X1479798Y958642D01*
X1479516Y958405D01*
X1479228Y958175D01*
X1478935Y957952D01*
X1478637Y957736D01*
X1478334Y957528D01*
X1478025Y957327D01*
X1477712Y957134D01*
X1477393Y956949D01*
X1477071Y956771D01*
X1476744Y956602D01*
X1476413Y956440D01*
X1476079Y956287D01*
X1475740Y956142D01*
X1475398Y956005D01*
X1475053Y955877D01*
X1474705Y955757D01*
X1474354Y955646D01*
X1474001Y955543D01*
X1473645Y955450D01*
X1473287Y955364D01*
X1472926Y955288D01*
X1472564Y955221D01*
X1472201Y955162D01*
X1471836Y955113D01*
X1471470Y955072D01*
X1471103Y955041D01*
X1470736Y955018D01*
X1470368Y955005D01*
X1470000Y955000D01*
X1469632Y955005D01*
X1469264Y955018D01*
X1468897Y955041D01*
X1468530Y955072D01*
X1468164Y955113D01*
X1467799Y955162D01*
X1467436Y955221D01*
X1467074Y955288D01*
X1466713Y955364D01*
X1466355Y955450D01*
X1465999Y955543D01*
X1465646Y955646D01*
X1465295Y955757D01*
X1464947Y955877D01*
X1464602Y956005D01*
X1464260Y956142D01*
X1463921Y956287D01*
X1463587Y956440D01*
X1463256Y956602D01*
X1462929Y956771D01*
X1462607Y956949D01*
X1462288Y957134D01*
X1461975Y957327D01*
X1461666Y957528D01*
X1461363Y957736D01*
X1461065Y957952D01*
X1460772Y958175D01*
X1460484Y958405D01*
X1460202Y958642D01*
X1459927Y958886D01*
X1459657Y959136D01*
X1459393Y959393D01*
X1459136Y959657D01*
X1458886Y959927D01*
X1458642Y960202D01*
X1458405Y960484D01*
X1458175Y960772D01*
X1457952Y961065D01*
X1457736Y961363D01*
X1457528Y961666D01*
X1457327Y961975D01*
X1457134Y962288D01*
X1456949Y962607D01*
X1456771Y962929D01*
X1456602Y963256D01*
X1456440Y963587D01*
X1456287Y963921D01*
X1456142Y964260D01*
X1456005Y964602D01*
X1455877Y964947D01*
X1455757Y965295D01*
X1455646Y965646D01*
X1455543Y965999D01*
X1455450Y966355D01*
X1455364Y966713D01*
X1455288Y967074D01*
X1455221Y967436D01*
X1455162Y967799D01*
X1455113Y968164D01*
X1455072Y968530D01*
X1455041Y968897D01*
X1455018Y969264D01*
X1455005Y969632D01*
X1455000Y970000D01*
X15000Y970000D02*
X15005Y970368D01*
X15018Y970736D01*
X15041Y971103D01*
X15072Y971470D01*
X15113Y971836D01*
X15162Y972201D01*
X15221Y972564D01*
X15288Y972926D01*
X15364Y973287D01*
X15450Y973645D01*
X15543Y974001D01*
X15646Y974354D01*
X15757Y974705D01*
X15877Y975053D01*
X16005Y975398D01*
X16142Y975740D01*
X16287Y976079D01*
X16440Y976413D01*
X16602Y976744D01*
X16771Y977071D01*
X16949Y977393D01*
X17134Y977712D01*
X17327Y978025D01*
X17528Y978334D01*
X17736Y978637D01*
X17952Y978935D01*
X18175Y979228D01*
X18405Y979516D01*
X18642Y979798D01*
X18886Y980073D01*
X19136Y980343D01*
X19393Y980607D01*
X19657Y980864D01*
X19927Y981114D01*
X20202Y981358D01*
X20484Y981595D01*
X20772Y981825D01*
X21065Y982048D01*
X21363Y982264D01*
X21666Y982472D01*
X21975Y982673D01*
X22288Y982866D01*
X22607Y983051D01*
X22929Y983229D01*
X23256Y983398D01*
X23587Y983560D01*
X23921Y983713D01*
X24260Y983858D01*
X24602Y983995D01*
X24947Y984123D01*
X25295Y984243D01*
X25646Y984354D01*
X25999Y984457D01*
X26355Y984550D01*
X26713Y984636D01*
X27074Y984712D01*
X27436Y984779D01*
X27799Y984838D01*
X28164Y984887D01*
X28530Y984928D01*
X28897Y984959D01*
X29264Y984982D01*
X29632Y984995D01*
X30000Y985000D01*
X30368Y984995D01*
X30736Y984982D01*
X31103Y984959D01*
X31470Y984928D01*
X31836Y984887D01*
X32201Y984838D01*
X32564Y984779D01*
X32926Y984712D01*
X33287Y984636D01*
X33645Y984550D01*
X34001Y984457D01*
X34354Y984354D01*
X34705Y984243D01*
X35053Y984123D01*
X35398Y983995D01*
X35740Y983858D01*
X36079Y983713D01*
X36413Y983560D01*
X36744Y983398D01*
X37071Y983229D01*
X37393Y983051D01*
X37712Y982866D01*
X38025Y982673D01*
X38334Y982472D01*
X38637Y982264D01*
X38935Y982048D01*
X39228Y981825D01*
X39516Y981595D01*
X39798Y981358D01*
X40073Y981114D01*
X40343Y980864D01*
X40607Y980607D01*
X40864Y980343D01*
X41114Y980073D01*
X41358Y979798D01*
X41595Y979516D01*
X41825Y979228D01*
X42048Y978935D01*
X42264Y978637D01*
X42472Y978334D01*
X42673Y978025D01*
X42866Y977712D01*
X43051Y977393D01*
X43229Y977071D01*
X43398Y976744D01*
X43560Y976413D01*
X43713Y976079D01*
X43858Y975740D01*
X43995Y975398D01*
X44123Y975053D01*
X44243Y974705D01*
X44354Y974354D01*
X44457Y974001D01*
X44550Y973645D01*
X44636Y973287D01*
X44712Y972926D01*
X44779Y972564D01*
X44838Y972201D01*
X44887Y971836D01*
X44928Y971470D01*
X44959Y971103D01*
X44982Y970736D01*
X44995Y970368D01*
X45000Y970000D01*
X44995Y969632D01*
X44982Y969264D01*
X44959Y968897D01*
X44928Y968530D01*
X44887Y968164D01*
X44838Y967799D01*
X44779Y967436D01*
X44712Y967074D01*
X44636Y966713D01*
X44550Y966355D01*
X44457Y965999D01*
X44354Y965646D01*
X44243Y965295D01*
X44123Y964947D01*
X43995Y964602D01*
X43858Y964260D01*
X43713Y963921D01*
X43560Y963587D01*
X43398Y963256D01*
X43229Y962929D01*
X43051Y962607D01*
X42866Y962288D01*
X42673Y961975D01*
X42472Y961666D01*
X42264Y961363D01*
X42048Y961065D01*
X41825Y960772D01*
X41595Y960484D01*
X41358Y960202D01*
X41114Y959927D01*
X40864Y959657D01*
X40607Y959393D01*
X40343Y959136D01*
X40073Y958886D01*
X39798Y958642D01*
X39516Y958405D01*
X39228Y958175D01*
X38935Y957952D01*
X38637Y957736D01*
X38334Y957528D01*
X38025Y957327D01*
X37712Y957134D01*
X37393Y956949D01*
X37071Y956771D01*
X36744Y956602D01*
X36413Y956440D01*
X36079Y956287D01*
X35740Y956142D01*
X35398Y956005D01*
X35053Y955877D01*
X34705Y955757D01*
X34354Y955646D01*
X34001Y955543D01*
X33645Y955450D01*
X33287Y955364D01*
X32926Y955288D01*
X32564Y955221D01*
X32201Y955162D01*
X31836Y955113D01*
X31470Y955072D01*
X31103Y955041D01*
X30736Y955018D01*
X30368Y955005D01*
X30000Y955000D01*
X29632Y955005D01*
X29264Y955018D01*
X28897Y955041D01*
X28530Y955072D01*
X28164Y955113D01*
X27799Y955162D01*
X27436Y955221D01*
X27074Y955288D01*
X26713Y955364D01*
X26355Y955450D01*
X25999Y955543D01*
X25646Y955646D01*
X25295Y955757D01*
X24947Y955877D01*
X24602Y956005D01*
X24260Y956142D01*
X23921Y956287D01*
X23587Y956440D01*
X23256Y956602D01*
X22929Y956771D01*
X22607Y956949D01*
X22288Y957134D01*
X21975Y957327D01*
X21666Y957528D01*
X21363Y957736D01*
X21065Y957952D01*
X20772Y958175D01*
X20484Y958405D01*
X20202Y958642D01*
X19927Y958886D01*
X19657Y959136D01*
X19393Y959393D01*
X19136Y959657D01*
X18886Y959927D01*
X18642Y960202D01*
X18405Y960484D01*
X18175Y960772D01*
X17952Y961065D01*
X17736Y961363D01*
X17528Y961666D01*
X17327Y961975D01*
X17134Y962288D01*
X16949Y962607D01*
X16771Y962929D01*
X16602Y963256D01*
X16440Y963587D01*
X16287Y963921D01*
X16142Y964260D01*
X16005Y964602D01*
X15877Y964947D01*
X15757Y965295D01*
X15646Y965646D01*
X15543Y965999D01*
X15450Y966355D01*
X15364Y966713D01*
X15288Y967074D01*
X15221Y967436D01*
X15162Y967799D01*
X15113Y968164D01*
X15072Y968530D01*
X15041Y968897D01*
X15018Y969264D01*
X15005Y969632D01*
X15000Y970000D01*
M02*
