M48
;GenerationSoftware,Autodesk,EAGLE,9.6.2*%
;CreationDate,2021-09-20T01:54:20Z*%
FMAT,2
ICI,OFF
METRIC,TZ,000.000
T6C0.300
T5C0.350
T4C0.914
T3C1.000
T2C1.016
T1C3.000
%
G90
M71
T1
X3000Y3000
X147000Y3000
X147000Y97000
X3000Y97000
T2
X7687Y60847
X10227Y60847
X7687Y58307
X10227Y58307
X7687Y55767
X10227Y55767
X7687Y53227
X10227Y53227
X7687Y50687
X10227Y50687
X7687Y48147
X10227Y48147
X56111Y96384
X58651Y96384
X56111Y93844
X58651Y93844
X56111Y91304
X58651Y91304
X2136Y30487
X2136Y27947
X2136Y25407
X2136Y22867
X2136Y20327
X2136Y17787
X2136Y15247
X2136Y12707
X2136Y10167
X56111Y88764
X2136Y7627
X4676Y7627
X4676Y10167
X4676Y12707
X4676Y15247
X4676Y17787
X4676Y20327
X4676Y22867
X4676Y25407
X4676Y27947
X4676Y30487
X58651Y48124
X56111Y48124
X58651Y50664
X56111Y50664
X58651Y53204
X56111Y53204
X58651Y55744
X56111Y55744
X58651Y58284
X56111Y58284
X58651Y60824
X56111Y60824
X58651Y63364
X56111Y63364
X58651Y65904
X56111Y65904
X58651Y68444
X56111Y68444
X58651Y70984
X56111Y70984
X58651Y73524
X56111Y73524
X58651Y76064
X56111Y76064
X58651Y78604
X56111Y78604
X58651Y81144
X56111Y81144
X58651Y83684
X56111Y83684
X58651Y86224
X56111Y86224
X58651Y88764
X7687Y65927
X10227Y65927
X7687Y63387
X10227Y63387
X7687Y96407
X10227Y96407
X7687Y93867
X10227Y93867
X7687Y91327
X10227Y91327
X7687Y88787
X10227Y88787
X7687Y86247
X10227Y86247
X7687Y83707
X10227Y83707
X7687Y81167
X10227Y81167
X7687Y78627
X10227Y78627
X7687Y76087
X10227Y76087
X7687Y73547
X10227Y73547
X7687Y71007
X10227Y71007
X7687Y68467
X10227Y68467
T3
X45540Y68450
X45540Y70990
X45540Y73530
X45540Y76070
X45540Y78610
X45540Y81150
X45540Y83690
X20770Y48130
X20770Y50670
X20770Y53210
X20770Y55750
X20770Y58290
X20770Y60830
X20770Y63370
X20770Y65910
X20770Y68450
X20770Y70990
X20770Y73530
X20770Y76070
X20770Y78610
X20770Y81150
X20770Y83690
X45540Y48130
X140880Y55880
X92620Y58420
X140880Y53340
X140880Y50800
X140880Y48260
X140880Y45720
X140880Y58420
X140880Y60960
X140880Y63500
X140880Y67564
X140880Y70104
X140880Y72644
X140880Y75184
X140880Y77724
X140880Y80264
X140880Y82804
X140880Y85344
X92620Y55880
X92620Y53340
X92620Y50800
X92620Y48260
X92620Y45720
X92620Y63500
X92620Y66040
X92620Y68580
X92620Y71120
X92620Y73660
X92620Y76200
X140880Y87884
X140880Y90424
X92620Y78740
X92620Y81280
X45540Y50670
X45540Y53210
X45540Y55750
X45540Y58290
X45540Y60830
X45540Y63370
X45540Y65910
T4
X74730Y66190
X74730Y73810
X77270Y73810
X74730Y71270
X77270Y71270
X74730Y68730
X77270Y68730
X77270Y66190
X39270Y9000
X36730Y9000
T5
X49911Y16764
X35261Y28361
X31623Y33909
X46923Y18372
X41261Y29361
X43240Y28151
X48806Y19830
X32261Y26361
X50000Y37000
X53000Y37000
X26924Y33401
X57785Y15113
X57785Y17907
X56642Y17653
T6
X54864Y20650
X35814Y30785
X56464Y20117
X64922Y20574
X26822Y19355
X20803Y17069
X47777Y12040
X43815Y30785
X42139Y25832
X66294Y25375
X43205Y15926
X44729Y10363
X19888Y30632
X14783Y18593
X24994Y30099
X53712Y16182
X27889Y31166
X14783Y26365
X41605Y21260
X54864Y22098
X31623Y13564
X52578Y13259
X54864Y18440
X60884Y48082
X54864Y32614
X50140Y20193
X54864Y24917
X49606Y18745
X56464Y24384
X16535Y10668
X44729Y8992
X40005Y16612
X49759Y24689
X50825Y23622
X49759Y25298
X53950Y25222
X49911Y21336
X51283Y22708
X51816Y31166
X16535Y13564
X50216Y31699
X55778Y43663
X53645Y22250
X57607Y24155
X25679Y18898
X73381Y66294
X73381Y63779
X65608Y20574
X56464Y21869
X67208Y29413
X61722Y68580
X39497Y28448
X58826Y18136
X66904Y11354
X62179Y52426
X38557Y11201
X43815Y11201
X30404Y33071
X30251Y31699
X10516Y11963
X56464Y21031
X31013Y8763
M30