G04*
G04 #@! TF.GenerationSoftware,Altium Limited,Altium Designer,21.1.0 (24)*
G04*
G04 Layer_Color=65535*
%FSAX25Y25*%
%MOIN*%
G70*
G04*
G04 #@! TF.SameCoordinates,64B46316-5E79-497B-94DE-3B570569772B*
G04*
G04*
G04 #@! TF.FilePolarity,Positive*
G04*
G01*
G75*
%ADD10C,0.01000*%
%ADD11C,0.00787*%
%ADD12C,0.00984*%
%ADD13C,0.00394*%
%ADD14C,0.00800*%
%ADD15C,0.00500*%
G36*
X0001980Y0189095D02*
Y0188185D01*
X0000434Y0188903D01*
X-0002800Y0187571D01*
Y0188474D01*
X-0000617Y0189376D01*
X-0002800Y0190375D01*
Y0191286D01*
X0001980Y0189095D01*
D02*
G37*
G36*
X-0002038Y0187253D02*
X-0002045Y0187245D01*
X-0002053Y0187230D01*
X-0002068Y0187201D01*
X-0002082Y0187164D01*
X-0002105Y0187082D01*
X-0002119Y0187045D01*
Y0186971D01*
X-0002105Y0186927D01*
X-0002090Y0186883D01*
X-0002060Y0186831D01*
X-0002016Y0186772D01*
X-0001949Y0186712D01*
X-0001868Y0186661D01*
X-0001853Y0186653D01*
X-0001816Y0186638D01*
X-0001786Y0186631D01*
X-0001749Y0186616D01*
X-0001705Y0186609D01*
X-0001653Y0186594D01*
X-0001587Y0186579D01*
X-0001520Y0186572D01*
X-0001439Y0186557D01*
X-0001350Y0186550D01*
X-0001246Y0186542D01*
X-0001135Y0186535D01*
X-0001017Y0186527D01*
X-0000884D01*
X-0000713Y0186535D01*
X0000700D01*
Y0185654D01*
X-0002800D01*
Y0186424D01*
X-0002356D01*
X-0002371Y0186431D01*
X-0002401Y0186446D01*
X-0002445Y0186468D01*
X-0002504Y0186505D01*
X-0002563Y0186550D01*
X-0002630Y0186609D01*
X-0002697Y0186668D01*
X-0002748Y0186735D01*
X-0002756Y0186742D01*
X-0002771Y0186772D01*
X-0002793Y0186809D01*
X-0002822Y0186868D01*
X-0002845Y0186927D01*
X-0002867Y0187001D01*
X-0002882Y0187082D01*
X-0002889Y0187171D01*
Y0187201D01*
X-0002882Y0187238D01*
X-0002874Y0187282D01*
X-0002867Y0187334D01*
X-0002852Y0187393D01*
X-0002822Y0187460D01*
X-0002793Y0187526D01*
X-0002038Y0187253D01*
D02*
G37*
G36*
X-0000921Y0185136D02*
X-0000869Y0185129D01*
X-0000750Y0185114D01*
X-0000610Y0185084D01*
X-0000447Y0185040D01*
X-0000284Y0184973D01*
X-0000121Y0184892D01*
X-0000114D01*
X-0000099Y0184885D01*
X-0000077Y0184870D01*
X-0000047Y0184848D01*
X0000027Y0184796D01*
X0000123Y0184714D01*
X0000234Y0184618D01*
X0000345Y0184507D01*
X0000456Y0184374D01*
X0000552Y0184219D01*
Y0184211D01*
X0000559Y0184196D01*
X0000574Y0184174D01*
X0000589Y0184145D01*
X0000604Y0184108D01*
X0000626Y0184056D01*
X0000670Y0183945D01*
X0000715Y0183804D01*
X0000752Y0183649D01*
X0000781Y0183471D01*
X0000789Y0183286D01*
Y0183257D01*
X0000781Y0183212D01*
Y0183160D01*
X0000774Y0183094D01*
X0000759Y0183020D01*
X0000744Y0182938D01*
X0000722Y0182842D01*
X0000693Y0182746D01*
X0000656Y0182642D01*
X0000619Y0182531D01*
X0000567Y0182428D01*
X0000500Y0182317D01*
X0000434Y0182206D01*
X0000352Y0182102D01*
X0000256Y0181999D01*
X0000249Y0181991D01*
X0000234Y0181976D01*
X0000204Y0181947D01*
X0000160Y0181917D01*
X0000108Y0181880D01*
X0000049Y0181836D01*
X-0000025Y0181784D01*
X-0000107Y0181740D01*
X-0000195Y0181688D01*
X-0000299Y0181636D01*
X-0000403Y0181592D01*
X-0000521Y0181555D01*
X-0000639Y0181525D01*
X-0000773Y0181495D01*
X-0000906Y0181481D01*
X-0001046Y0181473D01*
X-0001054D01*
X-0001083D01*
X-0001128Y0181481D01*
X-0001180D01*
X-0001254Y0181495D01*
X-0001335Y0181503D01*
X-0001424Y0181525D01*
X-0001520Y0181547D01*
X-0001624Y0181577D01*
X-0001735Y0181621D01*
X-0001853Y0181666D01*
X-0001964Y0181725D01*
X-0002082Y0181791D01*
X-0002193Y0181873D01*
X-0002304Y0181969D01*
X-0002408Y0182073D01*
X-0002415Y0182080D01*
X-0002430Y0182095D01*
X-0002452Y0182124D01*
X-0002482Y0182169D01*
X-0002519Y0182213D01*
X-0002563Y0182272D01*
X-0002600Y0182346D01*
X-0002652Y0182420D01*
X-0002697Y0182509D01*
X-0002734Y0182598D01*
X-0002815Y0182805D01*
X-0002845Y0182916D01*
X-0002867Y0183035D01*
X-0002882Y0183160D01*
X-0002889Y0183286D01*
Y0183368D01*
X-0002882Y0183412D01*
X-0002874Y0183464D01*
X-0002859Y0183590D01*
X-0002830Y0183730D01*
X-0002785Y0183886D01*
X-0002719Y0184048D01*
X-0002637Y0184211D01*
Y0184219D01*
X-0002630Y0184233D01*
X-0002615Y0184256D01*
X-0002593Y0184285D01*
X-0002541Y0184359D01*
X-0002460Y0184463D01*
X-0002364Y0184566D01*
X-0002253Y0184685D01*
X-0002119Y0184796D01*
X-0001964Y0184892D01*
X-0001957D01*
X-0001942Y0184899D01*
X-0001920Y0184914D01*
X-0001890Y0184929D01*
X-0001853Y0184951D01*
X-0001801Y0184973D01*
X-0001690Y0185018D01*
X-0001557Y0185062D01*
X-0001402Y0185107D01*
X-0001231Y0185136D01*
X-0001046Y0185144D01*
X-0001039D01*
X-0001024D01*
X-0001002D01*
X-0000965D01*
X-0000921Y0185136D01*
D02*
G37*
G36*
X-0002045Y0180652D02*
X0000700D01*
Y0179771D01*
X-0002045D01*
Y0179320D01*
X-0002800D01*
Y0179771D01*
X-0004095D01*
Y0180652D01*
X-0002800D01*
Y0181170D01*
X-0002045D01*
Y0180652D01*
D02*
G37*
G36*
X0000700Y0177899D02*
X0000330D01*
X0000337Y0177884D01*
X0000367Y0177855D01*
X0000411Y0177803D01*
X0000463Y0177736D01*
X0000522Y0177662D01*
X0000582Y0177573D01*
X0000641Y0177477D01*
X0000685Y0177381D01*
X0000693Y0177366D01*
X0000700Y0177337D01*
X0000715Y0177285D01*
X0000737Y0177211D01*
X0000759Y0177129D01*
X0000774Y0177033D01*
X0000781Y0176930D01*
X0000789Y0176819D01*
Y0176752D01*
X0000781Y0176708D01*
X0000774Y0176648D01*
X0000759Y0176574D01*
X0000744Y0176500D01*
X0000722Y0176419D01*
X0000693Y0176330D01*
X0000663Y0176234D01*
X0000619Y0176138D01*
X0000567Y0176034D01*
X0000508Y0175938D01*
X0000434Y0175834D01*
X0000352Y0175738D01*
X0000263Y0175642D01*
X0000256Y0175635D01*
X0000241Y0175620D01*
X0000212Y0175598D01*
X0000167Y0175568D01*
X0000115Y0175524D01*
X0000056Y0175487D01*
X-0000018Y0175442D01*
X-0000099Y0175398D01*
X-0000188Y0175346D01*
X-0000284Y0175302D01*
X-0000395Y0175265D01*
X-0000506Y0175228D01*
X-0000632Y0175191D01*
X-0000758Y0175168D01*
X-0000898Y0175154D01*
X-0001039Y0175146D01*
X-0001046D01*
X-0001076D01*
X-0001120D01*
X-0001172Y0175154D01*
X-0001246Y0175161D01*
X-0001328Y0175168D01*
X-0001416Y0175183D01*
X-0001513Y0175205D01*
X-0001720Y0175265D01*
X-0001831Y0175302D01*
X-0001942Y0175346D01*
X-0002053Y0175398D01*
X-0002164Y0175464D01*
X-0002267Y0175538D01*
X-0002371Y0175620D01*
X-0002378Y0175627D01*
X-0002393Y0175642D01*
X-0002415Y0175672D01*
X-0002452Y0175709D01*
X-0002489Y0175753D01*
X-0002534Y0175812D01*
X-0002586Y0175871D01*
X-0002630Y0175945D01*
X-0002682Y0176027D01*
X-0002726Y0176116D01*
X-0002808Y0176315D01*
X-0002845Y0176426D01*
X-0002867Y0176545D01*
X-0002882Y0176663D01*
X-0002889Y0176789D01*
Y0176841D01*
X-0002882Y0176907D01*
X-0002874Y0176981D01*
X-0002859Y0177070D01*
X-0002837Y0177174D01*
X-0002808Y0177277D01*
X-0002771Y0177381D01*
X-0002763Y0177396D01*
X-0002748Y0177425D01*
X-0002719Y0177485D01*
X-0002682Y0177551D01*
X-0002630Y0177633D01*
X-0002571Y0177721D01*
X-0002497Y0177810D01*
X-0002415Y0177899D01*
X-0002800D01*
Y0178780D01*
X0000700D01*
Y0177899D01*
D02*
G37*
G36*
X-0002038Y0174599D02*
X-0002045Y0174591D01*
X-0002053Y0174576D01*
X-0002068Y0174547D01*
X-0002082Y0174510D01*
X-0002105Y0174428D01*
X-0002119Y0174391D01*
Y0174317D01*
X-0002105Y0174273D01*
X-0002090Y0174229D01*
X-0002060Y0174177D01*
X-0002016Y0174118D01*
X-0001949Y0174058D01*
X-0001868Y0174007D01*
X-0001853Y0173999D01*
X-0001816Y0173984D01*
X-0001786Y0173977D01*
X-0001749Y0173962D01*
X-0001705Y0173955D01*
X-0001653Y0173940D01*
X-0001587Y0173925D01*
X-0001520Y0173918D01*
X-0001439Y0173903D01*
X-0001350Y0173896D01*
X-0001246Y0173888D01*
X-0001135Y0173881D01*
X-0001017Y0173873D01*
X-0000884D01*
X-0000713Y0173881D01*
X0000700D01*
Y0173000D01*
X-0002800D01*
Y0173770D01*
X-0002356D01*
X-0002371Y0173777D01*
X-0002401Y0173792D01*
X-0002445Y0173814D01*
X-0002504Y0173851D01*
X-0002563Y0173896D01*
X-0002630Y0173955D01*
X-0002697Y0174014D01*
X-0002748Y0174081D01*
X-0002756Y0174088D01*
X-0002771Y0174118D01*
X-0002793Y0174155D01*
X-0002822Y0174214D01*
X-0002845Y0174273D01*
X-0002867Y0174347D01*
X-0002882Y0174428D01*
X-0002889Y0174517D01*
Y0174547D01*
X-0002882Y0174584D01*
X-0002874Y0174628D01*
X-0002867Y0174680D01*
X-0002852Y0174739D01*
X-0002822Y0174806D01*
X-0002793Y0174872D01*
X-0002038Y0174599D01*
D02*
G37*
G36*
X-0000921Y0172482D02*
X-0000869Y0172475D01*
X-0000750Y0172460D01*
X-0000610Y0172430D01*
X-0000447Y0172386D01*
X-0000284Y0172319D01*
X-0000121Y0172238D01*
X-0000114D01*
X-0000099Y0172231D01*
X-0000077Y0172216D01*
X-0000047Y0172194D01*
X0000027Y0172142D01*
X0000123Y0172060D01*
X0000234Y0171964D01*
X0000345Y0171853D01*
X0000456Y0171720D01*
X0000552Y0171565D01*
Y0171557D01*
X0000559Y0171542D01*
X0000574Y0171520D01*
X0000589Y0171491D01*
X0000604Y0171454D01*
X0000626Y0171402D01*
X0000670Y0171291D01*
X0000715Y0171150D01*
X0000752Y0170995D01*
X0000781Y0170817D01*
X0000789Y0170632D01*
Y0170603D01*
X0000781Y0170558D01*
Y0170506D01*
X0000774Y0170440D01*
X0000759Y0170366D01*
X0000744Y0170284D01*
X0000722Y0170188D01*
X0000693Y0170092D01*
X0000656Y0169988D01*
X0000619Y0169877D01*
X0000567Y0169774D01*
X0000500Y0169663D01*
X0000434Y0169552D01*
X0000352Y0169448D01*
X0000256Y0169345D01*
X0000249Y0169337D01*
X0000234Y0169322D01*
X0000204Y0169293D01*
X0000160Y0169263D01*
X0000108Y0169226D01*
X0000049Y0169182D01*
X-0000025Y0169130D01*
X-0000107Y0169086D01*
X-0000195Y0169034D01*
X-0000299Y0168982D01*
X-0000403Y0168938D01*
X-0000521Y0168901D01*
X-0000639Y0168871D01*
X-0000773Y0168841D01*
X-0000906Y0168827D01*
X-0001046Y0168819D01*
X-0001054D01*
X-0001083D01*
X-0001128Y0168827D01*
X-0001180D01*
X-0001254Y0168841D01*
X-0001335Y0168849D01*
X-0001424Y0168871D01*
X-0001520Y0168893D01*
X-0001624Y0168923D01*
X-0001735Y0168967D01*
X-0001853Y0169012D01*
X-0001964Y0169071D01*
X-0002082Y0169137D01*
X-0002193Y0169219D01*
X-0002304Y0169315D01*
X-0002408Y0169419D01*
X-0002415Y0169426D01*
X-0002430Y0169441D01*
X-0002452Y0169470D01*
X-0002482Y0169515D01*
X-0002519Y0169559D01*
X-0002563Y0169618D01*
X-0002600Y0169692D01*
X-0002652Y0169766D01*
X-0002697Y0169855D01*
X-0002734Y0169944D01*
X-0002815Y0170151D01*
X-0002845Y0170262D01*
X-0002867Y0170381D01*
X-0002882Y0170506D01*
X-0002889Y0170632D01*
Y0170714D01*
X-0002882Y0170758D01*
X-0002874Y0170810D01*
X-0002859Y0170936D01*
X-0002830Y0171076D01*
X-0002785Y0171232D01*
X-0002719Y0171394D01*
X-0002637Y0171557D01*
Y0171565D01*
X-0002630Y0171579D01*
X-0002615Y0171602D01*
X-0002593Y0171631D01*
X-0002541Y0171705D01*
X-0002460Y0171809D01*
X-0002364Y0171912D01*
X-0002253Y0172031D01*
X-0002119Y0172142D01*
X-0001964Y0172238D01*
X-0001957D01*
X-0001942Y0172245D01*
X-0001920Y0172260D01*
X-0001890Y0172275D01*
X-0001853Y0172297D01*
X-0001801Y0172319D01*
X-0001690Y0172364D01*
X-0001557Y0172408D01*
X-0001402Y0172453D01*
X-0001231Y0172482D01*
X-0001046Y0172490D01*
X-0001039D01*
X-0001024D01*
X-0001002D01*
X-0000965D01*
X-0000921Y0172482D01*
D02*
G37*
G36*
X-0000913Y0168264D02*
X-0000847Y0168257D01*
X-0000765Y0168242D01*
X-0000676Y0168227D01*
X-0000588Y0168212D01*
X-0000380Y0168153D01*
X-0000269Y0168109D01*
X-0000158Y0168064D01*
X-0000055Y0168005D01*
X0000056Y0167939D01*
X0000160Y0167865D01*
X0000263Y0167776D01*
X0000271Y0167768D01*
X0000286Y0167754D01*
X0000315Y0167724D01*
X0000345Y0167687D01*
X0000382Y0167643D01*
X0000426Y0167583D01*
X0000478Y0167517D01*
X0000522Y0167443D01*
X0000574Y0167361D01*
X0000626Y0167273D01*
X0000707Y0167073D01*
X0000737Y0166962D01*
X0000767Y0166843D01*
X0000781Y0166725D01*
X0000789Y0166599D01*
Y0166547D01*
X0000781Y0166488D01*
X0000774Y0166414D01*
X0000767Y0166325D01*
X0000744Y0166229D01*
X0000722Y0166133D01*
X0000685Y0166029D01*
X0000678Y0166015D01*
X0000663Y0165985D01*
X0000633Y0165933D01*
X0000596Y0165867D01*
X0000552Y0165793D01*
X0000485Y0165704D01*
X0000419Y0165615D01*
X0000330Y0165519D01*
X0000700D01*
Y0164638D01*
X-0004154D01*
Y0165519D01*
X-0002408D01*
X-0002415Y0165526D01*
X-0002445Y0165563D01*
X-0002489Y0165608D01*
X-0002549Y0165674D01*
X-0002600Y0165748D01*
X-0002667Y0165837D01*
X-0002719Y0165926D01*
X-0002771Y0166029D01*
X-0002778Y0166044D01*
X-0002793Y0166081D01*
X-0002808Y0166133D01*
X-0002830Y0166207D01*
X-0002852Y0166296D01*
X-0002874Y0166399D01*
X-0002882Y0166510D01*
X-0002889Y0166621D01*
Y0166688D01*
X-0002882Y0166740D01*
X-0002874Y0166799D01*
X-0002859Y0166866D01*
X-0002845Y0166940D01*
X-0002822Y0167028D01*
X-0002800Y0167117D01*
X-0002763Y0167206D01*
X-0002719Y0167310D01*
X-0002674Y0167406D01*
X-0002608Y0167502D01*
X-0002541Y0167606D01*
X-0002460Y0167702D01*
X-0002371Y0167791D01*
X-0002364Y0167798D01*
X-0002349Y0167813D01*
X-0002319Y0167835D01*
X-0002275Y0167865D01*
X-0002223Y0167902D01*
X-0002164Y0167946D01*
X-0002090Y0167983D01*
X-0002008Y0168035D01*
X-0001920Y0168079D01*
X-0001816Y0168116D01*
X-0001712Y0168161D01*
X-0001594Y0168198D01*
X-0001461Y0168227D01*
X-0001328Y0168249D01*
X-0001187Y0168264D01*
X-0001039Y0168272D01*
X-0001032D01*
X-0001002D01*
X-0000965D01*
X-0000913Y0168264D01*
D02*
G37*
G36*
X0000700Y0162870D02*
X0000330D01*
X0000337Y0162855D01*
X0000367Y0162825D01*
X0000411Y0162773D01*
X0000463Y0162707D01*
X0000522Y0162633D01*
X0000582Y0162544D01*
X0000641Y0162448D01*
X0000685Y0162352D01*
X0000693Y0162337D01*
X0000700Y0162307D01*
X0000715Y0162255D01*
X0000737Y0162181D01*
X0000759Y0162100D01*
X0000774Y0162004D01*
X0000781Y0161900D01*
X0000789Y0161789D01*
Y0161723D01*
X0000781Y0161678D01*
X0000774Y0161619D01*
X0000759Y0161545D01*
X0000744Y0161471D01*
X0000722Y0161390D01*
X0000693Y0161301D01*
X0000663Y0161205D01*
X0000619Y0161108D01*
X0000567Y0161005D01*
X0000508Y0160909D01*
X0000434Y0160805D01*
X0000352Y0160709D01*
X0000263Y0160613D01*
X0000256Y0160605D01*
X0000241Y0160590D01*
X0000212Y0160568D01*
X0000167Y0160539D01*
X0000115Y0160494D01*
X0000056Y0160457D01*
X-0000018Y0160413D01*
X-0000099Y0160368D01*
X-0000188Y0160317D01*
X-0000284Y0160272D01*
X-0000395Y0160235D01*
X-0000506Y0160198D01*
X-0000632Y0160161D01*
X-0000758Y0160139D01*
X-0000898Y0160124D01*
X-0001039Y0160117D01*
X-0001046D01*
X-0001076D01*
X-0001120D01*
X-0001172Y0160124D01*
X-0001246Y0160132D01*
X-0001328Y0160139D01*
X-0001416Y0160154D01*
X-0001513Y0160176D01*
X-0001720Y0160235D01*
X-0001831Y0160272D01*
X-0001942Y0160317D01*
X-0002053Y0160368D01*
X-0002164Y0160435D01*
X-0002267Y0160509D01*
X-0002371Y0160590D01*
X-0002378Y0160598D01*
X-0002393Y0160613D01*
X-0002415Y0160642D01*
X-0002452Y0160679D01*
X-0002489Y0160724D01*
X-0002534Y0160783D01*
X-0002586Y0160842D01*
X-0002630Y0160916D01*
X-0002682Y0160997D01*
X-0002726Y0161086D01*
X-0002808Y0161286D01*
X-0002845Y0161397D01*
X-0002867Y0161515D01*
X-0002882Y0161634D01*
X-0002889Y0161760D01*
Y0161811D01*
X-0002882Y0161878D01*
X-0002874Y0161952D01*
X-0002859Y0162041D01*
X-0002837Y0162144D01*
X-0002808Y0162248D01*
X-0002771Y0162352D01*
X-0002763Y0162366D01*
X-0002748Y0162396D01*
X-0002719Y0162455D01*
X-0002682Y0162522D01*
X-0002630Y0162603D01*
X-0002571Y0162692D01*
X-0002497Y0162781D01*
X-0002415Y0162870D01*
X-0002800D01*
Y0163750D01*
X0000700D01*
Y0162870D01*
D02*
G37*
G36*
Y0157475D02*
X-0004036D01*
Y0158370D01*
X-0000158D01*
Y0159695D01*
X0000700D01*
Y0157475D01*
D02*
G37*
G36*
X-0000218Y0154841D02*
X-0000129Y0154833D01*
X-0000018Y0154804D01*
X0000101Y0154767D01*
X0000234Y0154700D01*
X0000360Y0154619D01*
X0000426Y0154559D01*
X0000485Y0154500D01*
Y0154493D01*
X0000500Y0154485D01*
X0000515Y0154463D01*
X0000530Y0154441D01*
X0000582Y0154360D01*
X0000633Y0154256D01*
X0000693Y0154130D01*
X0000744Y0153967D01*
X0000774Y0153790D01*
X0000789Y0153583D01*
Y0153546D01*
X0000781Y0153509D01*
Y0153457D01*
X0000774Y0153390D01*
X0000759Y0153316D01*
X0000737Y0153235D01*
X0000715Y0153146D01*
X0000685Y0153050D01*
X0000641Y0152954D01*
X0000596Y0152850D01*
X0000537Y0152746D01*
X0000471Y0152650D01*
X0000389Y0152554D01*
X0000300Y0152458D01*
X0000197Y0152369D01*
X-0000395Y0152902D01*
X-0000388Y0152909D01*
X-0000366Y0152931D01*
X-0000329Y0152961D01*
X-0000292Y0153005D01*
X-0000240Y0153057D01*
X-0000195Y0153124D01*
X-0000099Y0153264D01*
X-0000092Y0153272D01*
X-0000084Y0153301D01*
X-0000070Y0153338D01*
X-0000047Y0153390D01*
X-0000025Y0153449D01*
X-0000010Y0153509D01*
X-0000003Y0153575D01*
X0000004Y0153634D01*
Y0153664D01*
X-0000003Y0153694D01*
Y0153731D01*
X-0000033Y0153819D01*
X-0000047Y0153864D01*
X-0000077Y0153908D01*
X-0000084Y0153916D01*
X-0000092Y0153923D01*
X-0000129Y0153967D01*
X-0000195Y0154004D01*
X-0000232Y0154012D01*
X-0000269Y0154019D01*
X-0000277D01*
X-0000306Y0154012D01*
X-0000343Y0153997D01*
X-0000395Y0153975D01*
X-0000454Y0153923D01*
X-0000521Y0153856D01*
X-0000551Y0153812D01*
X-0000588Y0153760D01*
X-0000625Y0153701D01*
X-0000662Y0153634D01*
X-0000810Y0153338D01*
X-0000817Y0153331D01*
X-0000832Y0153301D01*
X-0000854Y0153264D01*
X-0000884Y0153205D01*
X-0000928Y0153146D01*
X-0000980Y0153072D01*
X-0001039Y0152998D01*
X-0001106Y0152917D01*
X-0001180Y0152835D01*
X-0001261Y0152761D01*
X-0001350Y0152687D01*
X-0001446Y0152628D01*
X-0001542Y0152576D01*
X-0001653Y0152532D01*
X-0001764Y0152502D01*
X-0001883Y0152495D01*
X-0001890D01*
X-0001905D01*
X-0001920D01*
X-0001949Y0152502D01*
X-0002031Y0152510D01*
X-0002127Y0152532D01*
X-0002238Y0152576D01*
X-0002356Y0152628D01*
X-0002475Y0152709D01*
X-0002534Y0152754D01*
X-0002593Y0152813D01*
Y0152820D01*
X-0002608Y0152828D01*
X-0002637Y0152872D01*
X-0002689Y0152939D01*
X-0002741Y0153035D01*
X-0002793Y0153153D01*
X-0002845Y0153294D01*
X-0002874Y0153449D01*
X-0002889Y0153627D01*
Y0153686D01*
X-0002882Y0153753D01*
X-0002867Y0153834D01*
X-0002852Y0153930D01*
X-0002822Y0154041D01*
X-0002785Y0154152D01*
X-0002734Y0154263D01*
X-0002726Y0154278D01*
X-0002704Y0154315D01*
X-0002674Y0154374D01*
X-0002623Y0154441D01*
X-0002563Y0154522D01*
X-0002489Y0154611D01*
X-0002401Y0154700D01*
X-0002304Y0154781D01*
X-0001757Y0154234D01*
X-0001764D01*
X-0001772Y0154219D01*
X-0001809Y0154175D01*
X-0001860Y0154115D01*
X-0001920Y0154034D01*
X-0001979Y0153938D01*
X-0002031Y0153842D01*
X-0002068Y0153738D01*
X-0002082Y0153686D01*
Y0153583D01*
X-0002075Y0153553D01*
X-0002053Y0153479D01*
X-0002016Y0153405D01*
X-0002008Y0153390D01*
X-0001971Y0153368D01*
X-0001927Y0153338D01*
X-0001897Y0153331D01*
X-0001860Y0153324D01*
X-0001853D01*
X-0001823Y0153331D01*
X-0001779Y0153346D01*
X-0001735Y0153375D01*
X-0001727Y0153390D01*
X-0001712Y0153405D01*
X-0001690Y0153427D01*
X-0001668Y0153464D01*
X-0001638Y0153509D01*
X-0001609Y0153560D01*
X-0001572Y0153634D01*
X-0001409Y0153960D01*
Y0153967D01*
X-0001402Y0153982D01*
X-0001387Y0154004D01*
X-0001365Y0154041D01*
X-0001313Y0154130D01*
X-0001254Y0154234D01*
X-0001172Y0154352D01*
X-0001091Y0154463D01*
X-0000995Y0154574D01*
X-0000898Y0154656D01*
X-0000884Y0154663D01*
X-0000854Y0154685D01*
X-0000795Y0154715D01*
X-0000728Y0154752D01*
X-0000639Y0154789D01*
X-0000536Y0154818D01*
X-0000417Y0154841D01*
X-0000292Y0154848D01*
X-0000284D01*
X-0000269D01*
X-0000247D01*
X-0000218Y0154841D01*
D02*
G37*
G36*
X0000700Y0150926D02*
X-0001069D01*
X-0001076D01*
X-0001098D01*
X-0001128D01*
X-0001165D01*
X-0001209Y0150919D01*
X-0001268D01*
X-0001394Y0150904D01*
X-0001527Y0150889D01*
X-0001653Y0150859D01*
X-0001772Y0150822D01*
X-0001823Y0150800D01*
X-0001868Y0150771D01*
X-0001875Y0150763D01*
X-0001905Y0150741D01*
X-0001934Y0150711D01*
X-0001979Y0150660D01*
X-0002016Y0150600D01*
X-0002053Y0150519D01*
X-0002075Y0150430D01*
X-0002082Y0150327D01*
Y0150290D01*
X-0002075Y0150245D01*
X-0002068Y0150186D01*
X-0002053Y0150127D01*
X-0002023Y0150053D01*
X-0001994Y0149986D01*
X-0001949Y0149912D01*
X-0001942Y0149905D01*
X-0001927Y0149883D01*
X-0001897Y0149853D01*
X-0001860Y0149816D01*
X-0001809Y0149772D01*
X-0001749Y0149727D01*
X-0001675Y0149683D01*
X-0001594Y0149646D01*
X-0001587D01*
X-0001550Y0149631D01*
X-0001498Y0149624D01*
X-0001424Y0149609D01*
X-0001320Y0149594D01*
X-0001194Y0149579D01*
X-0001046Y0149572D01*
X-0000869Y0149564D01*
X0000700D01*
Y0148684D01*
X-0000987D01*
X-0000995D01*
X-0001009D01*
X-0001032D01*
X-0001061D01*
X-0001143D01*
X-0001246Y0148676D01*
X-0001357Y0148669D01*
X-0001468Y0148654D01*
X-0001572Y0148632D01*
X-0001661Y0148610D01*
X-0001668D01*
X-0001698Y0148595D01*
X-0001735Y0148580D01*
X-0001779Y0148558D01*
X-0001883Y0148491D01*
X-0001934Y0148454D01*
X-0001979Y0148403D01*
X-0001986Y0148395D01*
X-0001994Y0148380D01*
X-0002008Y0148351D01*
X-0002031Y0148306D01*
X-0002053Y0148262D01*
X-0002068Y0148203D01*
X-0002075Y0148136D01*
X-0002082Y0148070D01*
Y0148033D01*
X-0002075Y0147988D01*
X-0002068Y0147936D01*
X-0002053Y0147877D01*
X-0002023Y0147811D01*
X-0001994Y0147737D01*
X-0001949Y0147670D01*
X-0001942Y0147663D01*
X-0001927Y0147640D01*
X-0001897Y0147611D01*
X-0001853Y0147574D01*
X-0001801Y0147529D01*
X-0001735Y0147485D01*
X-0001661Y0147441D01*
X-0001579Y0147404D01*
X-0001572D01*
X-0001535Y0147389D01*
X-0001483Y0147374D01*
X-0001402Y0147359D01*
X-0001298Y0147344D01*
X-0001172Y0147330D01*
X-0001024Y0147322D01*
X-0000847Y0147315D01*
X0000700D01*
Y0146434D01*
X-0002800D01*
Y0147315D01*
X-0002386D01*
X-0002401Y0147322D01*
X-0002430Y0147352D01*
X-0002475Y0147396D01*
X-0002526Y0147463D01*
X-0002586Y0147537D01*
X-0002652Y0147618D01*
X-0002711Y0147714D01*
X-0002763Y0147811D01*
X-0002771Y0147825D01*
X-0002785Y0147862D01*
X-0002800Y0147914D01*
X-0002830Y0147996D01*
X-0002852Y0148084D01*
X-0002867Y0148188D01*
X-0002882Y0148299D01*
X-0002889Y0148417D01*
Y0148469D01*
X-0002882Y0148536D01*
X-0002867Y0148610D01*
X-0002852Y0148706D01*
X-0002822Y0148802D01*
X-0002778Y0148906D01*
X-0002726Y0149002D01*
X-0002719Y0149017D01*
X-0002697Y0149046D01*
X-0002660Y0149098D01*
X-0002608Y0149157D01*
X-0002534Y0149224D01*
X-0002452Y0149298D01*
X-0002356Y0149365D01*
X-0002245Y0149431D01*
X-0002253D01*
X-0002260Y0149439D01*
X-0002297Y0149468D01*
X-0002356Y0149513D01*
X-0002423Y0149579D01*
X-0002504Y0149653D01*
X-0002586Y0149742D01*
X-0002660Y0149838D01*
X-0002726Y0149949D01*
X-0002734Y0149964D01*
X-0002748Y0150001D01*
X-0002778Y0150068D01*
X-0002808Y0150149D01*
X-0002837Y0150245D01*
X-0002867Y0150356D01*
X-0002882Y0150482D01*
X-0002889Y0150615D01*
Y0150674D01*
X-0002882Y0150748D01*
X-0002867Y0150837D01*
X-0002845Y0150933D01*
X-0002815Y0151044D01*
X-0002771Y0151155D01*
X-0002711Y0151266D01*
X-0002704Y0151281D01*
X-0002682Y0151311D01*
X-0002645Y0151363D01*
X-0002593Y0151429D01*
X-0002526Y0151496D01*
X-0002452Y0151562D01*
X-0002364Y0151629D01*
X-0002260Y0151681D01*
X-0002245Y0151688D01*
X-0002208Y0151703D01*
X-0002142Y0151718D01*
X-0002038Y0151747D01*
X-0001979Y0151755D01*
X-0001912Y0151770D01*
X-0001838Y0151777D01*
X-0001757Y0151784D01*
X-0001668Y0151792D01*
X-0001572Y0151799D01*
X-0001461Y0151807D01*
X-0001350D01*
X0000700D01*
Y0150926D01*
D02*
G37*
G36*
X-0000802Y0145724D02*
Y0142912D01*
X-0000795D01*
X-0000787D01*
X-0000743Y0142927D01*
X-0000669Y0142941D01*
X-0000588Y0142971D01*
X-0000491Y0143015D01*
X-0000388Y0143075D01*
X-0000292Y0143141D01*
X-0000203Y0143230D01*
X-0000195Y0143245D01*
X-0000166Y0143282D01*
X-0000136Y0143334D01*
X-0000092Y0143415D01*
X-0000055Y0143511D01*
X-0000018Y0143630D01*
X0000012Y0143755D01*
X0000019Y0143903D01*
Y0143955D01*
X0000012Y0143985D01*
Y0144029D01*
X0000004Y0144081D01*
X-0000025Y0144192D01*
X-0000062Y0144325D01*
X-0000121Y0144466D01*
X-0000210Y0144614D01*
X-0000262Y0144680D01*
X-0000321Y0144747D01*
X0000027Y0145487D01*
X0000034D01*
X0000041Y0145472D01*
X0000064Y0145457D01*
X0000093Y0145435D01*
X0000160Y0145376D01*
X0000249Y0145302D01*
X0000337Y0145198D01*
X0000434Y0145087D01*
X0000522Y0144962D01*
X0000604Y0144821D01*
Y0144814D01*
X0000611Y0144806D01*
X0000619Y0144784D01*
X0000633Y0144754D01*
X0000648Y0144717D01*
X0000663Y0144673D01*
X0000693Y0144562D01*
X0000730Y0144429D01*
X0000759Y0144273D01*
X0000781Y0144103D01*
X0000789Y0143911D01*
Y0143829D01*
X0000781Y0143778D01*
X0000774Y0143704D01*
X0000759Y0143622D01*
X0000744Y0143533D01*
X0000722Y0143437D01*
X0000700Y0143334D01*
X0000663Y0143223D01*
X0000619Y0143112D01*
X0000567Y0143001D01*
X0000508Y0142890D01*
X0000441Y0142779D01*
X0000360Y0142675D01*
X0000271Y0142571D01*
X0000263Y0142564D01*
X0000249Y0142549D01*
X0000219Y0142527D01*
X0000175Y0142490D01*
X0000130Y0142453D01*
X0000064Y0142409D01*
X-0000003Y0142364D01*
X-0000084Y0142320D01*
X-0000173Y0142268D01*
X-0000277Y0142224D01*
X-0000380Y0142179D01*
X-0000491Y0142142D01*
X-0000617Y0142105D01*
X-0000743Y0142083D01*
X-0000884Y0142068D01*
X-0001024Y0142061D01*
X-0001032D01*
X-0001061D01*
X-0001106D01*
X-0001157Y0142068D01*
X-0001224Y0142076D01*
X-0001305Y0142090D01*
X-0001394Y0142105D01*
X-0001490Y0142127D01*
X-0001594Y0142150D01*
X-0001705Y0142187D01*
X-0001816Y0142224D01*
X-0001927Y0142275D01*
X-0002038Y0142335D01*
X-0002149Y0142401D01*
X-0002253Y0142483D01*
X-0002356Y0142571D01*
X-0002364Y0142579D01*
X-0002378Y0142594D01*
X-0002408Y0142623D01*
X-0002438Y0142668D01*
X-0002482Y0142712D01*
X-0002526Y0142779D01*
X-0002571Y0142845D01*
X-0002623Y0142927D01*
X-0002674Y0143015D01*
X-0002719Y0143119D01*
X-0002763Y0143223D01*
X-0002808Y0143334D01*
X-0002837Y0143459D01*
X-0002867Y0143585D01*
X-0002882Y0143726D01*
X-0002889Y0143866D01*
Y0143948D01*
X-0002882Y0144007D01*
X-0002874Y0144074D01*
X-0002859Y0144155D01*
X-0002845Y0144244D01*
X-0002822Y0144347D01*
X-0002793Y0144451D01*
X-0002756Y0144562D01*
X-0002719Y0144673D01*
X-0002667Y0144784D01*
X-0002600Y0144895D01*
X-0002534Y0145006D01*
X-0002452Y0145110D01*
X-0002356Y0145213D01*
X-0002349Y0145221D01*
X-0002334Y0145235D01*
X-0002304Y0145258D01*
X-0002260Y0145295D01*
X-0002208Y0145332D01*
X-0002142Y0145376D01*
X-0002068Y0145428D01*
X-0001986Y0145472D01*
X-0001890Y0145524D01*
X-0001786Y0145568D01*
X-0001668Y0145613D01*
X-0001550Y0145650D01*
X-0001416Y0145687D01*
X-0001276Y0145709D01*
X-0001120Y0145724D01*
X-0000965Y0145731D01*
X-0000802Y0145724D01*
D02*
G37*
G36*
X-0002045Y0141239D02*
X0000700D01*
Y0140359D01*
X-0002045D01*
Y0139907D01*
X-0002800D01*
Y0140359D01*
X-0004095D01*
Y0141239D01*
X-0002800D01*
Y0141757D01*
X-0002045D01*
Y0141239D01*
D02*
G37*
G36*
X-0000218Y0139552D02*
X-0000129Y0139545D01*
X-0000018Y0139515D01*
X0000101Y0139478D01*
X0000234Y0139412D01*
X0000360Y0139330D01*
X0000426Y0139271D01*
X0000485Y0139212D01*
Y0139204D01*
X0000500Y0139197D01*
X0000515Y0139175D01*
X0000530Y0139153D01*
X0000582Y0139071D01*
X0000633Y0138968D01*
X0000693Y0138842D01*
X0000744Y0138679D01*
X0000774Y0138501D01*
X0000789Y0138294D01*
Y0138257D01*
X0000781Y0138220D01*
Y0138168D01*
X0000774Y0138102D01*
X0000759Y0138028D01*
X0000737Y0137946D01*
X0000715Y0137858D01*
X0000685Y0137761D01*
X0000641Y0137665D01*
X0000596Y0137562D01*
X0000537Y0137458D01*
X0000471Y0137362D01*
X0000389Y0137266D01*
X0000300Y0137169D01*
X0000197Y0137081D01*
X-0000395Y0137613D01*
X-0000388Y0137621D01*
X-0000366Y0137643D01*
X-0000329Y0137673D01*
X-0000292Y0137717D01*
X-0000240Y0137769D01*
X-0000195Y0137835D01*
X-0000099Y0137976D01*
X-0000092Y0137983D01*
X-0000084Y0138013D01*
X-0000070Y0138050D01*
X-0000047Y0138102D01*
X-0000025Y0138161D01*
X-0000010Y0138220D01*
X-0000003Y0138287D01*
X0000004Y0138346D01*
Y0138376D01*
X-0000003Y0138405D01*
Y0138442D01*
X-0000033Y0138531D01*
X-0000047Y0138575D01*
X-0000077Y0138620D01*
X-0000084Y0138627D01*
X-0000092Y0138635D01*
X-0000129Y0138679D01*
X-0000195Y0138716D01*
X-0000232Y0138723D01*
X-0000269Y0138731D01*
X-0000277D01*
X-0000306Y0138723D01*
X-0000343Y0138709D01*
X-0000395Y0138686D01*
X-0000454Y0138635D01*
X-0000521Y0138568D01*
X-0000551Y0138524D01*
X-0000588Y0138472D01*
X-0000625Y0138413D01*
X-0000662Y0138346D01*
X-0000810Y0138050D01*
X-0000817Y0138043D01*
X-0000832Y0138013D01*
X-0000854Y0137976D01*
X-0000884Y0137917D01*
X-0000928Y0137858D01*
X-0000980Y0137784D01*
X-0001039Y0137710D01*
X-0001106Y0137628D01*
X-0001180Y0137547D01*
X-0001261Y0137473D01*
X-0001350Y0137399D01*
X-0001446Y0137340D01*
X-0001542Y0137288D01*
X-0001653Y0137243D01*
X-0001764Y0137214D01*
X-0001883Y0137206D01*
X-0001890D01*
X-0001905D01*
X-0001920D01*
X-0001949Y0137214D01*
X-0002031Y0137221D01*
X-0002127Y0137243D01*
X-0002238Y0137288D01*
X-0002356Y0137340D01*
X-0002475Y0137421D01*
X-0002534Y0137465D01*
X-0002593Y0137525D01*
Y0137532D01*
X-0002608Y0137539D01*
X-0002637Y0137584D01*
X-0002689Y0137650D01*
X-0002741Y0137747D01*
X-0002793Y0137865D01*
X-0002845Y0138006D01*
X-0002874Y0138161D01*
X-0002889Y0138339D01*
Y0138398D01*
X-0002882Y0138464D01*
X-0002867Y0138546D01*
X-0002852Y0138642D01*
X-0002822Y0138753D01*
X-0002785Y0138864D01*
X-0002734Y0138975D01*
X-0002726Y0138990D01*
X-0002704Y0139027D01*
X-0002674Y0139086D01*
X-0002623Y0139153D01*
X-0002563Y0139234D01*
X-0002489Y0139323D01*
X-0002401Y0139412D01*
X-0002304Y0139493D01*
X-0001757Y0138945D01*
X-0001764D01*
X-0001772Y0138931D01*
X-0001809Y0138886D01*
X-0001860Y0138827D01*
X-0001920Y0138746D01*
X-0001979Y0138649D01*
X-0002031Y0138553D01*
X-0002068Y0138450D01*
X-0002082Y0138398D01*
Y0138294D01*
X-0002075Y0138265D01*
X-0002053Y0138191D01*
X-0002016Y0138117D01*
X-0002008Y0138102D01*
X-0001971Y0138080D01*
X-0001927Y0138050D01*
X-0001897Y0138043D01*
X-0001860Y0138035D01*
X-0001853D01*
X-0001823Y0138043D01*
X-0001779Y0138057D01*
X-0001735Y0138087D01*
X-0001727Y0138102D01*
X-0001712Y0138117D01*
X-0001690Y0138139D01*
X-0001668Y0138176D01*
X-0001638Y0138220D01*
X-0001609Y0138272D01*
X-0001572Y0138346D01*
X-0001409Y0138672D01*
Y0138679D01*
X-0001402Y0138694D01*
X-0001387Y0138716D01*
X-0001365Y0138753D01*
X-0001313Y0138842D01*
X-0001254Y0138945D01*
X-0001172Y0139064D01*
X-0001091Y0139175D01*
X-0000995Y0139286D01*
X-0000898Y0139367D01*
X-0000884Y0139375D01*
X-0000854Y0139397D01*
X-0000795Y0139426D01*
X-0000728Y0139463D01*
X-0000639Y0139500D01*
X-0000536Y0139530D01*
X-0000417Y0139552D01*
X-0000292Y0139560D01*
X-0000284D01*
X-0000269D01*
X-0000247D01*
X-0000218Y0139552D01*
D02*
G37*
G36*
X0001980Y0134653D02*
Y0133743D01*
X0000434Y0134461D01*
X-0002800Y0133129D01*
Y0134032D01*
X-0000617Y0134935D01*
X-0002800Y0135934D01*
Y0136844D01*
X0001980Y0134653D01*
D02*
G37*
G36*
X-0000417Y0132759D02*
X-0000366Y0132752D01*
X-0000314Y0132744D01*
X-0000181Y0132715D01*
X-0000025Y0132670D01*
X0000130Y0132596D01*
X0000212Y0132552D01*
X0000293Y0132493D01*
X0000367Y0132433D01*
X0000441Y0132359D01*
X0000448Y0132352D01*
X0000456Y0132345D01*
X0000478Y0132315D01*
X0000500Y0132285D01*
X0000530Y0132248D01*
X0000559Y0132197D01*
X0000596Y0132145D01*
X0000626Y0132078D01*
X0000663Y0132004D01*
X0000700Y0131930D01*
X0000759Y0131745D01*
X0000804Y0131538D01*
X0000811Y0131427D01*
X0000818Y0131309D01*
Y0131257D01*
X0000811Y0131227D01*
Y0131183D01*
X0000804Y0131131D01*
X0000789Y0131013D01*
X0000759Y0130872D01*
X0000715Y0130724D01*
X0000656Y0130576D01*
X0000574Y0130428D01*
Y0130421D01*
X0000559Y0130413D01*
X0000530Y0130369D01*
X0000463Y0130295D01*
X0000382Y0130213D01*
X0000271Y0130110D01*
X0000138Y0130006D01*
X-0000025Y0129895D01*
X-0000210Y0129792D01*
X-0000669Y0130546D01*
X-0000662Y0130554D01*
X-0000639Y0130561D01*
X-0000610Y0130583D01*
X-0000573Y0130606D01*
X-0000469Y0130680D01*
X-0000358Y0130776D01*
X-0000240Y0130887D01*
X-0000136Y0131020D01*
X-0000099Y0131094D01*
X-0000070Y0131168D01*
X-0000047Y0131249D01*
X-0000040Y0131331D01*
Y0131368D01*
X-0000047Y0131412D01*
X-0000055Y0131464D01*
X-0000070Y0131523D01*
X-0000099Y0131590D01*
X-0000129Y0131656D01*
X-0000173Y0131716D01*
X-0000181Y0131723D01*
X-0000195Y0131738D01*
X-0000225Y0131767D01*
X-0000262Y0131797D01*
X-0000306Y0131827D01*
X-0000358Y0131856D01*
X-0000417Y0131871D01*
X-0000484Y0131878D01*
X-0000491D01*
X-0000514D01*
X-0000543Y0131871D01*
X-0000588Y0131864D01*
X-0000632Y0131849D01*
X-0000684Y0131827D01*
X-0000743Y0131797D01*
X-0000802Y0131753D01*
X-0000810Y0131745D01*
X-0000832Y0131730D01*
X-0000869Y0131693D01*
X-0000928Y0131642D01*
X-0000995Y0131575D01*
X-0001083Y0131486D01*
X-0001180Y0131375D01*
X-0001298Y0131235D01*
X-0001305Y0131227D01*
X-0001328Y0131198D01*
X-0001357Y0131161D01*
X-0001402Y0131109D01*
X-0001453Y0131050D01*
X-0001513Y0130976D01*
X-0001653Y0130820D01*
X-0001809Y0130650D01*
X-0001971Y0130487D01*
X-0002053Y0130413D01*
X-0002127Y0130339D01*
X-0002201Y0130280D01*
X-0002267Y0130236D01*
X-0002275D01*
X-0002282Y0130228D01*
X-0002327Y0130199D01*
X-0002393Y0130169D01*
X-0002482Y0130125D01*
X-0002586Y0130088D01*
X-0002704Y0130051D01*
X-0002830Y0130021D01*
X-0002956Y0130014D01*
X-0002963D01*
X-0002978D01*
X-0003000D01*
X-0003037Y0130021D01*
X-0003081Y0130028D01*
X-0003126Y0130036D01*
X-0003244Y0130058D01*
X-0003377Y0130102D01*
X-0003518Y0130169D01*
X-0003592Y0130213D01*
X-0003659Y0130265D01*
X-0003733Y0130317D01*
X-0003799Y0130384D01*
X-0003807Y0130391D01*
X-0003814Y0130398D01*
X-0003829Y0130421D01*
X-0003858Y0130450D01*
X-0003881Y0130487D01*
X-0003910Y0130532D01*
X-0003977Y0130643D01*
X-0004043Y0130776D01*
X-0004103Y0130931D01*
X-0004140Y0131109D01*
X-0004147Y0131205D01*
X-0004154Y0131309D01*
Y0131368D01*
X-0004147Y0131434D01*
X-0004132Y0131523D01*
X-0004110Y0131627D01*
X-0004080Y0131745D01*
X-0004043Y0131864D01*
X-0003984Y0131982D01*
Y0131989D01*
X-0003977Y0131997D01*
X-0003955Y0132041D01*
X-0003910Y0132108D01*
X-0003851Y0132189D01*
X-0003770Y0132300D01*
X-0003666Y0132419D01*
X-0003533Y0132544D01*
X-0003385Y0132685D01*
X-0002793Y0132012D01*
X-0002800Y0132004D01*
X-0002815Y0131997D01*
X-0002837Y0131975D01*
X-0002867Y0131952D01*
X-0002948Y0131886D01*
X-0003037Y0131790D01*
X-0003126Y0131686D01*
X-0003207Y0131568D01*
X-0003237Y0131501D01*
X-0003259Y0131434D01*
X-0003274Y0131368D01*
X-0003281Y0131301D01*
Y0131272D01*
X-0003274Y0131242D01*
X-0003266Y0131198D01*
X-0003244Y0131101D01*
X-0003215Y0131057D01*
X-0003185Y0131013D01*
X-0003178Y0131005D01*
X-0003170Y0130998D01*
X-0003126Y0130961D01*
X-0003052Y0130916D01*
X-0003015Y0130909D01*
X-0002970Y0130902D01*
X-0002963D01*
X-0002948D01*
X-0002926Y0130909D01*
X-0002896D01*
X-0002822Y0130931D01*
X-0002741Y0130976D01*
X-0002734Y0130983D01*
X-0002711Y0131005D01*
X-0002674Y0131042D01*
X-0002615Y0131101D01*
X-0002534Y0131183D01*
X-0002482Y0131242D01*
X-0002423Y0131301D01*
X-0002364Y0131368D01*
X-0002297Y0131449D01*
X-0002216Y0131538D01*
X-0002134Y0131634D01*
X-0002127Y0131642D01*
X-0002119Y0131656D01*
X-0002097Y0131686D01*
X-0002068Y0131716D01*
X-0001994Y0131804D01*
X-0001905Y0131908D01*
X-0001816Y0132019D01*
X-0001727Y0132115D01*
X-0001646Y0132204D01*
X-0001616Y0132241D01*
X-0001594Y0132263D01*
X-0001579Y0132278D01*
X-0001550Y0132308D01*
X-0001498Y0132359D01*
X-0001424Y0132411D01*
X-0001342Y0132478D01*
X-0001254Y0132544D01*
X-0001165Y0132596D01*
X-0001069Y0132648D01*
X-0001054Y0132655D01*
X-0001024Y0132670D01*
X-0000972Y0132685D01*
X-0000906Y0132707D01*
X-0000824Y0132729D01*
X-0000728Y0132752D01*
X-0000625Y0132759D01*
X-0000514Y0132766D01*
X-0000506D01*
X-0000491D01*
X-0000454D01*
X-0000417Y0132759D01*
D02*
G37*
G36*
X-0002038Y0127542D02*
X-0002045Y0127535D01*
X-0002053Y0127520D01*
X-0002068Y0127490D01*
X-0002082Y0127453D01*
X-0002105Y0127372D01*
X-0002119Y0127335D01*
Y0127261D01*
X-0002105Y0127216D01*
X-0002090Y0127172D01*
X-0002060Y0127120D01*
X-0002016Y0127061D01*
X-0001949Y0127002D01*
X-0001868Y0126950D01*
X-0001853Y0126943D01*
X-0001816Y0126928D01*
X-0001786Y0126920D01*
X-0001749Y0126906D01*
X-0001705Y0126898D01*
X-0001653Y0126883D01*
X-0001587Y0126869D01*
X-0001520Y0126861D01*
X-0001439Y0126846D01*
X-0001350Y0126839D01*
X-0001246Y0126832D01*
X-0001135Y0126824D01*
X-0001017Y0126817D01*
X-0000884D01*
X-0000713Y0126824D01*
X0000700D01*
Y0125944D01*
X-0002800D01*
Y0126713D01*
X-0002356D01*
X-0002371Y0126721D01*
X-0002401Y0126735D01*
X-0002445Y0126758D01*
X-0002504Y0126795D01*
X-0002563Y0126839D01*
X-0002630Y0126898D01*
X-0002697Y0126957D01*
X-0002748Y0127024D01*
X-0002756Y0127031D01*
X-0002771Y0127061D01*
X-0002793Y0127098D01*
X-0002822Y0127157D01*
X-0002845Y0127216D01*
X-0002867Y0127290D01*
X-0002882Y0127372D01*
X-0002889Y0127461D01*
Y0127490D01*
X-0002882Y0127527D01*
X-0002874Y0127572D01*
X-0002867Y0127623D01*
X-0002852Y0127683D01*
X-0002822Y0127749D01*
X-0002793Y0127816D01*
X-0002038Y0127542D01*
D02*
G37*
G36*
X-0000921Y0125426D02*
X-0000869Y0125418D01*
X-0000750Y0125403D01*
X-0000610Y0125374D01*
X-0000447Y0125329D01*
X-0000284Y0125263D01*
X-0000121Y0125181D01*
X-0000114D01*
X-0000099Y0125174D01*
X-0000077Y0125159D01*
X-0000047Y0125137D01*
X0000027Y0125085D01*
X0000123Y0125004D01*
X0000234Y0124908D01*
X0000345Y0124797D01*
X0000456Y0124663D01*
X0000552Y0124508D01*
Y0124501D01*
X0000559Y0124486D01*
X0000574Y0124464D01*
X0000589Y0124434D01*
X0000604Y0124397D01*
X0000626Y0124345D01*
X0000670Y0124234D01*
X0000715Y0124094D01*
X0000752Y0123938D01*
X0000781Y0123761D01*
X0000789Y0123576D01*
Y0123546D01*
X0000781Y0123502D01*
Y0123450D01*
X0000774Y0123383D01*
X0000759Y0123309D01*
X0000744Y0123228D01*
X0000722Y0123132D01*
X0000693Y0123035D01*
X0000656Y0122932D01*
X0000619Y0122821D01*
X0000567Y0122717D01*
X0000500Y0122606D01*
X0000434Y0122495D01*
X0000352Y0122392D01*
X0000256Y0122288D01*
X0000249Y0122281D01*
X0000234Y0122266D01*
X0000204Y0122236D01*
X0000160Y0122207D01*
X0000108Y0122170D01*
X0000049Y0122125D01*
X-0000025Y0122073D01*
X-0000107Y0122029D01*
X-0000195Y0121977D01*
X-0000299Y0121925D01*
X-0000403Y0121881D01*
X-0000521Y0121844D01*
X-0000639Y0121814D01*
X-0000773Y0121785D01*
X-0000906Y0121770D01*
X-0001046Y0121763D01*
X-0001054D01*
X-0001083D01*
X-0001128Y0121770D01*
X-0001180D01*
X-0001254Y0121785D01*
X-0001335Y0121792D01*
X-0001424Y0121814D01*
X-0001520Y0121837D01*
X-0001624Y0121866D01*
X-0001735Y0121911D01*
X-0001853Y0121955D01*
X-0001964Y0122014D01*
X-0002082Y0122081D01*
X-0002193Y0122162D01*
X-0002304Y0122258D01*
X-0002408Y0122362D01*
X-0002415Y0122369D01*
X-0002430Y0122384D01*
X-0002452Y0122414D01*
X-0002482Y0122458D01*
X-0002519Y0122503D01*
X-0002563Y0122562D01*
X-0002600Y0122636D01*
X-0002652Y0122710D01*
X-0002697Y0122799D01*
X-0002734Y0122887D01*
X-0002815Y0123095D01*
X-0002845Y0123206D01*
X-0002867Y0123324D01*
X-0002882Y0123450D01*
X-0002889Y0123576D01*
Y0123657D01*
X-0002882Y0123701D01*
X-0002874Y0123753D01*
X-0002859Y0123879D01*
X-0002830Y0124020D01*
X-0002785Y0124175D01*
X-0002719Y0124338D01*
X-0002637Y0124501D01*
Y0124508D01*
X-0002630Y0124523D01*
X-0002615Y0124545D01*
X-0002593Y0124575D01*
X-0002541Y0124649D01*
X-0002460Y0124752D01*
X-0002364Y0124856D01*
X-0002253Y0124974D01*
X-0002119Y0125085D01*
X-0001964Y0125181D01*
X-0001957D01*
X-0001942Y0125189D01*
X-0001920Y0125204D01*
X-0001890Y0125218D01*
X-0001853Y0125241D01*
X-0001801Y0125263D01*
X-0001690Y0125307D01*
X-0001557Y0125352D01*
X-0001402Y0125396D01*
X-0001231Y0125426D01*
X-0001046Y0125433D01*
X-0001039D01*
X-0001024D01*
X-0001002D01*
X-0000965D01*
X-0000921Y0125426D01*
D02*
G37*
G36*
X-0000218Y0121230D02*
X-0000129Y0121222D01*
X-0000018Y0121193D01*
X0000101Y0121156D01*
X0000234Y0121089D01*
X0000360Y0121008D01*
X0000426Y0120949D01*
X0000485Y0120889D01*
Y0120882D01*
X0000500Y0120875D01*
X0000515Y0120852D01*
X0000530Y0120830D01*
X0000582Y0120749D01*
X0000633Y0120645D01*
X0000693Y0120519D01*
X0000744Y0120357D01*
X0000774Y0120179D01*
X0000789Y0119972D01*
Y0119935D01*
X0000781Y0119898D01*
Y0119846D01*
X0000774Y0119779D01*
X0000759Y0119705D01*
X0000737Y0119624D01*
X0000715Y0119535D01*
X0000685Y0119439D01*
X0000641Y0119343D01*
X0000596Y0119239D01*
X0000537Y0119136D01*
X0000471Y0119039D01*
X0000389Y0118943D01*
X0000300Y0118847D01*
X0000197Y0118758D01*
X-0000395Y0119291D01*
X-0000388Y0119298D01*
X-0000366Y0119321D01*
X-0000329Y0119350D01*
X-0000292Y0119395D01*
X-0000240Y0119446D01*
X-0000195Y0119513D01*
X-0000099Y0119654D01*
X-0000092Y0119661D01*
X-0000084Y0119691D01*
X-0000070Y0119728D01*
X-0000047Y0119779D01*
X-0000025Y0119839D01*
X-0000010Y0119898D01*
X-0000003Y0119964D01*
X0000004Y0120024D01*
Y0120053D01*
X-0000003Y0120083D01*
Y0120120D01*
X-0000033Y0120209D01*
X-0000047Y0120253D01*
X-0000077Y0120297D01*
X-0000084Y0120305D01*
X-0000092Y0120312D01*
X-0000129Y0120357D01*
X-0000195Y0120394D01*
X-0000232Y0120401D01*
X-0000269Y0120408D01*
X-0000277D01*
X-0000306Y0120401D01*
X-0000343Y0120386D01*
X-0000395Y0120364D01*
X-0000454Y0120312D01*
X-0000521Y0120246D01*
X-0000551Y0120201D01*
X-0000588Y0120149D01*
X-0000625Y0120090D01*
X-0000662Y0120024D01*
X-0000810Y0119728D01*
X-0000817Y0119720D01*
X-0000832Y0119691D01*
X-0000854Y0119654D01*
X-0000884Y0119594D01*
X-0000928Y0119535D01*
X-0000980Y0119461D01*
X-0001039Y0119387D01*
X-0001106Y0119306D01*
X-0001180Y0119224D01*
X-0001261Y0119150D01*
X-0001350Y0119076D01*
X-0001446Y0119017D01*
X-0001542Y0118965D01*
X-0001653Y0118921D01*
X-0001764Y0118891D01*
X-0001883Y0118884D01*
X-0001890D01*
X-0001905D01*
X-0001920D01*
X-0001949Y0118891D01*
X-0002031Y0118899D01*
X-0002127Y0118921D01*
X-0002238Y0118965D01*
X-0002356Y0119017D01*
X-0002475Y0119099D01*
X-0002534Y0119143D01*
X-0002593Y0119202D01*
Y0119210D01*
X-0002608Y0119217D01*
X-0002637Y0119261D01*
X-0002689Y0119328D01*
X-0002741Y0119424D01*
X-0002793Y0119543D01*
X-0002845Y0119683D01*
X-0002874Y0119839D01*
X-0002889Y0120016D01*
Y0120075D01*
X-0002882Y0120142D01*
X-0002867Y0120223D01*
X-0002852Y0120320D01*
X-0002822Y0120431D01*
X-0002785Y0120542D01*
X-0002734Y0120653D01*
X-0002726Y0120667D01*
X-0002704Y0120704D01*
X-0002674Y0120764D01*
X-0002623Y0120830D01*
X-0002563Y0120912D01*
X-0002489Y0121000D01*
X-0002401Y0121089D01*
X-0002304Y0121171D01*
X-0001757Y0120623D01*
X-0001764D01*
X-0001772Y0120608D01*
X-0001809Y0120564D01*
X-0001860Y0120505D01*
X-0001920Y0120423D01*
X-0001979Y0120327D01*
X-0002031Y0120231D01*
X-0002068Y0120127D01*
X-0002082Y0120075D01*
Y0119972D01*
X-0002075Y0119942D01*
X-0002053Y0119868D01*
X-0002016Y0119794D01*
X-0002008Y0119779D01*
X-0001971Y0119757D01*
X-0001927Y0119728D01*
X-0001897Y0119720D01*
X-0001860Y0119713D01*
X-0001853D01*
X-0001823Y0119720D01*
X-0001779Y0119735D01*
X-0001735Y0119765D01*
X-0001727Y0119779D01*
X-0001712Y0119794D01*
X-0001690Y0119816D01*
X-0001668Y0119853D01*
X-0001638Y0119898D01*
X-0001609Y0119950D01*
X-0001572Y0120024D01*
X-0001409Y0120349D01*
Y0120357D01*
X-0001402Y0120371D01*
X-0001387Y0120394D01*
X-0001365Y0120431D01*
X-0001313Y0120519D01*
X-0001254Y0120623D01*
X-0001172Y0120741D01*
X-0001091Y0120852D01*
X-0000995Y0120963D01*
X-0000898Y0121045D01*
X-0000884Y0121052D01*
X-0000854Y0121074D01*
X-0000795Y0121104D01*
X-0000728Y0121141D01*
X-0000639Y0121178D01*
X-0000536Y0121208D01*
X-0000417Y0121230D01*
X-0000292Y0121237D01*
X-0000284D01*
X-0000269D01*
X-0000247D01*
X-0000218Y0121230D01*
D02*
G37*
G36*
X0000700Y0117300D02*
X-0000824D01*
X-0000832D01*
X-0000854D01*
X-0000884D01*
X-0000928D01*
X-0000980D01*
X-0001032D01*
X-0001165Y0117293D01*
X-0001305Y0117286D01*
X-0001439Y0117278D01*
X-0001557Y0117263D01*
X-0001609Y0117249D01*
X-0001653Y0117241D01*
X-0001661D01*
X-0001690Y0117226D01*
X-0001727Y0117212D01*
X-0001772Y0117197D01*
X-0001875Y0117130D01*
X-0001927Y0117093D01*
X-0001971Y0117041D01*
X-0001979Y0117034D01*
X-0001986Y0117019D01*
X-0002008Y0116990D01*
X-0002031Y0116953D01*
X-0002045Y0116901D01*
X-0002068Y0116842D01*
X-0002075Y0116775D01*
X-0002082Y0116701D01*
Y0116657D01*
X-0002075Y0116612D01*
X-0002060Y0116546D01*
X-0002038Y0116479D01*
X-0002001Y0116405D01*
X-0001957Y0116324D01*
X-0001897Y0116250D01*
X-0001890Y0116242D01*
X-0001868Y0116220D01*
X-0001823Y0116190D01*
X-0001772Y0116146D01*
X-0001698Y0116109D01*
X-0001616Y0116065D01*
X-0001520Y0116020D01*
X-0001409Y0115991D01*
X-0001402D01*
X-0001372Y0115983D01*
X-0001328Y0115976D01*
X-0001261D01*
X-0001165Y0115968D01*
X-0001106Y0115961D01*
X-0001039D01*
X-0000965Y0115954D01*
X-0000884D01*
X-0000795D01*
X-0000699D01*
X0000700D01*
Y0115073D01*
X-0002800D01*
Y0115954D01*
X-0002438D01*
X-0002452Y0115968D01*
X-0002482Y0116005D01*
X-0002519Y0116057D01*
X-0002578Y0116131D01*
X-0002630Y0116213D01*
X-0002689Y0116301D01*
X-0002741Y0116398D01*
X-0002785Y0116486D01*
X-0002793Y0116501D01*
X-0002800Y0116531D01*
X-0002815Y0116575D01*
X-0002837Y0116642D01*
X-0002859Y0116716D01*
X-0002874Y0116805D01*
X-0002882Y0116893D01*
X-0002889Y0116990D01*
Y0117041D01*
X-0002882Y0117078D01*
Y0117123D01*
X-0002867Y0117175D01*
X-0002845Y0117293D01*
X-0002800Y0117434D01*
X-0002734Y0117582D01*
X-0002689Y0117656D01*
X-0002645Y0117730D01*
X-0002586Y0117804D01*
X-0002519Y0117870D01*
X-0002504Y0117885D01*
X-0002460Y0117922D01*
X-0002393Y0117966D01*
X-0002290Y0118026D01*
X-0002164Y0118085D01*
X-0002008Y0118129D01*
X-0001823Y0118166D01*
X-0001609Y0118181D01*
X0000700D01*
Y0117300D01*
D02*
G37*
G36*
X-0000802Y0114348D02*
Y0111536D01*
X-0000795D01*
X-0000787D01*
X-0000743Y0111551D01*
X-0000669Y0111565D01*
X-0000588Y0111595D01*
X-0000491Y0111639D01*
X-0000388Y0111699D01*
X-0000292Y0111765D01*
X-0000203Y0111854D01*
X-0000195Y0111869D01*
X-0000166Y0111906D01*
X-0000136Y0111958D01*
X-0000092Y0112039D01*
X-0000055Y0112135D01*
X-0000018Y0112254D01*
X0000012Y0112379D01*
X0000019Y0112527D01*
Y0112579D01*
X0000012Y0112609D01*
Y0112653D01*
X0000004Y0112705D01*
X-0000025Y0112816D01*
X-0000062Y0112949D01*
X-0000121Y0113090D01*
X-0000210Y0113238D01*
X-0000262Y0113304D01*
X-0000321Y0113371D01*
X0000027Y0114111D01*
X0000034D01*
X0000041Y0114096D01*
X0000064Y0114081D01*
X0000093Y0114059D01*
X0000160Y0114000D01*
X0000249Y0113926D01*
X0000337Y0113822D01*
X0000434Y0113711D01*
X0000522Y0113586D01*
X0000604Y0113445D01*
Y0113438D01*
X0000611Y0113430D01*
X0000619Y0113408D01*
X0000633Y0113378D01*
X0000648Y0113341D01*
X0000663Y0113297D01*
X0000693Y0113186D01*
X0000730Y0113053D01*
X0000759Y0112897D01*
X0000781Y0112727D01*
X0000789Y0112535D01*
Y0112453D01*
X0000781Y0112402D01*
X0000774Y0112328D01*
X0000759Y0112246D01*
X0000744Y0112157D01*
X0000722Y0112061D01*
X0000700Y0111958D01*
X0000663Y0111847D01*
X0000619Y0111736D01*
X0000567Y0111625D01*
X0000508Y0111514D01*
X0000441Y0111403D01*
X0000360Y0111299D01*
X0000271Y0111195D01*
X0000263Y0111188D01*
X0000249Y0111173D01*
X0000219Y0111151D01*
X0000175Y0111114D01*
X0000130Y0111077D01*
X0000064Y0111033D01*
X-0000003Y0110988D01*
X-0000084Y0110944D01*
X-0000173Y0110892D01*
X-0000277Y0110848D01*
X-0000380Y0110803D01*
X-0000491Y0110766D01*
X-0000617Y0110729D01*
X-0000743Y0110707D01*
X-0000884Y0110692D01*
X-0001024Y0110685D01*
X-0001032D01*
X-0001061D01*
X-0001106D01*
X-0001157Y0110692D01*
X-0001224Y0110700D01*
X-0001305Y0110714D01*
X-0001394Y0110729D01*
X-0001490Y0110751D01*
X-0001594Y0110774D01*
X-0001705Y0110811D01*
X-0001816Y0110848D01*
X-0001927Y0110899D01*
X-0002038Y0110959D01*
X-0002149Y0111025D01*
X-0002253Y0111107D01*
X-0002356Y0111195D01*
X-0002364Y0111203D01*
X-0002378Y0111218D01*
X-0002408Y0111247D01*
X-0002438Y0111292D01*
X-0002482Y0111336D01*
X-0002526Y0111403D01*
X-0002571Y0111469D01*
X-0002623Y0111551D01*
X-0002674Y0111639D01*
X-0002719Y0111743D01*
X-0002763Y0111847D01*
X-0002808Y0111958D01*
X-0002837Y0112083D01*
X-0002867Y0112209D01*
X-0002882Y0112350D01*
X-0002889Y0112490D01*
Y0112572D01*
X-0002882Y0112631D01*
X-0002874Y0112698D01*
X-0002859Y0112779D01*
X-0002845Y0112868D01*
X-0002822Y0112971D01*
X-0002793Y0113075D01*
X-0002756Y0113186D01*
X-0002719Y0113297D01*
X-0002667Y0113408D01*
X-0002600Y0113519D01*
X-0002534Y0113630D01*
X-0002452Y0113734D01*
X-0002356Y0113837D01*
X-0002349Y0113845D01*
X-0002334Y0113859D01*
X-0002304Y0113882D01*
X-0002260Y0113919D01*
X-0002208Y0113956D01*
X-0002142Y0114000D01*
X-0002068Y0114052D01*
X-0001986Y0114096D01*
X-0001890Y0114148D01*
X-0001786Y0114192D01*
X-0001668Y0114237D01*
X-0001550Y0114274D01*
X-0001416Y0114311D01*
X-0001276Y0114333D01*
X-0001120Y0114348D01*
X-0000965Y0114355D01*
X-0000802Y0114348D01*
D02*
G37*
G36*
X-0000417Y0110085D02*
X-0000366Y0110078D01*
X-0000314Y0110071D01*
X-0000181Y0110041D01*
X-0000025Y0109997D01*
X0000130Y0109923D01*
X0000212Y0109878D01*
X0000293Y0109819D01*
X0000367Y0109760D01*
X0000441Y0109686D01*
X0000448Y0109678D01*
X0000456Y0109671D01*
X0000478Y0109641D01*
X0000500Y0109612D01*
X0000530Y0109575D01*
X0000559Y0109523D01*
X0000596Y0109471D01*
X0000626Y0109405D01*
X0000663Y0109331D01*
X0000700Y0109257D01*
X0000759Y0109072D01*
X0000804Y0108864D01*
X0000811Y0108753D01*
X0000818Y0108635D01*
Y0108583D01*
X0000811Y0108554D01*
Y0108509D01*
X0000804Y0108457D01*
X0000789Y0108339D01*
X0000759Y0108198D01*
X0000715Y0108050D01*
X0000656Y0107902D01*
X0000574Y0107754D01*
Y0107747D01*
X0000559Y0107740D01*
X0000530Y0107695D01*
X0000463Y0107621D01*
X0000382Y0107540D01*
X0000271Y0107436D01*
X0000138Y0107333D01*
X-0000025Y0107222D01*
X-0000210Y0107118D01*
X-0000669Y0107873D01*
X-0000662Y0107880D01*
X-0000639Y0107888D01*
X-0000610Y0107910D01*
X-0000573Y0107932D01*
X-0000469Y0108006D01*
X-0000358Y0108102D01*
X-0000240Y0108213D01*
X-0000136Y0108346D01*
X-0000099Y0108420D01*
X-0000070Y0108494D01*
X-0000047Y0108576D01*
X-0000040Y0108657D01*
Y0108694D01*
X-0000047Y0108739D01*
X-0000055Y0108790D01*
X-0000070Y0108850D01*
X-0000099Y0108916D01*
X-0000129Y0108983D01*
X-0000173Y0109042D01*
X-0000181Y0109049D01*
X-0000195Y0109064D01*
X-0000225Y0109094D01*
X-0000262Y0109123D01*
X-0000306Y0109153D01*
X-0000358Y0109183D01*
X-0000417Y0109197D01*
X-0000484Y0109205D01*
X-0000491D01*
X-0000514D01*
X-0000543Y0109197D01*
X-0000588Y0109190D01*
X-0000632Y0109175D01*
X-0000684Y0109153D01*
X-0000743Y0109123D01*
X-0000802Y0109079D01*
X-0000810Y0109072D01*
X-0000832Y0109057D01*
X-0000869Y0109020D01*
X-0000928Y0108968D01*
X-0000995Y0108901D01*
X-0001083Y0108813D01*
X-0001180Y0108702D01*
X-0001298Y0108561D01*
X-0001305Y0108554D01*
X-0001328Y0108524D01*
X-0001357Y0108487D01*
X-0001402Y0108435D01*
X-0001453Y0108376D01*
X-0001513Y0108302D01*
X-0001653Y0108147D01*
X-0001809Y0107976D01*
X-0001971Y0107814D01*
X-0002053Y0107740D01*
X-0002127Y0107666D01*
X-0002201Y0107606D01*
X-0002267Y0107562D01*
X-0002275D01*
X-0002282Y0107555D01*
X-0002327Y0107525D01*
X-0002393Y0107495D01*
X-0002482Y0107451D01*
X-0002586Y0107414D01*
X-0002704Y0107377D01*
X-0002830Y0107347D01*
X-0002956Y0107340D01*
X-0002963D01*
X-0002978D01*
X-0003000D01*
X-0003037Y0107347D01*
X-0003081Y0107355D01*
X-0003126Y0107362D01*
X-0003244Y0107384D01*
X-0003377Y0107429D01*
X-0003518Y0107495D01*
X-0003592Y0107540D01*
X-0003659Y0107592D01*
X-0003733Y0107643D01*
X-0003799Y0107710D01*
X-0003807Y0107717D01*
X-0003814Y0107725D01*
X-0003829Y0107747D01*
X-0003858Y0107777D01*
X-0003881Y0107814D01*
X-0003910Y0107858D01*
X-0003977Y0107969D01*
X-0004043Y0108102D01*
X-0004103Y0108258D01*
X-0004140Y0108435D01*
X-0004147Y0108531D01*
X-0004154Y0108635D01*
Y0108694D01*
X-0004147Y0108761D01*
X-0004132Y0108850D01*
X-0004110Y0108953D01*
X-0004080Y0109072D01*
X-0004043Y0109190D01*
X-0003984Y0109308D01*
Y0109316D01*
X-0003977Y0109323D01*
X-0003955Y0109368D01*
X-0003910Y0109434D01*
X-0003851Y0109516D01*
X-0003770Y0109627D01*
X-0003666Y0109745D01*
X-0003533Y0109871D01*
X-0003385Y0110011D01*
X-0002793Y0109338D01*
X-0002800Y0109331D01*
X-0002815Y0109323D01*
X-0002837Y0109301D01*
X-0002867Y0109279D01*
X-0002948Y0109212D01*
X-0003037Y0109116D01*
X-0003126Y0109012D01*
X-0003207Y0108894D01*
X-0003237Y0108827D01*
X-0003259Y0108761D01*
X-0003274Y0108694D01*
X-0003281Y0108628D01*
Y0108598D01*
X-0003274Y0108568D01*
X-0003266Y0108524D01*
X-0003244Y0108428D01*
X-0003215Y0108383D01*
X-0003185Y0108339D01*
X-0003178Y0108332D01*
X-0003170Y0108324D01*
X-0003126Y0108287D01*
X-0003052Y0108243D01*
X-0003015Y0108235D01*
X-0002970Y0108228D01*
X-0002963D01*
X-0002948D01*
X-0002926Y0108235D01*
X-0002896D01*
X-0002822Y0108258D01*
X-0002741Y0108302D01*
X-0002734Y0108309D01*
X-0002711Y0108332D01*
X-0002674Y0108369D01*
X-0002615Y0108428D01*
X-0002534Y0108509D01*
X-0002482Y0108568D01*
X-0002423Y0108628D01*
X-0002364Y0108694D01*
X-0002297Y0108776D01*
X-0002216Y0108864D01*
X-0002134Y0108961D01*
X-0002127Y0108968D01*
X-0002119Y0108983D01*
X-0002097Y0109012D01*
X-0002068Y0109042D01*
X-0001994Y0109131D01*
X-0001905Y0109234D01*
X-0001816Y0109345D01*
X-0001727Y0109442D01*
X-0001646Y0109530D01*
X-0001616Y0109567D01*
X-0001594Y0109590D01*
X-0001579Y0109604D01*
X-0001550Y0109634D01*
X-0001498Y0109686D01*
X-0001424Y0109738D01*
X-0001342Y0109804D01*
X-0001254Y0109871D01*
X-0001165Y0109923D01*
X-0001069Y0109974D01*
X-0001054Y0109982D01*
X-0001024Y0109997D01*
X-0000972Y0110011D01*
X-0000906Y0110034D01*
X-0000824Y0110056D01*
X-0000728Y0110078D01*
X-0000625Y0110085D01*
X-0000514Y0110093D01*
X-0000506D01*
X-0000491D01*
X-0000454D01*
X-0000417Y0110085D01*
D02*
G37*
G36*
X0000700Y0103906D02*
Y0103033D01*
X-0002356Y0102167D01*
X0000700Y0101309D01*
Y0100458D01*
X-0004036Y0099385D01*
Y0100266D01*
X-0001009Y0100954D01*
X-0004036Y0101797D01*
Y0102552D01*
X-0001009Y0103411D01*
X-0004036Y0104099D01*
Y0104979D01*
X0000700Y0103906D01*
D02*
G37*
G36*
X-0000965Y0098697D02*
X-0000817D01*
X-0000654Y0098682D01*
X-0000491Y0098667D01*
X-0000336Y0098652D01*
X-0000277Y0098638D01*
X-0000218Y0098623D01*
X-0000203Y0098615D01*
X-0000173Y0098608D01*
X-0000114Y0098586D01*
X-0000047Y0098556D01*
X0000034Y0098512D01*
X0000123Y0098460D01*
X0000219Y0098393D01*
X0000315Y0098312D01*
X0000330Y0098305D01*
X0000360Y0098275D01*
X0000404Y0098223D01*
X0000463Y0098164D01*
X0000522Y0098083D01*
X0000589Y0097994D01*
X0000648Y0097898D01*
X0000700Y0097787D01*
X0000707Y0097772D01*
X0000715Y0097735D01*
X0000737Y0097676D01*
X0000759Y0097587D01*
X0000781Y0097491D01*
X0000796Y0097372D01*
X0000811Y0097239D01*
X0000818Y0097098D01*
Y0097047D01*
X0000811Y0097010D01*
Y0096965D01*
X0000804Y0096913D01*
X0000789Y0096795D01*
X0000759Y0096654D01*
X0000722Y0096506D01*
X0000663Y0096351D01*
X0000589Y0096203D01*
Y0096196D01*
X0000574Y0096188D01*
X0000545Y0096144D01*
X0000493Y0096077D01*
X0000426Y0095996D01*
X0000337Y0095907D01*
X0000241Y0095818D01*
X0000123Y0095729D01*
X-0000003Y0095663D01*
X-0000010D01*
X-0000018Y0095655D01*
X-0000040Y0095648D01*
X-0000070Y0095641D01*
X-0000114Y0095626D01*
X-0000166Y0095611D01*
X-0000225Y0095596D01*
X-0000292Y0095581D01*
X-0000366Y0095567D01*
X-0000454Y0095552D01*
X-0000558Y0095537D01*
X-0000662Y0095522D01*
X-0000787Y0095515D01*
X-0000913Y0095507D01*
X-0001054Y0095500D01*
X-0001209D01*
X-0004036D01*
Y0096395D01*
X-0000972D01*
X-0000965D01*
X-0000958D01*
X-0000935D01*
X-0000906D01*
X-0000839Y0096403D01*
X-0000750D01*
X-0000662Y0096410D01*
X-0000565Y0096425D01*
X-0000484Y0096440D01*
X-0000410Y0096462D01*
X-0000403D01*
X-0000380Y0096477D01*
X-0000351Y0096492D01*
X-0000314Y0096514D01*
X-0000277Y0096551D01*
X-0000232Y0096588D01*
X-0000188Y0096632D01*
X-0000151Y0096691D01*
X-0000144Y0096699D01*
X-0000136Y0096721D01*
X-0000121Y0096758D01*
X-0000107Y0096802D01*
X-0000084Y0096862D01*
X-0000070Y0096928D01*
X-0000062Y0097002D01*
X-0000055Y0097084D01*
Y0097121D01*
X-0000062Y0097165D01*
X-0000070Y0097224D01*
X-0000077Y0097291D01*
X-0000099Y0097357D01*
X-0000121Y0097424D01*
X-0000158Y0097491D01*
X-0000166Y0097498D01*
X-0000181Y0097520D01*
X-0000203Y0097550D01*
X-0000232Y0097587D01*
X-0000277Y0097631D01*
X-0000321Y0097668D01*
X-0000380Y0097705D01*
X-0000440Y0097735D01*
X-0000447D01*
X-0000477Y0097750D01*
X-0000521Y0097757D01*
X-0000588Y0097772D01*
X-0000669Y0097787D01*
X-0000780Y0097794D01*
X-0000921Y0097809D01*
X-0001083D01*
X-0004036D01*
Y0098704D01*
X-0001209D01*
X-0001202D01*
X-0001180D01*
X-0001143D01*
X-0001091D01*
X-0001032D01*
X-0000965Y0098697D01*
D02*
G37*
G36*
X-0001102Y-0125792D02*
X-0001042D01*
X-0000976Y-0125800D01*
X-0000902Y-0125815D01*
X-0000820Y-0125822D01*
X-0000643Y-0125866D01*
X-0000443Y-0125926D01*
X-0000228Y-0126000D01*
X-0000125Y-0126051D01*
X-0000021Y-0126111D01*
X-0000014D01*
X0000001Y-0126125D01*
X0000031Y-0126140D01*
X0000068Y-0126170D01*
X0000119Y-0126199D01*
X0000171Y-0126236D01*
X0000290Y-0126333D01*
X0000430Y-0126451D01*
X0000571Y-0126599D01*
X0000711Y-0126762D01*
X0000830Y-0126947D01*
Y-0126954D01*
X0000845Y-0126969D01*
X0000859Y-0126999D01*
X0000874Y-0127036D01*
X0000896Y-0127087D01*
X0000919Y-0127147D01*
X0000948Y-0127213D01*
X0000970Y-0127287D01*
X0001000Y-0127369D01*
X0001030Y-0127465D01*
X0001074Y-0127665D01*
X0001104Y-0127894D01*
X0001118Y-0128146D01*
Y-0128220D01*
X0001111Y-0128271D01*
Y-0128331D01*
X0001104Y-0128405D01*
X0001089Y-0128493D01*
X0001081Y-0128582D01*
X0001037Y-0128789D01*
X0000985Y-0129011D01*
X0000904Y-0129241D01*
X0000859Y-0129352D01*
X0000800Y-0129463D01*
X0000793Y-0129470D01*
X0000785Y-0129485D01*
X0000763Y-0129515D01*
X0000741Y-0129559D01*
X0000711Y-0129603D01*
X0000667Y-0129663D01*
X0000563Y-0129796D01*
X0000438Y-0129936D01*
X0000282Y-0130092D01*
X0000097Y-0130240D01*
X-0000110Y-0130373D01*
X-0000117D01*
X-0000140Y-0130388D01*
X-0000169Y-0130403D01*
X-0000214Y-0130425D01*
X-0000265Y-0130447D01*
X-0000332Y-0130477D01*
X-0000406Y-0130506D01*
X-0000495Y-0130536D01*
X-0000584Y-0130573D01*
X-0000680Y-0130602D01*
X-0000902Y-0130654D01*
X-0001139Y-0130691D01*
X-0001264Y-0130699D01*
X-0001390Y-0130706D01*
X-0001398D01*
X-0001435D01*
X-0001479Y-0130699D01*
X-0001546D01*
X-0001627Y-0130684D01*
X-0001723Y-0130676D01*
X-0001834Y-0130654D01*
X-0001945Y-0130632D01*
X-0002071Y-0130595D01*
X-0002204Y-0130558D01*
X-0002337Y-0130506D01*
X-0002478Y-0130447D01*
X-0002619Y-0130373D01*
X-0002759Y-0130292D01*
X-0002892Y-0130203D01*
X-0003026Y-0130092D01*
X-0003033Y-0130084D01*
X-0003063Y-0130055D01*
X-0003100Y-0130018D01*
X-0003159Y-0129959D01*
X-0003218Y-0129885D01*
X-0003285Y-0129796D01*
X-0003366Y-0129692D01*
X-0003440Y-0129574D01*
X-0003514Y-0129441D01*
X-0003595Y-0129300D01*
X-0003662Y-0129137D01*
X-0003729Y-0128967D01*
X-0003780Y-0128782D01*
X-0003817Y-0128590D01*
X-0003847Y-0128382D01*
X-0003854Y-0128168D01*
Y-0128064D01*
X-0003847Y-0128005D01*
X-0003840Y-0127946D01*
X-0003832Y-0127872D01*
X-0003825Y-0127790D01*
X-0003795Y-0127613D01*
X-0003758Y-0127420D01*
X-0003699Y-0127221D01*
X-0003625Y-0127013D01*
Y-0127006D01*
X-0003618Y-0126991D01*
X-0003603Y-0126969D01*
X-0003588Y-0126939D01*
X-0003566Y-0126895D01*
X-0003536Y-0126851D01*
X-0003470Y-0126732D01*
X-0003381Y-0126599D01*
X-0003270Y-0126451D01*
X-0003129Y-0126288D01*
X-0002966Y-0126125D01*
X-0002337Y-0126762D01*
X-0002345Y-0126769D01*
X-0002367Y-0126791D01*
X-0002397Y-0126821D01*
X-0002441Y-0126865D01*
X-0002485Y-0126925D01*
X-0002545Y-0126991D01*
X-0002596Y-0127073D01*
X-0002663Y-0127161D01*
X-0002722Y-0127258D01*
X-0002781Y-0127369D01*
X-0002833Y-0127487D01*
X-0002878Y-0127605D01*
X-0002922Y-0127739D01*
X-0002952Y-0127879D01*
X-0002974Y-0128020D01*
X-0002981Y-0128168D01*
Y-0128234D01*
X-0002974Y-0128286D01*
X-0002966Y-0128345D01*
X-0002959Y-0128412D01*
X-0002944Y-0128493D01*
X-0002922Y-0128575D01*
X-0002870Y-0128760D01*
X-0002833Y-0128856D01*
X-0002781Y-0128952D01*
X-0002730Y-0129056D01*
X-0002670Y-0129152D01*
X-0002596Y-0129248D01*
X-0002515Y-0129337D01*
X-0002508Y-0129344D01*
X-0002493Y-0129359D01*
X-0002471Y-0129381D01*
X-0002434Y-0129411D01*
X-0002389Y-0129448D01*
X-0002330Y-0129485D01*
X-0002271Y-0129529D01*
X-0002197Y-0129566D01*
X-0002123Y-0129611D01*
X-0002034Y-0129655D01*
X-0001842Y-0129729D01*
X-0001738Y-0129759D01*
X-0001627Y-0129781D01*
X-0001509Y-0129796D01*
X-0001390Y-0129803D01*
X-0001383D01*
X-0001361D01*
X-0001324D01*
X-0001279Y-0129796D01*
X-0001220Y-0129788D01*
X-0001146Y-0129774D01*
X-0001072Y-0129759D01*
X-0000991Y-0129744D01*
X-0000806Y-0129685D01*
X-0000709Y-0129648D01*
X-0000613Y-0129596D01*
X-0000510Y-0129544D01*
X-0000413Y-0129478D01*
X-0000317Y-0129404D01*
X-0000228Y-0129315D01*
X-0000221Y-0129307D01*
X-0000206Y-0129293D01*
X-0000184Y-0129263D01*
X-0000154Y-0129226D01*
X-0000117Y-0129182D01*
X-0000080Y-0129122D01*
X-0000036Y-0129056D01*
X0000008Y-0128982D01*
X0000053Y-0128900D01*
X0000097Y-0128804D01*
X0000134Y-0128708D01*
X0000171Y-0128597D01*
X0000201Y-0128486D01*
X0000223Y-0128368D01*
X0000238Y-0128242D01*
X0000245Y-0128109D01*
Y-0128027D01*
X0000238Y-0127946D01*
X0000223Y-0127835D01*
X0000201Y-0127709D01*
X0000164Y-0127583D01*
X0000119Y-0127450D01*
X0000053Y-0127324D01*
Y-0127317D01*
X0000045Y-0127309D01*
X0000016Y-0127272D01*
X-0000029Y-0127213D01*
X-0000095Y-0127139D01*
X-0000184Y-0127058D01*
X-0000288Y-0126969D01*
X-0000413Y-0126888D01*
X-0000561Y-0126806D01*
Y-0128175D01*
X-0001405D01*
Y-0125792D01*
X-0001205Y-0125785D01*
X-0001198D01*
X-0001176D01*
X-0001146D01*
X-0001102Y-0125792D01*
D02*
G37*
G36*
X0001000Y-0132208D02*
X-0001005Y-0133281D01*
Y-0133363D01*
X0001000D01*
Y-0134258D01*
X-0003736D01*
Y-0133178D01*
X-0003729Y-0133111D01*
Y-0133037D01*
X-0003721Y-0132956D01*
Y-0132867D01*
X-0003699Y-0132689D01*
X-0003677Y-0132504D01*
X-0003640Y-0132327D01*
X-0003618Y-0132253D01*
X-0003595Y-0132186D01*
Y-0132179D01*
X-0003588Y-0132171D01*
X-0003566Y-0132134D01*
X-0003536Y-0132068D01*
X-0003484Y-0131994D01*
X-0003418Y-0131912D01*
X-0003336Y-0131823D01*
X-0003240Y-0131735D01*
X-0003129Y-0131653D01*
X-0003114Y-0131646D01*
X-0003070Y-0131624D01*
X-0003003Y-0131587D01*
X-0002915Y-0131550D01*
X-0002796Y-0131513D01*
X-0002670Y-0131476D01*
X-0002522Y-0131453D01*
X-0002360Y-0131446D01*
X-0002352D01*
X-0002337D01*
X-0002315D01*
X-0002286D01*
X-0002197Y-0131461D01*
X-0002086Y-0131476D01*
X-0001960Y-0131505D01*
X-0001834Y-0131542D01*
X-0001701Y-0131601D01*
X-0001575Y-0131675D01*
X-0001560Y-0131683D01*
X-0001523Y-0131720D01*
X-0001472Y-0131772D01*
X-0001398Y-0131846D01*
X-0001324Y-0131934D01*
X-0001242Y-0132053D01*
X-0001168Y-0132193D01*
X-0001102Y-0132349D01*
X0001000Y-0131224D01*
Y-0132208D01*
D02*
G37*
G36*
Y-0137225D02*
X-0003736D01*
Y-0136330D01*
X0000142D01*
Y-0135005D01*
X0001000D01*
Y-0137225D01*
D02*
G37*
G36*
X-0000339Y-0141799D02*
X-0001161D01*
Y-0140163D01*
X-0000339D01*
Y-0141799D01*
D02*
G37*
G36*
X0001000Y-0146364D02*
X-0002892D01*
Y-0147341D01*
X-0003736Y-0146823D01*
Y-0145469D01*
X0001000D01*
Y-0146364D01*
D02*
G37*
G36*
X0000660Y-0148318D02*
X0000711Y-0148333D01*
X0000771Y-0148348D01*
X0000830Y-0148377D01*
X0000889Y-0148414D01*
X0000948Y-0148466D01*
X0000956Y-0148473D01*
X0000970Y-0148496D01*
X0000993Y-0148525D01*
X0001015Y-0148562D01*
X0001044Y-0148614D01*
X0001067Y-0148681D01*
X0001081Y-0148747D01*
X0001089Y-0148821D01*
Y-0148858D01*
X0001081Y-0148895D01*
X0001074Y-0148940D01*
X0001052Y-0148999D01*
X0001030Y-0149058D01*
X0000993Y-0149117D01*
X0000948Y-0149176D01*
X0000941Y-0149184D01*
X0000919Y-0149199D01*
X0000889Y-0149221D01*
X0000845Y-0149250D01*
X0000793Y-0149280D01*
X0000734Y-0149302D01*
X0000660Y-0149317D01*
X0000586Y-0149324D01*
X0000578D01*
X0000549D01*
X0000512Y-0149317D01*
X0000460Y-0149302D01*
X0000408Y-0149287D01*
X0000349Y-0149265D01*
X0000290Y-0149228D01*
X0000230Y-0149176D01*
X0000223Y-0149169D01*
X0000208Y-0149147D01*
X0000186Y-0149117D01*
X0000156Y-0149073D01*
X0000127Y-0149021D01*
X0000105Y-0148962D01*
X0000090Y-0148895D01*
X0000082Y-0148821D01*
Y-0148784D01*
X0000090Y-0148747D01*
X0000097Y-0148695D01*
X0000119Y-0148644D01*
X0000142Y-0148584D01*
X0000179Y-0148525D01*
X0000230Y-0148466D01*
X0000238Y-0148459D01*
X0000260Y-0148444D01*
X0000290Y-0148414D01*
X0000327Y-0148385D01*
X0000378Y-0148362D01*
X0000445Y-0148333D01*
X0000512Y-0148318D01*
X0000586Y-0148311D01*
X0000593D01*
X0000623D01*
X0000660Y-0148318D01*
D02*
G37*
G36*
X-0000399Y-0150064D02*
X-0000339Y-0150072D01*
X-0000273Y-0150079D01*
X-0000191Y-0150094D01*
X-0000110Y-0150116D01*
X0000075Y-0150175D01*
X0000171Y-0150212D01*
X0000267Y-0150257D01*
X0000371Y-0150309D01*
X0000467Y-0150375D01*
X0000563Y-0150449D01*
X0000652Y-0150531D01*
X0000660Y-0150538D01*
X0000674Y-0150553D01*
X0000697Y-0150575D01*
X0000726Y-0150612D01*
X0000763Y-0150664D01*
X0000800Y-0150716D01*
X0000845Y-0150782D01*
X0000882Y-0150849D01*
X0000926Y-0150930D01*
X0000970Y-0151019D01*
X0001044Y-0151211D01*
X0001074Y-0151322D01*
X0001096Y-0151433D01*
X0001111Y-0151552D01*
X0001118Y-0151678D01*
Y-0151737D01*
X0001111Y-0151781D01*
Y-0151833D01*
X0001104Y-0151892D01*
X0001074Y-0152033D01*
X0001037Y-0152196D01*
X0000978Y-0152373D01*
X0000889Y-0152551D01*
X0000837Y-0152640D01*
X0000778Y-0152721D01*
X0000771Y-0152728D01*
X0000763Y-0152736D01*
X0000741Y-0152758D01*
X0000711Y-0152788D01*
X0000682Y-0152825D01*
X0000637Y-0152862D01*
X0000526Y-0152950D01*
X0000393Y-0153047D01*
X0000230Y-0153135D01*
X0000038Y-0153224D01*
X-0000177Y-0153283D01*
Y-0152336D01*
X-0000169Y-0152329D01*
X-0000140Y-0152314D01*
X-0000095Y-0152292D01*
X-0000051Y-0152262D01*
X0000008Y-0152225D01*
X0000060Y-0152173D01*
X0000119Y-0152114D01*
X0000164Y-0152055D01*
X0000171Y-0152048D01*
X0000179Y-0152025D01*
X0000201Y-0151988D01*
X0000216Y-0151937D01*
X0000238Y-0151877D01*
X0000260Y-0151811D01*
X0000267Y-0151737D01*
X0000275Y-0151655D01*
Y-0151604D01*
X0000260Y-0151552D01*
X0000245Y-0151478D01*
X0000223Y-0151404D01*
X0000186Y-0151315D01*
X0000134Y-0151234D01*
X0000068Y-0151152D01*
X0000060Y-0151145D01*
X0000031Y-0151115D01*
X-0000021Y-0151086D01*
X-0000080Y-0151041D01*
X-0000162Y-0151004D01*
X-0000258Y-0150967D01*
X-0000369Y-0150945D01*
X-0000487Y-0150938D01*
X-0000495D01*
X-0000502D01*
X-0000539D01*
X-0000598Y-0150945D01*
X-0000680Y-0150960D01*
X-0000761Y-0150989D01*
X-0000850Y-0151019D01*
X-0000939Y-0151071D01*
X-0001020Y-0151137D01*
X-0001028Y-0151145D01*
X-0001057Y-0151174D01*
X-0001087Y-0151211D01*
X-0001131Y-0151271D01*
X-0001168Y-0151337D01*
X-0001205Y-0151419D01*
X-0001227Y-0151507D01*
X-0001235Y-0151604D01*
Y-0151655D01*
X-0001227Y-0151692D01*
X-0001205Y-0151789D01*
X-0001161Y-0151900D01*
Y-0151907D01*
X-0001146Y-0151922D01*
X-0001131Y-0151951D01*
X-0001109Y-0151988D01*
X-0001035Y-0152077D01*
X-0000939Y-0152181D01*
X-0001102Y-0152913D01*
X-0003736Y-0152344D01*
Y-0150124D01*
X-0002900D01*
Y-0151670D01*
X-0002027Y-0151863D01*
Y-0151855D01*
X-0002034Y-0151848D01*
X-0002041Y-0151811D01*
X-0002049Y-0151759D01*
X-0002064Y-0151707D01*
Y-0151692D01*
X-0002071Y-0151655D01*
X-0002078Y-0151604D01*
Y-0151493D01*
X-0002071Y-0151448D01*
X-0002064Y-0151389D01*
X-0002056Y-0151330D01*
X-0002041Y-0151256D01*
X-0002027Y-0151182D01*
X-0001967Y-0151012D01*
X-0001938Y-0150923D01*
X-0001893Y-0150834D01*
X-0001842Y-0150745D01*
X-0001782Y-0150656D01*
X-0001716Y-0150568D01*
X-0001634Y-0150486D01*
X-0001627Y-0150479D01*
X-0001612Y-0150464D01*
X-0001590Y-0150449D01*
X-0001553Y-0150420D01*
X-0001516Y-0150390D01*
X-0001464Y-0150353D01*
X-0001398Y-0150309D01*
X-0001331Y-0150272D01*
X-0001257Y-0150235D01*
X-0001168Y-0150190D01*
X-0001079Y-0150153D01*
X-0000976Y-0150124D01*
X-0000872Y-0150094D01*
X-0000761Y-0150072D01*
X-0000643Y-0150064D01*
X-0000517Y-0150057D01*
X-0000510D01*
X-0000487D01*
X-0000450D01*
X-0000399Y-0150064D01*
D02*
G37*
G36*
X-0002278Y-0155629D02*
X-0002234D01*
X-0002182Y-0155637D01*
X-0002071Y-0155651D01*
X-0001938Y-0155688D01*
X-0001805Y-0155733D01*
X-0001664Y-0155799D01*
X-0001531Y-0155888D01*
X-0001516Y-0155903D01*
X-0001479Y-0155933D01*
X-0001420Y-0155992D01*
X-0001353Y-0156073D01*
X-0001279Y-0156177D01*
X-0001205Y-0156295D01*
X-0001139Y-0156436D01*
X-0001079Y-0156591D01*
Y-0156606D01*
X-0001065Y-0156643D01*
Y-0156673D01*
X-0001057Y-0156710D01*
X-0001050Y-0156754D01*
X-0001042Y-0156813D01*
X-0001035Y-0156872D01*
X-0001028Y-0156939D01*
X-0001020Y-0157020D01*
Y-0157109D01*
X-0001013Y-0157205D01*
X-0001005Y-0157309D01*
Y-0157546D01*
X0001000D01*
Y-0158441D01*
X-0003736D01*
Y-0157361D01*
X-0003729Y-0157294D01*
Y-0157220D01*
X-0003721Y-0157139D01*
Y-0157057D01*
X-0003699Y-0156872D01*
X-0003677Y-0156687D01*
X-0003640Y-0156517D01*
X-0003618Y-0156436D01*
X-0003588Y-0156369D01*
Y-0156362D01*
X-0003581Y-0156354D01*
X-0003558Y-0156310D01*
X-0003529Y-0156251D01*
X-0003477Y-0156169D01*
X-0003410Y-0156081D01*
X-0003329Y-0155992D01*
X-0003233Y-0155903D01*
X-0003122Y-0155822D01*
X-0003107Y-0155814D01*
X-0003063Y-0155792D01*
X-0002996Y-0155755D01*
X-0002907Y-0155718D01*
X-0002796Y-0155688D01*
X-0002663Y-0155651D01*
X-0002522Y-0155629D01*
X-0002360Y-0155622D01*
X-0002352D01*
X-0002337D01*
X-0002315D01*
X-0002278Y-0155629D01*
D02*
G37*
G36*
X-0000117Y-0159300D02*
X-0000066Y-0159307D01*
X-0000014Y-0159314D01*
X0000119Y-0159344D01*
X0000275Y-0159388D01*
X0000430Y-0159462D01*
X0000512Y-0159507D01*
X0000593Y-0159566D01*
X0000667Y-0159625D01*
X0000741Y-0159699D01*
X0000748Y-0159707D01*
X0000756Y-0159714D01*
X0000778Y-0159744D01*
X0000800Y-0159773D01*
X0000830Y-0159810D01*
X0000859Y-0159862D01*
X0000896Y-0159914D01*
X0000926Y-0159980D01*
X0000963Y-0160054D01*
X0001000Y-0160128D01*
X0001059Y-0160313D01*
X0001104Y-0160521D01*
X0001111Y-0160632D01*
X0001118Y-0160750D01*
Y-0160802D01*
X0001111Y-0160831D01*
Y-0160876D01*
X0001104Y-0160928D01*
X0001089Y-0161046D01*
X0001059Y-0161187D01*
X0001015Y-0161335D01*
X0000956Y-0161483D01*
X0000874Y-0161631D01*
Y-0161638D01*
X0000859Y-0161645D01*
X0000830Y-0161690D01*
X0000763Y-0161764D01*
X0000682Y-0161845D01*
X0000571Y-0161949D01*
X0000438Y-0162052D01*
X0000275Y-0162163D01*
X0000090Y-0162267D01*
X-0000369Y-0161512D01*
X-0000362Y-0161505D01*
X-0000339Y-0161497D01*
X-0000310Y-0161475D01*
X-0000273Y-0161453D01*
X-0000169Y-0161379D01*
X-0000058Y-0161283D01*
X0000060Y-0161172D01*
X0000164Y-0161039D01*
X0000201Y-0160965D01*
X0000230Y-0160891D01*
X0000253Y-0160809D01*
X0000260Y-0160728D01*
Y-0160691D01*
X0000253Y-0160646D01*
X0000245Y-0160595D01*
X0000230Y-0160535D01*
X0000201Y-0160469D01*
X0000171Y-0160402D01*
X0000127Y-0160343D01*
X0000119Y-0160336D01*
X0000105Y-0160321D01*
X0000075Y-0160291D01*
X0000038Y-0160262D01*
X-0000006Y-0160232D01*
X-0000058Y-0160202D01*
X-0000117Y-0160188D01*
X-0000184Y-0160180D01*
X-0000191D01*
X-0000214D01*
X-0000243Y-0160188D01*
X-0000288Y-0160195D01*
X-0000332Y-0160210D01*
X-0000384Y-0160232D01*
X-0000443Y-0160262D01*
X-0000502Y-0160306D01*
X-0000510Y-0160313D01*
X-0000532Y-0160328D01*
X-0000569Y-0160365D01*
X-0000628Y-0160417D01*
X-0000695Y-0160484D01*
X-0000783Y-0160572D01*
X-0000880Y-0160683D01*
X-0000998Y-0160824D01*
X-0001005Y-0160831D01*
X-0001028Y-0160861D01*
X-0001057Y-0160898D01*
X-0001102Y-0160950D01*
X-0001153Y-0161009D01*
X-0001213Y-0161083D01*
X-0001353Y-0161238D01*
X-0001509Y-0161409D01*
X-0001671Y-0161571D01*
X-0001753Y-0161645D01*
X-0001827Y-0161719D01*
X-0001901Y-0161779D01*
X-0001967Y-0161823D01*
X-0001975D01*
X-0001982Y-0161830D01*
X-0002027Y-0161860D01*
X-0002093Y-0161890D01*
X-0002182Y-0161934D01*
X-0002286Y-0161971D01*
X-0002404Y-0162008D01*
X-0002530Y-0162038D01*
X-0002656Y-0162045D01*
X-0002663D01*
X-0002678D01*
X-0002700D01*
X-0002737Y-0162038D01*
X-0002781Y-0162030D01*
X-0002826Y-0162023D01*
X-0002944Y-0162001D01*
X-0003077Y-0161956D01*
X-0003218Y-0161890D01*
X-0003292Y-0161845D01*
X-0003359Y-0161793D01*
X-0003433Y-0161742D01*
X-0003499Y-0161675D01*
X-0003507Y-0161668D01*
X-0003514Y-0161660D01*
X-0003529Y-0161638D01*
X-0003558Y-0161608D01*
X-0003581Y-0161571D01*
X-0003610Y-0161527D01*
X-0003677Y-0161416D01*
X-0003743Y-0161283D01*
X-0003803Y-0161127D01*
X-0003840Y-0160950D01*
X-0003847Y-0160854D01*
X-0003854Y-0160750D01*
Y-0160691D01*
X-0003847Y-0160624D01*
X-0003832Y-0160535D01*
X-0003810Y-0160432D01*
X-0003780Y-0160313D01*
X-0003743Y-0160195D01*
X-0003684Y-0160077D01*
Y-0160069D01*
X-0003677Y-0160062D01*
X-0003655Y-0160017D01*
X-0003610Y-0159951D01*
X-0003551Y-0159869D01*
X-0003470Y-0159758D01*
X-0003366Y-0159640D01*
X-0003233Y-0159514D01*
X-0003085Y-0159374D01*
X-0002493Y-0160047D01*
X-0002500Y-0160054D01*
X-0002515Y-0160062D01*
X-0002537Y-0160084D01*
X-0002567Y-0160106D01*
X-0002648Y-0160173D01*
X-0002737Y-0160269D01*
X-0002826Y-0160373D01*
X-0002907Y-0160491D01*
X-0002937Y-0160558D01*
X-0002959Y-0160624D01*
X-0002974Y-0160691D01*
X-0002981Y-0160757D01*
Y-0160787D01*
X-0002974Y-0160817D01*
X-0002966Y-0160861D01*
X-0002944Y-0160957D01*
X-0002915Y-0161002D01*
X-0002885Y-0161046D01*
X-0002878Y-0161053D01*
X-0002870Y-0161061D01*
X-0002826Y-0161098D01*
X-0002752Y-0161142D01*
X-0002715Y-0161150D01*
X-0002670Y-0161157D01*
X-0002663D01*
X-0002648D01*
X-0002626Y-0161150D01*
X-0002596D01*
X-0002522Y-0161127D01*
X-0002441Y-0161083D01*
X-0002434Y-0161076D01*
X-0002411Y-0161053D01*
X-0002374Y-0161016D01*
X-0002315Y-0160957D01*
X-0002234Y-0160876D01*
X-0002182Y-0160817D01*
X-0002123Y-0160757D01*
X-0002064Y-0160691D01*
X-0001997Y-0160609D01*
X-0001916Y-0160521D01*
X-0001834Y-0160424D01*
X-0001827Y-0160417D01*
X-0001819Y-0160402D01*
X-0001797Y-0160373D01*
X-0001768Y-0160343D01*
X-0001694Y-0160254D01*
X-0001605Y-0160151D01*
X-0001516Y-0160040D01*
X-0001427Y-0159943D01*
X-0001346Y-0159855D01*
X-0001316Y-0159818D01*
X-0001294Y-0159795D01*
X-0001279Y-0159781D01*
X-0001250Y-0159751D01*
X-0001198Y-0159699D01*
X-0001124Y-0159647D01*
X-0001042Y-0159581D01*
X-0000954Y-0159514D01*
X-0000865Y-0159462D01*
X-0000769Y-0159411D01*
X-0000754Y-0159403D01*
X-0000724Y-0159388D01*
X-0000672Y-0159374D01*
X-0000606Y-0159351D01*
X-0000524Y-0159329D01*
X-0000428Y-0159307D01*
X-0000325Y-0159300D01*
X-0000214Y-0159292D01*
X-0000206D01*
X-0000191D01*
X-0000154D01*
X-0000117Y-0159300D01*
D02*
G37*
G36*
X0001000Y-0163769D02*
X-0003736D01*
Y-0162874D01*
X0001000D01*
Y-0163769D01*
D02*
G37*
G36*
Y-0165479D02*
Y-0166352D01*
X-0002056Y-0167218D01*
X0001000Y-0168076D01*
Y-0168927D01*
X-0003736Y-0170000D01*
Y-0169119D01*
X-0000709Y-0168431D01*
X-0003736Y-0167588D01*
Y-0166833D01*
X-0000709Y-0165974D01*
X-0003736Y-0165286D01*
Y-0164406D01*
X0001000Y-0165479D01*
D02*
G37*
%LPC*%
G36*
X-0001046Y0184256D02*
X-0001054D01*
X-0001069D01*
X-0001091D01*
X-0001120Y0184248D01*
X-0001202Y0184241D01*
X-0001305Y0184219D01*
X-0001424Y0184189D01*
X-0001550Y0184137D01*
X-0001668Y0184071D01*
X-0001779Y0183982D01*
X-0001794Y0183967D01*
X-0001823Y0183937D01*
X-0001868Y0183878D01*
X-0001920Y0183797D01*
X-0001971Y0183701D01*
X-0002016Y0183582D01*
X-0002045Y0183442D01*
X-0002060Y0183294D01*
Y0183257D01*
X-0002053Y0183227D01*
X-0002045Y0183153D01*
X-0002023Y0183057D01*
X-0001994Y0182946D01*
X-0001942Y0182835D01*
X-0001868Y0182724D01*
X-0001772Y0182613D01*
X-0001757Y0182598D01*
X-0001720Y0182568D01*
X-0001661Y0182531D01*
X-0001579Y0182480D01*
X-0001468Y0182428D01*
X-0001350Y0182391D01*
X-0001202Y0182361D01*
X-0001046Y0182346D01*
X-0001039D01*
X-0001024D01*
X-0001002D01*
X-0000972Y0182354D01*
X-0000891Y0182361D01*
X-0000787Y0182383D01*
X-0000669Y0182413D01*
X-0000551Y0182457D01*
X-0000425Y0182524D01*
X-0000314Y0182613D01*
X-0000299Y0182628D01*
X-0000269Y0182665D01*
X-0000225Y0182716D01*
X-0000173Y0182798D01*
X-0000121Y0182894D01*
X-0000077Y0183012D01*
X-0000047Y0183146D01*
X-0000033Y0183294D01*
Y0183331D01*
X-0000040Y0183360D01*
X-0000047Y0183442D01*
X-0000070Y0183538D01*
X-0000099Y0183641D01*
X-0000151Y0183760D01*
X-0000218Y0183871D01*
X-0000314Y0183982D01*
X-0000329Y0183997D01*
X-0000366Y0184026D01*
X-0000432Y0184071D01*
X-0000514Y0184122D01*
X-0000617Y0184167D01*
X-0000743Y0184211D01*
X-0000891Y0184241D01*
X-0001046Y0184256D01*
D02*
G37*
G36*
X-0001054Y0177936D02*
X-0001061D01*
X-0001076D01*
X-0001098D01*
X-0001128Y0177929D01*
X-0001217Y0177921D01*
X-0001320Y0177899D01*
X-0001439Y0177869D01*
X-0001557Y0177818D01*
X-0001683Y0177751D01*
X-0001794Y0177662D01*
X-0001809Y0177647D01*
X-0001838Y0177610D01*
X-0001883Y0177551D01*
X-0001942Y0177470D01*
X-0001994Y0177374D01*
X-0002038Y0177255D01*
X-0002068Y0177115D01*
X-0002082Y0176967D01*
Y0176930D01*
X-0002075Y0176900D01*
X-0002068Y0176826D01*
X-0002045Y0176730D01*
X-0002016Y0176619D01*
X-0001964Y0176508D01*
X-0001890Y0176397D01*
X-0001794Y0176286D01*
X-0001779Y0176271D01*
X-0001742Y0176241D01*
X-0001675Y0176204D01*
X-0001594Y0176153D01*
X-0001483Y0176101D01*
X-0001357Y0176064D01*
X-0001217Y0176034D01*
X-0001054Y0176019D01*
X-0001046D01*
X-0001032D01*
X-0001009D01*
X-0000980Y0176027D01*
X-0000898Y0176034D01*
X-0000795Y0176056D01*
X-0000676Y0176086D01*
X-0000551Y0176138D01*
X-0000425Y0176204D01*
X-0000306Y0176293D01*
X-0000292Y0176308D01*
X-0000262Y0176345D01*
X-0000218Y0176404D01*
X-0000166Y0176478D01*
X-0000107Y0176582D01*
X-0000062Y0176693D01*
X-0000033Y0176826D01*
X-0000018Y0176967D01*
Y0177011D01*
X-0000025Y0177041D01*
X-0000033Y0177115D01*
X-0000055Y0177211D01*
X-0000084Y0177322D01*
X-0000136Y0177440D01*
X-0000203Y0177551D01*
X-0000299Y0177662D01*
X-0000314Y0177677D01*
X-0000351Y0177707D01*
X-0000417Y0177751D01*
X-0000499Y0177803D01*
X-0000610Y0177847D01*
X-0000743Y0177892D01*
X-0000891Y0177921D01*
X-0001054Y0177936D01*
D02*
G37*
G36*
X-0001046Y0171602D02*
X-0001054D01*
X-0001069D01*
X-0001091D01*
X-0001120Y0171594D01*
X-0001202Y0171587D01*
X-0001305Y0171565D01*
X-0001424Y0171535D01*
X-0001550Y0171483D01*
X-0001668Y0171417D01*
X-0001779Y0171328D01*
X-0001794Y0171313D01*
X-0001823Y0171283D01*
X-0001868Y0171224D01*
X-0001920Y0171143D01*
X-0001971Y0171047D01*
X-0002016Y0170928D01*
X-0002045Y0170788D01*
X-0002060Y0170640D01*
Y0170603D01*
X-0002053Y0170573D01*
X-0002045Y0170499D01*
X-0002023Y0170403D01*
X-0001994Y0170292D01*
X-0001942Y0170181D01*
X-0001868Y0170070D01*
X-0001772Y0169959D01*
X-0001757Y0169944D01*
X-0001720Y0169914D01*
X-0001661Y0169877D01*
X-0001579Y0169826D01*
X-0001468Y0169774D01*
X-0001350Y0169737D01*
X-0001202Y0169707D01*
X-0001046Y0169692D01*
X-0001039D01*
X-0001024D01*
X-0001002D01*
X-0000972Y0169700D01*
X-0000891Y0169707D01*
X-0000787Y0169729D01*
X-0000669Y0169759D01*
X-0000551Y0169803D01*
X-0000425Y0169870D01*
X-0000314Y0169959D01*
X-0000299Y0169974D01*
X-0000269Y0170011D01*
X-0000225Y0170062D01*
X-0000173Y0170144D01*
X-0000121Y0170240D01*
X-0000077Y0170358D01*
X-0000047Y0170492D01*
X-0000033Y0170640D01*
Y0170677D01*
X-0000040Y0170706D01*
X-0000047Y0170788D01*
X-0000070Y0170884D01*
X-0000099Y0170987D01*
X-0000151Y0171106D01*
X-0000218Y0171217D01*
X-0000314Y0171328D01*
X-0000329Y0171343D01*
X-0000366Y0171372D01*
X-0000432Y0171417D01*
X-0000514Y0171468D01*
X-0000617Y0171513D01*
X-0000743Y0171557D01*
X-0000891Y0171587D01*
X-0001046Y0171602D01*
D02*
G37*
G36*
X-0001054Y0167398D02*
X-0001061D01*
X-0001076D01*
X-0001098D01*
X-0001128Y0167391D01*
X-0001209Y0167384D01*
X-0001313Y0167361D01*
X-0001431Y0167332D01*
X-0001557Y0167280D01*
X-0001683Y0167213D01*
X-0001794Y0167125D01*
X-0001809Y0167110D01*
X-0001838Y0167073D01*
X-0001883Y0167014D01*
X-0001942Y0166940D01*
X-0001994Y0166836D01*
X-0002038Y0166725D01*
X-0002068Y0166592D01*
X-0002082Y0166444D01*
Y0166407D01*
X-0002075Y0166377D01*
X-0002068Y0166296D01*
X-0002045Y0166200D01*
X-0002016Y0166096D01*
X-0001964Y0165978D01*
X-0001890Y0165867D01*
X-0001794Y0165756D01*
X-0001779Y0165741D01*
X-0001742Y0165711D01*
X-0001683Y0165667D01*
X-0001594Y0165622D01*
X-0001490Y0165571D01*
X-0001365Y0165526D01*
X-0001217Y0165497D01*
X-0001054Y0165482D01*
X-0001046D01*
X-0001032D01*
X-0001009D01*
X-0000980Y0165489D01*
X-0000891Y0165497D01*
X-0000787Y0165519D01*
X-0000662Y0165548D01*
X-0000536Y0165600D01*
X-0000417Y0165667D01*
X-0000299Y0165756D01*
X-0000284Y0165770D01*
X-0000255Y0165807D01*
X-0000210Y0165867D01*
X-0000158Y0165948D01*
X-0000107Y0166044D01*
X-0000062Y0166163D01*
X-0000033Y0166296D01*
X-0000018Y0166444D01*
Y0166481D01*
X-0000025Y0166510D01*
X-0000033Y0166584D01*
X-0000055Y0166681D01*
X-0000092Y0166784D01*
X-0000136Y0166895D01*
X-0000210Y0167006D01*
X-0000306Y0167117D01*
X-0000321Y0167132D01*
X-0000358Y0167162D01*
X-0000425Y0167206D01*
X-0000514Y0167258D01*
X-0000617Y0167310D01*
X-0000750Y0167354D01*
X-0000891Y0167384D01*
X-0001054Y0167398D01*
D02*
G37*
G36*
Y0162907D02*
X-0001061D01*
X-0001076D01*
X-0001098D01*
X-0001128Y0162899D01*
X-0001217Y0162892D01*
X-0001320Y0162870D01*
X-0001439Y0162840D01*
X-0001557Y0162788D01*
X-0001683Y0162722D01*
X-0001794Y0162633D01*
X-0001809Y0162618D01*
X-0001838Y0162581D01*
X-0001883Y0162522D01*
X-0001942Y0162440D01*
X-0001994Y0162344D01*
X-0002038Y0162226D01*
X-0002068Y0162085D01*
X-0002082Y0161937D01*
Y0161900D01*
X-0002075Y0161871D01*
X-0002068Y0161797D01*
X-0002045Y0161700D01*
X-0002016Y0161589D01*
X-0001964Y0161478D01*
X-0001890Y0161367D01*
X-0001794Y0161256D01*
X-0001779Y0161242D01*
X-0001742Y0161212D01*
X-0001675Y0161175D01*
X-0001594Y0161123D01*
X-0001483Y0161071D01*
X-0001357Y0161034D01*
X-0001217Y0161005D01*
X-0001054Y0160990D01*
X-0001046D01*
X-0001032D01*
X-0001009D01*
X-0000980Y0160997D01*
X-0000898Y0161005D01*
X-0000795Y0161027D01*
X-0000676Y0161057D01*
X-0000551Y0161108D01*
X-0000425Y0161175D01*
X-0000306Y0161264D01*
X-0000292Y0161279D01*
X-0000262Y0161316D01*
X-0000218Y0161375D01*
X-0000166Y0161449D01*
X-0000107Y0161552D01*
X-0000062Y0161663D01*
X-0000033Y0161797D01*
X-0000018Y0161937D01*
Y0161982D01*
X-0000025Y0162011D01*
X-0000033Y0162085D01*
X-0000055Y0162181D01*
X-0000084Y0162292D01*
X-0000136Y0162411D01*
X-0000203Y0162522D01*
X-0000299Y0162633D01*
X-0000314Y0162648D01*
X-0000351Y0162677D01*
X-0000417Y0162722D01*
X-0000499Y0162773D01*
X-0000610Y0162818D01*
X-0000743Y0162862D01*
X-0000891Y0162892D01*
X-0001054Y0162907D01*
D02*
G37*
G36*
X-0001490Y0144851D02*
X-0001505Y0144843D01*
X-0001542Y0144836D01*
X-0001594Y0144806D01*
X-0001661Y0144777D01*
X-0001735Y0144725D01*
X-0001809Y0144666D01*
X-0001883Y0144592D01*
X-0001957Y0144503D01*
X-0001964Y0144488D01*
X-0001986Y0144458D01*
X-0002016Y0144407D01*
X-0002053Y0144333D01*
X-0002082Y0144251D01*
X-0002112Y0144148D01*
X-0002134Y0144037D01*
X-0002142Y0143911D01*
Y0143852D01*
X-0002134Y0143778D01*
X-0002119Y0143689D01*
X-0002090Y0143593D01*
X-0002053Y0143482D01*
X-0002001Y0143371D01*
X-0001934Y0143267D01*
X-0001927Y0143260D01*
X-0001912Y0143237D01*
X-0001875Y0143208D01*
X-0001831Y0143163D01*
X-0001772Y0143112D01*
X-0001698Y0143060D01*
X-0001601Y0143008D01*
X-0001490Y0142949D01*
Y0144851D01*
D02*
G37*
G36*
X-0001046Y0124545D02*
X-0001054D01*
X-0001069D01*
X-0001091D01*
X-0001120Y0124538D01*
X-0001202Y0124530D01*
X-0001305Y0124508D01*
X-0001424Y0124478D01*
X-0001550Y0124427D01*
X-0001668Y0124360D01*
X-0001779Y0124271D01*
X-0001794Y0124256D01*
X-0001823Y0124227D01*
X-0001868Y0124168D01*
X-0001920Y0124086D01*
X-0001971Y0123990D01*
X-0002016Y0123872D01*
X-0002045Y0123731D01*
X-0002060Y0123583D01*
Y0123546D01*
X-0002053Y0123516D01*
X-0002045Y0123442D01*
X-0002023Y0123346D01*
X-0001994Y0123235D01*
X-0001942Y0123124D01*
X-0001868Y0123013D01*
X-0001772Y0122902D01*
X-0001757Y0122887D01*
X-0001720Y0122858D01*
X-0001661Y0122821D01*
X-0001579Y0122769D01*
X-0001468Y0122717D01*
X-0001350Y0122680D01*
X-0001202Y0122651D01*
X-0001046Y0122636D01*
X-0001039D01*
X-0001024D01*
X-0001002D01*
X-0000972Y0122643D01*
X-0000891Y0122651D01*
X-0000787Y0122673D01*
X-0000669Y0122702D01*
X-0000551Y0122747D01*
X-0000425Y0122813D01*
X-0000314Y0122902D01*
X-0000299Y0122917D01*
X-0000269Y0122954D01*
X-0000225Y0123006D01*
X-0000173Y0123087D01*
X-0000121Y0123183D01*
X-0000077Y0123302D01*
X-0000047Y0123435D01*
X-0000033Y0123583D01*
Y0123620D01*
X-0000040Y0123650D01*
X-0000047Y0123731D01*
X-0000070Y0123827D01*
X-0000099Y0123931D01*
X-0000151Y0124049D01*
X-0000218Y0124160D01*
X-0000314Y0124271D01*
X-0000329Y0124286D01*
X-0000366Y0124316D01*
X-0000432Y0124360D01*
X-0000514Y0124412D01*
X-0000617Y0124456D01*
X-0000743Y0124501D01*
X-0000891Y0124530D01*
X-0001046Y0124545D01*
D02*
G37*
G36*
X-0001490Y0113475D02*
X-0001505Y0113467D01*
X-0001542Y0113460D01*
X-0001594Y0113430D01*
X-0001661Y0113401D01*
X-0001735Y0113349D01*
X-0001809Y0113290D01*
X-0001883Y0113216D01*
X-0001957Y0113127D01*
X-0001964Y0113112D01*
X-0001986Y0113082D01*
X-0002016Y0113031D01*
X-0002053Y0112957D01*
X-0002082Y0112875D01*
X-0002112Y0112772D01*
X-0002134Y0112661D01*
X-0002142Y0112535D01*
Y0112476D01*
X-0002134Y0112402D01*
X-0002119Y0112313D01*
X-0002090Y0112217D01*
X-0002053Y0112106D01*
X-0002001Y0111995D01*
X-0001934Y0111891D01*
X-0001927Y0111884D01*
X-0001912Y0111861D01*
X-0001875Y0111832D01*
X-0001831Y0111787D01*
X-0001772Y0111736D01*
X-0001698Y0111684D01*
X-0001601Y0111632D01*
X-0001490Y0111573D01*
Y0113475D01*
D02*
G37*
G36*
X-0002367Y-0132319D02*
X-0002374D01*
X-0002397D01*
X-0002419Y-0132327D01*
X-0002456D01*
X-0002545Y-0132356D01*
X-0002589Y-0132371D01*
X-0002633Y-0132401D01*
X-0002641D01*
X-0002656Y-0132415D01*
X-0002700Y-0132460D01*
X-0002752Y-0132526D01*
X-0002804Y-0132623D01*
Y-0132630D01*
X-0002811Y-0132652D01*
X-0002818Y-0132682D01*
X-0002833Y-0132734D01*
X-0002841Y-0132800D01*
X-0002848Y-0132889D01*
X-0002855Y-0132993D01*
Y-0133363D01*
X-0001886D01*
Y-0133015D01*
X-0001893Y-0132933D01*
X-0001901Y-0132845D01*
X-0001916Y-0132748D01*
X-0001930Y-0132652D01*
X-0001960Y-0132563D01*
X-0001997Y-0132489D01*
X-0002004Y-0132482D01*
X-0002019Y-0132460D01*
X-0002049Y-0132438D01*
X-0002086Y-0132401D01*
X-0002138Y-0132371D01*
X-0002197Y-0132349D01*
X-0002278Y-0132327D01*
X-0002367Y-0132319D01*
D02*
G37*
G36*
X-0002300Y-0156495D02*
X-0002360D01*
X-0002374D01*
X-0002404D01*
X-0002456Y-0156510D01*
X-0002515Y-0156525D01*
X-0002574Y-0156547D01*
X-0002641Y-0156591D01*
X-0002707Y-0156643D01*
X-0002759Y-0156717D01*
X-0002767Y-0156724D01*
X-0002774Y-0156747D01*
X-0002789Y-0156791D01*
X-0002811Y-0156850D01*
X-0002826Y-0156924D01*
X-0002841Y-0157028D01*
X-0002848Y-0157146D01*
X-0002855Y-0157294D01*
Y-0157546D01*
X-0001886D01*
Y-0157139D01*
X-0001893Y-0157072D01*
X-0001908Y-0156917D01*
X-0001916Y-0156843D01*
X-0001930Y-0156784D01*
Y-0156776D01*
X-0001938Y-0156761D01*
X-0001953Y-0156739D01*
X-0001967Y-0156710D01*
X-0002019Y-0156643D01*
X-0002093Y-0156576D01*
X-0002101Y-0156569D01*
X-0002115Y-0156562D01*
X-0002138Y-0156547D01*
X-0002167Y-0156532D01*
X-0002256Y-0156510D01*
X-0002300Y-0156495D01*
D02*
G37*
%LPD*%
D10*
X0056874Y0027087D02*
G03*
X0056874Y0027087I-0000394J0000000D01*
G01*
D11*
X0016313Y0022393D02*
G03*
X0016313Y0022393I-0000394J0000000D01*
G01*
X0039957Y-0036043D02*
X0057043D01*
X0039957D02*
Y-0028957D01*
X0057043D01*
Y-0036043D02*
Y-0028957D01*
X0058957Y-0031543D02*
X0066043D01*
X0058957D02*
Y0010543D01*
X0066043D01*
Y-0031543D02*
Y0010543D01*
X0019713Y-0024740D02*
X0021287D01*
X0025457Y-0036043D02*
X0037543D01*
X0025457D02*
Y-0028957D01*
X0037543D01*
Y-0036043D02*
Y-0028957D01*
X0028713Y-0004860D02*
X0030287D01*
X0029213Y0007240D02*
X0030787D01*
X0004013Y0003740D02*
X0005587D01*
X0005374Y-0003878D02*
Y-0001122D01*
X0011260Y0000213D02*
Y0001787D01*
Y-0006787D02*
Y-0005213D01*
X0009835Y0010193D02*
X0014165D01*
X0009835Y0035807D02*
X0014165D01*
X0019857Y0009598D02*
X0026943D01*
X0019857Y0021802D02*
X0026943D01*
Y0021606D02*
Y0021802D01*
X0019857Y0021606D02*
Y0021802D01*
X0026943Y0009598D02*
Y0009794D01*
X0019857Y0009598D02*
Y0009794D01*
X0029213Y0033740D02*
X0030787D01*
X0024213Y0026260D02*
X0025787D01*
X0019213Y0033740D02*
X0020787D01*
X0053340Y-0018787D02*
Y-0017213D01*
X0010713Y-0021260D02*
X0012287D01*
X0034513Y-0012340D02*
X0036087D01*
X0044760Y0031713D02*
Y0033287D01*
X0015213Y-0021260D02*
X0016787D01*
X0053340Y-0014887D02*
Y-0013313D01*
X0046260Y-0024087D02*
Y-0022513D01*
X0027425Y-0019957D02*
X0030575D01*
Y-0027043D02*
Y-0019957D01*
X0027425Y-0027043D02*
Y-0019957D01*
Y-0027043D02*
X0030575D01*
X0047131Y0009193D02*
X0050675D01*
X0052249Y0003681D02*
Y0008012D01*
X0050675Y0009193D02*
X0051069D01*
X0052249Y0008012D01*
X0045950D02*
X0047131Y0009193D01*
X0045950Y0003681D02*
Y0008012D01*
X0037354Y-0012410D02*
Y-0001190D01*
X0044047Y-0012410D02*
Y-0001190D01*
X0037354D02*
X0037747D01*
X0037354Y-0012410D02*
X0037747D01*
X0043653Y-0001190D02*
X0044047D01*
X0043653Y-0012410D02*
X0044047D01*
D12*
X0037649Y0000483D02*
G03*
X0037649Y0000483I-0000492J0000000D01*
G01*
D13*
X0019441Y-0012732D02*
X0024559D01*
X0019441Y-0004268D02*
X0024559D01*
Y-0012732D02*
Y-0004268D01*
X0019441Y-0012732D02*
Y-0004268D01*
Y-0000732D02*
X0024559D01*
X0019441Y0007732D02*
X0024559D01*
Y-0000732D02*
Y0007732D01*
X0019441Y-0000732D02*
Y0007732D01*
X0031920Y0019862D02*
X0035070D01*
X0031920Y0018681D02*
Y0019862D01*
X0035070Y0018681D02*
Y0019862D01*
D14*
X0055299Y0023937D02*
Y0026299D01*
X0054512D02*
X0055299D01*
X0042701Y0013701D02*
X0043488D01*
X0042701D02*
Y0016063D01*
Y0023937D02*
Y0026299D01*
X0043488D01*
X0054512Y0013701D02*
X0055299D01*
Y0016063D01*
D15*
X-0003900Y0000000D02*
X0004100D01*
X0022501Y-0036500D02*
Y-0035167D01*
Y-0035834D01*
X0024500D01*
X0023167Y-0034501D02*
X0024500Y-0033168D01*
X0023833Y-0033834D01*
X0023167Y-0033168D01*
X0024500Y-0034501D01*
Y-0032501D02*
X0022501D01*
Y-0031502D01*
X0022834Y-0031168D01*
X0023500D01*
X0023833Y-0031502D01*
Y-0032501D01*
Y-0031835D02*
X0024500Y-0031168D01*
X0023167Y-0030502D02*
X0024500Y-0029169D01*
X0023833Y-0029836D01*
X0023167Y-0029169D01*
X0024500Y-0030502D01*
X0021500Y-0029000D02*
X0019501D01*
Y-0028000D01*
X0019834Y-0027667D01*
X0020500D01*
X0020833Y-0028000D01*
Y-0029000D01*
Y-0028334D02*
X0021500Y-0027667D01*
Y-0025668D02*
Y-0027001D01*
X0020167Y-0025668D01*
X0019834D01*
X0019501Y-0026001D01*
Y-0026667D01*
X0019834Y-0027001D01*
X0047000Y0029999D02*
Y0028333D01*
X0047333Y0028000D01*
X0048000D01*
X0048333Y0028333D01*
Y0029999D01*
X0050332D02*
X0048999D01*
Y0029000D01*
X0049666Y0029333D01*
X0049999D01*
X0050332Y0029000D01*
Y0028333D01*
X0049999Y0028000D01*
X0049333D01*
X0048999Y0028333D01*
X0035501Y-0026000D02*
X0037167D01*
X0037500Y-0025667D01*
Y-0025000D01*
X0037167Y-0024667D01*
X0035501D01*
X0035834Y-0024001D02*
X0035501Y-0023667D01*
Y-0023001D01*
X0035834Y-0022668D01*
X0036167D01*
X0036500Y-0023001D01*
Y-0023334D01*
Y-0023001D01*
X0036834Y-0022668D01*
X0037167D01*
X0037500Y-0023001D01*
Y-0023667D01*
X0037167Y-0024001D01*
X0032000Y0012499D02*
Y0010833D01*
X0032333Y0010500D01*
X0033000D01*
X0033333Y0010833D01*
Y0012499D01*
X0033999Y0010500D02*
X0034666D01*
X0034333D01*
Y0012499D01*
X0033999Y0012166D01*
X0028000Y0034500D02*
Y0036499D01*
X0029000D01*
X0029333Y0036166D01*
Y0035500D01*
X0029000Y0035166D01*
X0028000D01*
X0028666D02*
X0029333Y0034500D01*
X0029999D02*
X0030666D01*
X0030333D01*
Y0036499D01*
X0029999Y0036166D01*
X0031666D02*
X0031999Y0036499D01*
X0032665D01*
X0032998Y0036166D01*
Y0034833D01*
X0032665Y0034500D01*
X0031999D01*
X0031666Y0034833D01*
Y0036166D01*
X0025500Y0023500D02*
Y0025499D01*
X0026500D01*
X0026833Y0025166D01*
Y0024500D01*
X0026500Y0024167D01*
X0025500D01*
X0026166D02*
X0026833Y0023500D01*
X0027499Y0023833D02*
X0027833Y0023500D01*
X0028499D01*
X0028832Y0023833D01*
Y0025166D01*
X0028499Y0025499D01*
X0027833D01*
X0027499Y0025166D01*
Y0024833D01*
X0027833Y0024500D01*
X0028832D01*
X0018000Y0034500D02*
Y0036499D01*
X0019000D01*
X0019333Y0036166D01*
Y0035500D01*
X0019000Y0035166D01*
X0018000D01*
X0018666D02*
X0019333Y0034500D01*
X0019999Y0036166D02*
X0020333Y0036499D01*
X0020999D01*
X0021332Y0036166D01*
Y0035833D01*
X0020999Y0035500D01*
X0021332Y0035166D01*
Y0034833D01*
X0020999Y0034500D01*
X0020333D01*
X0019999Y0034833D01*
Y0035166D01*
X0020333Y0035500D01*
X0019999Y0035833D01*
Y0036166D01*
X0020333Y0035500D02*
X0020999D01*
X0041500Y-0019500D02*
Y-0017501D01*
X0042500D01*
X0042833Y-0017834D01*
Y-0018500D01*
X0042500Y-0018834D01*
X0041500D01*
X0042166D02*
X0042833Y-0019500D01*
X0044832Y-0017501D02*
X0043499D01*
Y-0018500D01*
X0044166Y-0018167D01*
X0044499D01*
X0044832Y-0018500D01*
Y-0019167D01*
X0044499Y-0019500D01*
X0043833D01*
X0043499Y-0019167D01*
X0010500Y-0017000D02*
X0012499D01*
Y-0018000D01*
X0012166Y-0018333D01*
X0011500D01*
X0011167Y-0018000D01*
Y-0017000D01*
Y-0017666D02*
X0010500Y-0018333D01*
X0012166Y-0018999D02*
X0012499Y-0019333D01*
Y-0019999D01*
X0012166Y-0020332D01*
X0011833D01*
X0011500Y-0019999D01*
Y-0019666D01*
Y-0019999D01*
X0011167Y-0020332D01*
X0010833D01*
X0010500Y-0019999D01*
Y-0019333D01*
X0010833Y-0018999D01*
X0036500Y-0016000D02*
X0034501D01*
Y-0015000D01*
X0034834Y-0014667D01*
X0035500D01*
X0035834Y-0015000D01*
Y-0016000D01*
Y-0015334D02*
X0036500Y-0014667D01*
Y-0014001D02*
Y-0013334D01*
Y-0013667D01*
X0034501D01*
X0034834Y-0014001D01*
X0053001Y0003000D02*
X0055000D01*
Y0004333D01*
X0053001Y0006332D02*
Y0004999D01*
X0055000D01*
Y0006332D01*
X0054000Y0004999D02*
Y0005666D01*
X0053001Y0006999D02*
X0055000D01*
Y0007998D01*
X0054667Y0008332D01*
X0053334D01*
X0053001Y0007998D01*
Y0006999D01*
X0055000Y0010331D02*
Y0008998D01*
X0053667Y0010331D01*
X0053334D01*
X0053001Y0009998D01*
Y0009331D01*
X0053334Y0008998D01*
X0007000Y-0005001D02*
Y-0007000D01*
X0008333D01*
X0008999D02*
X0009666D01*
X0009333D01*
Y-0005001D01*
X0008999Y-0005334D01*
X0036201Y0013900D02*
X0038200D01*
Y0014900D01*
X0037867Y0015233D01*
X0036534D01*
X0036201Y0014900D01*
Y0013900D01*
X0038200Y0016899D02*
X0036201D01*
X0037200Y0015899D01*
Y0017232D01*
X0038000Y0005499D02*
Y0003500D01*
X0039000D01*
X0039333Y0003833D01*
Y0005166D01*
X0039000Y0005499D01*
X0038000D01*
X0039999Y0005166D02*
X0040333Y0005499D01*
X0040999D01*
X0041332Y0005166D01*
Y0004833D01*
X0040999Y0004500D01*
X0040666D01*
X0040999D01*
X0041332Y0004166D01*
Y0003833D01*
X0040999Y0003500D01*
X0040333D01*
X0039999Y0003833D01*
X0015500Y-0011001D02*
Y-0013000D01*
X0016500D01*
X0016833Y-0012667D01*
Y-0011334D01*
X0016500Y-0011001D01*
X0015500D01*
X0018832Y-0013000D02*
X0017499D01*
X0018832Y-0011667D01*
Y-0011334D01*
X0018499Y-0011001D01*
X0017833D01*
X0017499Y-0011334D01*
X0016165Y0008499D02*
Y0006499D01*
X0017165D01*
X0017498Y0006833D01*
Y0008166D01*
X0017165Y0008499D01*
X0016165D01*
X0018165Y0006499D02*
X0018831D01*
X0018498D01*
Y0008499D01*
X0018165Y0008166D01*
X0011333Y-0008834D02*
X0011000Y-0008501D01*
X0010333D01*
X0010000Y-0008834D01*
Y-0010167D01*
X0010333Y-0010500D01*
X0011000D01*
X0011333Y-0010167D01*
X0011999Y-0010500D02*
X0012999D01*
X0013332Y-0010167D01*
X0012999Y-0009833D01*
X0012333D01*
X0011999Y-0009500D01*
X0012333Y-0009167D01*
X0013332D01*
X0015332Y-0010500D02*
X0013999D01*
X0015332Y-0009167D01*
Y-0008834D01*
X0014998Y-0008501D01*
X0014332D01*
X0013999Y-0008834D01*
X0012333Y0005666D02*
X0012000Y0005999D01*
X0011333D01*
X0011000Y0005666D01*
Y0004333D01*
X0011333Y0004000D01*
X0012000D01*
X0012333Y0004333D01*
X0012999Y0004000D02*
X0013999D01*
X0014332Y0004333D01*
X0013999Y0004666D01*
X0013333D01*
X0012999Y0005000D01*
X0013333Y0005333D01*
X0014332D01*
X0014999Y0004000D02*
X0015665D01*
X0015332D01*
Y0005999D01*
X0014999Y0005666D01*
X0030166Y-0013333D02*
X0030499Y-0013000D01*
Y-0012333D01*
X0030166Y-0012000D01*
X0028833D01*
X0028500Y-0012333D01*
Y-0013000D01*
X0028833Y-0013333D01*
X0027834Y-0013999D02*
X0029833D01*
Y-0014999D01*
X0029500Y-0015332D01*
X0028833D01*
X0028500Y-0014999D01*
Y-0013999D01*
Y-0017332D02*
Y-0015999D01*
X0029833Y-0017332D01*
X0030166D01*
X0030499Y-0016998D01*
Y-0016332D01*
X0030166Y-0015999D01*
X0034166Y0005167D02*
X0034499Y0005500D01*
Y0006167D01*
X0034166Y0006500D01*
X0032833D01*
X0032500Y0006167D01*
Y0005500D01*
X0032833Y0005167D01*
X0031834Y0004501D02*
X0033833D01*
Y0003501D01*
X0033500Y0003168D01*
X0032833D01*
X0032500Y0003501D01*
Y0004501D01*
Y0002501D02*
Y0001835D01*
Y0002168D01*
X0034499D01*
X0034166Y0002501D01*
X0041833Y0031666D02*
X0041500Y0031999D01*
X0040833D01*
X0040500Y0031666D01*
Y0030333D01*
X0040833Y0030000D01*
X0041500D01*
X0041833Y0030333D01*
X0042499D02*
X0042833Y0030000D01*
X0043499D01*
X0043832Y0030333D01*
Y0031666D01*
X0043499Y0031999D01*
X0042833D01*
X0042499Y0031666D01*
Y0031333D01*
X0042833Y0031000D01*
X0043832D01*
X0015833Y-0018834D02*
X0015500Y-0018501D01*
X0014833D01*
X0014500Y-0018834D01*
Y-0020167D01*
X0014833Y-0020500D01*
X0015500D01*
X0015833Y-0020167D01*
X0016499Y-0018501D02*
X0017832D01*
Y-0018834D01*
X0016499Y-0020167D01*
Y-0020500D01*
X0048833Y-0009834D02*
X0048500Y-0009501D01*
X0047833D01*
X0047500Y-0009834D01*
Y-0011167D01*
X0047833Y-0011500D01*
X0048500D01*
X0048833Y-0011167D01*
X0050832Y-0009501D02*
X0050166Y-0009834D01*
X0049499Y-0010500D01*
Y-0011167D01*
X0049833Y-0011500D01*
X0050499D01*
X0050832Y-0011167D01*
Y-0010834D01*
X0050499Y-0010500D01*
X0049499D01*
X0049333Y-0025334D02*
X0049000Y-0025001D01*
X0048333D01*
X0048000Y-0025334D01*
Y-0026667D01*
X0048333Y-0027000D01*
X0049000D01*
X0049333Y-0026667D01*
X0051332Y-0025001D02*
X0049999D01*
Y-0026000D01*
X0050666Y-0025667D01*
X0050999D01*
X0051332Y-0026000D01*
Y-0026667D01*
X0050999Y-0027000D01*
X0050333D01*
X0049999Y-0026667D01*
X0006834Y0005833D02*
X0006501Y0005500D01*
Y0004833D01*
X0006834Y0004500D01*
X0008167D01*
X0008500Y0004833D01*
Y0005500D01*
X0008167Y0005833D01*
X0008500Y0007499D02*
X0006501D01*
X0007500Y0006499D01*
Y0007832D01*
X0007334Y0015333D02*
X0007001Y0015000D01*
Y0014333D01*
X0007334Y0014000D01*
X0008667D01*
X0009000Y0014333D01*
Y0015000D01*
X0008667Y0015333D01*
X0009000Y0017332D02*
Y0015999D01*
X0007667Y0017332D01*
X0007334D01*
X0007001Y0016999D01*
Y0016333D01*
X0007334Y0015999D01*
Y0029833D02*
X0007001Y0029500D01*
Y0028833D01*
X0007334Y0028500D01*
X0008667D01*
X0009000Y0028833D01*
Y0029500D01*
X0008667Y0029833D01*
X0009000Y0030499D02*
Y0031166D01*
Y0030833D01*
X0007001D01*
X0007334Y0030499D01*
X0063500Y-0034500D02*
Y-0032501D01*
X0064500D01*
X0064833Y-0032834D01*
Y-0033500D01*
X0064500Y-0033834D01*
X0063500D01*
X0065499Y-0034500D02*
X0066166D01*
X0065833D01*
Y-0032501D01*
X0065499Y-0032834D01*
X0060500Y-0036500D02*
X0058501D01*
Y-0035500D01*
X0058834Y-0035167D01*
X0059500D01*
X0059834Y-0035500D01*
Y-0036500D01*
X0060500Y-0033168D02*
Y-0034501D01*
X0059167Y-0033168D01*
X0058834D01*
X0058501Y-0033501D01*
Y-0034167D01*
X0058834Y-0034501D01*
M02*
