G04*
G04 #@! TF.GenerationSoftware,Altium Limited,Altium Designer,21.1.0 (24)*
G04*
G04 Layer_Color=8388736*
%FSAX25Y25*%
%MOIN*%
G70*
G04*
G04 #@! TF.SameCoordinates,64B46316-5E79-497B-94DE-3B570569772B*
G04*
G04*
G04 #@! TF.FilePolarity,Negative*
G04*
G01*
G75*
%ADD28R,0.04537X0.03356*%
%ADD29R,0.02962X0.02568*%
%ADD30R,0.02962X0.04143*%
%ADD31R,0.02568X0.02962*%
%ADD32R,0.05718X0.03356*%
%ADD33R,0.03750X0.01781*%
%ADD34R,0.01781X0.04242*%
%ADD35R,0.05403X0.03041*%
%ADD36R,0.02175X0.02175*%
%ADD37R,0.04222X0.02175*%
%ADD38R,0.04537X0.04931*%
%ADD39R,0.03356X0.05324*%
%ADD40R,0.04537X0.04537*%
%ADD41C,0.04537*%
%ADD42R,0.04537X0.04537*%
%ADD43C,0.08474*%
D28*
X0026035Y-0011059D02*
D03*
Y-0005941D02*
D03*
X0017965Y-0008500D02*
D03*
X0026035Y0000941D02*
D03*
Y0006059D02*
D03*
X0017965Y0003500D02*
D03*
D29*
X0020500Y-0022968D02*
D03*
Y-0019031D02*
D03*
X0029500Y-0006632D02*
D03*
Y-0010569D02*
D03*
X0030000Y0005469D02*
D03*
Y0001531D02*
D03*
X0004800Y0001969D02*
D03*
Y-0001969D02*
D03*
X0030000Y0031969D02*
D03*
Y0028032D02*
D03*
X0025000Y0028032D02*
D03*
Y0031969D02*
D03*
X0020000Y0031969D02*
D03*
Y0028032D02*
D03*
X0011500Y-0023031D02*
D03*
Y-0026969D02*
D03*
X0035300Y-0010569D02*
D03*
Y-0006632D02*
D03*
X0016000Y-0023031D02*
D03*
Y-0026969D02*
D03*
D30*
X0012756Y-0002500D02*
D03*
X0007244D02*
D03*
D31*
X0013032Y0001000D02*
D03*
X0016969D02*
D03*
X0013032Y-0006000D02*
D03*
X0016969D02*
D03*
X0051569Y-0018000D02*
D03*
X0047631D02*
D03*
X0046532Y0032500D02*
D03*
X0050468D02*
D03*
X0051569Y-0014100D02*
D03*
X0047631D02*
D03*
X0048031Y-0023300D02*
D03*
X0051968D02*
D03*
D32*
X0012000Y0012260D02*
D03*
Y0019740D02*
D03*
Y0033740D02*
D03*
Y0026260D02*
D03*
D33*
X0054020Y0021969D02*
D03*
Y0020000D02*
D03*
Y0018032D02*
D03*
X0043980D02*
D03*
Y0020000D02*
D03*
Y0021969D02*
D03*
D34*
X0052937Y0014882D02*
D03*
X0050968D02*
D03*
X0049000D02*
D03*
X0047032D02*
D03*
X0045063D02*
D03*
Y0025118D02*
D03*
X0047032D02*
D03*
X0049000D02*
D03*
X0050968D02*
D03*
X0052937D02*
D03*
D35*
X0028558Y0019440D02*
D03*
Y0011960D02*
D03*
X0018243D02*
D03*
Y0015700D02*
D03*
Y0019440D02*
D03*
D36*
X0033500Y0014744D02*
D03*
Y0020256D02*
D03*
D37*
X0032740Y-0026059D02*
D03*
Y-0023500D02*
D03*
Y-0020941D02*
D03*
X0025260D02*
D03*
Y-0026059D02*
D03*
D38*
X0049100Y-0000846D02*
D03*
Y0005846D02*
D03*
D39*
X0040700Y-0014084D02*
D03*
Y0000483D02*
D03*
D40*
X0043500Y-0032500D02*
D03*
X0029000D02*
D03*
D41*
X0048500D02*
D03*
X0053500D02*
D03*
X0062500Y-0023000D02*
D03*
Y-0018000D02*
D03*
Y-0013000D02*
D03*
Y-0008000D02*
D03*
Y-0003000D02*
D03*
Y0002000D02*
D03*
Y0007000D02*
D03*
X0034000Y-0032500D02*
D03*
X0062500Y0020300D02*
D03*
Y0025300D02*
D03*
Y0030300D02*
D03*
D42*
X0062500Y-0028000D02*
D03*
X0062500Y0015300D02*
D03*
D43*
X0000100Y-0007071D02*
D03*
Y0007071D02*
D03*
M02*
