G04*
G04 #@! TF.GenerationSoftware,Altium Limited,Altium Designer,21.1.0 (24)*
G04*
G04 Layer_Physical_Order=4*
G04 Layer_Color=16711680*
%FSAX25Y25*%
%MOIN*%
G70*
G04*
G04 #@! TF.SameCoordinates,64B46316-5E79-497B-94DE-3B570569772B*
G04*
G04*
G04 #@! TF.FilePolarity,Positive*
G04*
G01*
G75*
%ADD10C,0.01000*%
%ADD17R,0.02362X0.01968*%
%ADD19R,0.01968X0.02362*%
%ADD25R,0.03622X0.01575*%
%ADD26R,0.03937X0.04331*%
%ADD45C,0.01181*%
%ADD47C,0.01500*%
%ADD49C,0.01575*%
%ADD56R,0.03937X0.03937*%
%ADD57C,0.03937*%
%ADD58R,0.03937X0.03937*%
%ADD59C,0.07874*%
%ADD60C,0.02500*%
%ADD61C,0.03300*%
%ADD62C,0.01200*%
%ADD63R,0.16142X0.16142*%
%ADD64R,0.01102X0.03347*%
%ADD65R,0.03347X0.01102*%
%ADD66R,0.03937X0.07087*%
%ADD67R,0.01181X0.01882*%
%ADD68R,0.03622X0.02362*%
%ADD69R,0.03347X0.02362*%
%ADD70C,0.01024*%
G36*
X0003200Y-0009550D02*
X0006200Y-0005327D01*
Y-0001050D01*
X0001700D01*
X-0002500Y-0004150D01*
X-0003800Y-0006650D01*
X-0003200Y-0009250D01*
X-0001800Y-0010450D01*
X0000000Y-0011050D01*
X0001800Y-0010650D01*
X0003200Y-0009550D01*
D02*
G37*
G36*
Y0009500D02*
X0006200Y0005277D01*
Y0001000D01*
X0001700D01*
X-0002500Y0004100D01*
X-0003800Y0006600D01*
X-0003200Y0009200D01*
X-0001800Y0010400D01*
X0000000Y0011000D01*
X0001800Y0010600D01*
X0003200Y0009500D01*
D02*
G37*
D10*
X0043500Y-0032500D02*
Y-0031000D01*
X0046500Y-0028000D01*
X0047500D01*
X0049731Y-0025769D01*
X0050800D01*
X0042543Y-0028957D02*
X0047032Y-0024468D01*
X0019968Y-0028957D02*
X0042543D01*
X0019000Y-0027989D02*
X0019968Y-0028957D01*
X0050964Y0023704D02*
X0052700Y0021969D01*
X0056000D01*
X0046685Y0028969D02*
X0047500Y0028153D01*
Y0027000D02*
Y0028153D01*
X0053500Y0034969D02*
X0056968D01*
X0048154Y0034346D02*
X0051468Y0031032D01*
X0053000D01*
X0058000Y0028500D02*
X0059800Y0030300D01*
X0054500Y0028500D02*
X0058000D01*
X0052666Y0026666D02*
X0054500Y0028500D01*
X0052666Y0025405D02*
Y0026666D01*
X0059800Y0030300D02*
X0062500D01*
X0050964Y0023704D02*
X0052666Y0025405D01*
X0043100Y0025032D02*
X0044427Y0023704D01*
X0042000Y0025032D02*
X0043100D01*
X0042000Y0028969D02*
X0046685D01*
X0042000D02*
Y0034600D01*
X0040031Y0028969D02*
X0041969D01*
X0039231Y0029769D02*
X0040031Y0028969D01*
X0032969Y0029769D02*
X0039231D01*
X0032000Y0028800D02*
X0032969Y0029769D01*
X0053668Y0015700D02*
X0056000Y0018032D01*
X0046000Y0015700D02*
X0053668D01*
X0043658Y0013358D02*
X0046000Y0015700D01*
X0059800Y0020300D02*
X0062500D01*
X0057531Y0018032D02*
X0059800Y0020300D01*
X0056000Y0018032D02*
X0057531D01*
X0016000Y-0016000D02*
Y-0014500D01*
X0017373Y-0013127D01*
X0021119D01*
X0035784Y-0018784D02*
Y-0015981D01*
Y-0018784D02*
X0037500Y-0020500D01*
X0027910Y-0019090D02*
Y-0015981D01*
X0023500Y-0023500D02*
X0027910Y-0019090D01*
X0022579Y-0023500D02*
X0023500D01*
X0032421D02*
Y-0021421D01*
X0029879Y-0018879D02*
X0032421Y-0021421D01*
X0029879Y-0018879D02*
Y-0015981D01*
X0022019D02*
X0023973D01*
X0019000Y-0019000D02*
X0022019Y-0015981D01*
X0019000Y-0027989D02*
Y-0019000D01*
X0047032Y-0024468D02*
Y-0021832D01*
X0049450Y-0021900D02*
X0052900D01*
X0054500Y-0023500D01*
Y-0027000D02*
Y-0023500D01*
Y-0027000D02*
X0059500Y-0032000D01*
X0064900D01*
X0047032Y-0021832D02*
X0050800D01*
X0065800Y-0023100D02*
Y0027000D01*
X0062500Y0030300D02*
X0065800Y0027000D01*
X0045627Y-0020427D02*
X0047032Y-0021832D01*
X0045627Y-0020427D02*
Y-0015981D01*
X0031847D02*
Y-0010653D01*
X0044427Y0023704D02*
X0050964D01*
X0030300Y0020700D02*
X0034800Y0025200D01*
X0030300Y0015600D02*
Y0020700D01*
X0034800Y0025200D02*
Y0027100D01*
X0023610Y0004590D02*
X0024700Y0003500D01*
Y-0002400D02*
Y0003500D01*
X0018031Y0020731D02*
X0019532Y0022232D01*
Y0026288D01*
X0015500Y0022134D02*
X0017000Y0023634D01*
X0015500Y0018000D02*
Y0022134D01*
Y0018000D02*
X0016300Y0017200D01*
X0023000D01*
X0024000Y0016200D01*
X0044800Y-0010800D02*
Y-0009200D01*
X0043600Y-0012000D02*
X0044800Y-0010800D01*
X0041500Y-0012000D02*
X0043600D01*
X0037753Y-0015981D02*
Y-0013553D01*
X0034700Y-0010500D02*
X0037753Y-0013553D01*
X0032000Y-0010500D02*
X0034700D01*
X0039721Y-0013779D02*
X0041500Y-0012000D01*
X0039721Y-0015981D02*
Y-0013779D01*
X0032800Y0015600D02*
X0033816Y0014584D01*
X0032800Y0015600D02*
Y0017500D01*
X0033816Y0011381D02*
Y0014584D01*
X0021119Y0004590D02*
X0023610D01*
X0018031Y0020000D02*
Y0020731D01*
X0048481Y0000653D02*
X0052647D01*
X0053100Y0000200D01*
X0048481Y0008527D02*
X0050293D01*
X0039700Y0011402D02*
X0039721Y0011381D01*
X0032800Y0017500D02*
X0032900D01*
X0039721Y0018321D02*
X0040400Y0019000D01*
X0040300Y-0023000D02*
Y-0019536D01*
X0041690Y-0018146D01*
Y-0015981D01*
X0043658Y-0022842D02*
Y-0015981D01*
X0043500Y-0023000D02*
X0043658Y-0022842D01*
X0053100Y0000200D02*
X0053200D01*
X0053300Y0000300D01*
X0017000Y0023634D02*
Y0027300D01*
X0016900Y0027400D02*
X0017000Y0027300D01*
X0039721Y0011381D02*
Y0018321D01*
X0035784Y0021684D02*
X0036100Y0022000D01*
X0035784Y0011381D02*
Y0021684D01*
X0023973Y0011381D02*
Y0016173D01*
X0024000Y0016200D01*
X0062600Y-0023100D02*
X0065800D01*
X0064900Y-0032000D02*
X0065800Y-0031100D01*
Y-0023100D01*
X0059300Y-0009800D02*
X0062600Y-0013100D01*
X0059300Y-0009800D02*
Y-0008000D01*
X0054262Y-0002062D02*
X0054800Y-0002600D01*
X0045627Y0011381D02*
X0052919D01*
X0050293Y0008527D02*
X0052019Y0006800D01*
X0054649D01*
X0056750Y-0011150D02*
X0057900Y-0012300D01*
X0048481Y0004590D02*
X0054596D01*
X0052919Y0011381D02*
X0062500Y0001800D01*
X0048481Y-0009190D02*
X0050490D01*
X0052450Y-0011150D01*
X0056750D01*
X0054273Y0002650D02*
X0055650Y0001273D01*
X0048481Y0002650D02*
X0054273D01*
X0054173Y-0002150D02*
X0054262Y-0002062D01*
X0054596Y0004590D02*
X0057250Y0001936D01*
X0055650Y-0000250D02*
Y0001273D01*
X0048481Y-0001316D02*
X0051416D01*
X0052700Y-0002600D01*
X0054800D01*
X0054350Y-0005050D02*
X0055300Y-0006000D01*
X0043658Y0011381D02*
Y0013358D01*
X0037753Y0011381D02*
Y0020188D01*
X0039300Y0021735D01*
Y0021900D01*
X0027846Y0014254D02*
X0028959D01*
X0026500Y0015600D02*
X0027846Y0014254D01*
X0019532Y0022232D02*
X0021450Y0024150D01*
Y0024815D01*
X0021550Y0024915D01*
Y0026288D01*
X0029076Y0028800D02*
X0032000D01*
X0041690Y0008310D02*
Y0011381D01*
Y0008310D02*
X0042700Y0007300D01*
X0044800D01*
X0030300Y0015600D02*
X0031847Y0014053D01*
Y0011381D02*
Y0014053D01*
X0028959Y0014254D02*
X0029879Y0013334D01*
Y0011381D02*
Y0013334D01*
X0057650Y-0006350D02*
X0059300Y-0008000D01*
X0048481Y-0005253D02*
X0049953D01*
X0050170Y-0005470D01*
X0050651D01*
X0051354Y-0006173D01*
Y-0006654D02*
Y-0006173D01*
Y-0006654D02*
X0052600Y-0007900D01*
X0048481Y-0003284D02*
X0050870D01*
X0052636Y-0005050D01*
X0054350D01*
X0055650Y-0000250D02*
X0055773D01*
X0057650Y-0002127D01*
Y-0006350D02*
Y-0002127D01*
X0057250Y0000536D02*
Y0001936D01*
Y0000536D02*
X0059250Y-0001464D01*
Y-0004750D02*
Y-0001464D01*
Y-0004750D02*
X0062500Y-0008000D01*
X0062600Y-0008100D02*
Y-0007440D01*
X0059000Y0001161D02*
X0062600Y-0002440D01*
X0059000Y0001161D02*
Y0002449D01*
X0054649Y0006800D02*
X0059000Y0002449D01*
X0062500Y-0003500D02*
Y-0003000D01*
Y-0002540D01*
X0062600Y-0002440D01*
D17*
X0056000Y0018032D02*
D03*
Y0021969D02*
D03*
X0054000Y0031032D02*
D03*
Y0034969D02*
D03*
X0050800Y-0025769D02*
D03*
Y-0021832D02*
D03*
X0042500Y0028969D02*
D03*
Y0025032D02*
D03*
D19*
X0021969Y0020000D02*
D03*
X0018032D02*
D03*
D25*
X0011802Y-0002614D02*
D03*
Y0002504D02*
D03*
X0003535Y-0002614D02*
D03*
D26*
X0048000Y0034346D02*
D03*
Y0027654D02*
D03*
D45*
X0023469Y0024231D02*
Y0026288D01*
D47*
X0041900Y0025131D02*
X0042000Y0025032D01*
X0039296Y0025131D02*
X0041900D01*
X0016812Y0031312D02*
X0019532D01*
X0021969Y0021869D02*
X0023900Y0023800D01*
X0021969Y0020000D02*
Y0021869D01*
X0029076Y0032540D02*
X0038524D01*
D49*
X0011802Y-0002614D02*
Y0002504D01*
Y-0002614D02*
X0016686D01*
X0016900Y-0002400D01*
D56*
X0043500Y-0032500D02*
D03*
X0029000D02*
D03*
D57*
X0048500D02*
D03*
X0053500D02*
D03*
X0062500Y-0023000D02*
D03*
Y-0018000D02*
D03*
Y-0013000D02*
D03*
Y-0008000D02*
D03*
Y-0003000D02*
D03*
Y0002000D02*
D03*
Y0007000D02*
D03*
X0034000Y-0032500D02*
D03*
X0062500Y0020300D02*
D03*
Y0025300D02*
D03*
Y0030300D02*
D03*
D58*
X0062500Y-0028000D02*
D03*
X0062500Y0015300D02*
D03*
D59*
X0000100Y-0007071D02*
D03*
Y0007071D02*
D03*
D60*
X0016900Y0027400D02*
D03*
X0057000Y0035000D02*
D03*
X0029000Y-0023500D02*
D03*
X0016000Y-0031500D02*
D03*
X0037500Y-0020500D02*
D03*
X0050600Y0018800D02*
D03*
X0024700Y-0002400D02*
D03*
X0016686Y-0002614D02*
D03*
X0040300Y-0023000D02*
D03*
X0025200Y0035100D02*
D03*
X0016500Y0031000D02*
D03*
X0042000Y0034600D02*
D03*
X0023900Y0023800D02*
D03*
X0055500Y0025100D02*
D03*
X0044800Y0007300D02*
D03*
X0043500Y-0023000D02*
D03*
X0034800Y0027100D02*
D03*
X0047700Y0020800D02*
D03*
X0032900Y0017500D02*
D03*
X0026500Y0015600D02*
D03*
X0042300D02*
D03*
X0040400Y0019000D02*
D03*
X0039300Y0021900D02*
D03*
X0036100Y0022000D02*
D03*
X0054800Y-0016600D02*
D03*
X0058000Y-0012200D02*
D03*
X0053300Y0000300D02*
D03*
X0032000Y-0010500D02*
D03*
X0029500Y-0001000D02*
D03*
X0043700Y0004200D02*
D03*
X0052600Y-0007900D02*
D03*
X0044800Y-0009200D02*
D03*
X0044900Y-0000400D02*
D03*
X0016000Y-0016000D02*
D03*
X0054800Y-0002600D02*
D03*
X0055300Y-0006000D02*
D03*
D61*
X0058000Y-0019300D02*
D03*
D62*
X0023900Y0023800D02*
X0025469Y0025369D01*
Y0025391D01*
X0028745D02*
X0029076Y0025060D01*
X0025469Y0025391D02*
X0028745D01*
X0026040Y0032640D02*
X0028576D01*
X0025469Y0032069D02*
X0026040Y0032640D01*
X0025469Y0025391D02*
Y0032069D01*
X0021500Y0029300D02*
Y0031312D01*
X0020900Y0028700D02*
X0021500Y0029300D01*
X0018200Y0028700D02*
X0020900D01*
X0016900Y0027400D02*
X0018200Y0028700D01*
X0023469Y0031312D02*
Y0033369D01*
X0025200Y0035100D01*
D63*
X0034800Y-0002300D02*
D03*
D64*
X0023973Y-0015981D02*
D03*
X0025942D02*
D03*
X0027910D02*
D03*
X0029879D02*
D03*
X0031847D02*
D03*
X0033816D02*
D03*
X0035784D02*
D03*
X0037753D02*
D03*
X0039721D02*
D03*
X0041690D02*
D03*
X0043658D02*
D03*
X0045627D02*
D03*
Y0011381D02*
D03*
X0043658D02*
D03*
X0041690D02*
D03*
X0039721D02*
D03*
X0037753D02*
D03*
X0035784D02*
D03*
X0033816D02*
D03*
X0031847D02*
D03*
X0029879D02*
D03*
X0027910D02*
D03*
X0025942D02*
D03*
X0023973D02*
D03*
D65*
X0048481Y-0013127D02*
D03*
Y-0011158D02*
D03*
Y-0009190D02*
D03*
Y-0007221D02*
D03*
Y-0005253D02*
D03*
Y-0003284D02*
D03*
Y-0001316D02*
D03*
Y0000653D02*
D03*
Y0002621D02*
D03*
Y0004590D02*
D03*
Y0006558D02*
D03*
Y0008527D02*
D03*
X0021119D02*
D03*
Y0006558D02*
D03*
Y0004590D02*
D03*
Y0002621D02*
D03*
Y0000653D02*
D03*
Y-0001316D02*
D03*
Y-0003284D02*
D03*
Y-0005253D02*
D03*
Y-0007221D02*
D03*
Y-0009190D02*
D03*
Y-0011158D02*
D03*
Y-0013127D02*
D03*
D66*
X0023079Y-0023500D02*
D03*
X0032921D02*
D03*
D67*
X0019532Y0031312D02*
D03*
X0021500D02*
D03*
X0023469D02*
D03*
X0019532Y0026288D02*
D03*
X0021500D02*
D03*
X0023469D02*
D03*
D68*
X0003500Y0002300D02*
D03*
D69*
X0029076Y0025060D02*
D03*
Y0028800D02*
D03*
Y0032540D02*
D03*
X0038524D02*
D03*
Y0025060D02*
D03*
D70*
X0062500Y-0028000D02*
X0062600Y-0028100D01*
X0052300Y-0017800D02*
X0062500Y-0028000D01*
X0052300Y-0017800D02*
Y-0014400D01*
X0029000Y-0010500D02*
X0032000D01*
X0026009Y-0013491D02*
X0029000Y-0010500D01*
X0026009Y-0015914D02*
Y-0013491D01*
X0048481Y-0013127D02*
X0051027D01*
X0052300Y-0014400D01*
M02*
