G04*
G04 #@! TF.GenerationSoftware,Altium Limited,Altium Designer,21.1.0 (24)*
G04*
G04 Layer_Color=32896*
%FSAX25Y25*%
%MOIN*%
G70*
G04*
G04 #@! TF.SameCoordinates,64B46316-5E79-497B-94DE-3B570569772B*
G04*
G04*
G04 #@! TF.FilePolarity,Positive*
G04*
G01*
G75*
%ADD10C,0.01000*%
%ADD11C,0.00787*%
%ADD12C,0.00984*%
%ADD15C,0.00500*%
%ADD80C,0.00700*%
G36*
X-0000913Y0190493D02*
X-0000787Y0190485D01*
X-0000662Y0190478D01*
X-0000558Y0190463D01*
X-0000454Y0190448D01*
X-0000366Y0190433D01*
X-0000292Y0190419D01*
X-0000225Y0190404D01*
X-0000166Y0190389D01*
X-0000114Y0190374D01*
X-0000070Y0190359D01*
X-0000040Y0190352D01*
X-0000018Y0190345D01*
X-0000010Y0190337D01*
X-0000003D01*
X0000123Y0190271D01*
X0000241Y0190182D01*
X0000337Y0190093D01*
X0000426Y0190004D01*
X0000493Y0189923D01*
X0000545Y0189856D01*
X0000574Y0189812D01*
X0000589Y0189804D01*
Y0189797D01*
X0000663Y0189649D01*
X0000722Y0189494D01*
X0000759Y0189346D01*
X0000789Y0189205D01*
X0000804Y0189087D01*
X0000811Y0189035D01*
Y0188990D01*
X0000818Y0188953D01*
Y0188902D01*
X0000811Y0188761D01*
X0000796Y0188628D01*
X0000781Y0188509D01*
X0000759Y0188413D01*
X0000737Y0188324D01*
X0000715Y0188265D01*
X0000707Y0188228D01*
X0000700Y0188213D01*
X0000648Y0188102D01*
X0000589Y0188006D01*
X0000522Y0187917D01*
X0000463Y0187836D01*
X0000404Y0187777D01*
X0000360Y0187725D01*
X0000330Y0187695D01*
X0000315Y0187688D01*
X0000219Y0187607D01*
X0000123Y0187540D01*
X0000034Y0187488D01*
X-0000047Y0187444D01*
X-0000114Y0187414D01*
X-0000173Y0187392D01*
X-0000203Y0187385D01*
X-0000218Y0187377D01*
X-0000277Y0187362D01*
X-0000336Y0187348D01*
X-0000491Y0187333D01*
X-0000654Y0187318D01*
X-0000817Y0187303D01*
X-0000965D01*
X-0001032Y0187296D01*
X-0001091D01*
X-0001143D01*
X-0001180D01*
X-0001202D01*
X-0001209D01*
X-0004036D01*
Y0188191D01*
X-0001083D01*
X-0000921D01*
X-0000780Y0188206D01*
X-0000669Y0188213D01*
X-0000588Y0188228D01*
X-0000521Y0188243D01*
X-0000477Y0188250D01*
X-0000447Y0188265D01*
X-0000440D01*
X-0000380Y0188295D01*
X-0000321Y0188332D01*
X-0000277Y0188369D01*
X-0000232Y0188413D01*
X-0000203Y0188450D01*
X-0000181Y0188480D01*
X-0000166Y0188502D01*
X-0000158Y0188509D01*
X-0000121Y0188576D01*
X-0000099Y0188643D01*
X-0000077Y0188709D01*
X-0000070Y0188776D01*
X-0000062Y0188835D01*
X-0000055Y0188879D01*
Y0188916D01*
X-0000062Y0188998D01*
X-0000070Y0189072D01*
X-0000084Y0189138D01*
X-0000107Y0189198D01*
X-0000121Y0189242D01*
X-0000136Y0189279D01*
X-0000144Y0189301D01*
X-0000151Y0189309D01*
X-0000188Y0189368D01*
X-0000232Y0189412D01*
X-0000277Y0189449D01*
X-0000314Y0189486D01*
X-0000351Y0189508D01*
X-0000380Y0189523D01*
X-0000403Y0189538D01*
X-0000410D01*
X-0000484Y0189560D01*
X-0000565Y0189575D01*
X-0000662Y0189590D01*
X-0000750Y0189597D01*
X-0000839D01*
X-0000906Y0189605D01*
X-0000935D01*
X-0000958D01*
X-0000965D01*
X-0000972D01*
X-0004036D01*
Y0190500D01*
X-0001209D01*
X-0001054D01*
X-0000913Y0190493D01*
D02*
G37*
G36*
X0000700Y0185542D02*
Y0184691D01*
X-0002356Y0183833D01*
X0000700Y0182967D01*
Y0182094D01*
X-0004036Y0181021D01*
Y0181901D01*
X-0001009Y0182589D01*
X-0004036Y0183448D01*
Y0184203D01*
X-0001009Y0185046D01*
X-0004036Y0185734D01*
Y0186615D01*
X0000700Y0185542D01*
D02*
G37*
G36*
X-0000025Y0178778D02*
X0000138Y0178667D01*
X0000271Y0178564D01*
X0000382Y0178460D01*
X0000463Y0178379D01*
X0000530Y0178305D01*
X0000559Y0178260D01*
X0000574Y0178253D01*
Y0178246D01*
X0000656Y0178098D01*
X0000715Y0177950D01*
X0000759Y0177802D01*
X0000789Y0177661D01*
X0000804Y0177543D01*
X0000811Y0177491D01*
Y0177446D01*
X0000818Y0177417D01*
Y0177365D01*
X0000811Y0177247D01*
X0000804Y0177136D01*
X0000759Y0176928D01*
X0000700Y0176743D01*
X0000663Y0176669D01*
X0000626Y0176595D01*
X0000596Y0176529D01*
X0000559Y0176477D01*
X0000530Y0176425D01*
X0000500Y0176388D01*
X0000478Y0176359D01*
X0000456Y0176329D01*
X0000448Y0176322D01*
X0000441Y0176314D01*
X0000367Y0176240D01*
X0000293Y0176181D01*
X0000212Y0176122D01*
X0000130Y0176077D01*
X-0000025Y0176003D01*
X-0000181Y0175959D01*
X-0000314Y0175929D01*
X-0000366Y0175922D01*
X-0000417Y0175915D01*
X-0000454Y0175907D01*
X-0000491D01*
X-0000506D01*
X-0000514D01*
X-0000625Y0175915D01*
X-0000728Y0175922D01*
X-0000824Y0175944D01*
X-0000906Y0175966D01*
X-0000972Y0175989D01*
X-0001024Y0176003D01*
X-0001054Y0176018D01*
X-0001069Y0176026D01*
X-0001165Y0176077D01*
X-0001254Y0176129D01*
X-0001342Y0176196D01*
X-0001424Y0176262D01*
X-0001498Y0176314D01*
X-0001550Y0176366D01*
X-0001579Y0176396D01*
X-0001594Y0176410D01*
X-0001616Y0176433D01*
X-0001646Y0176470D01*
X-0001727Y0176558D01*
X-0001816Y0176655D01*
X-0001905Y0176766D01*
X-0001994Y0176869D01*
X-0002068Y0176958D01*
X-0002097Y0176988D01*
X-0002119Y0177017D01*
X-0002127Y0177032D01*
X-0002134Y0177039D01*
X-0002216Y0177136D01*
X-0002297Y0177224D01*
X-0002364Y0177306D01*
X-0002423Y0177372D01*
X-0002482Y0177432D01*
X-0002534Y0177491D01*
X-0002615Y0177572D01*
X-0002674Y0177631D01*
X-0002711Y0177668D01*
X-0002734Y0177691D01*
X-0002741Y0177698D01*
X-0002822Y0177742D01*
X-0002896Y0177765D01*
X-0002926D01*
X-0002948Y0177772D01*
X-0002963D01*
X-0002970D01*
X-0003015Y0177765D01*
X-0003052Y0177757D01*
X-0003126Y0177713D01*
X-0003170Y0177676D01*
X-0003178Y0177668D01*
X-0003185Y0177661D01*
X-0003215Y0177617D01*
X-0003244Y0177572D01*
X-0003266Y0177476D01*
X-0003274Y0177432D01*
X-0003281Y0177402D01*
Y0177372D01*
X-0003274Y0177306D01*
X-0003259Y0177239D01*
X-0003237Y0177173D01*
X-0003207Y0177106D01*
X-0003126Y0176988D01*
X-0003037Y0176884D01*
X-0002948Y0176788D01*
X-0002867Y0176721D01*
X-0002837Y0176699D01*
X-0002815Y0176677D01*
X-0002800Y0176669D01*
X-0002793Y0176662D01*
X-0003385Y0175989D01*
X-0003533Y0176129D01*
X-0003666Y0176255D01*
X-0003770Y0176373D01*
X-0003851Y0176484D01*
X-0003910Y0176566D01*
X-0003955Y0176632D01*
X-0003977Y0176677D01*
X-0003984Y0176684D01*
Y0176692D01*
X-0004043Y0176810D01*
X-0004080Y0176928D01*
X-0004110Y0177047D01*
X-0004132Y0177150D01*
X-0004147Y0177239D01*
X-0004154Y0177306D01*
Y0177365D01*
X-0004147Y0177469D01*
X-0004140Y0177565D01*
X-0004103Y0177742D01*
X-0004043Y0177898D01*
X-0003977Y0178031D01*
X-0003910Y0178142D01*
X-0003881Y0178186D01*
X-0003858Y0178223D01*
X-0003829Y0178253D01*
X-0003814Y0178275D01*
X-0003807Y0178283D01*
X-0003799Y0178290D01*
X-0003733Y0178357D01*
X-0003659Y0178408D01*
X-0003592Y0178460D01*
X-0003518Y0178505D01*
X-0003377Y0178571D01*
X-0003244Y0178616D01*
X-0003126Y0178638D01*
X-0003081Y0178645D01*
X-0003037Y0178653D01*
X-0003000Y0178660D01*
X-0002978D01*
X-0002963D01*
X-0002956D01*
X-0002830Y0178653D01*
X-0002704Y0178623D01*
X-0002586Y0178586D01*
X-0002482Y0178549D01*
X-0002393Y0178505D01*
X-0002327Y0178475D01*
X-0002282Y0178445D01*
X-0002275Y0178438D01*
X-0002267D01*
X-0002201Y0178394D01*
X-0002127Y0178334D01*
X-0002053Y0178260D01*
X-0001971Y0178186D01*
X-0001809Y0178024D01*
X-0001653Y0177853D01*
X-0001513Y0177698D01*
X-0001453Y0177624D01*
X-0001402Y0177565D01*
X-0001357Y0177513D01*
X-0001328Y0177476D01*
X-0001305Y0177446D01*
X-0001298Y0177439D01*
X-0001180Y0177298D01*
X-0001083Y0177187D01*
X-0000995Y0177099D01*
X-0000928Y0177032D01*
X-0000869Y0176980D01*
X-0000832Y0176943D01*
X-0000810Y0176928D01*
X-0000802Y0176921D01*
X-0000743Y0176877D01*
X-0000684Y0176847D01*
X-0000632Y0176825D01*
X-0000588Y0176810D01*
X-0000543Y0176803D01*
X-0000514Y0176795D01*
X-0000491D01*
X-0000484D01*
X-0000417Y0176803D01*
X-0000358Y0176817D01*
X-0000306Y0176847D01*
X-0000262Y0176877D01*
X-0000225Y0176906D01*
X-0000195Y0176936D01*
X-0000181Y0176951D01*
X-0000173Y0176958D01*
X-0000129Y0177017D01*
X-0000099Y0177084D01*
X-0000070Y0177150D01*
X-0000055Y0177210D01*
X-0000047Y0177261D01*
X-0000040Y0177306D01*
Y0177343D01*
X-0000047Y0177424D01*
X-0000070Y0177506D01*
X-0000099Y0177580D01*
X-0000136Y0177654D01*
X-0000240Y0177787D01*
X-0000358Y0177898D01*
X-0000469Y0177994D01*
X-0000573Y0178068D01*
X-0000610Y0178090D01*
X-0000639Y0178112D01*
X-0000662Y0178120D01*
X-0000669Y0178127D01*
X-0000210Y0178882D01*
X-0000025Y0178778D01*
D02*
G37*
G36*
X-0000884Y0175308D02*
X-0000743Y0175293D01*
X-0000617Y0175271D01*
X-0000491Y0175234D01*
X-0000380Y0175197D01*
X-0000277Y0175152D01*
X-0000173Y0175108D01*
X-0000084Y0175056D01*
X-0000003Y0175012D01*
X0000064Y0174967D01*
X0000130Y0174923D01*
X0000175Y0174886D01*
X0000219Y0174849D01*
X0000249Y0174827D01*
X0000263Y0174812D01*
X0000271Y0174805D01*
X0000360Y0174701D01*
X0000441Y0174597D01*
X0000508Y0174486D01*
X0000567Y0174375D01*
X0000619Y0174264D01*
X0000663Y0174153D01*
X0000700Y0174042D01*
X0000722Y0173939D01*
X0000744Y0173843D01*
X0000759Y0173754D01*
X0000774Y0173672D01*
X0000781Y0173598D01*
X0000789Y0173547D01*
Y0173465D01*
X0000781Y0173273D01*
X0000759Y0173103D01*
X0000730Y0172947D01*
X0000693Y0172814D01*
X0000663Y0172703D01*
X0000648Y0172659D01*
X0000633Y0172622D01*
X0000619Y0172592D01*
X0000611Y0172570D01*
X0000604Y0172562D01*
Y0172555D01*
X0000522Y0172414D01*
X0000434Y0172289D01*
X0000337Y0172178D01*
X0000249Y0172074D01*
X0000160Y0172000D01*
X0000093Y0171941D01*
X0000064Y0171919D01*
X0000041Y0171904D01*
X0000034Y0171889D01*
X0000027D01*
X-0000321Y0172629D01*
X-0000262Y0172696D01*
X-0000210Y0172762D01*
X-0000121Y0172910D01*
X-0000062Y0173051D01*
X-0000025Y0173184D01*
X0000004Y0173295D01*
X0000012Y0173347D01*
Y0173391D01*
X0000019Y0173421D01*
Y0173473D01*
X0000012Y0173621D01*
X-0000018Y0173746D01*
X-0000055Y0173865D01*
X-0000092Y0173961D01*
X-0000136Y0174042D01*
X-0000166Y0174094D01*
X-0000195Y0174131D01*
X-0000203Y0174146D01*
X-0000292Y0174235D01*
X-0000388Y0174301D01*
X-0000491Y0174361D01*
X-0000588Y0174405D01*
X-0000669Y0174435D01*
X-0000743Y0174449D01*
X-0000787Y0174464D01*
X-0000795D01*
X-0000802D01*
Y0171652D01*
X-0000965Y0171645D01*
X-0001120Y0171652D01*
X-0001276Y0171667D01*
X-0001416Y0171689D01*
X-0001550Y0171726D01*
X-0001668Y0171763D01*
X-0001786Y0171808D01*
X-0001890Y0171852D01*
X-0001986Y0171904D01*
X-0002068Y0171948D01*
X-0002142Y0172000D01*
X-0002208Y0172044D01*
X-0002260Y0172081D01*
X-0002304Y0172118D01*
X-0002334Y0172141D01*
X-0002349Y0172155D01*
X-0002356Y0172163D01*
X-0002452Y0172266D01*
X-0002534Y0172370D01*
X-0002600Y0172481D01*
X-0002667Y0172592D01*
X-0002719Y0172703D01*
X-0002756Y0172814D01*
X-0002793Y0172925D01*
X-0002822Y0173029D01*
X-0002845Y0173132D01*
X-0002859Y0173221D01*
X-0002874Y0173302D01*
X-0002882Y0173369D01*
X-0002889Y0173428D01*
Y0173510D01*
X-0002882Y0173650D01*
X-0002867Y0173791D01*
X-0002837Y0173917D01*
X-0002808Y0174042D01*
X-0002763Y0174153D01*
X-0002719Y0174257D01*
X-0002674Y0174361D01*
X-0002623Y0174449D01*
X-0002571Y0174531D01*
X-0002526Y0174597D01*
X-0002482Y0174664D01*
X-0002438Y0174708D01*
X-0002408Y0174753D01*
X-0002378Y0174782D01*
X-0002364Y0174797D01*
X-0002356Y0174805D01*
X-0002253Y0174893D01*
X-0002149Y0174975D01*
X-0002038Y0175041D01*
X-0001927Y0175101D01*
X-0001816Y0175152D01*
X-0001705Y0175189D01*
X-0001594Y0175226D01*
X-0001490Y0175249D01*
X-0001394Y0175271D01*
X-0001305Y0175286D01*
X-0001224Y0175300D01*
X-0001157Y0175308D01*
X-0001106Y0175315D01*
X-0001061D01*
X-0001032D01*
X-0001024D01*
X-0000884Y0175308D01*
D02*
G37*
G36*
X0000700Y0170046D02*
X-0000699D01*
X-0000795D01*
X-0000884D01*
X-0000965D01*
X-0001039Y0170039D01*
X-0001106D01*
X-0001165Y0170032D01*
X-0001261Y0170024D01*
X-0001328D01*
X-0001372Y0170017D01*
X-0001402Y0170009D01*
X-0001409D01*
X-0001520Y0169980D01*
X-0001616Y0169935D01*
X-0001698Y0169891D01*
X-0001772Y0169854D01*
X-0001823Y0169810D01*
X-0001868Y0169780D01*
X-0001890Y0169758D01*
X-0001897Y0169750D01*
X-0001957Y0169676D01*
X-0002001Y0169595D01*
X-0002038Y0169521D01*
X-0002060Y0169454D01*
X-0002075Y0169388D01*
X-0002082Y0169343D01*
Y0169299D01*
X-0002075Y0169225D01*
X-0002068Y0169158D01*
X-0002045Y0169099D01*
X-0002031Y0169047D01*
X-0002008Y0169010D01*
X-0001986Y0168981D01*
X-0001979Y0168966D01*
X-0001971Y0168959D01*
X-0001927Y0168907D01*
X-0001875Y0168870D01*
X-0001772Y0168803D01*
X-0001727Y0168788D01*
X-0001690Y0168774D01*
X-0001661Y0168759D01*
X-0001653D01*
X-0001609Y0168751D01*
X-0001557Y0168737D01*
X-0001439Y0168722D01*
X-0001305Y0168714D01*
X-0001165Y0168707D01*
X-0001032Y0168700D01*
X-0000980D01*
X-0000928D01*
X-0000884D01*
X-0000854D01*
X-0000832D01*
X-0000824D01*
X0000700D01*
Y0167819D01*
X-0001609D01*
X-0001823Y0167834D01*
X-0002008Y0167871D01*
X-0002164Y0167915D01*
X-0002290Y0167974D01*
X-0002393Y0168034D01*
X-0002460Y0168078D01*
X-0002504Y0168115D01*
X-0002519Y0168130D01*
X-0002586Y0168196D01*
X-0002645Y0168270D01*
X-0002689Y0168344D01*
X-0002734Y0168418D01*
X-0002800Y0168566D01*
X-0002845Y0168707D01*
X-0002867Y0168825D01*
X-0002882Y0168877D01*
Y0168922D01*
X-0002889Y0168959D01*
Y0169010D01*
X-0002882Y0169107D01*
X-0002874Y0169195D01*
X-0002859Y0169284D01*
X-0002837Y0169358D01*
X-0002815Y0169425D01*
X-0002800Y0169469D01*
X-0002793Y0169499D01*
X-0002785Y0169514D01*
X-0002741Y0169602D01*
X-0002689Y0169699D01*
X-0002630Y0169787D01*
X-0002578Y0169869D01*
X-0002519Y0169943D01*
X-0002482Y0169995D01*
X-0002452Y0170032D01*
X-0002438Y0170046D01*
X-0002800D01*
Y0170927D01*
X0000700D01*
Y0170046D01*
D02*
G37*
G36*
X0000300Y0167153D02*
X0000389Y0167057D01*
X0000471Y0166961D01*
X0000537Y0166864D01*
X0000596Y0166761D01*
X0000641Y0166657D01*
X0000685Y0166561D01*
X0000715Y0166465D01*
X0000737Y0166376D01*
X0000759Y0166295D01*
X0000774Y0166221D01*
X0000781Y0166154D01*
Y0166102D01*
X0000789Y0166065D01*
Y0166028D01*
X0000774Y0165821D01*
X0000744Y0165643D01*
X0000693Y0165481D01*
X0000633Y0165355D01*
X0000582Y0165251D01*
X0000530Y0165170D01*
X0000515Y0165148D01*
X0000500Y0165125D01*
X0000485Y0165118D01*
Y0165111D01*
X0000426Y0165051D01*
X0000360Y0164992D01*
X0000234Y0164911D01*
X0000101Y0164844D01*
X-0000018Y0164807D01*
X-0000129Y0164778D01*
X-0000218Y0164770D01*
X-0000247Y0164763D01*
X-0000269D01*
X-0000284D01*
X-0000292D01*
X-0000417Y0164770D01*
X-0000536Y0164792D01*
X-0000639Y0164822D01*
X-0000728Y0164859D01*
X-0000795Y0164896D01*
X-0000854Y0164926D01*
X-0000884Y0164948D01*
X-0000898Y0164955D01*
X-0000995Y0165037D01*
X-0001091Y0165148D01*
X-0001172Y0165259D01*
X-0001254Y0165377D01*
X-0001313Y0165481D01*
X-0001365Y0165569D01*
X-0001387Y0165606D01*
X-0001402Y0165629D01*
X-0001409Y0165643D01*
Y0165651D01*
X-0001572Y0165976D01*
X-0001609Y0166050D01*
X-0001638Y0166102D01*
X-0001668Y0166147D01*
X-0001690Y0166184D01*
X-0001712Y0166206D01*
X-0001727Y0166221D01*
X-0001735Y0166235D01*
X-0001779Y0166265D01*
X-0001823Y0166280D01*
X-0001853Y0166287D01*
X-0001860D01*
X-0001897Y0166280D01*
X-0001927Y0166272D01*
X-0001971Y0166243D01*
X-0002008Y0166221D01*
X-0002016Y0166206D01*
X-0002053Y0166132D01*
X-0002075Y0166058D01*
X-0002082Y0166028D01*
Y0165925D01*
X-0002068Y0165873D01*
X-0002031Y0165769D01*
X-0001979Y0165673D01*
X-0001920Y0165577D01*
X-0001860Y0165495D01*
X-0001809Y0165436D01*
X-0001772Y0165392D01*
X-0001764Y0165377D01*
X-0001757D01*
X-0002304Y0164829D01*
X-0002401Y0164911D01*
X-0002489Y0165000D01*
X-0002563Y0165088D01*
X-0002623Y0165170D01*
X-0002674Y0165236D01*
X-0002704Y0165296D01*
X-0002726Y0165333D01*
X-0002734Y0165347D01*
X-0002785Y0165458D01*
X-0002822Y0165569D01*
X-0002852Y0165680D01*
X-0002867Y0165777D01*
X-0002882Y0165858D01*
X-0002889Y0165925D01*
Y0165984D01*
X-0002874Y0166161D01*
X-0002845Y0166317D01*
X-0002793Y0166457D01*
X-0002741Y0166576D01*
X-0002689Y0166672D01*
X-0002637Y0166739D01*
X-0002608Y0166783D01*
X-0002593Y0166790D01*
Y0166798D01*
X-0002534Y0166857D01*
X-0002475Y0166901D01*
X-0002356Y0166983D01*
X-0002238Y0167035D01*
X-0002127Y0167079D01*
X-0002031Y0167101D01*
X-0001949Y0167109D01*
X-0001920Y0167116D01*
X-0001905D01*
X-0001890D01*
X-0001883D01*
X-0001764Y0167109D01*
X-0001653Y0167079D01*
X-0001542Y0167035D01*
X-0001446Y0166983D01*
X-0001350Y0166924D01*
X-0001261Y0166850D01*
X-0001180Y0166776D01*
X-0001106Y0166694D01*
X-0001039Y0166613D01*
X-0000980Y0166539D01*
X-0000928Y0166465D01*
X-0000884Y0166406D01*
X-0000854Y0166346D01*
X-0000832Y0166309D01*
X-0000817Y0166280D01*
X-0000810Y0166272D01*
X-0000662Y0165976D01*
X-0000625Y0165910D01*
X-0000588Y0165851D01*
X-0000551Y0165799D01*
X-0000521Y0165754D01*
X-0000454Y0165688D01*
X-0000395Y0165636D01*
X-0000343Y0165614D01*
X-0000306Y0165599D01*
X-0000277Y0165592D01*
X-0000269D01*
X-0000232Y0165599D01*
X-0000195Y0165606D01*
X-0000129Y0165643D01*
X-0000092Y0165688D01*
X-0000084Y0165695D01*
X-0000077Y0165703D01*
X-0000047Y0165747D01*
X-0000033Y0165791D01*
X-0000003Y0165880D01*
Y0165917D01*
X0000004Y0165947D01*
Y0165976D01*
X-0000003Y0166036D01*
X-0000010Y0166102D01*
X-0000025Y0166161D01*
X-0000047Y0166221D01*
X-0000070Y0166272D01*
X-0000084Y0166309D01*
X-0000092Y0166339D01*
X-0000099Y0166346D01*
X-0000195Y0166487D01*
X-0000240Y0166554D01*
X-0000292Y0166605D01*
X-0000329Y0166650D01*
X-0000366Y0166679D01*
X-0000388Y0166702D01*
X-0000395Y0166709D01*
X0000197Y0167242D01*
X0000300Y0167153D01*
D02*
G37*
G36*
X-0000906Y0164230D02*
X-0000773Y0164215D01*
X-0000639Y0164186D01*
X-0000521Y0164156D01*
X-0000403Y0164119D01*
X-0000299Y0164075D01*
X-0000195Y0164023D01*
X-0000107Y0163971D01*
X-0000025Y0163927D01*
X0000049Y0163875D01*
X0000108Y0163830D01*
X0000160Y0163793D01*
X0000204Y0163764D01*
X0000234Y0163734D01*
X0000249Y0163719D01*
X0000256Y0163712D01*
X0000352Y0163608D01*
X0000434Y0163505D01*
X0000500Y0163394D01*
X0000567Y0163283D01*
X0000619Y0163179D01*
X0000656Y0163068D01*
X0000693Y0162965D01*
X0000722Y0162868D01*
X0000744Y0162772D01*
X0000759Y0162691D01*
X0000774Y0162617D01*
X0000781Y0162550D01*
Y0162498D01*
X0000789Y0162454D01*
Y0162424D01*
X0000781Y0162239D01*
X0000752Y0162062D01*
X0000715Y0161906D01*
X0000670Y0161766D01*
X0000626Y0161655D01*
X0000604Y0161603D01*
X0000589Y0161566D01*
X0000574Y0161536D01*
X0000559Y0161514D01*
X0000552Y0161499D01*
Y0161492D01*
X0000456Y0161337D01*
X0000345Y0161203D01*
X0000234Y0161092D01*
X0000123Y0160996D01*
X0000027Y0160915D01*
X-0000047Y0160863D01*
X-0000077Y0160841D01*
X-0000099Y0160826D01*
X-0000114Y0160819D01*
X-0000121D01*
X-0000284Y0160737D01*
X-0000447Y0160671D01*
X-0000610Y0160626D01*
X-0000750Y0160597D01*
X-0000869Y0160582D01*
X-0000921Y0160574D01*
X-0000965Y0160567D01*
X-0001002D01*
X-0001024D01*
X-0001039D01*
X-0001046D01*
X-0001231Y0160574D01*
X-0001402Y0160604D01*
X-0001557Y0160648D01*
X-0001690Y0160693D01*
X-0001801Y0160737D01*
X-0001853Y0160759D01*
X-0001890Y0160782D01*
X-0001920Y0160796D01*
X-0001942Y0160811D01*
X-0001957Y0160819D01*
X-0001964D01*
X-0002119Y0160915D01*
X-0002253Y0161026D01*
X-0002364Y0161144D01*
X-0002460Y0161248D01*
X-0002541Y0161351D01*
X-0002593Y0161425D01*
X-0002615Y0161455D01*
X-0002630Y0161477D01*
X-0002637Y0161492D01*
Y0161499D01*
X-0002719Y0161662D01*
X-0002785Y0161825D01*
X-0002830Y0161980D01*
X-0002859Y0162121D01*
X-0002874Y0162247D01*
X-0002882Y0162299D01*
X-0002889Y0162343D01*
Y0162424D01*
X-0002882Y0162550D01*
X-0002867Y0162676D01*
X-0002845Y0162794D01*
X-0002815Y0162905D01*
X-0002734Y0163113D01*
X-0002697Y0163201D01*
X-0002652Y0163290D01*
X-0002600Y0163364D01*
X-0002563Y0163438D01*
X-0002519Y0163497D01*
X-0002482Y0163542D01*
X-0002452Y0163586D01*
X-0002430Y0163616D01*
X-0002415Y0163631D01*
X-0002408Y0163638D01*
X-0002304Y0163742D01*
X-0002193Y0163838D01*
X-0002082Y0163919D01*
X-0001964Y0163986D01*
X-0001853Y0164045D01*
X-0001735Y0164089D01*
X-0001624Y0164134D01*
X-0001520Y0164163D01*
X-0001424Y0164186D01*
X-0001335Y0164208D01*
X-0001254Y0164215D01*
X-0001180Y0164230D01*
X-0001128D01*
X-0001083Y0164237D01*
X-0001054D01*
X-0001046D01*
X-0000906Y0164230D01*
D02*
G37*
G36*
X0000700Y0159176D02*
X-0000713D01*
X-0000884Y0159183D01*
X-0001017D01*
X-0001135Y0159176D01*
X-0001246Y0159168D01*
X-0001350Y0159161D01*
X-0001439Y0159154D01*
X-0001520Y0159139D01*
X-0001587Y0159131D01*
X-0001653Y0159117D01*
X-0001705Y0159102D01*
X-0001749Y0159094D01*
X-0001786Y0159080D01*
X-0001816Y0159072D01*
X-0001853Y0159057D01*
X-0001868Y0159050D01*
X-0001949Y0158998D01*
X-0002016Y0158939D01*
X-0002060Y0158880D01*
X-0002090Y0158828D01*
X-0002105Y0158784D01*
X-0002119Y0158739D01*
Y0158665D01*
X-0002105Y0158628D01*
X-0002082Y0158547D01*
X-0002068Y0158510D01*
X-0002053Y0158480D01*
X-0002045Y0158465D01*
X-0002038Y0158458D01*
X-0002793Y0158184D01*
X-0002822Y0158251D01*
X-0002852Y0158317D01*
X-0002867Y0158377D01*
X-0002874Y0158428D01*
X-0002882Y0158473D01*
X-0002889Y0158510D01*
Y0158539D01*
X-0002882Y0158628D01*
X-0002867Y0158710D01*
X-0002845Y0158784D01*
X-0002822Y0158843D01*
X-0002793Y0158902D01*
X-0002771Y0158939D01*
X-0002756Y0158969D01*
X-0002748Y0158976D01*
X-0002697Y0159043D01*
X-0002630Y0159102D01*
X-0002563Y0159161D01*
X-0002504Y0159205D01*
X-0002445Y0159242D01*
X-0002401Y0159265D01*
X-0002371Y0159279D01*
X-0002356Y0159287D01*
X-0002800D01*
Y0160056D01*
X0000700D01*
Y0159176D01*
D02*
G37*
G36*
X-0000025Y0156105D02*
X0000138Y0155994D01*
X0000271Y0155890D01*
X0000382Y0155787D01*
X0000463Y0155705D01*
X0000530Y0155631D01*
X0000559Y0155587D01*
X0000574Y0155579D01*
Y0155572D01*
X0000656Y0155424D01*
X0000715Y0155276D01*
X0000759Y0155128D01*
X0000789Y0154987D01*
X0000804Y0154869D01*
X0000811Y0154817D01*
Y0154773D01*
X0000818Y0154743D01*
Y0154691D01*
X0000811Y0154573D01*
X0000804Y0154462D01*
X0000759Y0154255D01*
X0000700Y0154070D01*
X0000663Y0153996D01*
X0000626Y0153922D01*
X0000596Y0153855D01*
X0000559Y0153803D01*
X0000530Y0153752D01*
X0000500Y0153715D01*
X0000478Y0153685D01*
X0000456Y0153655D01*
X0000448Y0153648D01*
X0000441Y0153641D01*
X0000367Y0153567D01*
X0000293Y0153507D01*
X0000212Y0153448D01*
X0000130Y0153404D01*
X-0000025Y0153330D01*
X-0000181Y0153285D01*
X-0000314Y0153256D01*
X-0000366Y0153248D01*
X-0000417Y0153241D01*
X-0000454Y0153234D01*
X-0000491D01*
X-0000506D01*
X-0000514D01*
X-0000625Y0153241D01*
X-0000728Y0153248D01*
X-0000824Y0153271D01*
X-0000906Y0153293D01*
X-0000972Y0153315D01*
X-0001024Y0153330D01*
X-0001054Y0153345D01*
X-0001069Y0153352D01*
X-0001165Y0153404D01*
X-0001254Y0153456D01*
X-0001342Y0153522D01*
X-0001424Y0153589D01*
X-0001498Y0153641D01*
X-0001550Y0153692D01*
X-0001579Y0153722D01*
X-0001594Y0153737D01*
X-0001616Y0153759D01*
X-0001646Y0153796D01*
X-0001727Y0153885D01*
X-0001816Y0153981D01*
X-0001905Y0154092D01*
X-0001994Y0154196D01*
X-0002068Y0154284D01*
X-0002097Y0154314D01*
X-0002119Y0154344D01*
X-0002127Y0154358D01*
X-0002134Y0154366D01*
X-0002216Y0154462D01*
X-0002297Y0154551D01*
X-0002364Y0154632D01*
X-0002423Y0154699D01*
X-0002482Y0154758D01*
X-0002534Y0154817D01*
X-0002615Y0154899D01*
X-0002674Y0154958D01*
X-0002711Y0154995D01*
X-0002734Y0155017D01*
X-0002741Y0155024D01*
X-0002822Y0155069D01*
X-0002896Y0155091D01*
X-0002926D01*
X-0002948Y0155098D01*
X-0002963D01*
X-0002970D01*
X-0003015Y0155091D01*
X-0003052Y0155084D01*
X-0003126Y0155039D01*
X-0003170Y0155002D01*
X-0003178Y0154995D01*
X-0003185Y0154987D01*
X-0003215Y0154943D01*
X-0003244Y0154899D01*
X-0003266Y0154802D01*
X-0003274Y0154758D01*
X-0003281Y0154728D01*
Y0154699D01*
X-0003274Y0154632D01*
X-0003259Y0154566D01*
X-0003237Y0154499D01*
X-0003207Y0154432D01*
X-0003126Y0154314D01*
X-0003037Y0154210D01*
X-0002948Y0154114D01*
X-0002867Y0154048D01*
X-0002837Y0154025D01*
X-0002815Y0154003D01*
X-0002800Y0153996D01*
X-0002793Y0153988D01*
X-0003385Y0153315D01*
X-0003533Y0153456D01*
X-0003666Y0153581D01*
X-0003770Y0153700D01*
X-0003851Y0153811D01*
X-0003910Y0153892D01*
X-0003955Y0153959D01*
X-0003977Y0154003D01*
X-0003984Y0154011D01*
Y0154018D01*
X-0004043Y0154136D01*
X-0004080Y0154255D01*
X-0004110Y0154373D01*
X-0004132Y0154477D01*
X-0004147Y0154566D01*
X-0004154Y0154632D01*
Y0154691D01*
X-0004147Y0154795D01*
X-0004140Y0154891D01*
X-0004103Y0155069D01*
X-0004043Y0155224D01*
X-0003977Y0155357D01*
X-0003910Y0155468D01*
X-0003881Y0155513D01*
X-0003858Y0155550D01*
X-0003829Y0155579D01*
X-0003814Y0155602D01*
X-0003807Y0155609D01*
X-0003799Y0155616D01*
X-0003733Y0155683D01*
X-0003659Y0155735D01*
X-0003592Y0155787D01*
X-0003518Y0155831D01*
X-0003377Y0155898D01*
X-0003244Y0155942D01*
X-0003126Y0155964D01*
X-0003081Y0155972D01*
X-0003037Y0155979D01*
X-0003000Y0155986D01*
X-0002978D01*
X-0002963D01*
X-0002956D01*
X-0002830Y0155979D01*
X-0002704Y0155949D01*
X-0002586Y0155912D01*
X-0002482Y0155875D01*
X-0002393Y0155831D01*
X-0002327Y0155801D01*
X-0002282Y0155772D01*
X-0002275Y0155764D01*
X-0002267D01*
X-0002201Y0155720D01*
X-0002127Y0155661D01*
X-0002053Y0155587D01*
X-0001971Y0155513D01*
X-0001809Y0155350D01*
X-0001653Y0155180D01*
X-0001513Y0155024D01*
X-0001453Y0154950D01*
X-0001402Y0154891D01*
X-0001357Y0154839D01*
X-0001328Y0154802D01*
X-0001305Y0154773D01*
X-0001298Y0154765D01*
X-0001180Y0154625D01*
X-0001083Y0154514D01*
X-0000995Y0154425D01*
X-0000928Y0154358D01*
X-0000869Y0154307D01*
X-0000832Y0154270D01*
X-0000810Y0154255D01*
X-0000802Y0154247D01*
X-0000743Y0154203D01*
X-0000684Y0154173D01*
X-0000632Y0154151D01*
X-0000588Y0154136D01*
X-0000543Y0154129D01*
X-0000514Y0154122D01*
X-0000491D01*
X-0000484D01*
X-0000417Y0154129D01*
X-0000358Y0154144D01*
X-0000306Y0154173D01*
X-0000262Y0154203D01*
X-0000225Y0154233D01*
X-0000195Y0154262D01*
X-0000181Y0154277D01*
X-0000173Y0154284D01*
X-0000129Y0154344D01*
X-0000099Y0154410D01*
X-0000070Y0154477D01*
X-0000055Y0154536D01*
X-0000047Y0154588D01*
X-0000040Y0154632D01*
Y0154669D01*
X-0000047Y0154751D01*
X-0000070Y0154832D01*
X-0000099Y0154906D01*
X-0000136Y0154980D01*
X-0000240Y0155113D01*
X-0000358Y0155224D01*
X-0000469Y0155320D01*
X-0000573Y0155394D01*
X-0000610Y0155417D01*
X-0000639Y0155439D01*
X-0000662Y0155446D01*
X-0000669Y0155454D01*
X-0000210Y0156208D01*
X-0000025Y0156105D01*
D02*
G37*
G36*
X0000434Y0151539D02*
X0001980Y0152257D01*
Y0151347D01*
X-0002800Y0149156D01*
Y0150066D01*
X-0000617Y0151065D01*
X-0002800Y0151968D01*
Y0152871D01*
X0000434Y0151539D01*
D02*
G37*
G36*
X0000300Y0148831D02*
X0000389Y0148734D01*
X0000471Y0148638D01*
X0000537Y0148542D01*
X0000596Y0148438D01*
X0000641Y0148335D01*
X0000685Y0148239D01*
X0000715Y0148142D01*
X0000737Y0148054D01*
X0000759Y0147972D01*
X0000774Y0147898D01*
X0000781Y0147832D01*
Y0147780D01*
X0000789Y0147743D01*
Y0147706D01*
X0000774Y0147499D01*
X0000744Y0147321D01*
X0000693Y0147158D01*
X0000633Y0147032D01*
X0000582Y0146929D01*
X0000530Y0146847D01*
X0000515Y0146825D01*
X0000500Y0146803D01*
X0000485Y0146796D01*
Y0146788D01*
X0000426Y0146729D01*
X0000360Y0146670D01*
X0000234Y0146588D01*
X0000101Y0146522D01*
X-0000018Y0146485D01*
X-0000129Y0146455D01*
X-0000218Y0146448D01*
X-0000247Y0146440D01*
X-0000269D01*
X-0000284D01*
X-0000292D01*
X-0000417Y0146448D01*
X-0000536Y0146470D01*
X-0000639Y0146500D01*
X-0000728Y0146537D01*
X-0000795Y0146574D01*
X-0000854Y0146603D01*
X-0000884Y0146625D01*
X-0000898Y0146633D01*
X-0000995Y0146714D01*
X-0001091Y0146825D01*
X-0001172Y0146936D01*
X-0001254Y0147055D01*
X-0001313Y0147158D01*
X-0001365Y0147247D01*
X-0001387Y0147284D01*
X-0001402Y0147306D01*
X-0001409Y0147321D01*
Y0147328D01*
X-0001572Y0147654D01*
X-0001609Y0147728D01*
X-0001638Y0147780D01*
X-0001668Y0147824D01*
X-0001690Y0147861D01*
X-0001712Y0147883D01*
X-0001727Y0147898D01*
X-0001735Y0147913D01*
X-0001779Y0147943D01*
X-0001823Y0147957D01*
X-0001853Y0147965D01*
X-0001860D01*
X-0001897Y0147957D01*
X-0001927Y0147950D01*
X-0001971Y0147920D01*
X-0002008Y0147898D01*
X-0002016Y0147883D01*
X-0002053Y0147809D01*
X-0002075Y0147735D01*
X-0002082Y0147706D01*
Y0147602D01*
X-0002068Y0147550D01*
X-0002031Y0147447D01*
X-0001979Y0147351D01*
X-0001920Y0147254D01*
X-0001860Y0147173D01*
X-0001809Y0147114D01*
X-0001772Y0147069D01*
X-0001764Y0147055D01*
X-0001757D01*
X-0002304Y0146507D01*
X-0002401Y0146588D01*
X-0002489Y0146677D01*
X-0002563Y0146766D01*
X-0002623Y0146847D01*
X-0002674Y0146914D01*
X-0002704Y0146973D01*
X-0002726Y0147010D01*
X-0002734Y0147025D01*
X-0002785Y0147136D01*
X-0002822Y0147247D01*
X-0002852Y0147358D01*
X-0002867Y0147454D01*
X-0002882Y0147536D01*
X-0002889Y0147602D01*
Y0147661D01*
X-0002874Y0147839D01*
X-0002845Y0147994D01*
X-0002793Y0148135D01*
X-0002741Y0148253D01*
X-0002689Y0148350D01*
X-0002637Y0148416D01*
X-0002608Y0148461D01*
X-0002593Y0148468D01*
Y0148475D01*
X-0002534Y0148535D01*
X-0002475Y0148579D01*
X-0002356Y0148660D01*
X-0002238Y0148712D01*
X-0002127Y0148757D01*
X-0002031Y0148779D01*
X-0001949Y0148786D01*
X-0001920Y0148794D01*
X-0001905D01*
X-0001890D01*
X-0001883D01*
X-0001764Y0148786D01*
X-0001653Y0148757D01*
X-0001542Y0148712D01*
X-0001446Y0148660D01*
X-0001350Y0148601D01*
X-0001261Y0148527D01*
X-0001180Y0148453D01*
X-0001106Y0148372D01*
X-0001039Y0148290D01*
X-0000980Y0148216D01*
X-0000928Y0148142D01*
X-0000884Y0148083D01*
X-0000854Y0148024D01*
X-0000832Y0147987D01*
X-0000817Y0147957D01*
X-0000810Y0147950D01*
X-0000662Y0147654D01*
X-0000625Y0147587D01*
X-0000588Y0147528D01*
X-0000551Y0147476D01*
X-0000521Y0147432D01*
X-0000454Y0147365D01*
X-0000395Y0147314D01*
X-0000343Y0147291D01*
X-0000306Y0147277D01*
X-0000277Y0147269D01*
X-0000269D01*
X-0000232Y0147277D01*
X-0000195Y0147284D01*
X-0000129Y0147321D01*
X-0000092Y0147365D01*
X-0000084Y0147373D01*
X-0000077Y0147380D01*
X-0000047Y0147425D01*
X-0000033Y0147469D01*
X-0000003Y0147558D01*
Y0147595D01*
X0000004Y0147624D01*
Y0147654D01*
X-0000003Y0147713D01*
X-0000010Y0147780D01*
X-0000025Y0147839D01*
X-0000047Y0147898D01*
X-0000070Y0147950D01*
X-0000084Y0147987D01*
X-0000092Y0148017D01*
X-0000099Y0148024D01*
X-0000195Y0148165D01*
X-0000240Y0148231D01*
X-0000292Y0148283D01*
X-0000329Y0148327D01*
X-0000366Y0148357D01*
X-0000388Y0148379D01*
X-0000395Y0148387D01*
X0000197Y0148919D01*
X0000300Y0148831D01*
D02*
G37*
G36*
X-0002045Y0145641D02*
X0000700D01*
Y0144761D01*
X-0002045D01*
Y0144243D01*
X-0002800D01*
Y0144761D01*
X-0004095D01*
Y0145641D01*
X-0002800D01*
Y0146093D01*
X-0002045D01*
Y0145641D01*
D02*
G37*
G36*
X-0000884Y0143932D02*
X-0000743Y0143917D01*
X-0000617Y0143895D01*
X-0000491Y0143858D01*
X-0000380Y0143821D01*
X-0000277Y0143776D01*
X-0000173Y0143732D01*
X-0000084Y0143680D01*
X-0000003Y0143636D01*
X0000064Y0143591D01*
X0000130Y0143547D01*
X0000175Y0143510D01*
X0000219Y0143473D01*
X0000249Y0143451D01*
X0000263Y0143436D01*
X0000271Y0143429D01*
X0000360Y0143325D01*
X0000441Y0143221D01*
X0000508Y0143110D01*
X0000567Y0142999D01*
X0000619Y0142888D01*
X0000663Y0142777D01*
X0000700Y0142666D01*
X0000722Y0142563D01*
X0000744Y0142467D01*
X0000759Y0142378D01*
X0000774Y0142296D01*
X0000781Y0142222D01*
X0000789Y0142171D01*
Y0142089D01*
X0000781Y0141897D01*
X0000759Y0141727D01*
X0000730Y0141571D01*
X0000693Y0141438D01*
X0000663Y0141327D01*
X0000648Y0141283D01*
X0000633Y0141246D01*
X0000619Y0141216D01*
X0000611Y0141194D01*
X0000604Y0141186D01*
Y0141179D01*
X0000522Y0141038D01*
X0000434Y0140913D01*
X0000337Y0140802D01*
X0000249Y0140698D01*
X0000160Y0140624D01*
X0000093Y0140565D01*
X0000064Y0140543D01*
X0000041Y0140528D01*
X0000034Y0140513D01*
X0000027D01*
X-0000321Y0141253D01*
X-0000262Y0141320D01*
X-0000210Y0141386D01*
X-0000121Y0141534D01*
X-0000062Y0141675D01*
X-0000025Y0141808D01*
X0000004Y0141919D01*
X0000012Y0141971D01*
Y0142015D01*
X0000019Y0142045D01*
Y0142097D01*
X0000012Y0142245D01*
X-0000018Y0142370D01*
X-0000055Y0142489D01*
X-0000092Y0142585D01*
X-0000136Y0142666D01*
X-0000166Y0142718D01*
X-0000195Y0142755D01*
X-0000203Y0142770D01*
X-0000292Y0142859D01*
X-0000388Y0142925D01*
X-0000491Y0142985D01*
X-0000588Y0143029D01*
X-0000669Y0143059D01*
X-0000743Y0143073D01*
X-0000787Y0143088D01*
X-0000795D01*
X-0000802D01*
Y0140276D01*
X-0000965Y0140269D01*
X-0001120Y0140276D01*
X-0001276Y0140291D01*
X-0001416Y0140313D01*
X-0001550Y0140350D01*
X-0001668Y0140387D01*
X-0001786Y0140432D01*
X-0001890Y0140476D01*
X-0001986Y0140528D01*
X-0002068Y0140572D01*
X-0002142Y0140624D01*
X-0002208Y0140668D01*
X-0002260Y0140705D01*
X-0002304Y0140742D01*
X-0002334Y0140765D01*
X-0002349Y0140779D01*
X-0002356Y0140787D01*
X-0002452Y0140890D01*
X-0002534Y0140994D01*
X-0002600Y0141105D01*
X-0002667Y0141216D01*
X-0002719Y0141327D01*
X-0002756Y0141438D01*
X-0002793Y0141549D01*
X-0002822Y0141653D01*
X-0002845Y0141756D01*
X-0002859Y0141845D01*
X-0002874Y0141926D01*
X-0002882Y0141993D01*
X-0002889Y0142052D01*
Y0142134D01*
X-0002882Y0142274D01*
X-0002867Y0142415D01*
X-0002837Y0142541D01*
X-0002808Y0142666D01*
X-0002763Y0142777D01*
X-0002719Y0142881D01*
X-0002674Y0142985D01*
X-0002623Y0143073D01*
X-0002571Y0143155D01*
X-0002526Y0143221D01*
X-0002482Y0143288D01*
X-0002438Y0143332D01*
X-0002408Y0143377D01*
X-0002378Y0143406D01*
X-0002364Y0143421D01*
X-0002356Y0143429D01*
X-0002253Y0143517D01*
X-0002149Y0143599D01*
X-0002038Y0143665D01*
X-0001927Y0143725D01*
X-0001816Y0143776D01*
X-0001705Y0143813D01*
X-0001594Y0143850D01*
X-0001490Y0143873D01*
X-0001394Y0143895D01*
X-0001305Y0143910D01*
X-0001224Y0143924D01*
X-0001157Y0143932D01*
X-0001106Y0143939D01*
X-0001061D01*
X-0001032D01*
X-0001024D01*
X-0000884Y0143932D01*
D02*
G37*
G36*
X0000700Y0138685D02*
X-0000847D01*
X-0001024Y0138678D01*
X-0001172Y0138670D01*
X-0001298Y0138656D01*
X-0001402Y0138641D01*
X-0001483Y0138626D01*
X-0001535Y0138611D01*
X-0001572Y0138596D01*
X-0001579D01*
X-0001661Y0138559D01*
X-0001735Y0138515D01*
X-0001801Y0138471D01*
X-0001853Y0138426D01*
X-0001897Y0138389D01*
X-0001927Y0138360D01*
X-0001942Y0138337D01*
X-0001949Y0138330D01*
X-0001994Y0138263D01*
X-0002023Y0138189D01*
X-0002053Y0138123D01*
X-0002068Y0138064D01*
X-0002075Y0138012D01*
X-0002082Y0137967D01*
Y0137930D01*
X-0002075Y0137864D01*
X-0002068Y0137797D01*
X-0002053Y0137738D01*
X-0002031Y0137694D01*
X-0002008Y0137649D01*
X-0001994Y0137620D01*
X-0001986Y0137605D01*
X-0001979Y0137597D01*
X-0001934Y0137546D01*
X-0001883Y0137509D01*
X-0001779Y0137442D01*
X-0001735Y0137420D01*
X-0001698Y0137405D01*
X-0001668Y0137390D01*
X-0001661D01*
X-0001572Y0137368D01*
X-0001468Y0137346D01*
X-0001357Y0137331D01*
X-0001246Y0137324D01*
X-0001143Y0137316D01*
X-0001061D01*
X-0001032D01*
X-0001009D01*
X-0000995D01*
X-0000987D01*
X0000700D01*
Y0136436D01*
X-0000869D01*
X-0001046Y0136428D01*
X-0001194Y0136421D01*
X-0001320Y0136406D01*
X-0001424Y0136391D01*
X-0001498Y0136376D01*
X-0001550Y0136369D01*
X-0001587Y0136354D01*
X-0001594D01*
X-0001675Y0136317D01*
X-0001749Y0136273D01*
X-0001809Y0136228D01*
X-0001860Y0136184D01*
X-0001897Y0136147D01*
X-0001927Y0136117D01*
X-0001942Y0136095D01*
X-0001949Y0136088D01*
X-0001994Y0136014D01*
X-0002023Y0135947D01*
X-0002053Y0135873D01*
X-0002068Y0135814D01*
X-0002075Y0135755D01*
X-0002082Y0135710D01*
Y0135673D01*
X-0002075Y0135570D01*
X-0002053Y0135481D01*
X-0002016Y0135400D01*
X-0001979Y0135340D01*
X-0001934Y0135289D01*
X-0001905Y0135259D01*
X-0001875Y0135237D01*
X-0001868Y0135229D01*
X-0001823Y0135200D01*
X-0001772Y0135178D01*
X-0001653Y0135141D01*
X-0001527Y0135111D01*
X-0001394Y0135096D01*
X-0001268Y0135081D01*
X-0001209D01*
X-0001165Y0135074D01*
X-0001128D01*
X-0001098D01*
X-0001076D01*
X-0001069D01*
X0000700D01*
Y0134193D01*
X-0001350D01*
X-0001461D01*
X-0001572Y0134201D01*
X-0001668Y0134208D01*
X-0001757Y0134216D01*
X-0001838Y0134223D01*
X-0001912Y0134230D01*
X-0001979Y0134245D01*
X-0002038Y0134253D01*
X-0002142Y0134282D01*
X-0002208Y0134297D01*
X-0002245Y0134312D01*
X-0002260Y0134319D01*
X-0002364Y0134371D01*
X-0002452Y0134438D01*
X-0002526Y0134504D01*
X-0002593Y0134571D01*
X-0002645Y0134637D01*
X-0002682Y0134689D01*
X-0002704Y0134719D01*
X-0002711Y0134734D01*
X-0002771Y0134845D01*
X-0002815Y0134956D01*
X-0002845Y0135067D01*
X-0002867Y0135163D01*
X-0002882Y0135252D01*
X-0002889Y0135326D01*
Y0135385D01*
X-0002882Y0135518D01*
X-0002867Y0135644D01*
X-0002837Y0135755D01*
X-0002808Y0135851D01*
X-0002778Y0135932D01*
X-0002748Y0135999D01*
X-0002734Y0136036D01*
X-0002726Y0136051D01*
X-0002660Y0136162D01*
X-0002586Y0136258D01*
X-0002504Y0136347D01*
X-0002423Y0136421D01*
X-0002356Y0136487D01*
X-0002297Y0136532D01*
X-0002260Y0136561D01*
X-0002253Y0136569D01*
X-0002245D01*
X-0002356Y0136635D01*
X-0002452Y0136702D01*
X-0002534Y0136776D01*
X-0002608Y0136843D01*
X-0002660Y0136902D01*
X-0002697Y0136954D01*
X-0002719Y0136983D01*
X-0002726Y0136998D01*
X-0002778Y0137094D01*
X-0002822Y0137198D01*
X-0002852Y0137294D01*
X-0002867Y0137390D01*
X-0002882Y0137464D01*
X-0002889Y0137531D01*
Y0137583D01*
X-0002882Y0137701D01*
X-0002867Y0137812D01*
X-0002852Y0137916D01*
X-0002830Y0138004D01*
X-0002800Y0138086D01*
X-0002785Y0138138D01*
X-0002771Y0138175D01*
X-0002763Y0138189D01*
X-0002711Y0138286D01*
X-0002652Y0138382D01*
X-0002586Y0138463D01*
X-0002526Y0138537D01*
X-0002475Y0138604D01*
X-0002430Y0138648D01*
X-0002401Y0138678D01*
X-0002386Y0138685D01*
X-0002800D01*
Y0139566D01*
X0000700D01*
Y0138685D01*
D02*
G37*
G36*
X0000300Y0133542D02*
X0000389Y0133446D01*
X0000471Y0133350D01*
X0000537Y0133254D01*
X0000596Y0133150D01*
X0000641Y0133046D01*
X0000685Y0132950D01*
X0000715Y0132854D01*
X0000737Y0132765D01*
X0000759Y0132684D01*
X0000774Y0132610D01*
X0000781Y0132543D01*
Y0132491D01*
X0000789Y0132454D01*
Y0132417D01*
X0000774Y0132210D01*
X0000744Y0132033D01*
X0000693Y0131870D01*
X0000633Y0131744D01*
X0000582Y0131640D01*
X0000530Y0131559D01*
X0000515Y0131537D01*
X0000500Y0131515D01*
X0000485Y0131507D01*
Y0131500D01*
X0000426Y0131441D01*
X0000360Y0131381D01*
X0000234Y0131300D01*
X0000101Y0131233D01*
X-0000018Y0131196D01*
X-0000129Y0131167D01*
X-0000218Y0131159D01*
X-0000247Y0131152D01*
X-0000269D01*
X-0000284D01*
X-0000292D01*
X-0000417Y0131159D01*
X-0000536Y0131182D01*
X-0000639Y0131211D01*
X-0000728Y0131248D01*
X-0000795Y0131285D01*
X-0000854Y0131315D01*
X-0000884Y0131337D01*
X-0000898Y0131344D01*
X-0000995Y0131426D01*
X-0001091Y0131537D01*
X-0001172Y0131648D01*
X-0001254Y0131766D01*
X-0001313Y0131870D01*
X-0001365Y0131959D01*
X-0001387Y0131996D01*
X-0001402Y0132018D01*
X-0001409Y0132033D01*
Y0132040D01*
X-0001572Y0132366D01*
X-0001609Y0132440D01*
X-0001638Y0132491D01*
X-0001668Y0132536D01*
X-0001690Y0132573D01*
X-0001712Y0132595D01*
X-0001727Y0132610D01*
X-0001735Y0132625D01*
X-0001779Y0132654D01*
X-0001823Y0132669D01*
X-0001853Y0132676D01*
X-0001860D01*
X-0001897Y0132669D01*
X-0001927Y0132662D01*
X-0001971Y0132632D01*
X-0002008Y0132610D01*
X-0002016Y0132595D01*
X-0002053Y0132521D01*
X-0002075Y0132447D01*
X-0002082Y0132417D01*
Y0132314D01*
X-0002068Y0132262D01*
X-0002031Y0132158D01*
X-0001979Y0132062D01*
X-0001920Y0131966D01*
X-0001860Y0131885D01*
X-0001809Y0131825D01*
X-0001772Y0131781D01*
X-0001764Y0131766D01*
X-0001757D01*
X-0002304Y0131219D01*
X-0002401Y0131300D01*
X-0002489Y0131389D01*
X-0002563Y0131478D01*
X-0002623Y0131559D01*
X-0002674Y0131626D01*
X-0002704Y0131685D01*
X-0002726Y0131722D01*
X-0002734Y0131737D01*
X-0002785Y0131848D01*
X-0002822Y0131959D01*
X-0002852Y0132070D01*
X-0002867Y0132166D01*
X-0002882Y0132247D01*
X-0002889Y0132314D01*
Y0132373D01*
X-0002874Y0132551D01*
X-0002845Y0132706D01*
X-0002793Y0132847D01*
X-0002741Y0132965D01*
X-0002689Y0133061D01*
X-0002637Y0133128D01*
X-0002608Y0133172D01*
X-0002593Y0133180D01*
Y0133187D01*
X-0002534Y0133246D01*
X-0002475Y0133291D01*
X-0002356Y0133372D01*
X-0002238Y0133424D01*
X-0002127Y0133468D01*
X-0002031Y0133490D01*
X-0001949Y0133498D01*
X-0001920Y0133505D01*
X-0001905D01*
X-0001890D01*
X-0001883D01*
X-0001764Y0133498D01*
X-0001653Y0133468D01*
X-0001542Y0133424D01*
X-0001446Y0133372D01*
X-0001350Y0133313D01*
X-0001261Y0133239D01*
X-0001180Y0133165D01*
X-0001106Y0133083D01*
X-0001039Y0133002D01*
X-0000980Y0132928D01*
X-0000928Y0132854D01*
X-0000884Y0132795D01*
X-0000854Y0132736D01*
X-0000832Y0132699D01*
X-0000817Y0132669D01*
X-0000810Y0132662D01*
X-0000662Y0132366D01*
X-0000625Y0132299D01*
X-0000588Y0132240D01*
X-0000551Y0132188D01*
X-0000521Y0132144D01*
X-0000454Y0132077D01*
X-0000395Y0132025D01*
X-0000343Y0132003D01*
X-0000306Y0131988D01*
X-0000277Y0131981D01*
X-0000269D01*
X-0000232Y0131988D01*
X-0000195Y0131996D01*
X-0000129Y0132033D01*
X-0000092Y0132077D01*
X-0000084Y0132084D01*
X-0000077Y0132092D01*
X-0000047Y0132136D01*
X-0000033Y0132181D01*
X-0000003Y0132269D01*
Y0132306D01*
X0000004Y0132336D01*
Y0132366D01*
X-0000003Y0132425D01*
X-0000010Y0132491D01*
X-0000025Y0132551D01*
X-0000047Y0132610D01*
X-0000070Y0132662D01*
X-0000084Y0132699D01*
X-0000092Y0132728D01*
X-0000099Y0132736D01*
X-0000195Y0132876D01*
X-0000240Y0132943D01*
X-0000292Y0132995D01*
X-0000329Y0133039D01*
X-0000366Y0133069D01*
X-0000388Y0133091D01*
X-0000395Y0133098D01*
X0000197Y0133631D01*
X0000300Y0133542D01*
D02*
G37*
G36*
X0000700Y0126305D02*
X-0000158D01*
Y0127630D01*
X-0004036D01*
Y0128525D01*
X0000700D01*
Y0126305D01*
D02*
G37*
G36*
X-0000898Y0125876D02*
X-0000758Y0125861D01*
X-0000632Y0125839D01*
X-0000506Y0125802D01*
X-0000395Y0125765D01*
X-0000284Y0125728D01*
X-0000188Y0125683D01*
X-0000099Y0125632D01*
X-0000018Y0125587D01*
X0000056Y0125543D01*
X0000115Y0125506D01*
X0000167Y0125461D01*
X0000212Y0125432D01*
X0000241Y0125410D01*
X0000256Y0125395D01*
X0000263Y0125387D01*
X0000352Y0125291D01*
X0000434Y0125195D01*
X0000508Y0125091D01*
X0000567Y0124995D01*
X0000619Y0124892D01*
X0000663Y0124795D01*
X0000693Y0124699D01*
X0000722Y0124610D01*
X0000744Y0124529D01*
X0000759Y0124455D01*
X0000774Y0124381D01*
X0000781Y0124322D01*
X0000789Y0124277D01*
Y0124211D01*
X0000781Y0124100D01*
X0000774Y0123996D01*
X0000759Y0123900D01*
X0000737Y0123819D01*
X0000715Y0123745D01*
X0000700Y0123693D01*
X0000693Y0123663D01*
X0000685Y0123648D01*
X0000641Y0123552D01*
X0000582Y0123456D01*
X0000522Y0123367D01*
X0000463Y0123293D01*
X0000411Y0123227D01*
X0000367Y0123175D01*
X0000337Y0123145D01*
X0000330Y0123130D01*
X0000700D01*
Y0122250D01*
X-0002800D01*
Y0123130D01*
X-0002415D01*
X-0002497Y0123219D01*
X-0002571Y0123308D01*
X-0002630Y0123397D01*
X-0002682Y0123478D01*
X-0002719Y0123545D01*
X-0002748Y0123604D01*
X-0002763Y0123634D01*
X-0002771Y0123648D01*
X-0002808Y0123752D01*
X-0002837Y0123856D01*
X-0002859Y0123959D01*
X-0002874Y0124048D01*
X-0002882Y0124122D01*
X-0002889Y0124189D01*
Y0124240D01*
X-0002882Y0124366D01*
X-0002867Y0124485D01*
X-0002845Y0124603D01*
X-0002808Y0124714D01*
X-0002726Y0124914D01*
X-0002682Y0125003D01*
X-0002630Y0125084D01*
X-0002586Y0125158D01*
X-0002534Y0125217D01*
X-0002489Y0125276D01*
X-0002452Y0125321D01*
X-0002415Y0125358D01*
X-0002393Y0125387D01*
X-0002378Y0125402D01*
X-0002371Y0125410D01*
X-0002267Y0125491D01*
X-0002164Y0125565D01*
X-0002053Y0125632D01*
X-0001942Y0125683D01*
X-0001831Y0125728D01*
X-0001720Y0125765D01*
X-0001513Y0125824D01*
X-0001416Y0125846D01*
X-0001328Y0125861D01*
X-0001246Y0125868D01*
X-0001172Y0125876D01*
X-0001120Y0125883D01*
X-0001076D01*
X-0001046D01*
X-0001039D01*
X-0000898Y0125876D01*
D02*
G37*
G36*
X0000700Y0120481D02*
X0000330D01*
X0000419Y0120385D01*
X0000485Y0120296D01*
X0000552Y0120207D01*
X0000596Y0120133D01*
X0000633Y0120067D01*
X0000663Y0120015D01*
X0000678Y0119985D01*
X0000685Y0119971D01*
X0000722Y0119867D01*
X0000744Y0119771D01*
X0000767Y0119675D01*
X0000774Y0119586D01*
X0000781Y0119512D01*
X0000789Y0119453D01*
Y0119401D01*
X0000781Y0119275D01*
X0000767Y0119157D01*
X0000737Y0119038D01*
X0000707Y0118927D01*
X0000626Y0118727D01*
X0000574Y0118639D01*
X0000522Y0118557D01*
X0000478Y0118483D01*
X0000426Y0118417D01*
X0000382Y0118357D01*
X0000345Y0118313D01*
X0000315Y0118276D01*
X0000286Y0118246D01*
X0000271Y0118232D01*
X0000263Y0118224D01*
X0000160Y0118135D01*
X0000056Y0118061D01*
X-0000055Y0117995D01*
X-0000158Y0117936D01*
X-0000269Y0117891D01*
X-0000380Y0117847D01*
X-0000588Y0117788D01*
X-0000676Y0117773D01*
X-0000765Y0117758D01*
X-0000847Y0117743D01*
X-0000913Y0117736D01*
X-0000965Y0117728D01*
X-0001002D01*
X-0001032D01*
X-0001039D01*
X-0001187Y0117736D01*
X-0001328Y0117751D01*
X-0001461Y0117773D01*
X-0001594Y0117802D01*
X-0001712Y0117839D01*
X-0001816Y0117884D01*
X-0001920Y0117921D01*
X-0002008Y0117965D01*
X-0002090Y0118017D01*
X-0002164Y0118054D01*
X-0002223Y0118098D01*
X-0002275Y0118135D01*
X-0002319Y0118165D01*
X-0002349Y0118187D01*
X-0002364Y0118202D01*
X-0002371Y0118209D01*
X-0002460Y0118298D01*
X-0002541Y0118394D01*
X-0002608Y0118498D01*
X-0002674Y0118594D01*
X-0002719Y0118690D01*
X-0002763Y0118794D01*
X-0002800Y0118883D01*
X-0002822Y0118972D01*
X-0002845Y0119060D01*
X-0002859Y0119134D01*
X-0002874Y0119201D01*
X-0002882Y0119260D01*
X-0002889Y0119312D01*
Y0119379D01*
X-0002882Y0119490D01*
X-0002874Y0119601D01*
X-0002852Y0119704D01*
X-0002830Y0119793D01*
X-0002808Y0119867D01*
X-0002793Y0119919D01*
X-0002778Y0119956D01*
X-0002771Y0119971D01*
X-0002719Y0120074D01*
X-0002667Y0120163D01*
X-0002600Y0120252D01*
X-0002549Y0120326D01*
X-0002489Y0120392D01*
X-0002445Y0120437D01*
X-0002415Y0120474D01*
X-0002408Y0120481D01*
X-0004154D01*
Y0121362D01*
X0000700D01*
Y0120481D01*
D02*
G37*
G36*
X-0000906Y0117173D02*
X-0000773Y0117159D01*
X-0000639Y0117129D01*
X-0000521Y0117099D01*
X-0000403Y0117062D01*
X-0000299Y0117018D01*
X-0000195Y0116966D01*
X-0000107Y0116914D01*
X-0000025Y0116870D01*
X0000049Y0116818D01*
X0000108Y0116774D01*
X0000160Y0116737D01*
X0000204Y0116707D01*
X0000234Y0116678D01*
X0000249Y0116663D01*
X0000256Y0116655D01*
X0000352Y0116552D01*
X0000434Y0116448D01*
X0000500Y0116337D01*
X0000567Y0116226D01*
X0000619Y0116123D01*
X0000656Y0116012D01*
X0000693Y0115908D01*
X0000722Y0115812D01*
X0000744Y0115716D01*
X0000759Y0115634D01*
X0000774Y0115560D01*
X0000781Y0115494D01*
Y0115442D01*
X0000789Y0115397D01*
Y0115368D01*
X0000781Y0115183D01*
X0000752Y0115005D01*
X0000715Y0114850D01*
X0000670Y0114709D01*
X0000626Y0114598D01*
X0000604Y0114546D01*
X0000589Y0114509D01*
X0000574Y0114480D01*
X0000559Y0114458D01*
X0000552Y0114443D01*
Y0114435D01*
X0000456Y0114280D01*
X0000345Y0114147D01*
X0000234Y0114036D01*
X0000123Y0113940D01*
X0000027Y0113858D01*
X-0000047Y0113806D01*
X-0000077Y0113784D01*
X-0000099Y0113769D01*
X-0000114Y0113762D01*
X-0000121D01*
X-0000284Y0113681D01*
X-0000447Y0113614D01*
X-0000610Y0113570D01*
X-0000750Y0113540D01*
X-0000869Y0113525D01*
X-0000921Y0113518D01*
X-0000965Y0113510D01*
X-0001002D01*
X-0001024D01*
X-0001039D01*
X-0001046D01*
X-0001231Y0113518D01*
X-0001402Y0113547D01*
X-0001557Y0113592D01*
X-0001690Y0113636D01*
X-0001801Y0113681D01*
X-0001853Y0113703D01*
X-0001890Y0113725D01*
X-0001920Y0113740D01*
X-0001942Y0113755D01*
X-0001957Y0113762D01*
X-0001964D01*
X-0002119Y0113858D01*
X-0002253Y0113969D01*
X-0002364Y0114088D01*
X-0002460Y0114191D01*
X-0002541Y0114295D01*
X-0002593Y0114369D01*
X-0002615Y0114398D01*
X-0002630Y0114421D01*
X-0002637Y0114435D01*
Y0114443D01*
X-0002719Y0114606D01*
X-0002785Y0114768D01*
X-0002830Y0114924D01*
X-0002859Y0115064D01*
X-0002874Y0115190D01*
X-0002882Y0115242D01*
X-0002889Y0115286D01*
Y0115368D01*
X-0002882Y0115494D01*
X-0002867Y0115619D01*
X-0002845Y0115738D01*
X-0002815Y0115849D01*
X-0002734Y0116056D01*
X-0002697Y0116145D01*
X-0002652Y0116234D01*
X-0002600Y0116308D01*
X-0002563Y0116382D01*
X-0002519Y0116441D01*
X-0002482Y0116485D01*
X-0002452Y0116530D01*
X-0002430Y0116559D01*
X-0002415Y0116574D01*
X-0002408Y0116581D01*
X-0002304Y0116685D01*
X-0002193Y0116781D01*
X-0002082Y0116863D01*
X-0001964Y0116929D01*
X-0001853Y0116988D01*
X-0001735Y0117033D01*
X-0001624Y0117077D01*
X-0001520Y0117107D01*
X-0001424Y0117129D01*
X-0001335Y0117151D01*
X-0001254Y0117159D01*
X-0001180Y0117173D01*
X-0001128D01*
X-0001083Y0117181D01*
X-0001054D01*
X-0001046D01*
X-0000906Y0117173D01*
D02*
G37*
G36*
X0000700Y0112119D02*
X-0000713D01*
X-0000884Y0112127D01*
X-0001017D01*
X-0001135Y0112119D01*
X-0001246Y0112112D01*
X-0001350Y0112104D01*
X-0001439Y0112097D01*
X-0001520Y0112082D01*
X-0001587Y0112075D01*
X-0001653Y0112060D01*
X-0001705Y0112045D01*
X-0001749Y0112038D01*
X-0001786Y0112023D01*
X-0001816Y0112016D01*
X-0001853Y0112001D01*
X-0001868Y0111993D01*
X-0001949Y0111942D01*
X-0002016Y0111882D01*
X-0002060Y0111823D01*
X-0002090Y0111771D01*
X-0002105Y0111727D01*
X-0002119Y0111683D01*
Y0111609D01*
X-0002105Y0111572D01*
X-0002082Y0111490D01*
X-0002068Y0111453D01*
X-0002053Y0111424D01*
X-0002045Y0111409D01*
X-0002038Y0111401D01*
X-0002793Y0111128D01*
X-0002822Y0111194D01*
X-0002852Y0111261D01*
X-0002867Y0111320D01*
X-0002874Y0111372D01*
X-0002882Y0111416D01*
X-0002889Y0111453D01*
Y0111483D01*
X-0002882Y0111572D01*
X-0002867Y0111653D01*
X-0002845Y0111727D01*
X-0002822Y0111786D01*
X-0002793Y0111845D01*
X-0002771Y0111882D01*
X-0002756Y0111912D01*
X-0002748Y0111919D01*
X-0002697Y0111986D01*
X-0002630Y0112045D01*
X-0002563Y0112104D01*
X-0002504Y0112149D01*
X-0002445Y0112186D01*
X-0002401Y0112208D01*
X-0002371Y0112223D01*
X-0002356Y0112230D01*
X-0002800D01*
Y0113000D01*
X0000700D01*
Y0112119D01*
D02*
G37*
G36*
X-0000898Y0110846D02*
X-0000758Y0110832D01*
X-0000632Y0110809D01*
X-0000506Y0110772D01*
X-0000395Y0110735D01*
X-0000284Y0110698D01*
X-0000188Y0110654D01*
X-0000099Y0110602D01*
X-0000018Y0110558D01*
X0000056Y0110513D01*
X0000115Y0110476D01*
X0000167Y0110432D01*
X0000212Y0110402D01*
X0000241Y0110380D01*
X0000256Y0110365D01*
X0000263Y0110358D01*
X0000352Y0110262D01*
X0000434Y0110166D01*
X0000508Y0110062D01*
X0000567Y0109966D01*
X0000619Y0109862D01*
X0000663Y0109766D01*
X0000693Y0109670D01*
X0000722Y0109581D01*
X0000744Y0109500D01*
X0000759Y0109426D01*
X0000774Y0109352D01*
X0000781Y0109292D01*
X0000789Y0109248D01*
Y0109181D01*
X0000781Y0109070D01*
X0000774Y0108967D01*
X0000759Y0108871D01*
X0000737Y0108789D01*
X0000715Y0108715D01*
X0000700Y0108663D01*
X0000693Y0108634D01*
X0000685Y0108619D01*
X0000641Y0108523D01*
X0000582Y0108427D01*
X0000522Y0108338D01*
X0000463Y0108264D01*
X0000411Y0108197D01*
X0000367Y0108145D01*
X0000337Y0108116D01*
X0000330Y0108101D01*
X0000700D01*
Y0107220D01*
X-0002800D01*
Y0108101D01*
X-0002415D01*
X-0002497Y0108190D01*
X-0002571Y0108279D01*
X-0002630Y0108367D01*
X-0002682Y0108449D01*
X-0002719Y0108515D01*
X-0002748Y0108575D01*
X-0002763Y0108604D01*
X-0002771Y0108619D01*
X-0002808Y0108723D01*
X-0002837Y0108826D01*
X-0002859Y0108930D01*
X-0002874Y0109019D01*
X-0002882Y0109093D01*
X-0002889Y0109159D01*
Y0109211D01*
X-0002882Y0109337D01*
X-0002867Y0109455D01*
X-0002845Y0109574D01*
X-0002808Y0109685D01*
X-0002726Y0109884D01*
X-0002682Y0109973D01*
X-0002630Y0110055D01*
X-0002586Y0110129D01*
X-0002534Y0110188D01*
X-0002489Y0110247D01*
X-0002452Y0110291D01*
X-0002415Y0110328D01*
X-0002393Y0110358D01*
X-0002378Y0110373D01*
X-0002371Y0110380D01*
X-0002267Y0110462D01*
X-0002164Y0110536D01*
X-0002053Y0110602D01*
X-0001942Y0110654D01*
X-0001831Y0110698D01*
X-0001720Y0110735D01*
X-0001513Y0110795D01*
X-0001416Y0110817D01*
X-0001328Y0110832D01*
X-0001246Y0110839D01*
X-0001172Y0110846D01*
X-0001120Y0110854D01*
X-0001076D01*
X-0001046D01*
X-0001039D01*
X-0000898Y0110846D01*
D02*
G37*
G36*
X-0002045Y0106229D02*
X0000700D01*
Y0105348D01*
X-0002045D01*
Y0104830D01*
X-0002800D01*
Y0105348D01*
X-0004095D01*
Y0106229D01*
X-0002800D01*
Y0106680D01*
X-0002045D01*
Y0106229D01*
D02*
G37*
G36*
X-0000906Y0104519D02*
X-0000773Y0104505D01*
X-0000639Y0104475D01*
X-0000521Y0104445D01*
X-0000403Y0104408D01*
X-0000299Y0104364D01*
X-0000195Y0104312D01*
X-0000107Y0104260D01*
X-0000025Y0104216D01*
X0000049Y0104164D01*
X0000108Y0104120D01*
X0000160Y0104083D01*
X0000204Y0104053D01*
X0000234Y0104024D01*
X0000249Y0104009D01*
X0000256Y0104001D01*
X0000352Y0103898D01*
X0000434Y0103794D01*
X0000500Y0103683D01*
X0000567Y0103572D01*
X0000619Y0103469D01*
X0000656Y0103358D01*
X0000693Y0103254D01*
X0000722Y0103158D01*
X0000744Y0103062D01*
X0000759Y0102980D01*
X0000774Y0102906D01*
X0000781Y0102840D01*
Y0102788D01*
X0000789Y0102743D01*
Y0102714D01*
X0000781Y0102529D01*
X0000752Y0102351D01*
X0000715Y0102196D01*
X0000670Y0102055D01*
X0000626Y0101944D01*
X0000604Y0101892D01*
X0000589Y0101855D01*
X0000574Y0101826D01*
X0000559Y0101804D01*
X0000552Y0101789D01*
Y0101781D01*
X0000456Y0101626D01*
X0000345Y0101493D01*
X0000234Y0101382D01*
X0000123Y0101286D01*
X0000027Y0101204D01*
X-0000047Y0101152D01*
X-0000077Y0101130D01*
X-0000099Y0101115D01*
X-0000114Y0101108D01*
X-0000121D01*
X-0000284Y0101027D01*
X-0000447Y0100960D01*
X-0000610Y0100916D01*
X-0000750Y0100886D01*
X-0000869Y0100871D01*
X-0000921Y0100864D01*
X-0000965Y0100856D01*
X-0001002D01*
X-0001024D01*
X-0001039D01*
X-0001046D01*
X-0001231Y0100864D01*
X-0001402Y0100893D01*
X-0001557Y0100938D01*
X-0001690Y0100982D01*
X-0001801Y0101027D01*
X-0001853Y0101049D01*
X-0001890Y0101071D01*
X-0001920Y0101086D01*
X-0001942Y0101101D01*
X-0001957Y0101108D01*
X-0001964D01*
X-0002119Y0101204D01*
X-0002253Y0101315D01*
X-0002364Y0101434D01*
X-0002460Y0101537D01*
X-0002541Y0101641D01*
X-0002593Y0101715D01*
X-0002615Y0101744D01*
X-0002630Y0101767D01*
X-0002637Y0101781D01*
Y0101789D01*
X-0002719Y0101952D01*
X-0002785Y0102114D01*
X-0002830Y0102270D01*
X-0002859Y0102410D01*
X-0002874Y0102536D01*
X-0002882Y0102588D01*
X-0002889Y0102632D01*
Y0102714D01*
X-0002882Y0102840D01*
X-0002867Y0102965D01*
X-0002845Y0103084D01*
X-0002815Y0103195D01*
X-0002734Y0103402D01*
X-0002697Y0103491D01*
X-0002652Y0103580D01*
X-0002600Y0103654D01*
X-0002563Y0103728D01*
X-0002519Y0103787D01*
X-0002482Y0103831D01*
X-0002452Y0103876D01*
X-0002430Y0103905D01*
X-0002415Y0103920D01*
X-0002408Y0103927D01*
X-0002304Y0104031D01*
X-0002193Y0104127D01*
X-0002082Y0104209D01*
X-0001964Y0104275D01*
X-0001853Y0104334D01*
X-0001735Y0104379D01*
X-0001624Y0104423D01*
X-0001520Y0104453D01*
X-0001424Y0104475D01*
X-0001335Y0104497D01*
X-0001254Y0104505D01*
X-0001180Y0104519D01*
X-0001128D01*
X-0001083Y0104527D01*
X-0001054D01*
X-0001046D01*
X-0000906Y0104519D01*
D02*
G37*
G36*
X0000700Y0099465D02*
X-0000713D01*
X-0000884Y0099473D01*
X-0001017D01*
X-0001135Y0099465D01*
X-0001246Y0099458D01*
X-0001350Y0099450D01*
X-0001439Y0099443D01*
X-0001520Y0099428D01*
X-0001587Y0099421D01*
X-0001653Y0099406D01*
X-0001705Y0099391D01*
X-0001749Y0099384D01*
X-0001786Y0099369D01*
X-0001816Y0099362D01*
X-0001853Y0099347D01*
X-0001868Y0099339D01*
X-0001949Y0099288D01*
X-0002016Y0099228D01*
X-0002060Y0099169D01*
X-0002090Y0099117D01*
X-0002105Y0099073D01*
X-0002119Y0099029D01*
Y0098955D01*
X-0002105Y0098918D01*
X-0002082Y0098836D01*
X-0002068Y0098799D01*
X-0002053Y0098770D01*
X-0002045Y0098755D01*
X-0002038Y0098747D01*
X-0002793Y0098474D01*
X-0002822Y0098540D01*
X-0002852Y0098607D01*
X-0002867Y0098666D01*
X-0002874Y0098718D01*
X-0002882Y0098762D01*
X-0002889Y0098799D01*
Y0098829D01*
X-0002882Y0098918D01*
X-0002867Y0098999D01*
X-0002845Y0099073D01*
X-0002822Y0099132D01*
X-0002793Y0099191D01*
X-0002771Y0099228D01*
X-0002756Y0099258D01*
X-0002748Y0099265D01*
X-0002697Y0099332D01*
X-0002630Y0099391D01*
X-0002563Y0099450D01*
X-0002504Y0099495D01*
X-0002445Y0099532D01*
X-0002401Y0099554D01*
X-0002371Y0099569D01*
X-0002356Y0099576D01*
X-0002800D01*
Y0100346D01*
X0000700D01*
Y0099465D01*
D02*
G37*
G36*
X0000434Y0097097D02*
X0001980Y0097815D01*
Y0096905D01*
X-0002800Y0094714D01*
Y0095625D01*
X-0000617Y0096624D01*
X-0002800Y0097526D01*
Y0098429D01*
X0000434Y0097097D01*
D02*
G37*
G36*
X0001300Y-0126673D02*
Y-0127524D01*
X-0001756Y-0128382D01*
X0001300Y-0129248D01*
Y-0130121D01*
X-0003436Y-0131194D01*
Y-0130314D01*
X-0000409Y-0129626D01*
X-0003436Y-0128767D01*
Y-0128012D01*
X-0000409Y-0127169D01*
X-0003436Y-0126481D01*
Y-0125600D01*
X0001300Y-0126673D01*
D02*
G37*
G36*
Y-0132726D02*
X-0003436D01*
Y-0131831D01*
X0001300D01*
Y-0132726D01*
D02*
G37*
G36*
X0000575Y-0133437D02*
X0000738Y-0133548D01*
X0000871Y-0133651D01*
X0000982Y-0133755D01*
X0001063Y-0133836D01*
X0001130Y-0133910D01*
X0001159Y-0133955D01*
X0001174Y-0133962D01*
Y-0133969D01*
X0001256Y-0134117D01*
X0001315Y-0134265D01*
X0001359Y-0134413D01*
X0001389Y-0134554D01*
X0001404Y-0134672D01*
X0001411Y-0134724D01*
Y-0134769D01*
X0001418Y-0134798D01*
Y-0134850D01*
X0001411Y-0134968D01*
X0001404Y-0135079D01*
X0001359Y-0135287D01*
X0001300Y-0135472D01*
X0001263Y-0135546D01*
X0001226Y-0135620D01*
X0001196Y-0135686D01*
X0001159Y-0135738D01*
X0001130Y-0135790D01*
X0001100Y-0135827D01*
X0001078Y-0135856D01*
X0001056Y-0135886D01*
X0001048Y-0135893D01*
X0001041Y-0135901D01*
X0000967Y-0135975D01*
X0000893Y-0136034D01*
X0000812Y-0136093D01*
X0000730Y-0136138D01*
X0000575Y-0136212D01*
X0000419Y-0136256D01*
X0000286Y-0136286D01*
X0000234Y-0136293D01*
X0000183Y-0136300D01*
X0000146Y-0136308D01*
X0000109D01*
X0000094D01*
X0000086D01*
X-0000025Y-0136300D01*
X-0000128Y-0136293D01*
X-0000224Y-0136271D01*
X-0000306Y-0136249D01*
X-0000372Y-0136226D01*
X-0000424Y-0136212D01*
X-0000454Y-0136197D01*
X-0000469Y-0136189D01*
X-0000565Y-0136138D01*
X-0000654Y-0136086D01*
X-0000742Y-0136019D01*
X-0000824Y-0135953D01*
X-0000898Y-0135901D01*
X-0000950Y-0135849D01*
X-0000979Y-0135819D01*
X-0000994Y-0135805D01*
X-0001016Y-0135782D01*
X-0001046Y-0135745D01*
X-0001127Y-0135657D01*
X-0001216Y-0135560D01*
X-0001305Y-0135449D01*
X-0001394Y-0135346D01*
X-0001468Y-0135257D01*
X-0001497Y-0135227D01*
X-0001519Y-0135198D01*
X-0001527Y-0135183D01*
X-0001534Y-0135176D01*
X-0001616Y-0135079D01*
X-0001697Y-0134991D01*
X-0001764Y-0134909D01*
X-0001823Y-0134843D01*
X-0001882Y-0134783D01*
X-0001934Y-0134724D01*
X-0002015Y-0134643D01*
X-0002074Y-0134584D01*
X-0002111Y-0134547D01*
X-0002134Y-0134524D01*
X-0002141Y-0134517D01*
X-0002222Y-0134473D01*
X-0002296Y-0134450D01*
X-0002326D01*
X-0002348Y-0134443D01*
X-0002363D01*
X-0002370D01*
X-0002415Y-0134450D01*
X-0002452Y-0134458D01*
X-0002526Y-0134502D01*
X-0002570Y-0134539D01*
X-0002578Y-0134547D01*
X-0002585Y-0134554D01*
X-0002615Y-0134598D01*
X-0002644Y-0134643D01*
X-0002666Y-0134739D01*
X-0002674Y-0134783D01*
X-0002681Y-0134813D01*
Y-0134843D01*
X-0002674Y-0134909D01*
X-0002659Y-0134976D01*
X-0002637Y-0135042D01*
X-0002607Y-0135109D01*
X-0002526Y-0135227D01*
X-0002437Y-0135331D01*
X-0002348Y-0135427D01*
X-0002267Y-0135494D01*
X-0002237Y-0135516D01*
X-0002215Y-0135538D01*
X-0002200Y-0135546D01*
X-0002193Y-0135553D01*
X-0002785Y-0136226D01*
X-0002933Y-0136086D01*
X-0003066Y-0135960D01*
X-0003170Y-0135842D01*
X-0003251Y-0135731D01*
X-0003310Y-0135649D01*
X-0003355Y-0135583D01*
X-0003377Y-0135538D01*
X-0003384Y-0135531D01*
Y-0135523D01*
X-0003443Y-0135405D01*
X-0003480Y-0135287D01*
X-0003510Y-0135168D01*
X-0003532Y-0135065D01*
X-0003547Y-0134976D01*
X-0003554Y-0134909D01*
Y-0134850D01*
X-0003547Y-0134746D01*
X-0003540Y-0134650D01*
X-0003503Y-0134473D01*
X-0003443Y-0134317D01*
X-0003377Y-0134184D01*
X-0003310Y-0134073D01*
X-0003281Y-0134029D01*
X-0003258Y-0133992D01*
X-0003229Y-0133962D01*
X-0003214Y-0133940D01*
X-0003207Y-0133932D01*
X-0003199Y-0133925D01*
X-0003133Y-0133858D01*
X-0003059Y-0133807D01*
X-0002992Y-0133755D01*
X-0002918Y-0133710D01*
X-0002777Y-0133644D01*
X-0002644Y-0133599D01*
X-0002526Y-0133577D01*
X-0002481Y-0133570D01*
X-0002437Y-0133562D01*
X-0002400Y-0133555D01*
X-0002378D01*
X-0002363D01*
X-0002356D01*
X-0002230Y-0133562D01*
X-0002104Y-0133592D01*
X-0001986Y-0133629D01*
X-0001882Y-0133666D01*
X-0001793Y-0133710D01*
X-0001727Y-0133740D01*
X-0001682Y-0133770D01*
X-0001675Y-0133777D01*
X-0001667D01*
X-0001601Y-0133821D01*
X-0001527Y-0133881D01*
X-0001453Y-0133955D01*
X-0001371Y-0134029D01*
X-0001209Y-0134191D01*
X-0001053Y-0134362D01*
X-0000913Y-0134517D01*
X-0000853Y-0134591D01*
X-0000802Y-0134650D01*
X-0000757Y-0134702D01*
X-0000728Y-0134739D01*
X-0000705Y-0134769D01*
X-0000698Y-0134776D01*
X-0000580Y-0134917D01*
X-0000483Y-0135028D01*
X-0000395Y-0135116D01*
X-0000328Y-0135183D01*
X-0000269Y-0135235D01*
X-0000232Y-0135272D01*
X-0000210Y-0135287D01*
X-0000202Y-0135294D01*
X-0000143Y-0135338D01*
X-0000084Y-0135368D01*
X-0000032Y-0135390D01*
X0000012Y-0135405D01*
X0000057Y-0135412D01*
X0000086Y-0135420D01*
X0000109D01*
X0000116D01*
X0000183Y-0135412D01*
X0000242Y-0135398D01*
X0000294Y-0135368D01*
X0000338Y-0135338D01*
X0000375Y-0135309D01*
X0000405Y-0135279D01*
X0000419Y-0135264D01*
X0000427Y-0135257D01*
X0000471Y-0135198D01*
X0000501Y-0135131D01*
X0000530Y-0135065D01*
X0000545Y-0135005D01*
X0000553Y-0134954D01*
X0000560Y-0134909D01*
Y-0134872D01*
X0000553Y-0134791D01*
X0000530Y-0134709D01*
X0000501Y-0134635D01*
X0000464Y-0134561D01*
X0000360Y-0134428D01*
X0000242Y-0134317D01*
X0000131Y-0134221D01*
X0000027Y-0134147D01*
X-0000010Y-0134125D01*
X-0000039Y-0134103D01*
X-0000062Y-0134095D01*
X-0000069Y-0134088D01*
X0000390Y-0133333D01*
X0000575Y-0133437D01*
D02*
G37*
G36*
X0001300Y-0138054D02*
X-0000705D01*
Y-0138291D01*
X-0000713Y-0138395D01*
X-0000720Y-0138491D01*
Y-0138580D01*
X-0000728Y-0138661D01*
X-0000735Y-0138728D01*
X-0000742Y-0138787D01*
X-0000750Y-0138846D01*
X-0000757Y-0138890D01*
X-0000765Y-0138927D01*
Y-0138957D01*
X-0000779Y-0138994D01*
Y-0139009D01*
X-0000839Y-0139164D01*
X-0000905Y-0139305D01*
X-0000979Y-0139423D01*
X-0001053Y-0139527D01*
X-0001120Y-0139608D01*
X-0001179Y-0139667D01*
X-0001216Y-0139697D01*
X-0001231Y-0139712D01*
X-0001364Y-0139801D01*
X-0001505Y-0139867D01*
X-0001638Y-0139912D01*
X-0001771Y-0139949D01*
X-0001882Y-0139963D01*
X-0001934Y-0139971D01*
X-0001978D01*
X-0002015Y-0139978D01*
X-0002037D01*
X-0002052D01*
X-0002060D01*
X-0002222Y-0139971D01*
X-0002363Y-0139949D01*
X-0002496Y-0139912D01*
X-0002607Y-0139882D01*
X-0002696Y-0139845D01*
X-0002763Y-0139808D01*
X-0002807Y-0139786D01*
X-0002822Y-0139778D01*
X-0002933Y-0139697D01*
X-0003029Y-0139608D01*
X-0003110Y-0139519D01*
X-0003177Y-0139431D01*
X-0003229Y-0139349D01*
X-0003258Y-0139290D01*
X-0003281Y-0139246D01*
X-0003288Y-0139238D01*
Y-0139231D01*
X-0003318Y-0139164D01*
X-0003340Y-0139083D01*
X-0003377Y-0138913D01*
X-0003399Y-0138728D01*
X-0003421Y-0138543D01*
Y-0138461D01*
X-0003429Y-0138380D01*
Y-0138306D01*
X-0003436Y-0138239D01*
Y-0137159D01*
X0001300D01*
Y-0138054D01*
D02*
G37*
G36*
X0000338Y-0142376D02*
X0000530Y-0142465D01*
X0000693Y-0142553D01*
X0000826Y-0142650D01*
X0000937Y-0142738D01*
X0000982Y-0142775D01*
X0001011Y-0142812D01*
X0001041Y-0142842D01*
X0001063Y-0142864D01*
X0001071Y-0142872D01*
X0001078Y-0142879D01*
X0001137Y-0142960D01*
X0001189Y-0143049D01*
X0001278Y-0143227D01*
X0001337Y-0143404D01*
X0001374Y-0143567D01*
X0001404Y-0143708D01*
X0001411Y-0143767D01*
Y-0143819D01*
X0001418Y-0143863D01*
Y-0143922D01*
X0001411Y-0144048D01*
X0001396Y-0144167D01*
X0001374Y-0144278D01*
X0001344Y-0144389D01*
X0001270Y-0144581D01*
X0001226Y-0144670D01*
X0001182Y-0144751D01*
X0001145Y-0144818D01*
X0001100Y-0144884D01*
X0001063Y-0144936D01*
X0001026Y-0144988D01*
X0000997Y-0145025D01*
X0000974Y-0145047D01*
X0000960Y-0145062D01*
X0000952Y-0145069D01*
X0000863Y-0145151D01*
X0000767Y-0145225D01*
X0000671Y-0145291D01*
X0000567Y-0145343D01*
X0000471Y-0145388D01*
X0000375Y-0145425D01*
X0000190Y-0145484D01*
X0000109Y-0145506D01*
X0000027Y-0145521D01*
X-0000039Y-0145528D01*
X-0000099Y-0145536D01*
X-0000150Y-0145543D01*
X-0000187D01*
X-0000210D01*
X-0000217D01*
X-0000343Y-0145536D01*
X-0000461Y-0145528D01*
X-0000572Y-0145506D01*
X-0000676Y-0145476D01*
X-0000779Y-0145447D01*
X-0000868Y-0145410D01*
X-0000957Y-0145365D01*
X-0001031Y-0145328D01*
X-0001098Y-0145291D01*
X-0001164Y-0145247D01*
X-0001216Y-0145210D01*
X-0001253Y-0145180D01*
X-0001290Y-0145151D01*
X-0001312Y-0145136D01*
X-0001327Y-0145121D01*
X-0001334Y-0145114D01*
X-0001416Y-0145032D01*
X-0001482Y-0144944D01*
X-0001542Y-0144855D01*
X-0001593Y-0144766D01*
X-0001638Y-0144677D01*
X-0001667Y-0144588D01*
X-0001727Y-0144418D01*
X-0001741Y-0144344D01*
X-0001756Y-0144270D01*
X-0001764Y-0144211D01*
X-0001771Y-0144152D01*
X-0001778Y-0144107D01*
Y-0143996D01*
X-0001771Y-0143945D01*
X-0001764Y-0143908D01*
Y-0143893D01*
X-0001749Y-0143841D01*
X-0001741Y-0143789D01*
X-0001734Y-0143752D01*
X-0001727Y-0143745D01*
Y-0143737D01*
X-0002600Y-0143930D01*
Y-0145476D01*
X-0003436D01*
Y-0143256D01*
X-0000802Y-0142687D01*
X-0000639Y-0143419D01*
X-0000735Y-0143523D01*
X-0000809Y-0143612D01*
X-0000831Y-0143649D01*
X-0000846Y-0143678D01*
X-0000861Y-0143693D01*
Y-0143700D01*
X-0000905Y-0143811D01*
X-0000927Y-0143908D01*
X-0000935Y-0143945D01*
Y-0143996D01*
X-0000927Y-0144093D01*
X-0000905Y-0144181D01*
X-0000868Y-0144263D01*
X-0000831Y-0144329D01*
X-0000787Y-0144389D01*
X-0000757Y-0144426D01*
X-0000728Y-0144455D01*
X-0000720Y-0144463D01*
X-0000639Y-0144529D01*
X-0000550Y-0144581D01*
X-0000461Y-0144611D01*
X-0000380Y-0144640D01*
X-0000298Y-0144655D01*
X-0000239Y-0144662D01*
X-0000202D01*
X-0000195D01*
X-0000187D01*
X-0000069Y-0144655D01*
X0000042Y-0144633D01*
X0000138Y-0144596D01*
X0000220Y-0144559D01*
X0000279Y-0144514D01*
X0000331Y-0144485D01*
X0000360Y-0144455D01*
X0000368Y-0144448D01*
X0000434Y-0144366D01*
X0000486Y-0144285D01*
X0000523Y-0144196D01*
X0000545Y-0144122D01*
X0000560Y-0144048D01*
X0000575Y-0143996D01*
Y-0143945D01*
X0000567Y-0143863D01*
X0000560Y-0143789D01*
X0000538Y-0143723D01*
X0000516Y-0143663D01*
X0000501Y-0143612D01*
X0000479Y-0143575D01*
X0000471Y-0143552D01*
X0000464Y-0143545D01*
X0000419Y-0143486D01*
X0000360Y-0143427D01*
X0000308Y-0143375D01*
X0000249Y-0143338D01*
X0000205Y-0143308D01*
X0000160Y-0143286D01*
X0000131Y-0143271D01*
X0000123Y-0143264D01*
Y-0142317D01*
X0000338Y-0142376D01*
D02*
G37*
G36*
X0000960Y-0146283D02*
X0001034Y-0146298D01*
X0001093Y-0146320D01*
X0001145Y-0146350D01*
X0001189Y-0146379D01*
X0001219Y-0146401D01*
X0001241Y-0146416D01*
X0001248Y-0146424D01*
X0001293Y-0146483D01*
X0001330Y-0146542D01*
X0001352Y-0146601D01*
X0001374Y-0146660D01*
X0001381Y-0146705D01*
X0001389Y-0146742D01*
Y-0146779D01*
X0001381Y-0146853D01*
X0001367Y-0146919D01*
X0001344Y-0146986D01*
X0001315Y-0147038D01*
X0001293Y-0147075D01*
X0001270Y-0147104D01*
X0001256Y-0147127D01*
X0001248Y-0147134D01*
X0001189Y-0147186D01*
X0001130Y-0147223D01*
X0001071Y-0147252D01*
X0001011Y-0147267D01*
X0000960Y-0147282D01*
X0000923Y-0147289D01*
X0000893D01*
X0000886D01*
X0000812Y-0147282D01*
X0000745Y-0147267D01*
X0000678Y-0147238D01*
X0000627Y-0147215D01*
X0000590Y-0147186D01*
X0000560Y-0147156D01*
X0000538Y-0147141D01*
X0000530Y-0147134D01*
X0000479Y-0147075D01*
X0000442Y-0147016D01*
X0000419Y-0146956D01*
X0000397Y-0146905D01*
X0000390Y-0146853D01*
X0000382Y-0146816D01*
Y-0146779D01*
X0000390Y-0146705D01*
X0000405Y-0146638D01*
X0000427Y-0146579D01*
X0000456Y-0146527D01*
X0000486Y-0146483D01*
X0000508Y-0146453D01*
X0000523Y-0146431D01*
X0000530Y-0146424D01*
X0000590Y-0146372D01*
X0000649Y-0146335D01*
X0000708Y-0146313D01*
X0000760Y-0146298D01*
X0000812Y-0146283D01*
X0000849Y-0146276D01*
X0000878D01*
X0000886D01*
X0000960Y-0146283D01*
D02*
G37*
G36*
X-0002592Y-0149236D02*
X0001300D01*
Y-0150131D01*
X-0003436D01*
Y-0148777D01*
X-0002592Y-0148259D01*
Y-0149236D01*
D02*
G37*
G36*
X-0000039Y-0155437D02*
X-0000861D01*
Y-0153801D01*
X-0000039D01*
Y-0155437D01*
D02*
G37*
G36*
X0001300Y-0160595D02*
X0000442D01*
Y-0159270D01*
X-0003436D01*
Y-0158375D01*
X0001300D01*
Y-0160595D01*
D02*
G37*
G36*
Y-0162237D02*
X-0000705D01*
Y-0162319D01*
X0001300Y-0163392D01*
Y-0164376D01*
X-0000802Y-0163251D01*
X-0000868Y-0163407D01*
X-0000942Y-0163547D01*
X-0001024Y-0163666D01*
X-0001098Y-0163754D01*
X-0001172Y-0163828D01*
X-0001223Y-0163880D01*
X-0001260Y-0163917D01*
X-0001275Y-0163925D01*
X-0001401Y-0163999D01*
X-0001534Y-0164058D01*
X-0001660Y-0164095D01*
X-0001786Y-0164124D01*
X-0001897Y-0164139D01*
X-0001986Y-0164154D01*
X-0002015D01*
X-0002037D01*
X-0002052D01*
X-0002060D01*
X-0002222Y-0164147D01*
X-0002370Y-0164124D01*
X-0002496Y-0164087D01*
X-0002615Y-0164050D01*
X-0002703Y-0164013D01*
X-0002770Y-0163976D01*
X-0002814Y-0163954D01*
X-0002829Y-0163947D01*
X-0002940Y-0163865D01*
X-0003036Y-0163777D01*
X-0003118Y-0163688D01*
X-0003184Y-0163606D01*
X-0003236Y-0163532D01*
X-0003266Y-0163466D01*
X-0003288Y-0163429D01*
X-0003295Y-0163421D01*
Y-0163414D01*
X-0003318Y-0163347D01*
X-0003340Y-0163273D01*
X-0003377Y-0163096D01*
X-0003399Y-0162911D01*
X-0003421Y-0162733D01*
Y-0162644D01*
X-0003429Y-0162563D01*
Y-0162489D01*
X-0003436Y-0162422D01*
Y-0161342D01*
X0001300D01*
Y-0162237D01*
D02*
G37*
G36*
X-0000964Y-0164901D02*
X-0000839Y-0164909D01*
X-0000602Y-0164946D01*
X-0000380Y-0164998D01*
X-0000284Y-0165027D01*
X-0000195Y-0165064D01*
X-0000106Y-0165094D01*
X-0000032Y-0165123D01*
X0000035Y-0165153D01*
X0000086Y-0165175D01*
X0000131Y-0165197D01*
X0000160Y-0165212D01*
X0000183Y-0165227D01*
X0000190D01*
X0000397Y-0165360D01*
X0000582Y-0165508D01*
X0000738Y-0165664D01*
X0000863Y-0165804D01*
X0000967Y-0165937D01*
X0001011Y-0165997D01*
X0001041Y-0166041D01*
X0001063Y-0166085D01*
X0001085Y-0166115D01*
X0001093Y-0166130D01*
X0001100Y-0166137D01*
X0001159Y-0166248D01*
X0001204Y-0166359D01*
X0001285Y-0166589D01*
X0001337Y-0166811D01*
X0001381Y-0167018D01*
X0001389Y-0167107D01*
X0001404Y-0167195D01*
X0001411Y-0167269D01*
Y-0167329D01*
X0001418Y-0167380D01*
Y-0167454D01*
X0001404Y-0167706D01*
X0001374Y-0167935D01*
X0001330Y-0168135D01*
X0001300Y-0168231D01*
X0001270Y-0168313D01*
X0001248Y-0168387D01*
X0001219Y-0168453D01*
X0001196Y-0168513D01*
X0001174Y-0168564D01*
X0001159Y-0168601D01*
X0001145Y-0168631D01*
X0001130Y-0168646D01*
Y-0168653D01*
X0001011Y-0168838D01*
X0000871Y-0169001D01*
X0000730Y-0169149D01*
X0000590Y-0169267D01*
X0000471Y-0169364D01*
X0000419Y-0169401D01*
X0000368Y-0169430D01*
X0000331Y-0169460D01*
X0000301Y-0169475D01*
X0000286Y-0169489D01*
X0000279D01*
X0000175Y-0169549D01*
X0000072Y-0169600D01*
X-0000143Y-0169674D01*
X-0000343Y-0169734D01*
X-0000520Y-0169778D01*
X-0000602Y-0169785D01*
X-0000676Y-0169800D01*
X-0000742Y-0169808D01*
X-0000802D01*
X-0000846Y-0169815D01*
X-0000876D01*
X-0000898D01*
X-0000905D01*
X-0001105Y-0169808D01*
Y-0167425D01*
X-0000261D01*
Y-0168794D01*
X-0000113Y-0168712D01*
X0000012Y-0168631D01*
X0000116Y-0168542D01*
X0000205Y-0168461D01*
X0000271Y-0168387D01*
X0000316Y-0168328D01*
X0000345Y-0168291D01*
X0000353Y-0168283D01*
Y-0168276D01*
X0000419Y-0168150D01*
X0000464Y-0168017D01*
X0000501Y-0167891D01*
X0000523Y-0167765D01*
X0000538Y-0167654D01*
X0000545Y-0167573D01*
Y-0167491D01*
X0000538Y-0167358D01*
X0000523Y-0167232D01*
X0000501Y-0167114D01*
X0000471Y-0167003D01*
X0000434Y-0166892D01*
X0000397Y-0166796D01*
X0000353Y-0166700D01*
X0000308Y-0166618D01*
X0000264Y-0166544D01*
X0000220Y-0166478D01*
X0000183Y-0166418D01*
X0000146Y-0166374D01*
X0000116Y-0166337D01*
X0000094Y-0166307D01*
X0000079Y-0166293D01*
X0000072Y-0166285D01*
X-0000017Y-0166196D01*
X-0000113Y-0166122D01*
X-0000210Y-0166056D01*
X-0000313Y-0166004D01*
X-0000409Y-0165952D01*
X-0000506Y-0165915D01*
X-0000691Y-0165856D01*
X-0000772Y-0165841D01*
X-0000846Y-0165826D01*
X-0000920Y-0165812D01*
X-0000979Y-0165804D01*
X-0001024Y-0165797D01*
X-0001061D01*
X-0001083D01*
X-0001090D01*
X-0001209Y-0165804D01*
X-0001327Y-0165819D01*
X-0001438Y-0165841D01*
X-0001542Y-0165871D01*
X-0001734Y-0165945D01*
X-0001823Y-0165989D01*
X-0001897Y-0166034D01*
X-0001971Y-0166071D01*
X-0002030Y-0166115D01*
X-0002089Y-0166152D01*
X-0002134Y-0166189D01*
X-0002171Y-0166219D01*
X-0002193Y-0166241D01*
X-0002208Y-0166256D01*
X-0002215Y-0166263D01*
X-0002296Y-0166352D01*
X-0002370Y-0166448D01*
X-0002430Y-0166544D01*
X-0002481Y-0166648D01*
X-0002533Y-0166744D01*
X-0002570Y-0166840D01*
X-0002622Y-0167025D01*
X-0002644Y-0167107D01*
X-0002659Y-0167188D01*
X-0002666Y-0167255D01*
X-0002674Y-0167314D01*
X-0002681Y-0167366D01*
Y-0167432D01*
X-0002674Y-0167580D01*
X-0002652Y-0167721D01*
X-0002622Y-0167861D01*
X-0002578Y-0167995D01*
X-0002533Y-0168113D01*
X-0002481Y-0168231D01*
X-0002422Y-0168342D01*
X-0002363Y-0168439D01*
X-0002296Y-0168527D01*
X-0002245Y-0168609D01*
X-0002185Y-0168675D01*
X-0002141Y-0168735D01*
X-0002097Y-0168779D01*
X-0002067Y-0168809D01*
X-0002045Y-0168831D01*
X-0002037Y-0168838D01*
X-0002666Y-0169475D01*
X-0002829Y-0169312D01*
X-0002970Y-0169149D01*
X-0003081Y-0169001D01*
X-0003170Y-0168868D01*
X-0003236Y-0168749D01*
X-0003266Y-0168705D01*
X-0003288Y-0168661D01*
X-0003303Y-0168631D01*
X-0003318Y-0168609D01*
X-0003325Y-0168594D01*
Y-0168587D01*
X-0003399Y-0168379D01*
X-0003458Y-0168180D01*
X-0003495Y-0167987D01*
X-0003525Y-0167810D01*
X-0003532Y-0167728D01*
X-0003540Y-0167654D01*
X-0003547Y-0167595D01*
X-0003554Y-0167536D01*
Y-0167432D01*
X-0003547Y-0167218D01*
X-0003517Y-0167010D01*
X-0003480Y-0166818D01*
X-0003429Y-0166633D01*
X-0003362Y-0166463D01*
X-0003295Y-0166300D01*
X-0003214Y-0166159D01*
X-0003140Y-0166026D01*
X-0003066Y-0165908D01*
X-0002985Y-0165804D01*
X-0002918Y-0165715D01*
X-0002859Y-0165641D01*
X-0002800Y-0165582D01*
X-0002763Y-0165545D01*
X-0002733Y-0165516D01*
X-0002726Y-0165508D01*
X-0002592Y-0165397D01*
X-0002459Y-0165308D01*
X-0002319Y-0165227D01*
X-0002178Y-0165153D01*
X-0002037Y-0165094D01*
X-0001904Y-0165042D01*
X-0001771Y-0165005D01*
X-0001645Y-0164968D01*
X-0001534Y-0164946D01*
X-0001423Y-0164924D01*
X-0001327Y-0164916D01*
X-0001246Y-0164901D01*
X-0001179D01*
X-0001135Y-0164894D01*
X-0001098D01*
X-0001090D01*
X-0000964Y-0164901D01*
D02*
G37*
%LPC*%
G36*
X-0001490Y0174427D02*
X-0001601Y0174368D01*
X-0001698Y0174316D01*
X-0001772Y0174264D01*
X-0001831Y0174213D01*
X-0001875Y0174168D01*
X-0001912Y0174139D01*
X-0001927Y0174116D01*
X-0001934Y0174109D01*
X-0002001Y0174005D01*
X-0002053Y0173894D01*
X-0002090Y0173783D01*
X-0002119Y0173687D01*
X-0002134Y0173598D01*
X-0002142Y0173524D01*
Y0173465D01*
X-0002134Y0173339D01*
X-0002112Y0173228D01*
X-0002082Y0173125D01*
X-0002053Y0173043D01*
X-0002016Y0172969D01*
X-0001986Y0172918D01*
X-0001964Y0172888D01*
X-0001957Y0172873D01*
X-0001883Y0172784D01*
X-0001809Y0172710D01*
X-0001735Y0172651D01*
X-0001661Y0172599D01*
X-0001594Y0172570D01*
X-0001542Y0172540D01*
X-0001505Y0172533D01*
X-0001490Y0172525D01*
Y0174427D01*
D02*
G37*
G36*
X-0001002Y0163364D02*
X-0001024D01*
X-0001039D01*
X-0001046D01*
X-0001202Y0163349D01*
X-0001350Y0163320D01*
X-0001468Y0163283D01*
X-0001579Y0163231D01*
X-0001661Y0163179D01*
X-0001720Y0163142D01*
X-0001757Y0163113D01*
X-0001772Y0163098D01*
X-0001868Y0162987D01*
X-0001942Y0162876D01*
X-0001994Y0162765D01*
X-0002023Y0162654D01*
X-0002045Y0162558D01*
X-0002053Y0162484D01*
X-0002060Y0162454D01*
Y0162417D01*
X-0002045Y0162269D01*
X-0002016Y0162128D01*
X-0001971Y0162010D01*
X-0001920Y0161914D01*
X-0001868Y0161832D01*
X-0001823Y0161773D01*
X-0001794Y0161744D01*
X-0001779Y0161729D01*
X-0001668Y0161640D01*
X-0001550Y0161573D01*
X-0001424Y0161522D01*
X-0001305Y0161492D01*
X-0001202Y0161470D01*
X-0001120Y0161462D01*
X-0001091Y0161455D01*
X-0001069D01*
X-0001054D01*
X-0001046D01*
X-0000891Y0161470D01*
X-0000743Y0161499D01*
X-0000617Y0161544D01*
X-0000514Y0161588D01*
X-0000432Y0161640D01*
X-0000366Y0161684D01*
X-0000329Y0161714D01*
X-0000314Y0161729D01*
X-0000218Y0161840D01*
X-0000151Y0161951D01*
X-0000099Y0162069D01*
X-0000070Y0162173D01*
X-0000047Y0162269D01*
X-0000040Y0162350D01*
X-0000033Y0162380D01*
Y0162417D01*
X-0000047Y0162565D01*
X-0000077Y0162698D01*
X-0000121Y0162817D01*
X-0000173Y0162913D01*
X-0000225Y0162994D01*
X-0000269Y0163046D01*
X-0000299Y0163083D01*
X-0000314Y0163098D01*
X-0000425Y0163187D01*
X-0000551Y0163253D01*
X-0000669Y0163298D01*
X-0000787Y0163327D01*
X-0000891Y0163349D01*
X-0000972Y0163357D01*
X-0001002Y0163364D01*
D02*
G37*
G36*
X-0001490Y0143051D02*
X-0001601Y0142992D01*
X-0001698Y0142940D01*
X-0001772Y0142888D01*
X-0001831Y0142837D01*
X-0001875Y0142792D01*
X-0001912Y0142763D01*
X-0001927Y0142740D01*
X-0001934Y0142733D01*
X-0002001Y0142629D01*
X-0002053Y0142518D01*
X-0002090Y0142407D01*
X-0002119Y0142311D01*
X-0002134Y0142222D01*
X-0002142Y0142148D01*
Y0142089D01*
X-0002134Y0141963D01*
X-0002112Y0141852D01*
X-0002082Y0141749D01*
X-0002053Y0141667D01*
X-0002016Y0141593D01*
X-0001986Y0141542D01*
X-0001964Y0141512D01*
X-0001957Y0141497D01*
X-0001883Y0141408D01*
X-0001809Y0141334D01*
X-0001735Y0141275D01*
X-0001661Y0141223D01*
X-0001594Y0141194D01*
X-0001542Y0141164D01*
X-0001505Y0141157D01*
X-0001490Y0141149D01*
Y0143051D01*
D02*
G37*
G36*
X-0001009Y0125010D02*
X-0001032D01*
X-0001046D01*
X-0001054D01*
X-0001217Y0124995D01*
X-0001357Y0124966D01*
X-0001483Y0124929D01*
X-0001594Y0124877D01*
X-0001675Y0124825D01*
X-0001742Y0124788D01*
X-0001779Y0124758D01*
X-0001794Y0124744D01*
X-0001890Y0124633D01*
X-0001964Y0124522D01*
X-0002016Y0124411D01*
X-0002045Y0124300D01*
X-0002068Y0124203D01*
X-0002075Y0124129D01*
X-0002082Y0124100D01*
Y0124063D01*
X-0002068Y0123915D01*
X-0002038Y0123774D01*
X-0001994Y0123656D01*
X-0001942Y0123560D01*
X-0001883Y0123478D01*
X-0001838Y0123419D01*
X-0001809Y0123382D01*
X-0001794Y0123367D01*
X-0001683Y0123278D01*
X-0001557Y0123212D01*
X-0001439Y0123160D01*
X-0001320Y0123130D01*
X-0001217Y0123108D01*
X-0001128Y0123101D01*
X-0001098Y0123093D01*
X-0001076D01*
X-0001061D01*
X-0001054D01*
X-0000891Y0123108D01*
X-0000743Y0123138D01*
X-0000610Y0123182D01*
X-0000499Y0123227D01*
X-0000417Y0123278D01*
X-0000351Y0123323D01*
X-0000314Y0123352D01*
X-0000299Y0123367D01*
X-0000203Y0123478D01*
X-0000136Y0123589D01*
X-0000084Y0123708D01*
X-0000055Y0123819D01*
X-0000033Y0123915D01*
X-0000025Y0123989D01*
X-0000018Y0124018D01*
Y0124063D01*
X-0000033Y0124203D01*
X-0000062Y0124337D01*
X-0000107Y0124448D01*
X-0000166Y0124551D01*
X-0000218Y0124625D01*
X-0000262Y0124684D01*
X-0000292Y0124721D01*
X-0000306Y0124736D01*
X-0000425Y0124825D01*
X-0000551Y0124892D01*
X-0000676Y0124943D01*
X-0000795Y0124973D01*
X-0000898Y0124995D01*
X-0000980Y0125003D01*
X-0001009Y0125010D01*
D02*
G37*
G36*
Y0120518D02*
X-0001032D01*
X-0001046D01*
X-0001054D01*
X-0001217Y0120503D01*
X-0001365Y0120474D01*
X-0001490Y0120429D01*
X-0001594Y0120378D01*
X-0001683Y0120333D01*
X-0001742Y0120289D01*
X-0001779Y0120259D01*
X-0001794Y0120244D01*
X-0001890Y0120133D01*
X-0001964Y0120022D01*
X-0002016Y0119904D01*
X-0002045Y0119800D01*
X-0002068Y0119704D01*
X-0002075Y0119623D01*
X-0002082Y0119593D01*
Y0119556D01*
X-0002068Y0119408D01*
X-0002038Y0119275D01*
X-0001994Y0119164D01*
X-0001942Y0119060D01*
X-0001883Y0118986D01*
X-0001838Y0118927D01*
X-0001809Y0118890D01*
X-0001794Y0118875D01*
X-0001683Y0118787D01*
X-0001557Y0118720D01*
X-0001431Y0118668D01*
X-0001313Y0118639D01*
X-0001209Y0118616D01*
X-0001128Y0118609D01*
X-0001098Y0118602D01*
X-0001076D01*
X-0001061D01*
X-0001054D01*
X-0000891Y0118616D01*
X-0000750Y0118646D01*
X-0000617Y0118690D01*
X-0000514Y0118742D01*
X-0000425Y0118794D01*
X-0000358Y0118838D01*
X-0000321Y0118868D01*
X-0000306Y0118883D01*
X-0000210Y0118994D01*
X-0000136Y0119105D01*
X-0000092Y0119216D01*
X-0000055Y0119319D01*
X-0000033Y0119416D01*
X-0000025Y0119490D01*
X-0000018Y0119519D01*
Y0119556D01*
X-0000033Y0119704D01*
X-0000062Y0119837D01*
X-0000107Y0119956D01*
X-0000158Y0120052D01*
X-0000210Y0120133D01*
X-0000255Y0120193D01*
X-0000284Y0120230D01*
X-0000299Y0120244D01*
X-0000417Y0120333D01*
X-0000536Y0120400D01*
X-0000662Y0120452D01*
X-0000787Y0120481D01*
X-0000891Y0120503D01*
X-0000980Y0120511D01*
X-0001009Y0120518D01*
D02*
G37*
G36*
X-0001002Y0116308D02*
X-0001024D01*
X-0001039D01*
X-0001046D01*
X-0001202Y0116293D01*
X-0001350Y0116263D01*
X-0001468Y0116226D01*
X-0001579Y0116174D01*
X-0001661Y0116123D01*
X-0001720Y0116086D01*
X-0001757Y0116056D01*
X-0001772Y0116041D01*
X-0001868Y0115930D01*
X-0001942Y0115819D01*
X-0001994Y0115708D01*
X-0002023Y0115597D01*
X-0002045Y0115501D01*
X-0002053Y0115427D01*
X-0002060Y0115397D01*
Y0115360D01*
X-0002045Y0115212D01*
X-0002016Y0115072D01*
X-0001971Y0114953D01*
X-0001920Y0114857D01*
X-0001868Y0114776D01*
X-0001823Y0114717D01*
X-0001794Y0114687D01*
X-0001779Y0114672D01*
X-0001668Y0114583D01*
X-0001550Y0114517D01*
X-0001424Y0114465D01*
X-0001305Y0114435D01*
X-0001202Y0114413D01*
X-0001120Y0114406D01*
X-0001091Y0114398D01*
X-0001069D01*
X-0001054D01*
X-0001046D01*
X-0000891Y0114413D01*
X-0000743Y0114443D01*
X-0000617Y0114487D01*
X-0000514Y0114532D01*
X-0000432Y0114583D01*
X-0000366Y0114628D01*
X-0000329Y0114657D01*
X-0000314Y0114672D01*
X-0000218Y0114783D01*
X-0000151Y0114894D01*
X-0000099Y0115013D01*
X-0000070Y0115116D01*
X-0000047Y0115212D01*
X-0000040Y0115294D01*
X-0000033Y0115323D01*
Y0115360D01*
X-0000047Y0115508D01*
X-0000077Y0115642D01*
X-0000121Y0115760D01*
X-0000173Y0115856D01*
X-0000225Y0115938D01*
X-0000269Y0115989D01*
X-0000299Y0116026D01*
X-0000314Y0116041D01*
X-0000425Y0116130D01*
X-0000551Y0116197D01*
X-0000669Y0116241D01*
X-0000787Y0116271D01*
X-0000891Y0116293D01*
X-0000972Y0116300D01*
X-0001002Y0116308D01*
D02*
G37*
G36*
X-0001009Y0109981D02*
X-0001032D01*
X-0001046D01*
X-0001054D01*
X-0001217Y0109966D01*
X-0001357Y0109936D01*
X-0001483Y0109899D01*
X-0001594Y0109847D01*
X-0001675Y0109796D01*
X-0001742Y0109759D01*
X-0001779Y0109729D01*
X-0001794Y0109714D01*
X-0001890Y0109603D01*
X-0001964Y0109492D01*
X-0002016Y0109381D01*
X-0002045Y0109270D01*
X-0002068Y0109174D01*
X-0002075Y0109100D01*
X-0002082Y0109070D01*
Y0109033D01*
X-0002068Y0108885D01*
X-0002038Y0108745D01*
X-0001994Y0108626D01*
X-0001942Y0108530D01*
X-0001883Y0108449D01*
X-0001838Y0108390D01*
X-0001809Y0108353D01*
X-0001794Y0108338D01*
X-0001683Y0108249D01*
X-0001557Y0108182D01*
X-0001439Y0108131D01*
X-0001320Y0108101D01*
X-0001217Y0108079D01*
X-0001128Y0108071D01*
X-0001098Y0108064D01*
X-0001076D01*
X-0001061D01*
X-0001054D01*
X-0000891Y0108079D01*
X-0000743Y0108108D01*
X-0000610Y0108153D01*
X-0000499Y0108197D01*
X-0000417Y0108249D01*
X-0000351Y0108293D01*
X-0000314Y0108323D01*
X-0000299Y0108338D01*
X-0000203Y0108449D01*
X-0000136Y0108560D01*
X-0000084Y0108678D01*
X-0000055Y0108789D01*
X-0000033Y0108885D01*
X-0000025Y0108959D01*
X-0000018Y0108989D01*
Y0109033D01*
X-0000033Y0109174D01*
X-0000062Y0109307D01*
X-0000107Y0109418D01*
X-0000166Y0109522D01*
X-0000218Y0109596D01*
X-0000262Y0109655D01*
X-0000292Y0109692D01*
X-0000306Y0109707D01*
X-0000425Y0109796D01*
X-0000551Y0109862D01*
X-0000676Y0109914D01*
X-0000795Y0109944D01*
X-0000898Y0109966D01*
X-0000980Y0109973D01*
X-0001009Y0109981D01*
D02*
G37*
G36*
X-0001002Y0103654D02*
X-0001024D01*
X-0001039D01*
X-0001046D01*
X-0001202Y0103639D01*
X-0001350Y0103609D01*
X-0001468Y0103572D01*
X-0001579Y0103520D01*
X-0001661Y0103469D01*
X-0001720Y0103432D01*
X-0001757Y0103402D01*
X-0001772Y0103387D01*
X-0001868Y0103276D01*
X-0001942Y0103165D01*
X-0001994Y0103054D01*
X-0002023Y0102943D01*
X-0002045Y0102847D01*
X-0002053Y0102773D01*
X-0002060Y0102743D01*
Y0102706D01*
X-0002045Y0102558D01*
X-0002016Y0102418D01*
X-0001971Y0102299D01*
X-0001920Y0102203D01*
X-0001868Y0102122D01*
X-0001823Y0102063D01*
X-0001794Y0102033D01*
X-0001779Y0102018D01*
X-0001668Y0101929D01*
X-0001550Y0101863D01*
X-0001424Y0101811D01*
X-0001305Y0101781D01*
X-0001202Y0101759D01*
X-0001120Y0101752D01*
X-0001091Y0101744D01*
X-0001069D01*
X-0001054D01*
X-0001046D01*
X-0000891Y0101759D01*
X-0000743Y0101789D01*
X-0000617Y0101833D01*
X-0000514Y0101878D01*
X-0000432Y0101929D01*
X-0000366Y0101974D01*
X-0000329Y0102003D01*
X-0000314Y0102018D01*
X-0000218Y0102129D01*
X-0000151Y0102240D01*
X-0000099Y0102359D01*
X-0000070Y0102462D01*
X-0000047Y0102558D01*
X-0000040Y0102640D01*
X-0000033Y0102669D01*
Y0102706D01*
X-0000047Y0102854D01*
X-0000077Y0102988D01*
X-0000121Y0103106D01*
X-0000173Y0103202D01*
X-0000225Y0103284D01*
X-0000269Y0103335D01*
X-0000299Y0103372D01*
X-0000314Y0103387D01*
X-0000425Y0103476D01*
X-0000551Y0103543D01*
X-0000669Y0103587D01*
X-0000787Y0103617D01*
X-0000891Y0103639D01*
X-0000972Y0103646D01*
X-0001002Y0103654D01*
D02*
G37*
G36*
X-0001586Y-0138054D02*
X-0002555D01*
Y-0138306D01*
X-0002548Y-0138454D01*
X-0002541Y-0138572D01*
X-0002526Y-0138676D01*
X-0002511Y-0138750D01*
X-0002489Y-0138809D01*
X-0002474Y-0138853D01*
X-0002467Y-0138876D01*
X-0002459Y-0138883D01*
X-0002407Y-0138957D01*
X-0002341Y-0139009D01*
X-0002274Y-0139053D01*
X-0002215Y-0139075D01*
X-0002156Y-0139090D01*
X-0002104Y-0139105D01*
X-0002074D01*
X-0002060D01*
X-0002000D01*
X-0001956Y-0139090D01*
X-0001867Y-0139068D01*
X-0001838Y-0139053D01*
X-0001815Y-0139038D01*
X-0001801Y-0139031D01*
X-0001793Y-0139024D01*
X-0001719Y-0138957D01*
X-0001667Y-0138890D01*
X-0001653Y-0138861D01*
X-0001638Y-0138839D01*
X-0001630Y-0138824D01*
Y-0138816D01*
X-0001616Y-0138757D01*
X-0001608Y-0138683D01*
X-0001593Y-0138528D01*
X-0001586Y-0138461D01*
Y-0138054D01*
D02*
G37*
G36*
Y-0162237D02*
X-0002555D01*
Y-0162607D01*
X-0002548Y-0162711D01*
X-0002541Y-0162800D01*
X-0002533Y-0162866D01*
X-0002518Y-0162918D01*
X-0002511Y-0162948D01*
X-0002504Y-0162970D01*
Y-0162977D01*
X-0002452Y-0163074D01*
X-0002400Y-0163140D01*
X-0002356Y-0163185D01*
X-0002341Y-0163199D01*
X-0002333D01*
X-0002289Y-0163229D01*
X-0002245Y-0163244D01*
X-0002156Y-0163273D01*
X-0002119D01*
X-0002097Y-0163281D01*
X-0002074D01*
X-0002067D01*
X-0001978Y-0163273D01*
X-0001897Y-0163251D01*
X-0001838Y-0163229D01*
X-0001786Y-0163199D01*
X-0001749Y-0163162D01*
X-0001719Y-0163140D01*
X-0001704Y-0163118D01*
X-0001697Y-0163111D01*
X-0001660Y-0163037D01*
X-0001630Y-0162948D01*
X-0001616Y-0162852D01*
X-0001601Y-0162755D01*
X-0001593Y-0162667D01*
X-0001586Y-0162585D01*
Y-0162237D01*
D02*
G37*
%LPD*%
D10*
X0020819Y-0017027D02*
G03*
X0020819Y-0017027I-0000447J0000000D01*
G01*
X0018132Y0033212D02*
G03*
X0018132Y0033212I-0000100J0000000D01*
G01*
X0002431Y0004969D02*
G03*
X0002431Y0004969I-0000031J0000000D01*
G01*
X0025000Y-0026500D02*
X0031000D01*
X0025000Y-0020500D02*
X0031000D01*
D11*
X0046031Y0024307D02*
X0049575D01*
X0051150Y0025488D02*
Y0029819D01*
X0049575Y0024307D02*
X0049968D01*
X0051150Y0025488D01*
X0044850D02*
X0046031Y0024307D01*
X0044850Y0025488D02*
Y0029819D01*
X0023740Y0019213D02*
Y0020787D01*
X0055213Y0016260D02*
X0056787D01*
X0053213Y0029260D02*
X0054787D01*
X0050013Y-0027540D02*
X0051587D01*
X0041713Y0030740D02*
X0043287D01*
X0005700Y-0003599D02*
X0009637D01*
Y0003488D01*
X0005700Y-0003599D02*
Y0003488D01*
X0009637D01*
X0058957Y0011757D02*
Y0033843D01*
Y0011757D02*
X0066043D01*
Y0033843D01*
X0058957D02*
X0066043D01*
X0032225Y0022698D02*
X0035375D01*
X0032225Y0034902D02*
X0035375D01*
X0032225Y0022698D02*
Y0034902D01*
X0035375Y0022698D02*
Y0034902D01*
D12*
X0029568Y0021713D02*
G03*
X0029568Y0021713I-0000492J0000000D01*
G01*
D15*
X0056334Y0014083D02*
X0056750Y0014499D01*
X0057583D01*
X0058000Y0014083D01*
Y0012416D01*
X0057583Y0012000D01*
X0056750D01*
X0056334Y0012416D01*
Y0013250D01*
X0057167D01*
X0055501Y0012000D02*
Y0014499D01*
X0053835Y0012000D01*
Y0014499D01*
X0053002D02*
Y0012000D01*
X0051752D01*
X0051336Y0012416D01*
Y0014083D01*
X0051752Y0014499D01*
X0053002D01*
X0036001Y-0021500D02*
X0036417D01*
X0037250Y-0022333D01*
X0036417Y-0023166D01*
X0036001D01*
X0037250Y-0022333D02*
X0038500D01*
Y-0023999D02*
Y-0024832D01*
Y-0024416D01*
X0036001D01*
X0036417Y-0023999D01*
X0015400Y0031299D02*
Y0029217D01*
X0014984Y0028800D01*
X0014150D01*
X0013734Y0029217D01*
Y0031299D01*
X0011235D02*
X0012068Y0030883D01*
X0012901Y0030050D01*
Y0029217D01*
X0012484Y0028800D01*
X0011651D01*
X0011235Y0029217D01*
Y0029633D01*
X0011651Y0030050D01*
X0012901D01*
X0015501Y-0008000D02*
X0017583D01*
X0018000Y-0008416D01*
Y-0009250D01*
X0017583Y-0009666D01*
X0015501D01*
X0018000Y-0011749D02*
X0015501D01*
X0016750Y-0010499D01*
Y-0012165D01*
X0029900Y0019399D02*
Y0017733D01*
X0029567Y0017400D01*
X0028900D01*
X0028567Y0017733D01*
Y0019399D01*
X0026568Y0017400D02*
X0027901D01*
X0026568Y0018733D01*
Y0019066D01*
X0026901Y0019399D01*
X0027567D01*
X0027901Y0019066D01*
X0060333Y0034834D02*
X0060000Y0034501D01*
X0059333D01*
X0059000Y0034834D01*
Y0035167D01*
X0059333Y0035500D01*
X0060000D01*
X0060333Y0035834D01*
Y0036167D01*
X0060000Y0036500D01*
X0059333D01*
X0059000Y0036167D01*
X0060999Y0034501D02*
Y0036500D01*
X0061999D01*
X0062332Y0036167D01*
Y0035834D01*
X0061999Y0035500D01*
X0060999D01*
X0061999D01*
X0062332Y0035167D01*
Y0034834D01*
X0061999Y0034501D01*
X0060999D01*
X0062999D02*
Y0036500D01*
X0063665Y0035834D01*
X0064332Y0036500D01*
Y0034501D01*
X0064998Y0036500D02*
X0065664D01*
X0065331D01*
Y0034501D01*
X0064998Y0034834D01*
X0022300Y0015300D02*
Y0017799D01*
X0021050D01*
X0020634Y0017383D01*
Y0016550D01*
X0021050Y0016133D01*
X0022300D01*
X0021467D02*
X0020634Y0015300D01*
X0019801Y0017799D02*
X0018135D01*
Y0017383D01*
X0019801Y0015717D01*
Y0015300D01*
X0056000Y0026500D02*
Y0028499D01*
X0055000D01*
X0054667Y0028166D01*
Y0027500D01*
X0055000Y0027166D01*
X0056000D01*
X0055334D02*
X0054667Y0026500D01*
X0053001D02*
Y0028499D01*
X0054001Y0027500D01*
X0052668D01*
X0049000Y0019499D02*
Y0017500D01*
X0047667D01*
X0045668Y0019499D02*
X0047001D01*
Y0017500D01*
X0045668D01*
X0047001Y0018500D02*
X0046334D01*
X0045001Y0019499D02*
Y0017500D01*
X0044002D01*
X0043668Y0017833D01*
Y0019166D01*
X0044002Y0019499D01*
X0045001D01*
X0043002Y0017500D02*
X0042336D01*
X0042669D01*
Y0019499D01*
X0043002Y0019166D01*
X0047783Y-0024134D02*
X0048199Y-0024550D01*
Y-0025383D01*
X0047783Y-0025800D01*
X0046117D01*
X0045700Y-0025383D01*
Y-0024550D01*
X0046117Y-0024134D01*
X0047783Y-0023301D02*
X0048199Y-0022884D01*
Y-0022051D01*
X0047783Y-0021635D01*
X0047366D01*
X0046950Y-0022051D01*
X0046533Y-0021635D01*
X0046117D01*
X0045700Y-0022051D01*
Y-0022884D01*
X0046117Y-0023301D01*
X0046533D01*
X0046950Y-0022884D01*
X0047366Y-0023301D01*
X0047783D01*
X0046950Y-0022884D02*
Y-0022051D01*
X0043333Y0021834D02*
X0043000Y0021501D01*
X0042333D01*
X0042000Y0021834D01*
Y0023167D01*
X0042333Y0023500D01*
X0043000D01*
X0043333Y0023167D01*
X0043999Y0021834D02*
X0044333Y0021501D01*
X0044999D01*
X0045332Y0021834D01*
Y0022167D01*
X0044999Y0022500D01*
X0044666D01*
X0044999D01*
X0045332Y0022833D01*
Y0023167D01*
X0044999Y0023500D01*
X0044333D01*
X0043999Y0023167D01*
X0053500Y0021000D02*
Y0022999D01*
X0052500D01*
X0052167Y0022666D01*
Y0022000D01*
X0052500Y0021666D01*
X0053500D01*
X0052834D02*
X0052167Y0021000D01*
X0050168Y0022999D02*
X0050834Y0022666D01*
X0051501Y0022000D01*
Y0021333D01*
X0051167Y0021000D01*
X0050501D01*
X0050168Y0021333D01*
Y0021666D01*
X0050501Y0022000D01*
X0051501D01*
D80*
X0019932Y0033112D02*
X0024932D01*
Y0024412D02*
Y0033112D01*
X0018032Y0024412D02*
X0024932D01*
X0018032D02*
Y0031312D01*
X0008500Y0007501D02*
X0006501D01*
X0006001Y0008000D01*
Y0009000D01*
X0006501Y0009500D01*
X0008500D01*
X0009000Y0009000D01*
Y0008000D01*
X0008000Y0008500D02*
X0009000Y0007501D01*
Y0008000D02*
X0008500Y0007501D01*
X0009000Y0006501D02*
Y0005501D01*
Y0006001D01*
X0006001D01*
X0006501Y0006501D01*
M02*
