G04*
G04 #@! TF.GenerationSoftware,Altium Limited,Altium Designer,21.1.0 (24)*
G04*
G04 Layer_Color=16711935*
%FSAX25Y25*%
%MOIN*%
G70*
G04*
G04 #@! TF.SameCoordinates,64B46316-5E79-497B-94DE-3B570569772B*
G04*
G04*
G04 #@! TF.FilePolarity,Negative*
G04*
G01*
G75*
%ADD29R,0.02962X0.02568*%
%ADD31R,0.02568X0.02962*%
%ADD37R,0.04222X0.02175*%
%ADD38R,0.04537X0.04931*%
%ADD40R,0.04537X0.04537*%
%ADD41C,0.04537*%
%ADD42R,0.04537X0.04537*%
%ADD43C,0.08474*%
%ADD71R,0.16742X0.16742*%
%ADD72R,0.01702X0.03947*%
%ADD73R,0.03947X0.01702*%
%ADD74R,0.04537X0.07687*%
%ADD75R,0.01781X0.02482*%
%ADD76R,0.04222X0.02962*%
%ADD77R,0.03947X0.02962*%
D29*
X0056000Y0018032D02*
D03*
Y0021969D02*
D03*
X0054000Y0031032D02*
D03*
Y0034969D02*
D03*
X0050800Y-0025769D02*
D03*
Y-0021832D02*
D03*
X0042500Y0028969D02*
D03*
Y0025032D02*
D03*
D31*
X0021969Y0020000D02*
D03*
X0018032D02*
D03*
D37*
X0011802Y-0002614D02*
D03*
Y0002504D02*
D03*
X0003535Y-0002614D02*
D03*
D38*
X0048000Y0034346D02*
D03*
Y0027654D02*
D03*
D40*
X0043500Y-0032500D02*
D03*
X0029000D02*
D03*
D41*
X0048500D02*
D03*
X0053500D02*
D03*
X0062500Y-0023000D02*
D03*
Y-0018000D02*
D03*
Y-0013000D02*
D03*
Y-0008000D02*
D03*
Y-0003000D02*
D03*
Y0002000D02*
D03*
Y0007000D02*
D03*
X0034000Y-0032500D02*
D03*
X0062500Y0020300D02*
D03*
Y0025300D02*
D03*
Y0030300D02*
D03*
D42*
X0062500Y-0028000D02*
D03*
X0062500Y0015300D02*
D03*
D43*
X0000100Y-0007071D02*
D03*
Y0007071D02*
D03*
D71*
X0034800Y-0002300D02*
D03*
D72*
X0023973Y-0015981D02*
D03*
X0025942D02*
D03*
X0027910D02*
D03*
X0029879D02*
D03*
X0031847D02*
D03*
X0033816D02*
D03*
X0035784D02*
D03*
X0037753D02*
D03*
X0039721D02*
D03*
X0041690D02*
D03*
X0043658D02*
D03*
X0045627D02*
D03*
Y0011381D02*
D03*
X0043658D02*
D03*
X0041690D02*
D03*
X0039721D02*
D03*
X0037753D02*
D03*
X0035784D02*
D03*
X0033816D02*
D03*
X0031847D02*
D03*
X0029879D02*
D03*
X0027910D02*
D03*
X0025942D02*
D03*
X0023973D02*
D03*
D73*
X0048481Y-0013127D02*
D03*
Y-0011158D02*
D03*
Y-0009190D02*
D03*
Y-0007221D02*
D03*
Y-0005253D02*
D03*
Y-0003284D02*
D03*
Y-0001316D02*
D03*
Y0000653D02*
D03*
Y0002621D02*
D03*
Y0004590D02*
D03*
Y0006558D02*
D03*
Y0008527D02*
D03*
X0021119D02*
D03*
Y0006558D02*
D03*
Y0004590D02*
D03*
Y0002621D02*
D03*
Y0000653D02*
D03*
Y-0001316D02*
D03*
Y-0003284D02*
D03*
Y-0005253D02*
D03*
Y-0007221D02*
D03*
Y-0009190D02*
D03*
Y-0011158D02*
D03*
Y-0013127D02*
D03*
D74*
X0023079Y-0023500D02*
D03*
X0032921D02*
D03*
D75*
X0019532Y0031312D02*
D03*
X0021500D02*
D03*
X0023469D02*
D03*
X0019532Y0026288D02*
D03*
X0021500D02*
D03*
X0023469D02*
D03*
D76*
X0003500Y0002300D02*
D03*
D77*
X0029076Y0025060D02*
D03*
Y0028800D02*
D03*
Y0032540D02*
D03*
X0038524D02*
D03*
Y0025060D02*
D03*
M02*
