M48
;Layer_Color=9474304
;FILE_FORMAT=2:4
INCH
;TYPE=PLATED
T1F00S00C0.0080
T2F00S00C0.0160
T3F00S00C0.0236
T4F00S00C0.0591
%
T01
X001600Y-003150
Y-001600
X001669Y-000261
X002470Y-000240
X002950Y-000100
X003200Y-001050
X004480Y-000920
X004490Y-000040
X004370Y000420
X004480Y000730
X004230Y001560
X004040Y001900
X003930Y002190
X003610Y002200
X003480Y002710
X003290Y001750
X002650Y001560
X002390Y002380
X001690Y002740
X001650Y003100
X002520Y003510
X004200Y003460
X005700Y003500
X005550Y002510
X005060Y001880
X004770Y002080
X005330Y000030
X005480Y-000260
X005530Y-000600
X005260Y-000790
X005800Y-001220
X005480Y-001660
X004350Y-002300
X004030
X003750Y-002050
X002900Y-002350
T02
X005800Y-001930
T03
X002900Y-003250
X003400
X004350
X004850
X005350
X006250Y-002800
Y-002300
Y-001800
Y-001300
Y-000800
Y-000300
Y000200
Y000700
X006250Y001530
Y002030
Y002530
Y003030
T04
X000010Y-000707
Y000707
M30
