M48
;Layer_Color=9474304
;FILE_FORMAT=2:4
INCH
;TYPE=PLATED
T1F00S00C0.0236
T2F00S00C0.0354
T3F00S00C0.0630
%
T01
X-000750Y004250
X-000250
X000250
X000750
T02
X-003000Y000700
X-002000
Y001700
X-001000
X000000
Y000700
X001000
Y001700
X002000
X003000
Y000700
X002000
X-001000
X-003000Y001700
T03
X-003000Y004250
X003000
M30
