G04*
G04 #@! TF.GenerationSoftware,Altium Limited,Altium Designer,21.1.0 (24)*
G04*
G04 Layer_Physical_Order=1*
G04 Layer_Color=255*
%FSAX25Y25*%
%MOIN*%
G70*
G04*
G04 #@! TF.SameCoordinates,8DE96C33-6C33-4761-8EB5-6C28EB0E3A80*
G04*
G04*
G04 #@! TF.FilePolarity,Positive*
G04*
G01*
G75*
%ADD10C,0.02000*%
%ADD20C,0.10000*%
%ADD21R,0.03937X0.03937*%
%ADD22C,0.03937*%
%ADD23C,0.05906*%
%ADD24R,0.05906X0.05906*%
%ADD25R,0.10000X0.10000*%
D10*
X0002500Y0039800D02*
Y0042400D01*
X-0000100Y0037200D02*
X0002500Y0039800D01*
X-0000100Y0017100D02*
Y0037200D01*
Y0017100D02*
X0000000Y0017000D01*
X0006753Y0012047D02*
X0024953D01*
X0005047Y0013753D02*
X0006753Y0012047D01*
X0005047Y0013753D02*
Y0035947D01*
X0007500Y0038400D02*
Y0042400D01*
X0005047Y0035947D02*
X0007500Y0038400D01*
X0009900Y0047100D02*
X0012700Y0044300D01*
Y0034300D02*
Y0044300D01*
Y0034300D02*
X0030000Y0017000D01*
X-0000300Y0047100D02*
X0009900D01*
X-0002400Y0045000D02*
X-0000300Y0047100D01*
X-0002400Y0042700D02*
Y0045000D01*
X-0029900Y0042600D02*
X-0027300Y0040000D01*
X0024953Y0012047D02*
X0030000Y0007000D01*
Y0007500D02*
X0034953Y0012453D01*
X0030000Y0007000D02*
Y0007500D01*
X0034953Y0012453D02*
Y0021953D01*
X0030000Y0042500D02*
X0035000Y0037500D01*
Y0022000D02*
Y0037500D01*
X0034953Y0021953D02*
X0035000Y0022000D01*
X-0027300Y0040000D02*
X-0010000D01*
X-0007500Y0042500D01*
X-0010000Y0017000D02*
Y0040000D01*
D20*
X0030000Y0042500D02*
D03*
D21*
X-0007500D02*
D03*
D22*
X0007500D02*
D03*
X-0002500D02*
D03*
X0002500D02*
D03*
D23*
X0000000Y0017000D02*
D03*
X-0020000D02*
D03*
X0000000Y0007000D02*
D03*
X0020000Y0017000D02*
D03*
X0010000D02*
D03*
X0030000Y0007000D02*
D03*
X0020000D02*
D03*
X0010000D02*
D03*
X-0010000Y0017000D02*
D03*
Y0007000D02*
D03*
X-0020000D02*
D03*
X-0030000Y0017000D02*
D03*
Y0007000D02*
D03*
D24*
X0030000Y0017000D02*
D03*
D25*
X-0030000Y0042500D02*
D03*
M02*
